<svg width="606" height="679" viewBox="0 0 606 679" fill="none" xmlns="http://www.w3.org/2000/svg">
<circle cx="303" cy="376" r="240" stroke="#71161B" stroke-width="4"/>
<circle cx="526" cy="366" r="80" fill="#666666"/>
<path d="M478.33 364.113H482.1C481.787 360.637 479.238 358.664 475.713 358.664C471.914 358.664 468.926 361.223 468.916 365.93C468.926 370.617 471.836 373.195 475.713 373.195C479.785 373.195 481.895 370.383 482.1 367.961L478.33 367.922C478.125 369.182 477.227 369.943 475.791 369.953C473.877 369.943 472.744 368.586 472.744 365.93C472.744 363.4 473.848 361.906 475.811 361.906C477.314 361.906 478.203 362.785 478.33 364.113ZM488.701 373.215C487.712 373.215 486.839 372.987 486.084 372.531C485.335 372.076 484.756 371.438 484.346 370.617C483.942 369.79 483.74 368.833 483.74 367.746C483.74 366.659 483.942 365.702 484.346 364.875C484.756 364.042 485.335 363.397 486.084 362.941C486.839 362.486 487.712 362.258 488.701 362.258C489.684 362.258 490.55 362.486 491.299 362.941C492.048 363.397 492.624 364.042 493.027 364.875C493.438 365.702 493.643 366.659 493.643 367.746C493.643 368.833 493.438 369.79 493.027 370.617C492.624 371.438 492.048 372.076 491.299 372.531C490.55 372.987 489.684 373.215 488.701 373.215ZM485.83 367.746C485.83 368.443 485.938 369.074 486.152 369.641C486.367 370.201 486.689 370.646 487.119 370.979C487.549 371.311 488.076 371.477 488.701 371.477C489.313 371.477 489.831 371.311 490.254 370.979C490.684 370.646 491.003 370.201 491.211 369.641C491.426 369.074 491.533 368.443 491.533 367.746C491.533 367.049 491.426 366.418 491.211 365.852C491.003 365.279 490.684 364.823 490.254 364.484C489.831 364.146 489.313 363.977 488.701 363.977C488.076 363.977 487.549 364.146 487.119 364.484C486.689 364.823 486.367 365.279 486.152 365.852C485.938 366.418 485.83 367.049 485.83 367.746ZM495.693 362.395H497.705V364.133H497.822C498.05 363.54 498.415 363.081 498.916 362.756C499.417 362.424 500.016 362.258 500.713 362.258C501.41 362.258 502.002 362.421 502.49 362.746C502.979 363.072 503.337 363.534 503.564 364.133H503.682C503.936 363.553 504.339 363.098 504.893 362.766C505.452 362.427 506.11 362.258 506.865 362.258C507.516 362.258 508.086 362.395 508.574 362.668C509.069 362.935 509.453 363.342 509.727 363.889C510.007 364.436 510.146 365.103 510.146 365.891V373H508.057V366.086C508.057 365.402 507.871 364.895 507.5 364.562C507.129 364.224 506.65 364.055 506.064 364.055C505.628 364.055 505.251 364.149 504.932 364.338C504.613 364.52 504.368 364.777 504.199 365.109C504.036 365.441 503.955 365.819 503.955 366.242V373H501.885V365.969C501.885 365.585 501.803 365.249 501.641 364.963C501.478 364.67 501.25 364.445 500.957 364.289C500.664 364.133 500.329 364.055 499.951 364.055C499.561 364.055 499.199 364.159 498.867 364.367C498.535 364.569 498.271 364.852 498.076 365.217C497.881 365.581 497.783 365.995 497.783 366.457V373H495.693V362.395ZM512.666 362.395H514.697V364.113H514.873C515.055 363.794 515.254 363.505 515.469 363.244C515.69 362.984 516.003 362.756 516.406 362.561C516.816 362.359 517.321 362.258 517.92 362.258C518.779 362.258 519.544 362.476 520.215 362.912C520.892 363.348 521.419 363.98 521.797 364.807C522.181 365.627 522.373 366.6 522.373 367.727C522.373 368.84 522.184 369.813 521.807 370.646C521.429 371.473 520.905 372.108 520.234 372.551C519.564 372.987 518.799 373.208 517.939 373.215C517.1 373.208 516.449 373.023 515.986 372.658C515.524 372.294 515.153 371.854 514.873 371.34H514.756V376.984H512.666V362.395ZM514.717 367.688C514.717 368.436 514.824 369.094 515.039 369.66C515.254 370.22 515.566 370.656 515.977 370.969C516.393 371.281 516.891 371.438 517.471 371.438C518.063 371.438 518.568 371.275 518.984 370.949C519.408 370.624 519.727 370.181 519.941 369.621C520.156 369.055 520.264 368.41 520.264 367.688C520.264 366.978 520.156 366.35 519.941 365.803C519.733 365.249 519.421 364.816 519.004 364.504C518.587 364.191 518.076 364.035 517.471 364.035C516.885 364.035 516.383 364.185 515.967 364.484C515.557 364.777 515.244 365.201 515.029 365.754C514.821 366.301 514.717 366.945 514.717 367.688ZM523.955 370.012C523.949 368.911 524.316 368.127 525.059 367.658C525.807 367.189 526.761 366.913 527.92 366.828C529.424 366.743 530.352 366.695 530.703 366.682L530.693 365.832C530.7 365.227 530.518 364.761 530.146 364.436C529.782 364.104 529.248 363.938 528.545 363.938C527.952 363.938 527.467 364.061 527.09 364.309C526.712 364.549 526.468 364.875 526.357 365.285H524.287C524.352 364.699 524.57 364.178 524.941 363.723C525.312 363.26 525.814 362.902 526.445 362.648C527.077 362.388 527.803 362.258 528.623 362.258C529.294 362.258 529.938 362.362 530.557 362.57C531.182 362.772 531.709 363.15 532.139 363.703C532.568 364.25 532.783 364.999 532.783 365.949V373H530.752V371.555H530.674C530.433 372.017 530.049 372.414 529.521 372.746C528.994 373.072 528.33 373.234 527.529 373.234C526.852 373.234 526.24 373.107 525.693 372.854C525.153 372.6 524.727 372.232 524.414 371.75C524.108 371.262 523.955 370.682 523.955 370.012ZM525.986 370.031C525.986 370.526 526.169 370.907 526.533 371.174C526.904 371.434 527.393 371.568 527.998 371.574C528.545 371.574 529.023 371.464 529.434 371.242C529.844 371.021 530.16 370.728 530.381 370.363C530.602 369.992 530.713 369.595 530.713 369.172L530.703 368.205L528.213 368.371C527.503 368.423 526.953 368.586 526.562 368.859C526.178 369.133 525.986 369.523 525.986 370.031ZM541.26 365.285C541.162 364.849 540.941 364.51 540.596 364.27C540.257 364.022 539.808 363.898 539.248 363.898C538.857 363.898 538.509 363.96 538.203 364.084C537.897 364.208 537.656 364.377 537.48 364.592C537.305 364.807 537.217 365.048 537.217 365.314C537.217 365.633 537.347 365.907 537.607 366.135C537.874 366.363 538.298 366.542 538.877 366.672L540.557 367.062C541.533 367.284 542.259 367.632 542.734 368.107C543.216 368.576 543.46 369.185 543.467 369.934C543.46 370.572 543.281 371.141 542.93 371.643C542.585 372.137 542.087 372.525 541.436 372.805C540.785 373.078 540.016 373.215 539.131 373.215C537.868 373.215 536.865 372.948 536.123 372.414C535.381 371.874 534.945 371.105 534.814 370.109H536.943C537.132 371.06 537.842 371.535 539.072 371.535C539.762 371.535 540.309 371.408 540.713 371.154C541.123 370.894 541.331 370.539 541.338 370.09C541.331 369.745 541.195 369.462 540.928 369.24C540.667 369.012 540.257 368.833 539.697 368.703L538.037 368.352C537.087 368.143 536.364 367.792 535.869 367.297C535.374 366.796 535.127 366.177 535.127 365.441C535.127 364.816 535.296 364.263 535.635 363.781C535.98 363.299 536.462 362.925 537.08 362.658C537.705 362.391 538.421 362.258 539.229 362.258C540.003 362.258 540.684 362.382 541.27 362.629C541.855 362.876 542.318 363.228 542.656 363.684C542.995 364.139 543.2 364.673 543.271 365.285H541.26ZM551.455 365.285C551.357 364.849 551.136 364.51 550.791 364.27C550.452 364.022 550.003 363.898 549.443 363.898C549.053 363.898 548.704 363.96 548.398 364.084C548.092 364.208 547.852 364.377 547.676 364.592C547.5 364.807 547.412 365.048 547.412 365.314C547.412 365.633 547.542 365.907 547.803 366.135C548.07 366.363 548.493 366.542 549.072 366.672L550.752 367.062C551.729 367.284 552.454 367.632 552.93 368.107C553.411 368.576 553.656 369.185 553.662 369.934C553.656 370.572 553.477 371.141 553.125 371.643C552.78 372.137 552.282 372.525 551.631 372.805C550.98 373.078 550.212 373.215 549.326 373.215C548.063 373.215 547.061 372.948 546.318 372.414C545.576 371.874 545.14 371.105 545.01 370.109H547.139C547.327 371.06 548.037 371.535 549.268 371.535C549.958 371.535 550.505 371.408 550.908 371.154C551.318 370.894 551.527 370.539 551.533 370.09C551.527 369.745 551.39 369.462 551.123 369.24C550.863 369.012 550.452 368.833 549.893 368.703L548.232 368.352C547.282 368.143 546.559 367.792 546.064 367.297C545.57 366.796 545.322 366.177 545.322 365.441C545.322 364.816 545.492 364.263 545.83 363.781C546.175 363.299 546.657 362.925 547.275 362.658C547.9 362.391 548.617 362.258 549.424 362.258C550.199 362.258 550.879 362.382 551.465 362.629C552.051 362.876 552.513 363.228 552.852 363.684C553.19 364.139 553.395 364.673 553.467 365.285H551.455ZM555.693 362.395H557.783V373H555.693V362.395ZM556.729 360.754C556.494 360.754 556.276 360.699 556.074 360.588C555.879 360.477 555.719 360.327 555.596 360.139C555.479 359.95 555.42 359.745 555.42 359.523C555.42 359.302 555.479 359.097 555.596 358.908C555.719 358.719 555.882 358.57 556.084 358.459C556.292 358.348 556.514 358.293 556.748 358.293C556.982 358.293 557.201 358.348 557.402 358.459C557.604 358.57 557.764 358.719 557.881 358.908C557.998 359.097 558.057 359.302 558.057 359.523C558.057 359.751 557.995 359.96 557.871 360.148C557.754 360.337 557.594 360.487 557.393 360.598C557.191 360.702 556.969 360.754 556.729 360.754ZM564.814 373.215C563.825 373.215 562.952 372.987 562.197 372.531C561.449 372.076 560.869 371.438 560.459 370.617C560.055 369.79 559.854 368.833 559.854 367.746C559.854 366.659 560.055 365.702 560.459 364.875C560.869 364.042 561.449 363.397 562.197 362.941C562.952 362.486 563.825 362.258 564.814 362.258C565.798 362.258 566.663 362.486 567.412 362.941C568.161 363.397 568.737 364.042 569.141 364.875C569.551 365.702 569.756 366.659 569.756 367.746C569.756 368.833 569.551 369.79 569.141 370.617C568.737 371.438 568.161 372.076 567.412 372.531C566.663 372.987 565.798 373.215 564.814 373.215ZM561.943 367.746C561.943 368.443 562.051 369.074 562.266 369.641C562.48 370.201 562.803 370.646 563.232 370.979C563.662 371.311 564.189 371.477 564.814 371.477C565.426 371.477 565.944 371.311 566.367 370.979C566.797 370.646 567.116 370.201 567.324 369.641C567.539 369.074 567.646 368.443 567.646 367.746C567.646 367.049 567.539 366.418 567.324 365.852C567.116 365.279 566.797 364.823 566.367 364.484C565.944 364.146 565.426 363.977 564.814 363.977C564.189 363.977 563.662 364.146 563.232 364.484C562.803 364.823 562.48 365.279 562.266 365.852C562.051 366.418 561.943 367.049 561.943 367.746ZM573.896 373H571.807V362.395H573.818V364.133H573.936C574.189 363.54 574.58 363.081 575.107 362.756C575.641 362.424 576.292 362.258 577.061 362.258C577.79 362.258 578.424 362.411 578.965 362.717C579.512 363.023 579.932 363.475 580.225 364.074C580.524 364.673 580.674 365.402 580.674 366.262V373H578.604V366.516C578.597 365.741 578.395 365.139 577.998 364.709C577.607 364.273 577.061 364.055 576.357 364.055C575.876 364.055 575.449 364.159 575.078 364.367C574.707 364.576 574.417 364.882 574.209 365.285C574.001 365.682 573.896 366.158 573.896 366.711V373Z" fill="white"/>
<circle cx="303" cy="376" r="103" fill="#71161B"/>
<path d="M231.712 352.581H237.759C239.04 352.581 240.118 352.819 240.993 353.296C241.876 353.765 242.536 354.413 242.973 355.241C243.419 356.069 243.641 357.019 243.641 358.089C243.641 359.151 243.419 360.101 242.973 360.937C242.536 361.765 241.876 362.417 240.993 362.894C240.11 363.362 239.032 363.597 237.759 363.597H234.29V369.55H231.712V352.581ZM237.501 361.394C238.696 361.401 239.583 361.104 240.161 360.503C240.747 359.901 241.04 359.097 241.04 358.089C241.04 357.073 240.747 356.272 240.161 355.687C239.583 355.093 238.696 354.792 237.501 354.784H234.29V361.394H237.501ZM251.469 369.808C250.235 369.808 249.161 369.538 248.247 368.999C247.333 368.46 246.634 367.698 246.149 366.714C245.665 365.729 245.423 364.581 245.423 363.269C245.423 361.972 245.665 360.823 246.149 359.823C246.634 358.823 247.321 358.046 248.212 357.491C249.102 356.937 250.134 356.659 251.305 356.659C252.329 356.659 253.266 356.882 254.118 357.327C254.969 357.772 255.653 358.476 256.169 359.437C256.692 360.39 256.954 361.597 256.954 363.058V363.948H247.907C247.93 364.745 248.094 365.429 248.399 365.999C248.704 366.569 249.122 367.003 249.653 367.3C250.184 367.597 250.798 367.745 251.493 367.745C252.165 367.745 252.735 367.62 253.204 367.37C253.68 367.112 254.032 366.776 254.259 366.362H256.79C256.602 367.05 256.266 367.655 255.782 368.179C255.298 368.694 254.688 369.097 253.954 369.386C253.219 369.667 252.391 369.808 251.469 369.808ZM254.493 362.073C254.493 361.433 254.36 360.858 254.094 360.351C253.837 359.835 253.466 359.437 252.981 359.155C252.505 358.866 251.954 358.722 251.329 358.722C250.68 358.722 250.102 358.874 249.594 359.179C249.094 359.476 248.7 359.882 248.411 360.397C248.122 360.913 247.958 361.472 247.919 362.073H254.493ZM258.852 365.964C258.844 364.644 259.286 363.702 260.177 363.14C261.075 362.577 262.219 362.245 263.61 362.144C265.415 362.042 266.528 361.983 266.95 361.968L266.938 360.948C266.946 360.222 266.727 359.663 266.282 359.272C265.844 358.874 265.204 358.675 264.36 358.675C263.649 358.675 263.067 358.823 262.614 359.12C262.161 359.409 261.868 359.8 261.735 360.292H259.251C259.329 359.589 259.591 358.964 260.036 358.417C260.481 357.862 261.083 357.433 261.841 357.128C262.598 356.815 263.469 356.659 264.454 356.659C265.259 356.659 266.032 356.784 266.774 357.034C267.524 357.276 268.157 357.729 268.673 358.394C269.188 359.05 269.446 359.948 269.446 361.089V369.55H267.009V367.815H266.915C266.626 368.37 266.165 368.847 265.532 369.245C264.899 369.636 264.102 369.831 263.141 369.831C262.329 369.831 261.594 369.679 260.938 369.374C260.29 369.069 259.778 368.628 259.403 368.05C259.036 367.464 258.852 366.769 258.852 365.964ZM261.29 365.987C261.29 366.581 261.509 367.038 261.946 367.358C262.391 367.671 262.977 367.831 263.704 367.839C264.36 367.839 264.934 367.706 265.427 367.44C265.919 367.175 266.298 366.823 266.563 366.386C266.829 365.94 266.962 365.464 266.962 364.956L266.95 363.796L263.962 363.995C263.11 364.058 262.45 364.253 261.981 364.581C261.52 364.909 261.29 365.378 261.29 365.987ZM277.86 369.808C276.641 369.808 275.583 369.53 274.684 368.976C273.786 368.421 273.098 367.647 272.622 366.655C272.145 365.655 271.907 364.519 271.907 363.245C271.907 361.964 272.149 360.823 272.634 359.823C273.118 358.823 273.805 358.046 274.696 357.491C275.594 356.937 276.634 356.659 277.813 356.659C278.774 356.659 279.637 356.839 280.403 357.198C281.169 357.55 281.786 358.05 282.255 358.698C282.723 359.347 283.001 360.097 283.087 360.948H280.649C280.509 360.315 280.196 359.792 279.712 359.378C279.235 358.964 278.618 358.753 277.86 358.745C277.173 358.745 276.567 358.929 276.044 359.296C275.528 359.655 275.126 360.171 274.837 360.843C274.555 361.507 274.415 362.284 274.415 363.175C274.415 364.089 274.555 364.886 274.837 365.565C275.118 366.245 275.516 366.769 276.032 367.136C276.548 367.495 277.149 367.675 277.837 367.675C278.555 367.675 279.165 367.487 279.665 367.112C280.165 366.737 280.493 366.206 280.649 365.519H283.087C282.993 366.347 282.719 367.085 282.266 367.733C281.821 368.382 281.219 368.89 280.462 369.257C279.704 369.624 278.837 369.808 277.86 369.808ZM290.938 369.808C289.704 369.808 288.63 369.538 287.716 368.999C286.802 368.46 286.102 367.698 285.618 366.714C285.134 365.729 284.891 364.581 284.891 363.269C284.891 361.972 285.134 360.823 285.618 359.823C286.102 358.823 286.79 358.046 287.68 357.491C288.571 356.937 289.602 356.659 290.774 356.659C291.798 356.659 292.735 356.882 293.587 357.327C294.438 357.772 295.122 358.476 295.637 359.437C296.161 360.39 296.423 361.597 296.423 363.058V363.948H287.376C287.399 364.745 287.563 365.429 287.868 365.999C288.173 366.569 288.591 367.003 289.122 367.3C289.653 367.597 290.266 367.745 290.962 367.745C291.634 367.745 292.204 367.62 292.673 367.37C293.149 367.112 293.501 366.776 293.727 366.362H296.259C296.071 367.05 295.735 367.655 295.251 368.179C294.766 368.694 294.157 369.097 293.423 369.386C292.688 369.667 291.86 369.808 290.938 369.808ZM293.962 362.073C293.962 361.433 293.829 360.858 293.563 360.351C293.305 359.835 292.934 359.437 292.45 359.155C291.973 358.866 291.423 358.722 290.798 358.722C290.149 358.722 289.571 358.874 289.063 359.179C288.563 359.476 288.169 359.882 287.88 360.397C287.591 360.913 287.427 361.472 287.387 362.073H293.962ZM304.766 356.823H307.274V369.55H304.766V356.823ZM306.009 354.854C305.727 354.854 305.466 354.788 305.223 354.655C304.989 354.522 304.798 354.343 304.649 354.116C304.509 353.89 304.438 353.644 304.438 353.378C304.438 353.112 304.509 352.866 304.649 352.64C304.798 352.413 304.993 352.233 305.235 352.101C305.485 351.968 305.751 351.901 306.032 351.901C306.313 351.901 306.575 351.968 306.817 352.101C307.059 352.233 307.251 352.413 307.391 352.64C307.532 352.866 307.602 353.112 307.602 353.378C307.602 353.651 307.528 353.901 307.38 354.128C307.239 354.354 307.048 354.534 306.805 354.667C306.563 354.792 306.298 354.854 306.009 354.854ZM312.829 369.55H310.321V356.823H312.735V358.909H312.876C313.18 358.198 313.649 357.647 314.282 357.257C314.923 356.858 315.704 356.659 316.626 356.659C317.501 356.659 318.262 356.843 318.911 357.21C319.567 357.577 320.071 358.12 320.423 358.839C320.782 359.558 320.962 360.433 320.962 361.464V369.55H318.477V361.769C318.469 360.839 318.227 360.116 317.751 359.601C317.282 359.077 316.626 358.815 315.782 358.815C315.204 358.815 314.692 358.94 314.247 359.19C313.802 359.44 313.454 359.808 313.204 360.292C312.954 360.769 312.829 361.339 312.829 362.003V369.55ZM341.54 357.948C341.219 356.925 340.68 356.128 339.923 355.558C339.165 354.987 338.235 354.706 337.134 354.714C336.173 354.706 335.309 354.952 334.544 355.452C333.778 355.944 333.173 356.671 332.727 357.632C332.29 358.585 332.071 359.729 332.071 361.065C332.071 362.401 332.29 363.55 332.727 364.511C333.173 365.464 333.786 366.19 334.567 366.69C335.348 367.183 336.243 367.425 337.251 367.417C338.149 367.417 338.938 367.237 339.618 366.878C340.298 366.519 340.825 366.007 341.2 365.343C341.583 364.671 341.782 363.886 341.798 362.987H337.626V360.854H344.305V362.776C344.305 364.183 344.005 365.417 343.403 366.479C342.802 367.534 341.966 368.351 340.895 368.929C339.825 369.499 338.602 369.784 337.227 369.784C335.704 369.784 334.36 369.433 333.196 368.729C332.032 368.019 331.126 367.007 330.477 365.694C329.837 364.374 329.516 362.831 329.516 361.065C329.516 359.3 329.841 357.761 330.489 356.448C331.137 355.128 332.036 354.116 333.184 353.413C334.341 352.702 335.649 352.347 337.11 352.347C338.321 352.347 339.427 352.585 340.427 353.062C341.434 353.53 342.266 354.19 342.923 355.042C343.579 355.886 344.001 356.854 344.188 357.948H341.54ZM352.462 369.808C351.274 369.808 350.227 369.534 349.321 368.987C348.423 368.44 347.727 367.675 347.235 366.69C346.751 365.698 346.509 364.55 346.509 363.245C346.509 361.94 346.751 360.792 347.235 359.8C347.727 358.8 348.423 358.026 349.321 357.479C350.227 356.933 351.274 356.659 352.462 356.659C353.641 356.659 354.68 356.933 355.579 357.479C356.477 358.026 357.169 358.8 357.653 359.8C358.145 360.792 358.391 361.94 358.391 363.245C358.391 364.55 358.145 365.698 357.653 366.69C357.169 367.675 356.477 368.44 355.579 368.987C354.68 369.534 353.641 369.808 352.462 369.808ZM349.016 363.245C349.016 364.081 349.145 364.839 349.403 365.519C349.661 366.19 350.048 366.726 350.563 367.124C351.079 367.522 351.712 367.722 352.462 367.722C353.196 367.722 353.817 367.522 354.325 367.124C354.841 366.726 355.223 366.19 355.473 365.519C355.731 364.839 355.86 364.081 355.86 363.245C355.86 362.409 355.731 361.651 355.473 360.972C355.223 360.284 354.841 359.737 354.325 359.331C353.817 358.925 353.196 358.722 352.462 358.722C351.712 358.722 351.079 358.925 350.563 359.331C350.048 359.737 349.661 360.284 349.403 360.972C349.145 361.651 349.016 362.409 349.016 363.245ZM365.61 369.808C364.587 369.8 363.673 369.534 362.868 369.011C362.063 368.479 361.43 367.718 360.969 366.726C360.516 365.726 360.29 364.558 360.29 363.222C360.29 361.87 360.52 360.702 360.981 359.718C361.442 358.726 362.075 357.968 362.88 357.444C363.692 356.921 364.61 356.659 365.634 356.659C366.36 356.659 366.966 356.78 367.45 357.022C367.942 357.257 368.317 357.53 368.575 357.843C368.841 358.147 369.087 358.495 369.313 358.886H369.43V352.581H371.938V369.55H369.501V367.558H369.313C369.094 367.94 368.844 368.292 368.563 368.612C368.29 368.925 367.907 369.202 367.415 369.444C366.923 369.687 366.321 369.808 365.61 369.808ZM362.844 363.175C362.837 364.042 362.962 364.815 363.219 365.495C363.477 366.167 363.856 366.698 364.356 367.089C364.856 367.479 365.462 367.675 366.173 367.675C366.868 367.675 367.466 367.487 367.966 367.112C368.466 366.737 368.844 366.21 369.102 365.53C369.368 364.851 369.501 364.065 369.501 363.175C369.501 362.284 369.372 361.511 369.114 360.854C368.856 360.198 368.477 359.69 367.977 359.331C367.477 358.972 366.876 358.792 366.173 358.792C365.454 358.792 364.844 358.979 364.344 359.354C363.844 359.729 363.466 360.249 363.208 360.913C362.958 361.569 362.837 362.323 362.844 363.175ZM244.087 381.581H257.235V383.808H251.962V398.55H249.384V383.808H244.087V381.581ZM262.157 398.55H259.649V381.581H262.11V387.909H262.274C262.587 387.19 263.052 386.636 263.669 386.245C264.294 385.854 265.087 385.659 266.048 385.659C266.93 385.659 267.696 385.843 268.344 386.21C269.001 386.569 269.509 387.108 269.868 387.827C270.227 388.546 270.407 389.425 270.407 390.464V398.55H267.899V390.769C267.899 389.831 267.661 389.104 267.184 388.589C266.708 388.073 266.048 387.815 265.204 387.815C264.61 387.815 264.083 387.94 263.622 388.19C263.161 388.44 262.802 388.808 262.544 389.292C262.286 389.769 262.157 390.339 262.157 391.003V398.55ZM278.915 398.808C277.68 398.808 276.606 398.538 275.692 397.999C274.778 397.46 274.079 396.698 273.594 395.714C273.11 394.729 272.868 393.581 272.868 392.269C272.868 390.972 273.11 389.823 273.594 388.823C274.079 387.823 274.766 387.046 275.657 386.491C276.548 385.937 277.579 385.659 278.751 385.659C279.774 385.659 280.712 385.882 281.563 386.327C282.415 386.772 283.098 387.476 283.614 388.437C284.137 389.39 284.399 390.597 284.399 392.058V392.948H275.352C275.376 393.745 275.54 394.429 275.844 394.999C276.149 395.569 276.567 396.003 277.098 396.3C277.63 396.597 278.243 396.745 278.938 396.745C279.61 396.745 280.18 396.62 280.649 396.37C281.126 396.112 281.477 395.776 281.704 395.362H284.235C284.048 396.05 283.712 396.655 283.227 397.179C282.743 397.694 282.134 398.097 281.399 398.386C280.665 398.667 279.837 398.808 278.915 398.808ZM281.938 391.073C281.938 390.433 281.805 389.858 281.54 389.351C281.282 388.835 280.911 388.437 280.427 388.155C279.95 387.866 279.399 387.722 278.774 387.722C278.126 387.722 277.548 387.874 277.04 388.179C276.54 388.476 276.145 388.882 275.856 389.397C275.567 389.913 275.403 390.472 275.364 391.073H281.938ZM304.438 387.112C304.305 386.401 304.028 385.788 303.606 385.272C303.192 384.757 302.677 384.366 302.059 384.101C301.45 383.835 300.782 383.706 300.055 383.714C299.071 383.706 298.192 383.952 297.419 384.452C296.653 384.944 296.048 385.671 295.602 386.632C295.165 387.585 294.946 388.729 294.946 390.065C294.946 391.409 295.165 392.562 295.602 393.522C296.048 394.476 296.653 395.198 297.419 395.69C298.192 396.183 299.071 396.425 300.055 396.417C300.774 396.425 301.438 396.3 302.048 396.042C302.657 395.776 303.169 395.39 303.583 394.882C304.005 394.374 304.29 393.769 304.438 393.065L307.04 393.089C306.86 394.198 306.45 395.187 305.809 396.054C305.177 396.913 304.36 397.585 303.36 398.069C302.368 398.546 301.259 398.784 300.032 398.784C298.555 398.784 297.239 398.433 296.083 397.729C294.927 397.026 294.02 396.019 293.364 394.706C292.716 393.386 292.391 391.839 292.391 390.065C292.391 388.292 292.719 386.749 293.376 385.437C294.032 384.116 294.938 383.104 296.094 382.401C297.251 381.698 298.563 381.347 300.032 381.347C301.227 381.347 302.321 381.577 303.313 382.038C304.305 382.491 305.126 383.151 305.774 384.019C306.43 384.886 306.852 385.917 307.04 387.112H304.438ZM309.618 385.823H312.032V387.839H312.173C312.407 387.167 312.813 386.632 313.391 386.233C313.977 385.835 314.637 385.636 315.372 385.636C315.739 385.636 316.102 385.651 316.462 385.683V388.073C316.321 388.042 316.118 388.011 315.852 387.979C315.594 387.948 315.352 387.933 315.126 387.933C314.555 387.933 314.044 388.058 313.591 388.308C313.137 388.55 312.778 388.89 312.512 389.327C312.255 389.757 312.126 390.245 312.126 390.792V398.55H309.618V385.823ZM317.61 394.964C317.602 393.644 318.044 392.702 318.934 392.14C319.833 391.577 320.977 391.245 322.368 391.144C324.173 391.042 325.286 390.983 325.708 390.968L325.696 389.948C325.704 389.222 325.485 388.663 325.04 388.272C324.602 387.874 323.962 387.675 323.118 387.675C322.407 387.675 321.825 387.823 321.372 388.12C320.919 388.409 320.626 388.8 320.493 389.292H318.009C318.087 388.589 318.348 387.964 318.794 387.417C319.239 386.862 319.841 386.433 320.598 386.128C321.356 385.815 322.227 385.659 323.212 385.659C324.016 385.659 324.79 385.784 325.532 386.034C326.282 386.276 326.915 386.729 327.43 387.394C327.946 388.05 328.204 388.948 328.204 390.089V398.55H325.766V396.815H325.673C325.384 397.37 324.923 397.847 324.29 398.245C323.657 398.636 322.86 398.831 321.899 398.831C321.087 398.831 320.352 398.679 319.696 398.374C319.048 398.069 318.536 397.628 318.161 397.05C317.794 396.464 317.61 395.769 317.61 394.964ZM320.048 394.987C320.048 395.581 320.266 396.038 320.704 396.358C321.149 396.671 321.735 396.831 322.462 396.839C323.118 396.839 323.692 396.706 324.184 396.44C324.677 396.175 325.055 395.823 325.321 395.386C325.587 394.94 325.719 394.464 325.719 393.956L325.708 392.796L322.719 392.995C321.868 393.058 321.208 393.253 320.739 393.581C320.278 393.909 320.048 394.378 320.048 394.987ZM337.18 387.815H334.579V394.8C334.587 395.456 334.723 395.905 334.989 396.147C335.255 396.382 335.626 396.503 336.102 396.511C336.477 396.511 336.899 396.487 337.368 396.44V398.62C336.915 398.683 336.391 398.714 335.798 398.714C335.118 398.714 334.497 398.589 333.934 398.339C333.372 398.089 332.923 397.71 332.587 397.202C332.251 396.687 332.087 396.058 332.094 395.315V387.815H330.219V385.823H332.094V382.776H334.579V385.823H337.18V387.815ZM344.868 398.808C343.68 398.808 342.634 398.534 341.727 397.987C340.829 397.44 340.134 396.675 339.641 395.69C339.157 394.698 338.915 393.55 338.915 392.245C338.915 390.94 339.157 389.792 339.641 388.8C340.134 387.8 340.829 387.026 341.727 386.479C342.634 385.933 343.68 385.659 344.868 385.659C346.048 385.659 347.087 385.933 347.985 386.479C348.884 387.026 349.575 387.8 350.059 388.8C350.552 389.792 350.798 390.94 350.798 392.245C350.798 393.55 350.552 394.698 350.059 395.69C349.575 396.675 348.884 397.44 347.985 397.987C347.087 398.534 346.048 398.808 344.868 398.808ZM341.423 392.245C341.423 393.081 341.552 393.839 341.809 394.519C342.067 395.19 342.454 395.726 342.969 396.124C343.485 396.522 344.118 396.722 344.868 396.722C345.602 396.722 346.223 396.522 346.731 396.124C347.247 395.726 347.63 395.19 347.88 394.519C348.137 393.839 348.266 393.081 348.266 392.245C348.266 391.409 348.137 390.651 347.88 389.972C347.63 389.284 347.247 388.737 346.731 388.331C346.223 387.925 345.602 387.722 344.868 387.722C344.118 387.722 343.485 387.925 342.969 388.331C342.454 388.737 342.067 389.284 341.809 389.972C341.552 390.651 341.423 391.409 341.423 392.245ZM353.259 385.823H355.673V387.839H355.813C356.048 387.167 356.454 386.632 357.032 386.233C357.618 385.835 358.278 385.636 359.012 385.636C359.38 385.636 359.743 385.651 360.102 385.683V388.073C359.962 388.042 359.759 388.011 359.493 387.979C359.235 387.948 358.993 387.933 358.766 387.933C358.196 387.933 357.684 388.058 357.231 388.308C356.778 388.55 356.419 388.89 356.153 389.327C355.895 389.757 355.766 390.245 355.766 390.792V398.55H353.259V385.823Z" fill="white"/>
<circle cx="303" cy="153" r="80" fill="#666666"/>
<path d="M250.35 160H254.061V155.293H255.516L258.025 160H262.068L259.178 154.697C260.701 153.975 261.6 152.598 261.6 150.645C261.6 147.656 259.529 145.859 256.365 145.859H250.35V160ZM254.061 152.383V148.828H255.506C256.902 148.838 257.723 149.395 257.713 150.645C257.723 151.875 256.902 152.383 255.506 152.383H254.061ZM268.162 160.215C267.133 160.215 266.238 159.99 265.477 159.541C264.715 159.092 264.132 158.457 263.729 157.637C263.325 156.816 263.123 155.859 263.123 154.766C263.123 153.685 263.325 152.728 263.729 151.895C264.132 151.061 264.705 150.413 265.447 149.951C266.189 149.489 267.049 149.258 268.025 149.258C268.878 149.258 269.66 149.443 270.369 149.814C271.079 150.186 271.648 150.771 272.078 151.572C272.514 152.367 272.732 153.372 272.732 154.59V155.332H265.193C265.213 155.996 265.35 156.566 265.604 157.041C265.857 157.516 266.206 157.878 266.648 158.125C267.091 158.372 267.602 158.496 268.182 158.496C268.742 158.496 269.217 158.392 269.607 158.184C270.005 157.969 270.298 157.689 270.486 157.344H272.596C272.439 157.917 272.16 158.421 271.756 158.857C271.352 159.287 270.844 159.622 270.232 159.863C269.62 160.098 268.93 160.215 268.162 160.215ZM270.682 153.77C270.682 153.236 270.571 152.757 270.35 152.334C270.135 151.904 269.826 151.572 269.422 151.338C269.025 151.097 268.566 150.977 268.045 150.977C267.505 150.977 267.023 151.104 266.6 151.357C266.183 151.605 265.854 151.943 265.613 152.373C265.372 152.803 265.236 153.268 265.203 153.77H270.682ZM280.76 152.285C280.662 151.849 280.441 151.51 280.096 151.27C279.757 151.022 279.308 150.898 278.748 150.898C278.357 150.898 278.009 150.96 277.703 151.084C277.397 151.208 277.156 151.377 276.98 151.592C276.805 151.807 276.717 152.048 276.717 152.314C276.717 152.633 276.847 152.907 277.107 153.135C277.374 153.363 277.798 153.542 278.377 153.672L280.057 154.062C281.033 154.284 281.759 154.632 282.234 155.107C282.716 155.576 282.96 156.185 282.967 156.934C282.96 157.572 282.781 158.141 282.43 158.643C282.085 159.137 281.587 159.525 280.936 159.805C280.285 160.078 279.516 160.215 278.631 160.215C277.368 160.215 276.365 159.948 275.623 159.414C274.881 158.874 274.445 158.105 274.314 157.109H276.443C276.632 158.06 277.342 158.535 278.572 158.535C279.262 158.535 279.809 158.408 280.213 158.154C280.623 157.894 280.831 157.539 280.838 157.09C280.831 156.745 280.695 156.462 280.428 156.24C280.167 156.012 279.757 155.833 279.197 155.703L277.537 155.352C276.587 155.143 275.864 154.792 275.369 154.297C274.874 153.796 274.627 153.177 274.627 152.441C274.627 151.816 274.796 151.263 275.135 150.781C275.48 150.299 275.962 149.925 276.58 149.658C277.205 149.391 277.921 149.258 278.729 149.258C279.503 149.258 280.184 149.382 280.77 149.629C281.355 149.876 281.818 150.228 282.156 150.684C282.495 151.139 282.7 151.673 282.771 152.285H280.76ZM289.959 151.055H287.791V156.875C287.798 157.422 287.911 157.796 288.133 157.998C288.354 158.193 288.663 158.294 289.061 158.301C289.373 158.301 289.725 158.281 290.115 158.242V160.059C289.738 160.111 289.301 160.137 288.807 160.137C288.24 160.137 287.723 160.033 287.254 159.824C286.785 159.616 286.411 159.3 286.131 158.877C285.851 158.447 285.714 157.923 285.721 157.305V151.055H284.158V149.395H285.721V146.855H287.791V149.395H289.959V151.055ZM296.365 160.215C295.376 160.215 294.503 159.987 293.748 159.531C292.999 159.076 292.42 158.438 292.01 157.617C291.606 156.79 291.404 155.833 291.404 154.746C291.404 153.659 291.606 152.702 292.01 151.875C292.42 151.042 292.999 150.397 293.748 149.941C294.503 149.486 295.376 149.258 296.365 149.258C297.348 149.258 298.214 149.486 298.963 149.941C299.712 150.397 300.288 151.042 300.691 151.875C301.102 152.702 301.307 153.659 301.307 154.746C301.307 155.833 301.102 156.79 300.691 157.617C300.288 158.438 299.712 159.076 298.963 159.531C298.214 159.987 297.348 160.215 296.365 160.215ZM293.494 154.746C293.494 155.443 293.602 156.074 293.816 156.641C294.031 157.201 294.354 157.646 294.783 157.979C295.213 158.311 295.74 158.477 296.365 158.477C296.977 158.477 297.495 158.311 297.918 157.979C298.348 157.646 298.667 157.201 298.875 156.641C299.09 156.074 299.197 155.443 299.197 154.746C299.197 154.049 299.09 153.418 298.875 152.852C298.667 152.279 298.348 151.823 297.918 151.484C297.495 151.146 296.977 150.977 296.365 150.977C295.74 150.977 295.213 151.146 294.783 151.484C294.354 151.823 294.031 152.279 293.816 152.852C293.602 153.418 293.494 154.049 293.494 154.746ZM303.357 149.395H305.369V151.074H305.486C305.682 150.514 306.02 150.068 306.502 149.736C306.99 149.404 307.54 149.238 308.152 149.238C308.458 149.238 308.761 149.251 309.061 149.277V151.27C308.943 151.243 308.774 151.217 308.553 151.191C308.338 151.165 308.136 151.152 307.947 151.152C307.472 151.152 307.046 151.257 306.668 151.465C306.29 151.667 305.991 151.95 305.77 152.314C305.555 152.673 305.447 153.079 305.447 153.535V160H303.357V149.395ZM310.018 157.012C310.011 155.911 310.379 155.127 311.121 154.658C311.87 154.189 312.824 153.913 313.982 153.828C315.486 153.743 316.414 153.695 316.766 153.682L316.756 152.832C316.762 152.227 316.58 151.761 316.209 151.436C315.844 151.104 315.311 150.938 314.607 150.938C314.015 150.938 313.53 151.061 313.152 151.309C312.775 151.549 312.531 151.875 312.42 152.285H310.35C310.415 151.699 310.633 151.178 311.004 150.723C311.375 150.26 311.876 149.902 312.508 149.648C313.139 149.388 313.865 149.258 314.686 149.258C315.356 149.258 316.001 149.362 316.619 149.57C317.244 149.772 317.771 150.15 318.201 150.703C318.631 151.25 318.846 151.999 318.846 152.949V160H316.814V158.555H316.736C316.495 159.017 316.111 159.414 315.584 159.746C315.057 160.072 314.393 160.234 313.592 160.234C312.915 160.234 312.303 160.107 311.756 159.854C311.215 159.6 310.789 159.232 310.477 158.75C310.171 158.262 310.018 157.682 310.018 157.012ZM312.049 157.031C312.049 157.526 312.231 157.907 312.596 158.174C312.967 158.434 313.455 158.568 314.061 158.574C314.607 158.574 315.086 158.464 315.496 158.242C315.906 158.021 316.222 157.728 316.443 157.363C316.665 156.992 316.775 156.595 316.775 156.172L316.766 155.205L314.275 155.371C313.566 155.423 313.016 155.586 312.625 155.859C312.241 156.133 312.049 156.523 312.049 157.031ZM326.326 151.055H324.158V156.875C324.165 157.422 324.279 157.796 324.5 157.998C324.721 158.193 325.031 158.294 325.428 158.301C325.74 158.301 326.092 158.281 326.482 158.242V160.059C326.105 160.111 325.669 160.137 325.174 160.137C324.607 160.137 324.09 160.033 323.621 159.824C323.152 159.616 322.778 159.3 322.498 158.877C322.218 158.447 322.081 157.923 322.088 157.305V151.055H320.525V149.395H322.088V146.855H324.158V149.395H326.326V151.055ZM328.357 149.395H330.447V160H328.357V149.395ZM329.393 147.754C329.158 147.754 328.94 147.699 328.738 147.588C328.543 147.477 328.383 147.327 328.26 147.139C328.143 146.95 328.084 146.745 328.084 146.523C328.084 146.302 328.143 146.097 328.26 145.908C328.383 145.719 328.546 145.57 328.748 145.459C328.956 145.348 329.178 145.293 329.412 145.293C329.646 145.293 329.865 145.348 330.066 145.459C330.268 145.57 330.428 145.719 330.545 145.908C330.662 146.097 330.721 146.302 330.721 146.523C330.721 146.751 330.659 146.96 330.535 147.148C330.418 147.337 330.258 147.487 330.057 147.598C329.855 147.702 329.633 147.754 329.393 147.754ZM337.479 160.215C336.489 160.215 335.617 159.987 334.861 159.531C334.113 159.076 333.533 158.438 333.123 157.617C332.719 156.79 332.518 155.833 332.518 154.746C332.518 153.659 332.719 152.702 333.123 151.875C333.533 151.042 334.113 150.397 334.861 149.941C335.617 149.486 336.489 149.258 337.479 149.258C338.462 149.258 339.327 149.486 340.076 149.941C340.825 150.397 341.401 151.042 341.805 151.875C342.215 152.702 342.42 153.659 342.42 154.746C342.42 155.833 342.215 156.79 341.805 157.617C341.401 158.438 340.825 159.076 340.076 159.531C339.327 159.987 338.462 160.215 337.479 160.215ZM334.607 154.746C334.607 155.443 334.715 156.074 334.93 156.641C335.145 157.201 335.467 157.646 335.896 157.979C336.326 158.311 336.854 158.477 337.479 158.477C338.09 158.477 338.608 158.311 339.031 157.979C339.461 157.646 339.78 157.201 339.988 156.641C340.203 156.074 340.311 155.443 340.311 154.746C340.311 154.049 340.203 153.418 339.988 152.852C339.78 152.279 339.461 151.823 339.031 151.484C338.608 151.146 338.09 150.977 337.479 150.977C336.854 150.977 336.326 151.146 335.896 151.484C335.467 151.823 335.145 152.279 334.93 152.852C334.715 153.418 334.607 154.049 334.607 154.746ZM346.561 160H344.471V149.395H346.482V151.133H346.6C346.854 150.54 347.244 150.081 347.771 149.756C348.305 149.424 348.956 149.258 349.725 149.258C350.454 149.258 351.089 149.411 351.629 149.717C352.176 150.023 352.596 150.475 352.889 151.074C353.188 151.673 353.338 152.402 353.338 153.262V160H351.268V153.516C351.261 152.741 351.059 152.139 350.662 151.709C350.271 151.273 349.725 151.055 349.021 151.055C348.54 151.055 348.113 151.159 347.742 151.367C347.371 151.576 347.081 151.882 346.873 152.285C346.665 152.682 346.561 153.158 346.561 153.711V160Z" fill="white"/>
<circle cx="303" cy="599" r="80" fill="#666666"/>
<path d="M238.992 606H242.703V601.293H244.158L246.668 606H250.711L247.82 600.697C249.344 599.975 250.242 598.598 250.242 596.645C250.242 593.656 248.172 591.859 245.008 591.859H238.992V606ZM242.703 598.383V594.828H244.148C245.545 594.838 246.365 595.395 246.355 596.645C246.365 597.875 245.545 598.383 244.148 598.383H242.703ZM256.805 606.215C255.776 606.215 254.881 605.99 254.119 605.541C253.357 605.092 252.775 604.457 252.371 603.637C251.967 602.816 251.766 601.859 251.766 600.766C251.766 599.685 251.967 598.728 252.371 597.895C252.775 597.061 253.348 596.413 254.09 595.951C254.832 595.489 255.691 595.258 256.668 595.258C257.521 595.258 258.302 595.443 259.012 595.814C259.721 596.186 260.291 596.771 260.721 597.572C261.157 598.367 261.375 599.372 261.375 600.59V601.332H253.836C253.855 601.996 253.992 602.566 254.246 603.041C254.5 603.516 254.848 603.878 255.291 604.125C255.734 604.372 256.245 604.496 256.824 604.496C257.384 604.496 257.859 604.392 258.25 604.184C258.647 603.969 258.94 603.689 259.129 603.344H261.238C261.082 603.917 260.802 604.421 260.398 604.857C259.995 605.287 259.487 605.622 258.875 605.863C258.263 606.098 257.573 606.215 256.805 606.215ZM259.324 599.77C259.324 599.236 259.214 598.757 258.992 598.334C258.777 597.904 258.468 597.572 258.064 597.338C257.667 597.097 257.208 596.977 256.688 596.977C256.147 596.977 255.665 597.104 255.242 597.357C254.826 597.605 254.497 597.943 254.256 598.373C254.015 598.803 253.878 599.268 253.846 599.77H259.324ZM267.938 606.215C266.922 606.215 266.04 605.984 265.291 605.521C264.542 605.059 263.969 604.415 263.572 603.588C263.175 602.755 262.977 601.807 262.977 600.746C262.977 599.678 263.178 598.728 263.582 597.895C263.986 597.061 264.559 596.413 265.301 595.951C266.049 595.489 266.915 595.258 267.898 595.258C268.699 595.258 269.419 595.408 270.057 595.707C270.695 596 271.209 596.417 271.6 596.957C271.99 597.497 272.221 598.122 272.293 598.832H270.262C270.145 598.305 269.884 597.868 269.48 597.523C269.083 597.178 268.569 597.003 267.938 596.996C267.365 596.996 266.86 597.149 266.424 597.455C265.994 597.755 265.659 598.184 265.418 598.744C265.184 599.298 265.066 599.945 265.066 600.688C265.066 601.449 265.184 602.113 265.418 602.68C265.652 603.246 265.984 603.682 266.414 603.988C266.844 604.288 267.345 604.438 267.918 604.438C268.517 604.438 269.025 604.281 269.441 603.969C269.858 603.656 270.132 603.214 270.262 602.641H272.293C272.215 603.331 271.987 603.946 271.609 604.486C271.238 605.027 270.737 605.45 270.105 605.756C269.474 606.062 268.751 606.215 267.938 606.215ZM278.758 606.215C277.768 606.215 276.896 605.987 276.141 605.531C275.392 605.076 274.812 604.438 274.402 603.617C273.999 602.79 273.797 601.833 273.797 600.746C273.797 599.659 273.999 598.702 274.402 597.875C274.812 597.042 275.392 596.397 276.141 595.941C276.896 595.486 277.768 595.258 278.758 595.258C279.741 595.258 280.607 595.486 281.355 595.941C282.104 596.397 282.68 597.042 283.084 597.875C283.494 598.702 283.699 599.659 283.699 600.746C283.699 601.833 283.494 602.79 283.084 603.617C282.68 604.438 282.104 605.076 281.355 605.531C280.607 605.987 279.741 606.215 278.758 606.215ZM275.887 600.746C275.887 601.443 275.994 602.074 276.209 602.641C276.424 603.201 276.746 603.646 277.176 603.979C277.605 604.311 278.133 604.477 278.758 604.477C279.37 604.477 279.887 604.311 280.311 603.979C280.74 603.646 281.059 603.201 281.268 602.641C281.482 602.074 281.59 601.443 281.59 600.746C281.59 600.049 281.482 599.418 281.268 598.852C281.059 598.279 280.74 597.823 280.311 597.484C279.887 597.146 279.37 596.977 278.758 596.977C278.133 596.977 277.605 597.146 277.176 597.484C276.746 597.823 276.424 598.279 276.209 598.852C275.994 599.418 275.887 600.049 275.887 600.746ZM287.84 606H285.75V595.395H287.762V597.133H287.879C288.133 596.54 288.523 596.081 289.051 595.756C289.585 595.424 290.236 595.258 291.004 595.258C291.733 595.258 292.368 595.411 292.908 595.717C293.455 596.023 293.875 596.475 294.168 597.074C294.467 597.673 294.617 598.402 294.617 599.262V606H292.547V599.516C292.54 598.741 292.339 598.139 291.941 597.709C291.551 597.273 291.004 597.055 290.301 597.055C289.819 597.055 289.393 597.159 289.021 597.367C288.65 597.576 288.361 597.882 288.152 598.285C287.944 598.682 287.84 599.158 287.84 599.711V606ZM301.648 606.215C300.633 606.215 299.751 605.984 299.002 605.521C298.253 605.059 297.68 604.415 297.283 603.588C296.886 602.755 296.688 601.807 296.688 600.746C296.688 599.678 296.889 598.728 297.293 597.895C297.697 597.061 298.27 596.413 299.012 595.951C299.76 595.489 300.626 595.258 301.609 595.258C302.41 595.258 303.13 595.408 303.768 595.707C304.406 596 304.92 596.417 305.311 596.957C305.701 597.497 305.932 598.122 306.004 598.832H303.973C303.855 598.305 303.595 597.868 303.191 597.523C302.794 597.178 302.28 597.003 301.648 596.996C301.076 596.996 300.571 597.149 300.135 597.455C299.705 597.755 299.37 598.184 299.129 598.744C298.895 599.298 298.777 599.945 298.777 600.688C298.777 601.449 298.895 602.113 299.129 602.68C299.363 603.246 299.695 603.682 300.125 603.988C300.555 604.288 301.056 604.438 301.629 604.438C302.228 604.438 302.736 604.281 303.152 603.969C303.569 603.656 303.842 603.214 303.973 602.641H306.004C305.926 603.331 305.698 603.946 305.32 604.486C304.949 605.027 304.448 605.45 303.816 605.756C303.185 606.062 302.462 606.215 301.648 606.215ZM307.977 595.395H310.066V606H307.977V595.395ZM309.012 593.754C308.777 593.754 308.559 593.699 308.357 593.588C308.162 593.477 308.003 593.327 307.879 593.139C307.762 592.95 307.703 592.745 307.703 592.523C307.703 592.302 307.762 592.097 307.879 591.908C308.003 591.719 308.165 591.57 308.367 591.459C308.576 591.348 308.797 591.293 309.031 591.293C309.266 591.293 309.484 591.348 309.686 591.459C309.887 591.57 310.047 591.719 310.164 591.908C310.281 592.097 310.34 592.302 310.34 592.523C310.34 592.751 310.278 592.96 310.154 593.148C310.037 593.337 309.878 593.487 309.676 593.598C309.474 593.702 309.253 593.754 309.012 593.754ZM314.695 606H312.605V591.859H314.695V606ZM317.234 595.395H319.324V606H317.234V595.395ZM318.27 593.754C318.035 593.754 317.817 593.699 317.615 593.588C317.42 593.477 317.26 593.327 317.137 593.139C317.02 592.95 316.961 592.745 316.961 592.523C316.961 592.302 317.02 592.097 317.137 591.908C317.26 591.719 317.423 591.57 317.625 591.459C317.833 591.348 318.055 591.293 318.289 591.293C318.523 591.293 318.742 591.348 318.943 591.459C319.145 591.57 319.305 591.719 319.422 591.908C319.539 592.097 319.598 592.302 319.598 592.523C319.598 592.751 319.536 592.96 319.412 593.148C319.295 593.337 319.135 593.487 318.934 593.598C318.732 593.702 318.51 593.754 318.27 593.754ZM321.375 603.012C321.368 601.911 321.736 601.127 322.479 600.658C323.227 600.189 324.181 599.913 325.34 599.828C326.844 599.743 327.771 599.695 328.123 599.682L328.113 598.832C328.12 598.227 327.938 597.761 327.566 597.436C327.202 597.104 326.668 596.938 325.965 596.938C325.372 596.938 324.887 597.061 324.51 597.309C324.132 597.549 323.888 597.875 323.777 598.285H321.707C321.772 597.699 321.99 597.178 322.361 596.723C322.732 596.26 323.234 595.902 323.865 595.648C324.497 595.388 325.223 595.258 326.043 595.258C326.714 595.258 327.358 595.362 327.977 595.57C328.602 595.772 329.129 596.15 329.559 596.703C329.988 597.25 330.203 597.999 330.203 598.949V606H328.172V604.555H328.094C327.853 605.017 327.469 605.414 326.941 605.746C326.414 606.072 325.75 606.234 324.949 606.234C324.272 606.234 323.66 606.107 323.113 605.854C322.573 605.6 322.146 605.232 321.834 604.75C321.528 604.262 321.375 603.682 321.375 603.012ZM323.406 603.031C323.406 603.526 323.589 603.907 323.953 604.174C324.324 604.434 324.812 604.568 325.418 604.574C325.965 604.574 326.443 604.464 326.854 604.242C327.264 604.021 327.579 603.728 327.801 603.363C328.022 602.992 328.133 602.595 328.133 602.172L328.123 601.205L325.633 601.371C324.923 601.423 324.373 601.586 323.982 601.859C323.598 602.133 323.406 602.523 323.406 603.031ZM337.684 597.055H335.516V602.875C335.522 603.422 335.636 603.796 335.857 603.998C336.079 604.193 336.388 604.294 336.785 604.301C337.098 604.301 337.449 604.281 337.84 604.242V606.059C337.462 606.111 337.026 606.137 336.531 606.137C335.965 606.137 335.447 606.033 334.979 605.824C334.51 605.616 334.135 605.3 333.855 604.877C333.576 604.447 333.439 603.923 333.445 603.305V597.055H331.883V595.395H333.445V592.855H335.516V595.395H337.684V597.055ZM339.715 595.395H341.805V606H339.715V595.395ZM340.75 593.754C340.516 593.754 340.298 593.699 340.096 593.588C339.9 593.477 339.741 593.327 339.617 593.139C339.5 592.95 339.441 592.745 339.441 592.523C339.441 592.302 339.5 592.097 339.617 591.908C339.741 591.719 339.904 591.57 340.105 591.459C340.314 591.348 340.535 591.293 340.77 591.293C341.004 591.293 341.222 591.348 341.424 591.459C341.626 591.57 341.785 591.719 341.902 591.908C342.02 592.097 342.078 592.302 342.078 592.523C342.078 592.751 342.016 592.96 341.893 593.148C341.775 593.337 341.616 593.487 341.414 593.598C341.212 593.702 340.991 593.754 340.75 593.754ZM348.836 606.215C347.846 606.215 346.974 605.987 346.219 605.531C345.47 605.076 344.891 604.438 344.48 603.617C344.077 602.79 343.875 601.833 343.875 600.746C343.875 599.659 344.077 598.702 344.48 597.875C344.891 597.042 345.47 596.397 346.219 595.941C346.974 595.486 347.846 595.258 348.836 595.258C349.819 595.258 350.685 595.486 351.434 595.941C352.182 596.397 352.758 597.042 353.162 597.875C353.572 598.702 353.777 599.659 353.777 600.746C353.777 601.833 353.572 602.79 353.162 603.617C352.758 604.438 352.182 605.076 351.434 605.531C350.685 605.987 349.819 606.215 348.836 606.215ZM345.965 600.746C345.965 601.443 346.072 602.074 346.287 602.641C346.502 603.201 346.824 603.646 347.254 603.979C347.684 604.311 348.211 604.477 348.836 604.477C349.448 604.477 349.965 604.311 350.389 603.979C350.818 603.646 351.137 603.201 351.346 602.641C351.561 602.074 351.668 601.443 351.668 600.746C351.668 600.049 351.561 599.418 351.346 598.852C351.137 598.279 350.818 597.823 350.389 597.484C349.965 597.146 349.448 596.977 348.836 596.977C348.211 596.977 347.684 597.146 347.254 597.484C346.824 597.823 346.502 598.279 346.287 598.852C346.072 599.418 345.965 600.049 345.965 600.746ZM357.918 606H355.828V595.395H357.84V597.133H357.957C358.211 596.54 358.602 596.081 359.129 595.756C359.663 595.424 360.314 595.258 361.082 595.258C361.811 595.258 362.446 595.411 362.986 595.717C363.533 596.023 363.953 596.475 364.246 597.074C364.546 597.673 364.695 598.402 364.695 599.262V606H362.625V599.516C362.618 598.741 362.417 598.139 362.02 597.709C361.629 597.273 361.082 597.055 360.379 597.055C359.897 597.055 359.471 597.159 359.1 597.367C358.729 597.576 358.439 597.882 358.23 598.285C358.022 598.682 357.918 599.158 357.918 599.711V606Z" fill="white"/>
<circle cx="80" cy="367" r="80" fill="#666666"/>
<path d="M30.5156 365.113H34.2852C33.9727 361.637 31.4238 359.664 27.8984 359.664C24.0996 359.664 21.1113 362.223 21.1016 366.93C21.1113 371.617 24.0215 374.195 27.8984 374.195C31.9707 374.195 34.0801 371.383 34.2852 368.961L30.5156 368.922C30.3105 370.182 29.4121 370.943 27.9766 370.953C26.0625 370.943 24.9297 369.586 24.9297 366.93C24.9297 364.4 26.0332 362.906 27.9961 362.906C29.5 362.906 30.3887 363.785 30.5156 365.113ZM40.8867 374.215C39.8971 374.215 39.0247 373.987 38.2695 373.531C37.5208 373.076 36.9414 372.438 36.5312 371.617C36.1276 370.79 35.9258 369.833 35.9258 368.746C35.9258 367.659 36.1276 366.702 36.5312 365.875C36.9414 365.042 37.5208 364.397 38.2695 363.941C39.0247 363.486 39.8971 363.258 40.8867 363.258C41.8698 363.258 42.7357 363.486 43.4844 363.941C44.2331 364.397 44.8092 365.042 45.2129 365.875C45.623 366.702 45.8281 367.659 45.8281 368.746C45.8281 369.833 45.623 370.79 45.2129 371.617C44.8092 372.438 44.2331 373.076 43.4844 373.531C42.7357 373.987 41.8698 374.215 40.8867 374.215ZM38.0156 368.746C38.0156 369.443 38.123 370.074 38.3379 370.641C38.5527 371.201 38.875 371.646 39.3047 371.979C39.7344 372.311 40.2617 372.477 40.8867 372.477C41.4987 372.477 42.0163 372.311 42.4395 371.979C42.8691 371.646 43.1882 371.201 43.3965 370.641C43.6113 370.074 43.7188 369.443 43.7188 368.746C43.7188 368.049 43.6113 367.418 43.3965 366.852C43.1882 366.279 42.8691 365.823 42.4395 365.484C42.0163 365.146 41.4987 364.977 40.8867 364.977C40.2617 364.977 39.7344 365.146 39.3047 365.484C38.875 365.823 38.5527 366.279 38.3379 366.852C38.123 367.418 38.0156 368.049 38.0156 368.746ZM47.8789 363.395H49.8906V365.133H50.0078C50.2357 364.54 50.6003 364.081 51.1016 363.756C51.6029 363.424 52.2018 363.258 52.8984 363.258C53.5951 363.258 54.1875 363.421 54.6758 363.746C55.1641 364.072 55.5221 364.534 55.75 365.133H55.8672C56.1211 364.553 56.5247 364.098 57.0781 363.766C57.638 363.427 58.2956 363.258 59.0508 363.258C59.7018 363.258 60.2715 363.395 60.7598 363.668C61.2546 363.935 61.6387 364.342 61.9121 364.889C62.1921 365.436 62.332 366.103 62.332 366.891V374H60.2422V367.086C60.2422 366.402 60.0566 365.895 59.6855 365.562C59.3145 365.224 58.8359 365.055 58.25 365.055C57.8138 365.055 57.4362 365.149 57.1172 365.338C56.7982 365.52 56.554 365.777 56.3848 366.109C56.222 366.441 56.1406 366.819 56.1406 367.242V374H54.0703V366.969C54.0703 366.585 53.9889 366.249 53.8262 365.963C53.6634 365.67 53.4355 365.445 53.1426 365.289C52.8496 365.133 52.5143 365.055 52.1367 365.055C51.7461 365.055 51.3848 365.159 51.0527 365.367C50.7207 365.569 50.457 365.852 50.2617 366.217C50.0664 366.581 49.9688 366.995 49.9688 367.457V374H47.8789V363.395ZM64.8516 363.395H66.8633V365.133H66.9805C67.2083 364.54 67.5729 364.081 68.0742 363.756C68.5755 363.424 69.1745 363.258 69.8711 363.258C70.5677 363.258 71.1602 363.421 71.6484 363.746C72.1367 364.072 72.4948 364.534 72.7227 365.133H72.8398C73.0938 364.553 73.4974 364.098 74.0508 363.766C74.6107 363.427 75.2682 363.258 76.0234 363.258C76.6745 363.258 77.2441 363.395 77.7324 363.668C78.2272 363.935 78.6113 364.342 78.8848 364.889C79.1647 365.436 79.3047 366.103 79.3047 366.891V374H77.2148V367.086C77.2148 366.402 77.0293 365.895 76.6582 365.562C76.2871 365.224 75.8086 365.055 75.2227 365.055C74.7865 365.055 74.4089 365.149 74.0898 365.338C73.7708 365.52 73.5267 365.777 73.3574 366.109C73.1947 366.441 73.1133 366.819 73.1133 367.242V374H71.043V366.969C71.043 366.585 70.9616 366.249 70.7988 365.963C70.6361 365.67 70.4082 365.445 70.1152 365.289C69.8223 365.133 69.487 365.055 69.1094 365.055C68.7188 365.055 68.3574 365.159 68.0254 365.367C67.6934 365.569 67.4297 365.852 67.2344 366.217C67.0391 366.581 66.9414 366.995 66.9414 367.457V374H64.8516V363.395ZM81.8242 363.395H83.9141V374H81.8242V363.395ZM82.8594 361.754C82.625 361.754 82.4069 361.699 82.2051 361.588C82.0098 361.477 81.8503 361.327 81.7266 361.139C81.6094 360.95 81.5508 360.745 81.5508 360.523C81.5508 360.302 81.6094 360.097 81.7266 359.908C81.8503 359.719 82.013 359.57 82.2148 359.459C82.4232 359.348 82.6445 359.293 82.8789 359.293C83.1133 359.293 83.3314 359.348 83.5332 359.459C83.735 359.57 83.8945 359.719 84.0117 359.908C84.1289 360.097 84.1875 360.302 84.1875 360.523C84.1875 360.751 84.1257 360.96 84.002 361.148C83.8848 361.337 83.7253 361.487 83.5234 361.598C83.3216 361.702 83.1003 361.754 82.8594 361.754ZM91.4141 365.055H89.2461V370.875C89.2526 371.422 89.3665 371.796 89.5879 371.998C89.8092 372.193 90.1185 372.294 90.5156 372.301C90.8281 372.301 91.1797 372.281 91.5703 372.242V374.059C91.1927 374.111 90.7565 374.137 90.2617 374.137C89.6953 374.137 89.1777 374.033 88.709 373.824C88.2402 373.616 87.8659 373.3 87.5859 372.877C87.306 372.447 87.1693 371.923 87.1758 371.305V365.055H85.6133V363.395H87.1758V360.855H89.2461V363.395H91.4141V365.055ZM93.4453 363.395H95.457V365.133H95.5742C95.8021 364.54 96.1667 364.081 96.668 363.756C97.1693 363.424 97.7682 363.258 98.4648 363.258C99.1615 363.258 99.7539 363.421 100.242 363.746C100.73 364.072 101.089 364.534 101.316 365.133H101.434C101.688 364.553 102.091 364.098 102.645 363.766C103.204 363.427 103.862 363.258 104.617 363.258C105.268 363.258 105.838 363.395 106.326 363.668C106.821 363.935 107.205 364.342 107.479 364.889C107.758 365.436 107.898 366.103 107.898 366.891V374H105.809V367.086C105.809 366.402 105.623 365.895 105.252 365.562C104.881 365.224 104.402 365.055 103.816 365.055C103.38 365.055 103.003 365.149 102.684 365.338C102.365 365.52 102.12 365.777 101.951 366.109C101.788 366.441 101.707 366.819 101.707 367.242V374H99.6367V366.969C99.6367 366.585 99.5553 366.249 99.3926 365.963C99.2298 365.67 99.002 365.445 98.709 365.289C98.416 365.133 98.0807 365.055 97.7031 365.055C97.3125 365.055 96.9512 365.159 96.6191 365.367C96.2871 365.569 96.0234 365.852 95.8281 366.217C95.6328 366.581 95.5352 366.995 95.5352 367.457V374H93.4453V363.395ZM114.988 374.215C113.96 374.215 113.064 373.99 112.303 373.541C111.541 373.092 110.958 372.457 110.555 371.637C110.151 370.816 109.949 369.859 109.949 368.766C109.949 367.685 110.151 366.728 110.555 365.895C110.958 365.061 111.531 364.413 112.273 363.951C113.016 363.489 113.875 363.258 114.852 363.258C115.704 363.258 116.486 363.443 117.195 363.814C117.905 364.186 118.475 364.771 118.904 365.572C119.34 366.367 119.559 367.372 119.559 368.59V369.332H112.02C112.039 369.996 112.176 370.566 112.43 371.041C112.684 371.516 113.032 371.878 113.475 372.125C113.917 372.372 114.428 372.496 115.008 372.496C115.568 372.496 116.043 372.392 116.434 372.184C116.831 371.969 117.124 371.689 117.312 371.344H119.422C119.266 371.917 118.986 372.421 118.582 372.857C118.178 373.287 117.671 373.622 117.059 373.863C116.447 374.098 115.757 374.215 114.988 374.215ZM117.508 367.77C117.508 367.236 117.397 366.757 117.176 366.334C116.961 365.904 116.652 365.572 116.248 365.338C115.851 365.097 115.392 364.977 114.871 364.977C114.331 364.977 113.849 365.104 113.426 365.357C113.009 365.605 112.68 365.943 112.439 366.373C112.199 366.803 112.062 367.268 112.029 367.77H117.508ZM123.719 374H121.629V363.395H123.641V365.133H123.758C124.012 364.54 124.402 364.081 124.93 363.756C125.464 363.424 126.115 363.258 126.883 363.258C127.612 363.258 128.247 363.411 128.787 363.717C129.334 364.023 129.754 364.475 130.047 365.074C130.346 365.673 130.496 366.402 130.496 367.262V374H128.426V367.516C128.419 366.741 128.217 366.139 127.82 365.709C127.43 365.273 126.883 365.055 126.18 365.055C125.698 365.055 125.271 365.159 124.9 365.367C124.529 365.576 124.24 365.882 124.031 366.285C123.823 366.682 123.719 367.158 123.719 367.711V374ZM137.996 365.055H135.828V370.875C135.835 371.422 135.949 371.796 136.17 371.998C136.391 372.193 136.701 372.294 137.098 372.301C137.41 372.301 137.762 372.281 138.152 372.242V374.059C137.775 374.111 137.339 374.137 136.844 374.137C136.277 374.137 135.76 374.033 135.291 373.824C134.822 373.616 134.448 373.3 134.168 372.877C133.888 372.447 133.751 371.923 133.758 371.305V365.055H132.195V363.395H133.758V360.855H135.828V363.395H137.996V365.055Z" fill="white"/>
<path d="M249 42.16L245.04 18.4C244.88 17.4133 244.333 16.64 243.4 16.08L243.24 16L243.32 15.6H252.72L252.68 16L252.16 16.2C251.147 16.6533 250.72 17.3867 250.88 18.4L253.48 36.4L262.56 18.28C263.067 17.2133 262.773 16.4933 261.68 16.12L261.28 16L261.36 15.6H266.8L266.72 16L266.28 16.12C265.08 16.5467 264.187 17.3333 263.6 18.48L251.56 42.16H249ZM264.182 42L264.302 41.6L265.502 41.08C266.142 40.8133 266.528 40.3333 266.662 39.64L268.862 28C269.128 26.5067 269.422 24.8667 269.742 23.08C270.062 21.2933 270.355 19.6133 270.622 18.04C270.755 17.24 270.435 16.6667 269.662 16.32L268.862 16L268.982 15.6H278.622L278.542 16L277.382 16.44C276.742 16.68 276.328 17.1733 276.142 17.92L273.942 29.56C273.675 31.0533 273.382 32.6933 273.062 34.48C272.742 36.2667 272.435 37.9467 272.142 39.52C272.062 40.2933 272.368 40.8533 273.062 41.2L273.982 41.6L273.862 42H264.182ZM285.201 42.72C283.814 42.72 282.441 42.5467 281.081 42.2C279.747 41.8533 278.614 41.36 277.681 40.72L278.641 34.84H279.041L280.201 38.12C280.654 39.4267 281.241 40.3867 281.961 41C282.707 41.6133 283.787 41.92 285.201 41.92C286.774 41.92 288.014 41.4533 288.921 40.52C289.854 39.5867 290.321 38.4667 290.321 37.16C290.321 36.4667 290.214 35.8133 290.001 35.2C289.787 34.5867 289.374 33.9467 288.761 33.28C288.174 32.6133 287.294 31.8667 286.121 31.04C284.681 30 283.574 29.0267 282.801 28.12C282.027 27.2133 281.494 26.32 281.201 25.44C280.907 24.56 280.761 23.6667 280.761 22.76C280.761 21.1867 281.161 19.8133 281.961 18.64C282.761 17.44 283.867 16.52 285.281 15.88C286.721 15.2133 288.347 14.88 290.161 14.88C291.494 14.88 292.814 15.0667 294.121 15.44C295.454 15.7867 296.561 16.2667 297.441 16.88L296.321 22.48H295.921L295.121 19.84C294.694 18.4267 294.134 17.3867 293.441 16.72C292.747 16.0267 291.694 15.68 290.281 15.68C288.894 15.68 287.721 16.08 286.761 16.88C285.827 17.68 285.361 18.7467 285.361 20.08C285.361 21.2267 285.667 22.2667 286.281 23.2C286.894 24.1333 288.001 25.1733 289.601 26.32C291.707 27.8667 293.161 29.2667 293.961 30.52C294.787 31.7467 295.201 33.08 295.201 34.52C295.201 36.2267 294.774 37.6933 293.921 38.92C293.067 40.12 291.881 41.0533 290.361 41.72C288.867 42.3867 287.147 42.72 285.201 42.72ZM296.408 42L296.528 41.6L297.728 41.08C298.368 40.8133 298.755 40.3333 298.888 39.64L301.088 28C301.355 26.5067 301.648 24.8667 301.968 23.08C302.288 21.2933 302.581 19.6133 302.848 18.04C302.981 17.24 302.661 16.6667 301.888 16.32L301.088 16L301.208 15.6H310.848L310.768 16L309.608 16.44C308.968 16.68 308.555 17.1733 308.368 17.92L306.168 29.56C305.901 31.0533 305.608 32.6933 305.288 34.48C304.968 36.2667 304.661 37.9467 304.368 39.52C304.288 40.2933 304.595 40.8533 305.288 41.2L306.208 41.6L306.088 42H296.408ZM320.554 42.68C318.634 42.68 316.927 42.2667 315.434 41.44C313.94 40.6133 312.767 39.3867 311.914 37.76C311.06 36.1333 310.634 34.1067 310.634 31.68C310.634 29.4667 310.98 27.36 311.674 25.36C312.367 23.36 313.354 21.5733 314.634 20C315.94 18.4267 317.5 17.1867 319.314 16.28C321.154 15.3733 323.194 14.92 325.434 14.92C327.434 14.92 329.18 15.3733 330.674 16.28C332.167 17.16 333.327 18.4267 334.154 20.08C334.98 21.7067 335.394 23.64 335.394 25.88C335.394 28.12 335.047 30.2533 334.354 32.28C333.66 34.3067 332.66 36.1067 331.354 37.68C330.074 39.2267 328.514 40.4533 326.674 41.36C324.86 42.24 322.82 42.68 320.554 42.68ZM320.954 41.88C322.154 41.88 323.287 41.44 324.354 40.56C325.42 39.6533 326.354 38.4267 327.154 36.88C327.98 35.3067 328.62 33.4933 329.074 31.44C329.554 29.36 329.794 27.16 329.794 24.84C329.794 21.9067 329.447 19.6533 328.754 18.08C328.06 16.5067 326.887 15.72 325.234 15.72C324.007 15.72 322.847 16.16 321.754 17.04C320.66 17.92 319.7 19.1333 318.874 20.68C318.047 22.2267 317.394 24.0267 316.914 26.08C316.434 28.1067 316.194 30.28 316.194 32.6C316.194 35.5867 316.567 37.88 317.314 39.48C318.087 41.08 319.3 41.88 320.954 41.88ZM353.52 42.16L342.32 20.6L338.8 39.08C338.587 40.2 339.013 40.96 340.08 41.36L340.76 41.6L340.72 42H334.92L335 41.6L335.88 41.28C336.413 41.0667 336.827 40.8 337.12 40.48C337.44 40.1333 337.653 39.6667 337.76 39.08L341.6 18.8L341.12 17.8C340.773 17.08 340.24 16.52 339.52 16.12L339.4 16L339.48 15.6H345.64L355.96 35.04L359.12 18.32C359.307 17.3067 358.92 16.6133 357.96 16.24L357.32 16L357.4 15.6H362.84L362.8 16L361.96 16.28C361.453 16.4667 361.04 16.7333 360.72 17.08C360.427 17.4 360.227 17.84 360.12 18.4L355.64 42.16H353.52Z" fill="black"/>
</svg>
