<svg width="760" height="223" viewBox="0 0 760 223" fill="none" xmlns="http://www.w3.org/2000/svg">
<circle cx="230" cy="142" r="80" fill="black" fill-opacity="0.6"/>
<path d="M226.812 134.664V135.32C226.812 136.258 226.777 137.164 226.707 138.039C226.637 138.906 226.492 139.852 226.273 140.875H229.227V142.68H210.031V140.875H223.988C224.254 139.75 224.422 138.738 224.492 137.84C224.57 136.934 224.609 135.945 224.609 134.875H212.445V133.07H226.812V134.664ZM212.211 148.984C212.211 148.141 212.508 147.418 213.102 146.816C213.695 146.207 214.547 145.746 215.656 145.434C216.766 145.113 218.078 144.953 219.594 144.953C221.102 144.953 222.406 145.113 223.508 145.434C224.617 145.746 225.469 146.207 226.062 146.816C226.656 147.418 226.953 148.141 226.953 148.984C226.953 149.82 226.656 150.531 226.062 151.117C225.469 151.711 224.621 152.164 223.52 152.477C222.418 152.789 221.109 152.945 219.594 152.945C218.07 152.938 216.754 152.777 215.645 152.465C214.543 152.16 213.695 151.711 213.102 151.117C212.508 150.531 212.211 149.82 212.211 148.984ZM214.461 148.984C214.453 149.664 214.898 150.195 215.797 150.578C216.695 150.953 217.961 151.148 219.594 151.164C221.203 151.148 222.457 150.953 223.355 150.578C224.262 150.195 224.719 149.664 224.727 148.984C224.719 148.266 224.27 147.715 223.379 147.332C222.496 146.949 221.258 146.758 219.664 146.758C217.992 146.758 216.703 146.949 215.797 147.332C214.898 147.707 214.453 148.258 214.461 148.984ZM248.844 134.992H231.758V133.375H239.234V131.688H241.461V133.375H248.844V134.992ZM230.773 142.094H249.922V143.758H244.906V145.258H247.508V149.688H235.344V151.164H248.094V152.781H233.094V148.164H245.234V146.828H233.07V145.258H235.742V143.758H230.773V142.094ZM233.445 138.414C233.438 137.508 234.016 136.832 235.18 136.387C236.344 135.941 238.062 135.727 240.336 135.742C242.602 135.727 244.316 135.945 245.48 136.398C246.652 136.844 247.234 137.516 247.227 138.414C247.234 140.211 244.938 141.109 240.336 141.109C235.734 141.109 233.438 140.211 233.445 138.414ZM235.812 138.414C235.805 138.828 236.172 139.137 236.914 139.34C237.656 139.543 238.797 139.648 240.336 139.656C241.867 139.648 243.008 139.543 243.758 139.34C244.516 139.137 244.898 138.828 244.906 138.414C244.883 137.617 243.402 137.219 240.465 137.219C238.871 137.219 237.695 137.316 236.938 137.512C236.18 137.707 235.805 138.008 235.812 138.414ZM242.656 145.258V143.758H237.969V145.258H242.656Z" fill="white"/>
<circle cx="380" cy="143" r="80" fill="#F4BC40" fill-opacity="0.8"/>
<path d="M376.484 141.781H379.648V143.656H376.484V153.992H374.258V132.992H376.484V141.781ZM359.773 148.273C362.156 148.273 364.016 148.254 365.352 148.215V146.082C364.562 145.965 363.871 145.734 363.277 145.391C362.691 145.047 362.238 144.609 361.918 144.078C361.605 143.539 361.453 142.938 361.461 142.273C361.453 141.492 361.656 140.805 362.07 140.211C362.492 139.617 363.082 139.156 363.84 138.828C364.605 138.5 365.484 138.336 366.477 138.336C367.461 138.336 368.336 138.5 369.102 138.828C369.867 139.156 370.465 139.617 370.895 140.211C371.324 140.805 371.539 141.492 371.539 142.273C371.539 142.938 371.375 143.539 371.047 144.078C370.719 144.609 370.254 145.051 369.652 145.402C369.059 145.746 368.367 145.973 367.578 146.082V148.133C369.641 148.031 371.469 147.867 373.062 147.641L373.203 149.281C371.305 149.617 369.34 149.844 367.309 149.961C365.285 150.07 363.152 150.125 360.91 150.125H360.125L359.773 148.273ZM360.172 135.477H365.352V133.039H367.578V135.477H372.758V137.258H360.172V135.477ZM363.547 142.273C363.547 142.711 363.668 143.094 363.91 143.422C364.152 143.742 364.488 143.992 364.918 144.172C365.355 144.344 365.863 144.43 366.441 144.43C367.34 144.43 368.055 144.238 368.586 143.855C369.125 143.473 369.398 142.945 369.406 142.273C369.406 141.828 369.281 141.441 369.031 141.113C368.789 140.777 368.445 140.52 368 140.34C367.562 140.16 367.055 140.07 366.477 140.07C365.891 140.07 365.375 140.16 364.93 140.34C364.492 140.52 364.152 140.777 363.91 141.113C363.668 141.441 363.547 141.828 363.547 142.273ZM392.539 136.32H390.523V142.672C391.484 142.594 392.344 142.508 393.102 142.414L393.195 144.102C391.391 144.383 389.473 144.57 387.441 144.664C385.41 144.758 383.289 144.805 381.078 144.805L380.797 142.953C381.898 142.953 382.75 142.949 383.352 142.941V136.32H381.383V134.516H392.539V136.32ZM384.148 150.148C384.148 149.336 384.43 148.645 384.992 148.074C385.555 147.496 386.367 147.059 387.43 146.762C388.5 146.457 389.773 146.305 391.25 146.305C392.719 146.305 393.984 146.457 395.047 146.762C396.117 147.059 396.934 147.496 397.496 148.074C398.066 148.645 398.352 149.336 398.352 150.148C398.352 150.945 398.066 151.629 397.496 152.199C396.926 152.77 396.109 153.203 395.047 153.5C393.984 153.797 392.719 153.945 391.25 153.945C389.773 153.945 388.5 153.797 387.43 153.5C386.367 153.203 385.555 152.77 384.992 152.199C384.43 151.629 384.148 150.945 384.148 150.148ZM385.508 142.906C386.461 142.883 387.422 142.848 388.391 142.801V136.32H385.508V142.906ZM386.352 150.148C386.344 150.805 386.77 151.316 387.629 151.684C388.488 152.043 389.695 152.227 391.25 152.234C392.797 152.227 393.996 152.043 394.848 151.684C395.707 151.316 396.141 150.805 396.148 150.148C396.141 149.477 395.715 148.957 394.871 148.59C394.027 148.223 392.844 148.039 391.32 148.039C389.734 148.039 388.508 148.223 387.641 148.59C386.773 148.949 386.344 149.469 386.352 150.148ZM392.844 140.469H396.055V138.43H392.844V136.648H396.055V132.992H398.281V145.906H396.055V142.25H392.844V140.469Z" fill="black"/>
<circle cx="530" cy="143" r="80" fill="black" fill-opacity="0.6"/>
<path d="M527.398 153.992H525.172V132.992H527.398V153.992ZM510.148 148.273C512.68 148.258 514.602 148.234 515.914 148.203V146.094C515.102 145.984 514.391 145.758 513.781 145.414C513.172 145.07 512.703 144.629 512.375 144.09C512.047 143.551 511.883 142.945 511.883 142.273C511.883 141.492 512.094 140.805 512.516 140.211C512.938 139.617 513.535 139.156 514.309 138.828C515.082 138.5 515.969 138.336 516.969 138.336C517.984 138.336 518.883 138.5 519.664 138.828C520.445 139.156 521.055 139.617 521.492 140.211C521.93 140.805 522.148 141.492 522.148 142.273C522.148 142.938 521.98 143.539 521.645 144.078C521.316 144.609 520.848 145.047 520.238 145.391C519.637 145.734 518.93 145.965 518.117 146.082V148.121C520.367 148.012 522.289 147.852 523.883 147.641L524.047 149.305C522.086 149.633 520.047 149.852 517.93 149.961C515.812 150.07 513.574 150.125 511.215 150.125H510.453L510.148 148.273ZM510.594 135.5H515.914V133.039H518.141V135.5H523.414V137.281H510.594V135.5ZM513.992 142.273C513.984 142.711 514.102 143.094 514.344 143.422C514.594 143.742 514.941 143.992 515.387 144.172C515.84 144.344 516.355 144.43 516.934 144.43C517.543 144.43 518.078 144.344 518.539 144.172C519.008 144 519.371 143.754 519.629 143.434C519.887 143.105 520.016 142.719 520.016 142.273C520.016 141.828 519.887 141.441 519.629 141.113C519.379 140.777 519.023 140.52 518.562 140.34C518.102 140.16 517.57 140.07 516.969 140.07C516.383 140.07 515.863 140.16 515.41 140.34C514.957 140.52 514.605 140.777 514.355 141.113C514.105 141.441 513.984 141.828 513.992 142.273ZM549.922 145.508H530.773V143.703H539.234V141.43H533.281V133.484H535.484V135.758H545.211V133.484H547.438V141.43H541.438V143.703H549.922V145.508ZM532.906 147.383H547.578V153.992H545.328V149.164H532.906V147.383ZM545.211 139.648V137.422H535.484V139.648H545.211Z" fill="white"/>
<circle cx="680" cy="143" r="80" fill="black" fill-opacity="0.6"/>
<path d="M676.484 141.781H679.648V143.656H676.484V153.992H674.258V132.992H676.484V141.781ZM659.773 148.273C662.156 148.273 664.016 148.254 665.352 148.215V146.082C664.562 145.965 663.871 145.734 663.277 145.391C662.691 145.047 662.238 144.609 661.918 144.078C661.605 143.539 661.453 142.938 661.461 142.273C661.453 141.492 661.656 140.805 662.07 140.211C662.492 139.617 663.082 139.156 663.84 138.828C664.605 138.5 665.484 138.336 666.477 138.336C667.461 138.336 668.336 138.5 669.102 138.828C669.867 139.156 670.465 139.617 670.895 140.211C671.324 140.805 671.539 141.492 671.539 142.273C671.539 142.938 671.375 143.539 671.047 144.078C670.719 144.609 670.254 145.051 669.652 145.402C669.059 145.746 668.367 145.973 667.578 146.082V148.133C669.641 148.031 671.469 147.867 673.062 147.641L673.203 149.281C671.305 149.617 669.34 149.844 667.309 149.961C665.285 150.07 663.152 150.125 660.91 150.125H660.125L659.773 148.273ZM660.172 135.477H665.352V133.039H667.578V135.477H672.758V137.258H660.172V135.477ZM663.547 142.273C663.547 142.711 663.668 143.094 663.91 143.422C664.152 143.742 664.488 143.992 664.918 144.172C665.355 144.344 665.863 144.43 666.441 144.43C667.34 144.43 668.055 144.238 668.586 143.855C669.125 143.473 669.398 142.945 669.406 142.273C669.406 141.828 669.281 141.441 669.031 141.113C668.789 140.777 668.445 140.52 668 140.34C667.562 140.16 667.055 140.07 666.477 140.07C665.891 140.07 665.375 140.16 664.93 140.34C664.492 140.52 664.152 140.777 663.91 141.113C663.668 141.441 663.547 141.828 663.547 142.273ZM691.156 138.266H680.727V136.461H684.852V133.602H687.055V136.461H691.156V138.266ZM681.406 144.359C681.406 143.43 681.598 142.598 681.98 141.863C682.371 141.129 682.914 140.559 683.609 140.152C684.305 139.738 685.086 139.531 685.953 139.531C686.828 139.531 687.609 139.738 688.297 140.152C688.992 140.559 689.535 141.129 689.926 141.863C690.324 142.598 690.523 143.43 690.523 144.359C690.523 145.305 690.324 146.148 689.926 146.891C689.535 147.633 688.992 148.211 688.297 148.625C687.609 149.031 686.828 149.234 685.953 149.234C685.086 149.234 684.305 149.031 683.609 148.625C682.914 148.211 682.371 147.633 681.98 146.891C681.598 146.148 681.406 145.305 681.406 144.359ZM683.375 144.359C683.375 144.945 683.484 145.465 683.703 145.918C683.922 146.363 684.227 146.711 684.617 146.961C685.008 147.211 685.453 147.336 685.953 147.336C686.453 147.336 686.898 147.211 687.289 146.961C687.688 146.711 687.996 146.363 688.215 145.918C688.441 145.465 688.555 144.945 688.555 144.359C688.555 143.789 688.441 143.277 688.215 142.824C687.996 142.371 687.688 142.02 687.289 141.77C686.898 141.512 686.453 141.383 685.953 141.383C685.453 141.383 685.008 141.512 684.617 141.77C684.227 142.02 683.922 142.371 683.703 142.824C683.484 143.277 683.375 143.789 683.375 144.359ZM692.117 133.461H694.227V141.734H696.641V132.992H698.75V153.992H696.641V143.562H694.227V153.008H692.117V133.461Z" fill="white"/>
<circle cx="80" cy="143" r="80" fill="black" fill-opacity="0.6"/>
<path d="M77.5391 148.859H75.3125V142.016H71.9375V140.188H75.3125V133.016H77.5391V148.859ZM60.0547 135.453H65.1172V132.992H67.3203V135.453H72.3594V137.258H60.0547V135.453ZM61.2734 142.227C61.2734 141.453 61.4844 140.766 61.9062 140.164C62.3281 139.562 62.9141 139.098 63.6641 138.77C64.4141 138.434 65.2656 138.266 66.2188 138.266C67.1562 138.266 68 138.434 68.75 138.77C69.5 139.098 70.0859 139.562 70.5078 140.164C70.9297 140.766 71.1406 141.453 71.1406 142.227C71.1406 142.992 70.9297 143.672 70.5078 144.266C70.0859 144.859 69.5 145.324 68.75 145.66C68.0078 145.996 67.1641 146.164 66.2188 146.164C65.2656 146.164 64.4141 146 63.6641 145.672C62.9141 145.336 62.3281 144.871 61.9062 144.277C61.4844 143.676 61.2734 142.992 61.2734 142.227ZM63.4062 142.227C63.4062 142.664 63.5234 143.051 63.7578 143.387C63.9922 143.715 64.3203 143.973 64.7422 144.16C65.1641 144.34 65.6445 144.43 66.1836 144.43C66.7305 144.43 67.2188 144.34 67.6484 144.16C68.0781 143.98 68.4102 143.727 68.6445 143.398C68.8867 143.062 69.0078 142.672 69.0078 142.227C69.0078 141.789 68.8867 141.402 68.6445 141.066C68.4102 140.723 68.082 140.457 67.6602 140.27C67.2383 140.074 66.7578 139.977 66.2188 139.977C65.6719 139.977 65.1836 140.074 64.7539 140.27C64.332 140.457 64 140.723 63.7578 141.066C63.5234 141.402 63.4062 141.789 63.4062 142.227ZM63.8281 147.477H66.0781V151.742H78.0078V153.547H63.8281V147.477ZM98.1875 148.391H95.9609V133.016H98.1875V148.391ZM80.8906 143.656C81.9688 143.258 82.9023 142.68 83.6914 141.922C84.4805 141.164 85.082 140.293 85.4961 139.309C85.918 138.324 86.1328 137.305 86.1406 136.25V134.164H88.4141V136.25C88.4141 137.273 88.6211 138.25 89.0352 139.18C89.4492 140.109 90.0469 140.93 90.8281 141.641C91.6094 142.352 92.5312 142.891 93.5938 143.258L92.4453 145.039C91.2422 144.594 90.1992 143.945 89.3164 143.094C88.4414 142.234 87.7656 141.23 87.2891 140.082C86.8203 141.316 86.1367 142.398 85.2383 143.328C84.3477 144.25 83.2969 144.945 82.0859 145.414L80.8906 143.656ZM84.4531 146.938H86.7031V151.742H98.8203V153.547H84.4531V146.938Z" fill="white"/>
<path d="M324 42.16L320.04 18.4C319.88 17.4133 319.333 16.64 318.4 16.08L318.24 16L318.32 15.6H327.72L327.68 16L327.16 16.2C326.147 16.6533 325.72 17.3867 325.88 18.4L328.48 36.4L337.56 18.28C338.067 17.2133 337.773 16.4933 336.68 16.12L336.28 16L336.36 15.6H341.8L341.72 16L341.28 16.12C340.08 16.5467 339.187 17.3333 338.6 18.48L326.56 42.16H324ZM339.182 42L339.302 41.6L340.502 41.08C341.142 40.8133 341.528 40.3333 341.662 39.64L343.862 28C344.128 26.5067 344.422 24.8667 344.742 23.08C345.062 21.2933 345.355 19.6133 345.622 18.04C345.755 17.24 345.435 16.6667 344.662 16.32L343.862 16L343.982 15.6H353.622L353.542 16L352.382 16.44C351.742 16.68 351.328 17.1733 351.142 17.92L348.942 29.56C348.675 31.0533 348.382 32.6933 348.062 34.48C347.742 36.2667 347.435 37.9467 347.142 39.52C347.062 40.2933 347.368 40.8533 348.062 41.2L348.982 41.6L348.862 42H339.182ZM360.201 42.72C358.814 42.72 357.441 42.5467 356.081 42.2C354.747 41.8533 353.614 41.36 352.681 40.72L353.641 34.84H354.041L355.201 38.12C355.654 39.4267 356.241 40.3867 356.961 41C357.707 41.6133 358.787 41.92 360.201 41.92C361.774 41.92 363.014 41.4533 363.921 40.52C364.854 39.5867 365.321 38.4667 365.321 37.16C365.321 36.4667 365.214 35.8133 365.001 35.2C364.787 34.5867 364.374 33.9467 363.761 33.28C363.174 32.6133 362.294 31.8667 361.121 31.04C359.681 30 358.574 29.0267 357.801 28.12C357.027 27.2133 356.494 26.32 356.201 25.44C355.907 24.56 355.761 23.6667 355.761 22.76C355.761 21.1867 356.161 19.8133 356.961 18.64C357.761 17.44 358.867 16.52 360.281 15.88C361.721 15.2133 363.347 14.88 365.161 14.88C366.494 14.88 367.814 15.0667 369.121 15.44C370.454 15.7867 371.561 16.2667 372.441 16.88L371.321 22.48H370.921L370.121 19.84C369.694 18.4267 369.134 17.3867 368.441 16.72C367.747 16.0267 366.694 15.68 365.281 15.68C363.894 15.68 362.721 16.08 361.761 16.88C360.827 17.68 360.361 18.7467 360.361 20.08C360.361 21.2267 360.667 22.2667 361.281 23.2C361.894 24.1333 363.001 25.1733 364.601 26.32C366.707 27.8667 368.161 29.2667 368.961 30.52C369.787 31.7467 370.201 33.08 370.201 34.52C370.201 36.2267 369.774 37.6933 368.921 38.92C368.067 40.12 366.881 41.0533 365.361 41.72C363.867 42.3867 362.147 42.72 360.201 42.72ZM371.408 42L371.528 41.6L372.728 41.08C373.368 40.8133 373.755 40.3333 373.888 39.64L376.088 28C376.355 26.5067 376.648 24.8667 376.968 23.08C377.288 21.2933 377.581 19.6133 377.848 18.04C377.981 17.24 377.661 16.6667 376.888 16.32L376.088 16L376.208 15.6H385.848L385.768 16L384.608 16.44C383.968 16.68 383.555 17.1733 383.368 17.92L381.168 29.56C380.901 31.0533 380.608 32.6933 380.288 34.48C379.968 36.2667 379.661 37.9467 379.368 39.52C379.288 40.2933 379.595 40.8533 380.288 41.2L381.208 41.6L381.088 42H371.408ZM395.554 42.68C393.634 42.68 391.927 42.2667 390.434 41.44C388.94 40.6133 387.767 39.3867 386.914 37.76C386.06 36.1333 385.634 34.1067 385.634 31.68C385.634 29.4667 385.98 27.36 386.674 25.36C387.367 23.36 388.354 21.5733 389.634 20C390.94 18.4267 392.5 17.1867 394.314 16.28C396.154 15.3733 398.194 14.92 400.434 14.92C402.434 14.92 404.18 15.3733 405.674 16.28C407.167 17.16 408.327 18.4267 409.154 20.08C409.98 21.7067 410.394 23.64 410.394 25.88C410.394 28.12 410.047 30.2533 409.354 32.28C408.66 34.3067 407.66 36.1067 406.354 37.68C405.074 39.2267 403.514 40.4533 401.674 41.36C399.86 42.24 397.82 42.68 395.554 42.68ZM395.954 41.88C397.154 41.88 398.287 41.44 399.354 40.56C400.42 39.6533 401.354 38.4267 402.154 36.88C402.98 35.3067 403.62 33.4933 404.074 31.44C404.554 29.36 404.794 27.16 404.794 24.84C404.794 21.9067 404.447 19.6533 403.754 18.08C403.06 16.5067 401.887 15.72 400.234 15.72C399.007 15.72 397.847 16.16 396.754 17.04C395.66 17.92 394.7 19.1333 393.874 20.68C393.047 22.2267 392.394 24.0267 391.914 26.08C391.434 28.1067 391.194 30.28 391.194 32.6C391.194 35.5867 391.567 37.88 392.314 39.48C393.087 41.08 394.3 41.88 395.954 41.88ZM428.52 42.16L417.32 20.6L413.8 39.08C413.587 40.2 414.013 40.96 415.08 41.36L415.76 41.6L415.72 42H409.92L410 41.6L410.88 41.28C411.413 41.0667 411.827 40.8 412.12 40.48C412.44 40.1333 412.653 39.6667 412.76 39.08L416.6 18.8L416.12 17.8C415.773 17.08 415.24 16.52 414.52 16.12L414.4 16L414.48 15.6H420.64L430.96 35.04L434.12 18.32C434.307 17.3067 433.92 16.6133 432.96 16.24L432.32 16L432.4 15.6H437.84L437.8 16L436.96 16.28C436.453 16.4667 436.04 16.7333 435.72 17.08C435.427 17.4 435.227 17.84 435.12 18.4L430.64 42.16H428.52Z" fill="black"/>
</svg>
