<svg width="1042" height="552" viewBox="0 0 1042 552" fill="none" xmlns="http://www.w3.org/2000/svg">
<line x1="758" y1="192.5" x2="814" y2="192.5" stroke="#71161B"/>
<line x1="758" y1="95.5" x2="814" y2="95.5" stroke="#71161B"/>
<line x1="758" y1="414.5" x2="814" y2="414.5" stroke="#71161B"/>
<line x1="758" y1="512.5" x2="814" y2="512.5" stroke="#71161B"/>
<line x1="757.5" y1="514" x2="757.5" y2="95" stroke="#71161B"/>
<line x1="291.5" y1="304" x2="291.5" y2="200" stroke="#71161B"/>
<rect x="470" y="205" width="113" height="200" rx="8" fill="#71161B"/>
<path d="M515.133 281.477H506.789V288.156H503.836V281.477H495.609V279.133H515.133V281.477ZM497.906 267.648H500.859V270.109H509.812V267.648H512.812V277.07H497.906V267.648ZM509.812 274.68V272.453H500.859V274.68H509.812ZM534.445 282.953H531.445V281.266H527.367V279.227H531.445V266.852H534.445V282.953ZM516.305 276.297C518.984 276.281 521.438 276.234 523.664 276.156C525.891 276.07 528 275.906 529.992 275.664L530.156 277.797C528.531 278.07 526.812 278.273 525 278.406V282.461H522V285.391H534.914V287.781H519.023V281.406H522V278.582C520.516 278.637 518.734 278.664 516.656 278.664L516.305 276.297ZM517.875 271.398C517.875 270.648 518.102 269.984 518.555 269.406C519.008 268.828 519.641 268.379 520.453 268.059C521.266 267.738 522.195 267.578 523.242 267.578C524.266 267.578 525.18 267.738 525.984 268.059C526.789 268.379 527.418 268.828 527.871 269.406C528.332 269.984 528.562 270.648 528.562 271.398C528.562 272.148 528.332 272.809 527.871 273.379C527.418 273.949 526.789 274.387 525.984 274.691C525.18 274.996 524.266 275.148 523.242 275.148C522.188 275.148 521.254 274.996 520.441 274.691C519.637 274.387 519.008 273.949 518.555 273.379C518.102 272.809 517.875 272.148 517.875 271.398ZM520.711 271.398C520.703 271.906 520.93 272.301 521.391 272.582C521.859 272.855 522.492 272.992 523.289 272.992C524.008 272.992 524.59 272.852 525.035 272.57C525.488 272.289 525.719 271.898 525.727 271.398C525.719 270.883 525.484 270.48 525.023 270.191C524.57 269.902 523.977 269.758 523.242 269.758C522.469 269.758 521.852 269.902 521.391 270.191C520.93 270.48 520.703 270.883 520.711 271.398ZM549.234 270.648H544.992C545 271.5 545.18 272.312 545.531 273.086C545.891 273.859 546.438 274.547 547.172 275.148C547.906 275.75 548.82 276.211 549.914 276.531L548.484 278.875C547.336 278.523 546.348 278.008 545.52 277.328C544.691 276.648 544.035 275.84 543.551 274.902C543.059 276.004 542.371 276.961 541.488 277.773C540.613 278.578 539.555 279.188 538.312 279.602L536.789 277.234C537.922 276.875 538.875 276.355 539.648 275.676C540.422 274.996 540.996 274.223 541.371 273.355C541.754 272.488 541.953 271.586 541.969 270.648H537.609V268.258H549.234V270.648ZM539.742 284.008C539.742 283.148 540.035 282.41 540.621 281.793C541.207 281.176 542.051 280.707 543.152 280.387C544.254 280.066 545.555 279.906 547.055 279.906C548.531 279.906 549.809 280.066 550.887 280.387C551.965 280.707 552.793 281.176 553.371 281.793C553.957 282.41 554.25 283.148 554.25 284.008C554.25 284.875 553.957 285.617 553.371 286.234C552.793 286.859 551.965 287.336 550.887 287.664C549.809 287.992 548.531 288.156 547.055 288.156C545.555 288.156 544.254 287.992 543.152 287.664C542.059 287.336 541.215 286.859 540.621 286.234C540.035 285.609 539.742 284.867 539.742 284.008ZM542.742 284.008C542.734 284.609 543.098 285.066 543.832 285.379C544.566 285.684 545.641 285.836 547.055 285.836C548.445 285.836 549.5 285.684 550.219 285.379C550.938 285.074 551.297 284.617 551.297 284.008C551.297 283.422 550.941 282.98 550.23 282.684C549.527 282.379 548.496 282.227 547.137 282.227C545.691 282.227 544.594 282.375 543.844 282.672C543.102 282.969 542.734 283.414 542.742 284.008ZM551.039 266.828H554.039V271.773H556.922V274.211H554.039V279.484H551.039V266.828Z" fill="white"/>
<path d="M489.008 320.438H487.102V306.219H489.008V320.438ZM476.805 312.375C476.805 311.328 476.93 310.417 477.18 309.641C477.435 308.865 477.794 308.271 478.258 307.859C478.727 307.443 479.273 307.234 479.898 307.234C480.466 307.234 480.969 307.404 481.406 307.742C481.849 308.081 482.206 308.57 482.477 309.211C482.753 309.846 482.927 310.604 483 311.484H484.164V306.422H486.039V319.781H484.164V313.062H483.016C482.958 313.984 482.794 314.784 482.523 315.461C482.253 316.133 481.891 316.648 481.438 317.008C480.99 317.367 480.477 317.547 479.898 317.547C479.273 317.547 478.727 317.339 478.258 316.922C477.794 316.5 477.435 315.901 477.18 315.125C476.93 314.344 476.805 313.427 476.805 312.375ZM478.648 312.375C478.643 313.453 478.747 314.268 478.961 314.82C479.18 315.367 479.492 315.635 479.898 315.625C480.31 315.635 480.628 315.37 480.852 314.828C481.081 314.286 481.195 313.487 481.195 312.43C481.195 311.331 481.083 310.503 480.859 309.945C480.635 309.388 480.315 309.109 479.898 309.109C479.492 309.109 479.18 309.385 478.961 309.938C478.747 310.49 478.643 311.302 478.648 312.375ZM502.414 314.938H500.414V306.234H502.414V314.938ZM491.242 307.016H497.836V311.375H493.211V312.734C494.466 312.724 495.544 312.693 496.445 312.641C497.352 312.589 498.263 312.495 499.18 312.359L499.43 313.953C498.44 314.109 497.451 314.216 496.461 314.273C495.471 314.331 494.284 314.359 492.898 314.359H492.508H491.258V309.859H495.852V308.609H491.242V307.016ZM492.633 315.562H502.414V320.438H500.414V317.172H492.633V315.562ZM507.664 307.266C508.211 307.266 508.711 307.383 509.164 307.617C509.617 307.846 509.995 308.174 510.297 308.602C510.599 309.023 510.799 309.516 510.898 310.078H511.836V306.438H513.68V316.375H511.836V311.703H510.875C510.766 312.245 510.56 312.721 510.258 313.133C509.956 313.539 509.581 313.857 509.133 314.086C508.685 314.31 508.195 314.422 507.664 314.422C507.039 314.422 506.477 314.271 505.977 313.969C505.482 313.661 505.094 313.237 504.812 312.695C504.536 312.148 504.398 311.531 504.398 310.844C504.398 310.146 504.536 309.526 504.812 308.984C505.094 308.438 505.482 308.016 505.977 307.719C506.471 307.417 507.034 307.266 507.664 307.266ZM506.18 310.82C506.18 311.409 506.315 311.87 506.586 312.203C506.857 312.536 507.216 312.703 507.664 312.703C507.956 312.703 508.214 312.63 508.438 312.484C508.667 312.333 508.846 312.12 508.977 311.844C509.107 311.562 509.174 311.229 509.18 310.844C509.174 310.458 509.107 310.122 508.977 309.836C508.846 309.549 508.667 309.331 508.438 309.18C508.214 309.029 507.956 308.953 507.664 308.953C507.372 308.953 507.115 309.029 506.891 309.18C506.667 309.331 506.492 309.547 506.367 309.828C506.242 310.109 506.18 310.44 506.18 310.82ZM506.914 315.438H508.914V318.594H516.914V320.188H506.914V315.438ZM514.664 306.219H516.555V316.812H514.664V306.219ZM531.18 318.859H518.164V317.219H523.648V315.078H519.664V310.297H527.711V308.734H519.648V307.141H529.68V311.859H521.664V313.453H530.008V315.078H525.633V317.219H531.18V318.859ZM544.992 315.797H539.43V320.453H537.461V315.797H531.977V314.172H544.992V315.797ZM533.289 309.922C533.289 309.271 533.505 308.703 533.938 308.219C534.37 307.729 534.974 307.352 535.75 307.086C536.531 306.82 537.43 306.688 538.445 306.688C539.461 306.688 540.359 306.82 541.141 307.086C541.927 307.352 542.539 307.729 542.977 308.219C543.414 308.703 543.633 309.271 543.633 309.922C543.633 310.557 543.414 311.115 542.977 311.594C542.539 312.073 541.927 312.443 541.141 312.703C540.354 312.964 539.456 313.094 538.445 313.094C537.435 313.094 536.539 312.964 535.758 312.703C534.977 312.443 534.37 312.073 533.938 311.594C533.505 311.115 533.289 310.557 533.289 309.922ZM535.336 309.922C535.336 310.255 535.461 310.542 535.711 310.781C535.961 311.021 536.32 311.203 536.789 311.328C537.258 311.448 537.81 311.51 538.445 311.516C539.419 311.51 540.182 311.37 540.734 311.094C541.292 310.812 541.57 310.422 541.57 309.922C541.57 309.401 541.292 309 540.734 308.719C540.182 308.432 539.419 308.286 538.445 308.281C537.477 308.286 536.714 308.432 536.156 308.719C535.604 309 535.331 309.401 535.336 309.922ZM561.305 308.844C561.299 309.656 561.286 310.349 561.266 310.922C561.25 311.49 561.203 312.156 561.125 312.922C561.052 313.682 560.935 314.505 560.773 315.391L558.82 315.219C559.023 314.062 559.154 313.023 559.211 312.102C559.268 311.18 559.299 310.156 559.305 309.031H550.789V307.453H561.305V308.844ZM549.508 317.078H552.273V312.609H554.258V317.078H555.82V312.609H557.789V317.078H562.477V318.703H549.508V317.078ZM570.883 307.328C570.878 307.906 571.068 308.474 571.453 309.031C571.844 309.583 572.414 310.062 573.164 310.469C573.914 310.87 574.81 311.135 575.852 311.266L575.07 312.875C573.852 312.698 572.792 312.344 571.891 311.812C570.995 311.276 570.31 310.615 569.836 309.828C569.357 310.615 568.669 311.276 567.773 311.812C566.883 312.344 565.836 312.698 564.633 312.875L563.836 311.266C564.867 311.135 565.755 310.87 566.5 310.469C567.25 310.062 567.818 309.583 568.203 309.031C568.589 308.474 568.784 307.906 568.789 307.328V306.641H570.883V307.328ZM563.336 313.953H576.305V315.578H570.773V320.438H568.805V315.578H563.336V313.953ZM502.555 342.969H500.555V341.844H497.836V340.484H500.555V332.234H502.555V342.969ZM490.461 338.531C492.247 338.521 493.883 338.49 495.367 338.438C496.852 338.38 498.258 338.271 499.586 338.109L499.695 339.531C498.612 339.714 497.466 339.849 496.258 339.938V342.641H494.258V344.594H502.867V346.188H492.273V341.938H494.258V340.055C493.268 340.091 492.081 340.109 490.695 340.109L490.461 338.531ZM491.508 335.266C491.508 334.766 491.659 334.323 491.961 333.938C492.263 333.552 492.685 333.253 493.227 333.039C493.768 332.826 494.388 332.719 495.086 332.719C495.768 332.719 496.378 332.826 496.914 333.039C497.451 333.253 497.87 333.552 498.172 333.938C498.479 334.323 498.633 334.766 498.633 335.266C498.633 335.766 498.479 336.206 498.172 336.586C497.87 336.966 497.451 337.258 496.914 337.461C496.378 337.664 495.768 337.766 495.086 337.766C494.383 337.766 493.76 337.664 493.219 337.461C492.682 337.258 492.263 336.966 491.961 336.586C491.659 336.206 491.508 335.766 491.508 335.266ZM493.398 335.266C493.393 335.604 493.544 335.867 493.852 336.055C494.164 336.237 494.586 336.328 495.117 336.328C495.596 336.328 495.984 336.234 496.281 336.047C496.583 335.859 496.737 335.599 496.742 335.266C496.737 334.922 496.581 334.654 496.273 334.461C495.971 334.268 495.576 334.172 495.086 334.172C494.57 334.172 494.159 334.268 493.852 334.461C493.544 334.654 493.393 334.922 493.398 335.266ZM516.742 346.438H514.836V339.312H513.633V345.781H511.742V341.711L510.617 343.203C509.378 342.552 508.484 341.445 507.938 339.883C507.432 341.68 506.544 342.958 505.273 343.719L504.039 342.188C505.06 341.615 505.794 340.768 506.242 339.648C506.695 338.523 506.924 337.219 506.93 335.734V335.281H504.523V333.688H511.039V335.281H508.867V335.734C508.867 337.083 509.094 338.281 509.547 339.328C510.005 340.375 510.737 341.159 511.742 341.68V332.422H513.633V337.688H514.836V332.219H516.742V346.438ZM523.398 335.562C523.404 336.115 523.529 336.648 523.773 337.164C524.018 337.674 524.391 338.135 524.891 338.547C525.391 338.958 526.013 339.276 526.758 339.5L525.805 341.047C525.029 340.823 524.357 340.482 523.789 340.023C523.221 339.56 522.773 339.01 522.445 338.375C522.117 339.062 521.667 339.656 521.094 340.156C520.526 340.656 519.841 341.031 519.039 341.281L518.07 339.719C518.815 339.495 519.438 339.169 519.938 338.742C520.438 338.315 520.807 337.828 521.047 337.281C521.292 336.734 521.414 336.161 521.414 335.562V335.453H518.555V333.891H521.414V332.312H523.43V333.891H526.273V335.453H523.398V335.562ZM520.711 341.875H522.711V344.594H530.492V346.188H520.711V341.875ZM525.805 336.375H528.164V332.234H530.148V342.781H528.164V337.984H525.805V336.375ZM547.477 334.844C547.471 335.656 547.458 336.349 547.438 336.922C547.422 337.49 547.375 338.156 547.297 338.922C547.224 339.682 547.107 340.505 546.945 341.391L544.992 341.219C545.195 340.062 545.326 339.023 545.383 338.102C545.44 337.18 545.471 336.156 545.477 335.031H536.961V333.453H547.477V334.844ZM535.68 343.078H538.445V338.609H540.43V343.078H541.992V338.609H543.961V343.078H548.648V344.703H535.68V343.078ZM557.055 333.328C557.049 333.906 557.24 334.474 557.625 335.031C558.016 335.583 558.586 336.062 559.336 336.469C560.086 336.87 560.982 337.135 562.023 337.266L561.242 338.875C560.023 338.698 558.964 338.344 558.062 337.812C557.167 337.276 556.482 336.615 556.008 335.828C555.529 336.615 554.841 337.276 553.945 337.812C553.055 338.344 552.008 338.698 550.805 338.875L550.008 337.266C551.039 337.135 551.927 336.87 552.672 336.469C553.422 336.062 553.99 335.583 554.375 335.031C554.76 334.474 554.956 333.906 554.961 333.328V332.641H557.055V333.328ZM549.508 339.953H562.477V341.578H556.945V346.438H554.977V341.578H549.508V339.953Z" fill="#DEDEDE"/>
<line x1="577" y1="303.5" x2="814" y2="303.5" stroke="#71161B"/>
<line x1="93" y1="303.5" x2="470" y2="303.5" stroke="#71161B"/>
<path d="M887.658 73.1914V73.748C887.658 74.4707 887.632 75.1608 887.58 75.8184C887.534 76.4694 887.44 77.1693 887.296 77.918H889.591V79.9102H882.677V82.4688H887.677V88.7969H885.177V84.4219H874.962V82.4688H880.177V79.9102H873.322V77.918H884.777C884.927 77.1693 885.028 76.4759 885.08 75.8379C885.132 75.1999 885.164 74.513 885.177 73.7773H875.314V71.8047H887.658V73.1914ZM905.978 88.7969H903.615V71.0234H905.978V88.7969ZM890.236 83.6016C891.466 82.8464 892.371 81.7689 892.951 80.3691C893.537 78.9629 893.83 77.4362 893.83 75.7891V74.832H890.919V72.8398H898.927V74.832H896.232V75.7891C896.225 77.3971 896.502 78.862 897.062 80.1836C897.628 81.5052 898.524 82.5143 899.748 83.2109L898.283 85.0469C896.785 84.1615 895.708 82.6836 895.05 80.6133C894.738 81.694 894.305 82.6478 893.751 83.4746C893.198 84.3014 892.528 84.9557 891.74 85.4375L890.236 83.6016ZM897.658 77.1172H900.001V71.3164H902.345V87.9766H900.001V79.1289H897.658V77.1172ZM916.095 87H913.166V72.8594H916.095V87ZM926.154 76.9023C926.095 76.3424 925.851 75.9062 925.421 75.5938C924.998 75.2812 924.429 75.125 923.712 75.125C923.224 75.125 922.804 75.1966 922.453 75.3398C922.108 75.4766 921.844 75.6686 921.662 75.916C921.479 76.1634 921.388 76.4434 921.388 76.7559C921.388 77.2246 921.59 77.5957 921.994 77.8691C922.404 78.1361 922.957 78.3477 923.654 78.5039L924.923 78.8164C926.232 79.1159 927.264 79.6042 928.019 80.2812C928.774 80.9518 929.155 81.8438 929.162 82.957C929.162 83.8164 928.944 84.5651 928.507 85.2031C928.071 85.8411 927.443 86.3327 926.623 86.6777C925.802 87.0228 924.826 87.1953 923.693 87.1953C922.547 87.2018 921.554 87.0293 920.714 86.6777C919.875 86.3262 919.22 85.8053 918.751 85.1152C918.283 84.4251 918.035 83.582 918.009 82.5859H920.861C920.906 83.2826 921.18 83.8164 921.681 84.1875C922.189 84.5521 922.847 84.7344 923.654 84.7344C924.162 84.7344 924.608 84.6595 924.992 84.5098C925.376 84.36 925.672 84.1517 925.88 83.8848C926.089 83.6178 926.193 83.3086 926.193 82.957C926.193 82.5013 925.994 82.14 925.597 81.873C925.207 81.5996 924.598 81.362 923.771 81.1602L922.228 80.7891C919.663 80.1576 918.38 78.875 918.38 76.9414C918.38 76.1016 918.608 75.3594 919.064 74.7148C919.526 74.0638 920.161 73.5592 920.968 73.2012C921.782 72.8431 922.703 72.6641 923.732 72.6641C924.761 72.6641 925.669 72.8431 926.457 73.2012C927.244 73.5592 927.856 74.0605 928.292 74.7051C928.729 75.3431 928.953 76.0755 928.966 76.9023H926.154ZM931.076 87V72.8594H936.115C937.528 72.8594 938.748 73.1426 939.777 73.709C940.812 74.2689 941.603 75.0794 942.15 76.1406C942.697 77.1953 942.97 78.4518 942.97 79.9102C942.97 81.375 942.694 82.6413 942.14 83.709C941.593 84.7702 940.799 85.584 939.757 86.1504C938.722 86.7168 937.488 87 936.056 87H931.076ZM935.939 84.4805C937.306 84.4805 938.332 84.1094 939.015 83.3672C939.699 82.625 940.041 81.4727 940.041 79.9102C940.041 78.3607 939.699 77.2181 939.015 76.4824C938.338 75.7467 937.319 75.3789 935.958 75.3789H934.005V84.4805H935.939ZM964.318 84.3242H961.955V71.0234H964.318V84.3242ZM948.83 80.125C949.604 79.7539 950.246 79.2689 950.753 78.6699C951.261 78.071 951.632 77.4167 951.867 76.707C952.108 75.9974 952.228 75.2747 952.228 74.5391V72.2148H954.65V74.5391C954.643 75.6393 954.897 76.6484 955.412 77.5664C955.932 78.4779 956.733 79.181 957.814 79.6758L956.427 81.5898C955.08 80.9648 954.09 79.9167 953.458 78.4453C953.133 79.2526 952.697 79.9622 952.15 80.5742C951.61 81.1797 950.958 81.6615 950.197 82.0195L948.83 80.125ZM952.267 82.7617H954.767V86.4922H964.767V88.4844H952.267V82.7617ZM956.193 75.0859H958.361V71.2969H960.724V83.7969H958.361V77.1172H956.193V75.0859ZM981.33 88.8359H978.869V79.3047H975.744V77.293H978.869V71.0234H981.33V88.8359ZM967.15 72.5078H975.451V74.5195H969.63V77.4688H974.806V79.4219H969.63V82.7812C970.972 82.7682 972.153 82.7324 973.175 82.6738C974.204 82.6087 975.236 82.4948 976.271 82.332L976.525 84.3242C975.301 84.5065 974.08 84.6335 972.863 84.7051C971.645 84.7702 970.21 84.806 968.556 84.8125H967.15V72.5078Z" fill="#71161B"/>
<path d="M905.527 116.953H904.042V115.609H901.23V114.562H904.042V106.344H905.527V116.953ZM893.996 112.734C895.85 112.719 897.475 112.685 898.871 112.633C900.266 112.581 901.605 112.474 902.886 112.312L902.98 113.375C901.933 113.552 900.704 113.69 899.292 113.789V116.516H897.808V113.867C896.902 113.904 895.636 113.922 894.011 113.922L893.824 112.734H893.996ZM894.917 109.344C894.917 108.854 895.061 108.424 895.347 108.055C895.639 107.68 896.048 107.391 896.574 107.188C897.105 106.979 897.714 106.875 898.402 106.875C899.079 106.875 899.681 106.979 900.207 107.188C900.733 107.391 901.141 107.68 901.433 108.055C901.725 108.424 901.871 108.854 901.871 109.344C901.871 109.833 901.725 110.263 901.433 110.633C901.141 110.997 900.733 111.281 900.207 111.484C899.681 111.682 899.079 111.781 898.402 111.781C897.714 111.781 897.108 111.682 896.582 111.484C896.056 111.281 895.647 110.997 895.355 110.633C895.063 110.263 894.917 109.833 894.917 109.344ZM895.761 115.922H897.23V118.828H905.871V120.031H895.761V115.922ZM896.324 109.344C896.324 109.615 896.41 109.852 896.582 110.055C896.753 110.258 896.996 110.414 897.308 110.523C897.626 110.633 897.99 110.688 898.402 110.688C898.798 110.688 899.152 110.633 899.464 110.523C899.777 110.414 900.022 110.258 900.199 110.055C900.376 109.852 900.464 109.615 900.464 109.344C900.464 109.068 900.376 108.828 900.199 108.625C900.022 108.417 899.777 108.258 899.464 108.148C899.152 108.034 898.798 107.979 898.402 107.984C897.99 107.979 897.626 108.034 897.308 108.148C896.996 108.258 896.753 108.417 896.582 108.625C896.41 108.828 896.324 109.068 896.324 109.344ZM919.808 120.328H918.386V113.141H916.714V119.641H915.308V106.594H916.714V111.891H918.386V106.328H919.808V120.328ZM907.527 116.375C908.522 115.818 909.269 114.982 909.769 113.867C910.274 112.753 910.527 111.474 910.527 110.031V109.125H907.902V107.922H914.402V109.125H911.964V110.031C911.964 110.891 912.074 111.701 912.292 112.461C912.511 113.216 912.842 113.891 913.285 114.484C913.733 115.073 914.287 115.536 914.949 115.875L914.074 117.016C913.402 116.651 912.832 116.156 912.363 115.531C911.894 114.901 911.532 114.174 911.277 113.352C911.032 114.294 910.673 115.12 910.199 115.828C909.73 116.531 909.147 117.089 908.449 117.5L907.527 116.375ZM926.449 109.656C926.449 110.245 926.589 110.807 926.871 111.344C927.152 111.88 927.553 112.357 928.074 112.773C928.6 113.185 929.214 113.5 929.917 113.719L929.199 114.891C928.402 114.641 927.707 114.263 927.113 113.758C926.519 113.247 926.061 112.646 925.738 111.953C925.431 112.693 924.977 113.336 924.378 113.883C923.785 114.43 923.079 114.839 922.261 115.109L921.542 113.953C922.246 113.729 922.855 113.401 923.371 112.969C923.891 112.531 924.29 112.026 924.566 111.453C924.842 110.88 924.98 110.281 924.98 109.656V109.328H921.933V108.125H924.98V106.422H926.464V108.125H929.496V109.328H926.449V109.656ZM924.121 115.844H925.605V118.828H933.589V120.031H924.121V115.844ZM929.011 110.578H931.73V106.344H933.214V116.766H931.73V111.781H929.011V110.578ZM946.746 109.172V109.344C946.735 110.5 946.699 111.521 946.636 112.406C946.579 113.286 946.444 114.302 946.23 115.453L944.777 115.297C944.975 114.281 945.105 113.346 945.167 112.492C945.23 111.633 945.261 110.721 945.261 109.758V109.172V108.875H936.683V107.672H946.746V109.172ZM935.371 117.203H938.386V112.672H939.871V117.203H941.886V112.672H943.339V117.203H948.136V118.438H935.371V117.203ZM956.371 107.562C956.371 108.172 956.595 108.758 957.042 109.32C957.496 109.883 958.105 110.362 958.871 110.758C959.641 111.154 960.48 111.411 961.386 111.531L960.808 112.75C960.048 112.63 959.326 112.422 958.644 112.125C957.962 111.828 957.358 111.461 956.832 111.023C956.311 110.581 955.899 110.089 955.597 109.547C955.295 110.089 954.881 110.581 954.355 111.023C953.834 111.461 953.235 111.828 952.558 112.125C951.881 112.417 951.162 112.625 950.402 112.75L949.808 111.531C950.714 111.411 951.55 111.156 952.316 110.766C953.082 110.375 953.691 109.898 954.144 109.336C954.597 108.768 954.824 108.177 954.824 107.562V106.797H956.371V107.562ZM949.199 114.125H961.964V115.344H956.277V120.328H954.824V115.344H949.199V114.125Z" fill="#424242"/>
<rect x="815.5" y="57.5" width="224.882" height="75" rx="6.5" stroke="#71161B" stroke-width="3"/>
<path d="M890.949 171.191V171.748C890.949 172.471 890.923 173.161 890.871 173.818C890.825 174.469 890.731 175.169 890.587 175.918H892.882V177.91H885.968V180.469H890.968V186.797H888.468V182.422H878.253V180.469H883.468V177.91H876.613V175.918H888.068C888.218 175.169 888.319 174.476 888.371 173.838C888.423 173.2 888.455 172.513 888.468 171.777H878.605V169.805H890.949V171.191ZM909.269 186.797H906.906V169.023H909.269V186.797ZM893.527 181.602C894.757 180.846 895.662 179.769 896.242 178.369C896.828 176.963 897.121 175.436 897.121 173.789V172.832H894.21V170.84H902.218V172.832H899.523V173.789C899.516 175.397 899.793 176.862 900.353 178.184C900.919 179.505 901.815 180.514 903.039 181.211L901.574 183.047C900.076 182.161 898.999 180.684 898.341 178.613C898.029 179.694 897.596 180.648 897.042 181.475C896.489 182.301 895.819 182.956 895.031 183.438L893.527 181.602ZM900.949 175.117H903.292V169.316H905.636V185.977H903.292V177.129H900.949V175.117ZM927.394 179.102H920.519V180.42C922.075 180.531 923.286 180.859 924.152 181.406C925.018 181.953 925.454 182.682 925.46 183.594C925.454 184.271 925.203 184.85 924.708 185.332C924.214 185.814 923.501 186.178 922.57 186.426C921.645 186.673 920.545 186.797 919.269 186.797C917.973 186.797 916.857 186.673 915.919 186.426C914.988 186.178 914.276 185.814 913.781 185.332C913.286 184.857 913.039 184.277 913.039 183.594C913.039 182.676 913.475 181.943 914.347 181.396C915.22 180.85 916.45 180.521 918.039 180.41V179.102H911.183V177.09H927.394V179.102ZM911.906 174.473C912.96 174.382 913.878 174.199 914.66 173.926C915.441 173.652 916.063 173.327 916.525 172.949C916.994 172.572 917.306 172.168 917.462 171.738H912.667V169.785H925.929V171.738H921.095C921.245 172.168 921.551 172.575 922.013 172.959C922.482 173.337 923.11 173.662 923.898 173.936C924.692 174.202 925.63 174.382 926.71 174.473L925.832 176.426C924.184 176.27 922.801 175.902 921.681 175.322C920.561 174.736 919.757 174.001 919.269 173.115C918.787 174.001 917.986 174.736 916.867 175.322C915.747 175.908 914.367 176.276 912.726 176.426L911.906 174.473ZM915.578 183.594C915.571 184.023 915.877 184.352 916.496 184.58C917.121 184.808 918.045 184.922 919.269 184.922C920.473 184.922 921.388 184.808 922.013 184.58C922.638 184.352 922.954 184.023 922.96 183.594C922.954 182.715 921.723 182.266 919.269 182.246C918.032 182.259 917.104 182.376 916.486 182.598C915.874 182.812 915.571 183.145 915.578 183.594ZM943.976 186.797H941.593V177.891H940.089V185.977H937.726V180.889L936.32 182.754C934.77 181.94 933.654 180.557 932.97 178.604C932.339 180.85 931.229 182.448 929.64 183.398L928.097 181.484C929.373 180.768 930.291 179.71 930.851 178.311C931.417 176.904 931.704 175.273 931.71 173.418V172.852H928.703V170.859H936.847V172.852H934.132V173.418C934.132 175.104 934.416 176.602 934.982 177.91C935.555 179.219 936.47 180.199 937.726 180.85V169.277H940.089V175.859H941.593V169.023H943.976V186.797ZM961.027 182.324H958.664V169.023H961.027V182.324ZM945.539 178.125C946.313 177.754 946.955 177.269 947.462 176.67C947.97 176.071 948.341 175.417 948.576 174.707C948.817 173.997 948.937 173.275 948.937 172.539V170.215H951.359V172.539C951.352 173.639 951.606 174.648 952.121 175.566C952.641 176.478 953.442 177.181 954.523 177.676L953.136 179.59C951.789 178.965 950.799 177.917 950.167 176.445C949.842 177.253 949.406 177.962 948.859 178.574C948.319 179.18 947.667 179.661 946.906 180.02L945.539 178.125ZM948.976 180.762H951.476V184.492H961.476V186.484H948.976V180.762ZM952.902 173.086H955.07V169.297H957.433V181.797H955.07V175.117H952.902V173.086ZM978.039 186.836H975.578V177.305H972.453V175.293H975.578V169.023H978.039V186.836ZM963.859 170.508H972.16V172.52H966.339V175.469H971.515V177.422H966.339V180.781C967.681 180.768 968.862 180.732 969.884 180.674C970.913 180.609 971.945 180.495 972.98 180.332L973.234 182.324C972.01 182.507 970.789 182.633 969.572 182.705C968.354 182.77 966.919 182.806 965.265 182.812H963.859V170.508Z" fill="#71161B"/>
<path d="M890.152 218.328H888.73V204.328H890.152V218.328ZM878.261 210.375C878.261 209.375 878.384 208.505 878.628 207.766C878.878 207.021 879.23 206.451 879.683 206.055C880.141 205.654 880.673 205.453 881.277 205.453C881.839 205.453 882.337 205.622 882.769 205.961C883.207 206.299 883.556 206.789 883.816 207.43C884.082 208.065 884.243 208.818 884.3 209.688H885.886V204.594H887.308V217.641H885.886V210.891H884.308C884.266 211.797 884.115 212.583 883.855 213.25C883.595 213.911 883.243 214.422 882.8 214.781C882.358 215.135 881.85 215.312 881.277 215.312C880.673 215.312 880.141 215.115 879.683 214.719C879.23 214.318 878.878 213.745 878.628 213C878.384 212.25 878.261 211.375 878.261 210.375ZM879.636 210.375C879.636 211.109 879.701 211.742 879.832 212.273C879.967 212.805 880.157 213.211 880.402 213.492C880.652 213.768 880.944 213.906 881.277 213.906C881.621 213.906 881.917 213.768 882.167 213.492C882.417 213.211 882.61 212.805 882.746 212.273C882.881 211.742 882.949 211.109 882.949 210.375C882.949 209.635 882.881 209.003 882.746 208.477C882.61 207.945 882.417 207.542 882.167 207.266C881.917 206.984 881.621 206.844 881.277 206.844C880.944 206.844 880.652 206.984 880.402 207.266C880.157 207.542 879.967 207.945 879.832 208.477C879.701 209.008 879.636 209.641 879.636 210.375ZM903.542 212.891H902.058V204.344H903.542V212.891ZM892.636 205.156H899.074V209.156H894.121V210.953C895.433 210.943 896.571 210.909 897.535 210.852C898.498 210.794 899.485 210.693 900.496 210.547L900.683 211.75C899.636 211.911 898.618 212.023 897.628 212.086C896.639 212.143 895.49 212.172 894.183 212.172H893.839H892.667V208H897.605V206.359H892.636V205.156ZM894.058 213.609H903.542V218.328H902.058V214.828H894.058V213.609ZM909.089 205.406C909.641 205.406 910.144 205.526 910.597 205.766C911.05 206 911.423 206.333 911.714 206.766C912.006 207.198 912.191 207.698 912.269 208.266H913.574V204.578H914.964V214.375H913.574V209.5H912.261C912.173 210.052 911.98 210.539 911.683 210.961C911.391 211.378 911.022 211.701 910.574 211.93C910.126 212.159 909.631 212.271 909.089 212.266C908.475 212.271 907.923 212.13 907.433 211.844C906.949 211.552 906.569 211.146 906.292 210.625C906.022 210.099 905.886 209.505 905.886 208.844C905.886 208.172 906.022 207.576 906.292 207.055C906.563 206.534 906.941 206.13 907.425 205.844C907.915 205.552 908.47 205.406 909.089 205.406ZM907.214 208.844C907.214 209.271 907.292 209.648 907.449 209.977C907.61 210.299 907.834 210.552 908.121 210.734C908.407 210.911 908.73 211 909.089 211C909.449 211 909.769 210.911 910.05 210.734C910.337 210.552 910.561 210.299 910.722 209.977C910.889 209.648 910.975 209.271 910.98 208.844C910.975 208.422 910.889 208.047 910.722 207.719C910.561 207.385 910.337 207.128 910.05 206.945C909.764 206.763 909.444 206.672 909.089 206.672C908.73 206.672 908.407 206.763 908.121 206.945C907.834 207.128 907.61 207.385 907.449 207.719C907.292 208.047 907.214 208.422 907.214 208.844ZM908.417 213.438H909.886V216.828H918.105V218.031H908.417V213.438ZM916.292 204.328H917.699V214.797H916.292V204.328ZM932.402 216.656H919.589V215.406H925.23V212.953H921.152V208.5H929.371V206.531H921.121V205.312H930.839V209.688H922.621V211.734H931.167V212.953H926.699V215.406H932.402V216.656ZM946.214 213.516H940.496V218.328H939.042V213.516H933.402V212.281H946.214V213.516ZM934.792 207.969C934.792 207.344 935.001 206.797 935.417 206.328C935.839 205.854 936.425 205.492 937.175 205.242C937.925 204.987 938.792 204.859 939.777 204.859C940.761 204.859 941.628 204.987 942.378 205.242C943.134 205.492 943.72 205.854 944.136 206.328C944.553 206.797 944.761 207.344 944.761 207.969C944.761 208.589 944.553 209.13 944.136 209.594C943.72 210.057 943.134 210.417 942.378 210.672C941.628 210.922 940.761 211.047 939.777 211.047C938.798 211.047 937.931 210.922 937.175 210.672C936.425 210.417 935.839 210.057 935.417 209.594C935.001 209.13 934.792 208.589 934.792 207.969ZM936.324 207.969C936.324 208.354 936.464 208.69 936.746 208.977C937.032 209.258 937.436 209.477 937.957 209.633C938.483 209.784 939.089 209.859 939.777 209.859C940.47 209.859 941.076 209.784 941.597 209.633C942.118 209.477 942.522 209.258 942.808 208.977C943.1 208.69 943.246 208.354 943.246 207.969C943.246 207.578 943.1 207.24 942.808 206.953C942.522 206.667 942.118 206.445 941.597 206.289C941.076 206.128 940.47 206.047 939.777 206.047C939.089 206.047 938.483 206.128 937.957 206.289C937.436 206.445 937.032 206.667 936.746 206.953C936.464 207.24 936.324 207.578 936.324 207.969ZM962.527 207.172V207.344C962.516 208.5 962.48 209.521 962.417 210.406C962.36 211.286 962.225 212.302 962.011 213.453L960.558 213.297C960.756 212.281 960.886 211.346 960.949 210.492C961.011 209.633 961.042 208.721 961.042 207.758V207.172V206.875H952.464V205.672H962.527V207.172ZM951.152 215.203H954.167V210.672H955.652V215.203H957.667V210.672H959.121V215.203H963.917V216.438H951.152V215.203ZM972.152 205.562C972.152 206.172 972.376 206.758 972.824 207.32C973.277 207.883 973.886 208.362 974.652 208.758C975.423 209.154 976.261 209.411 977.167 209.531L976.589 210.75C975.829 210.63 975.108 210.422 974.425 210.125C973.743 209.828 973.139 209.461 972.613 209.023C972.092 208.581 971.681 208.089 971.378 207.547C971.076 208.089 970.662 208.581 970.136 209.023C969.615 209.461 969.016 209.828 968.339 210.125C967.662 210.417 966.944 210.625 966.183 210.75L965.589 209.531C966.496 209.411 967.332 209.156 968.097 208.766C968.863 208.375 969.472 207.898 969.925 207.336C970.378 206.768 970.605 206.177 970.605 205.562V204.797H972.152V205.562ZM964.98 212.125H977.746V213.344H972.058V218.328H970.605V213.344H964.98V212.125Z" fill="#424242"/>
<rect x="815.5" y="155.5" width="224.882" height="75" rx="6.5" stroke="#71161B" stroke-width="3"/>
<path d="M890.832 274.25H893.156V276.32H890.832V284.797H888.312V267.023H890.832V274.25ZM876.398 279.777C878.273 279.777 879.738 279.764 880.792 279.738V278.215C880.167 278.091 879.621 277.88 879.152 277.58C878.683 277.281 878.322 276.91 878.068 276.467C877.814 276.024 877.687 275.533 877.687 274.992C877.687 274.341 877.869 273.762 878.234 273.254C878.605 272.746 879.123 272.352 879.787 272.072C880.451 271.792 881.209 271.652 882.062 271.652C882.902 271.652 883.651 271.792 884.308 272.072C884.972 272.352 885.49 272.746 885.861 273.254C886.238 273.762 886.431 274.341 886.437 274.992C886.431 275.533 886.297 276.027 886.037 276.477C885.776 276.919 885.408 277.29 884.933 277.59C884.464 277.889 883.917 278.098 883.292 278.215V279.65C884.875 279.566 886.255 279.439 887.433 279.27L887.589 281.086C886.027 281.372 884.409 281.564 882.736 281.662C881.063 281.76 879.298 281.809 877.443 281.809H876.73L876.398 279.777ZM876.75 268.996H880.792V267.121H883.292V268.996H887.296V270.949H876.75V268.996ZM880.05 274.992C880.044 275.454 880.22 275.812 880.578 276.066C880.942 276.314 881.437 276.438 882.062 276.438C882.667 276.438 883.146 276.314 883.498 276.066C883.856 275.812 884.035 275.454 884.035 274.992C884.035 274.543 883.856 274.191 883.498 273.938C883.139 273.684 882.661 273.553 882.062 273.547C881.444 273.553 880.952 273.684 880.587 273.938C880.223 274.191 880.044 274.543 880.05 274.992ZM902.472 271.711H893.878V269.738H896.964V267.512H899.425V269.738H902.472V271.711ZM894.289 276.73C894.289 275.917 894.458 275.191 894.796 274.553C895.135 273.915 895.6 273.417 896.193 273.059C896.792 272.694 897.466 272.512 898.214 272.512C898.963 272.512 899.634 272.694 900.226 273.059C900.819 273.417 901.281 273.915 901.613 274.553C901.951 275.191 902.121 275.917 902.121 276.73C902.121 277.544 901.951 278.273 901.613 278.918C901.281 279.562 900.819 280.067 900.226 280.432C899.634 280.79 898.963 280.969 898.214 280.969C897.466 280.969 896.792 280.79 896.193 280.432C895.6 280.067 895.135 279.562 894.796 278.918C894.458 278.273 894.289 277.544 894.289 276.73ZM896.476 276.73C896.476 277.401 896.632 277.925 896.945 278.303C897.264 278.674 897.687 278.859 898.214 278.859C898.722 278.859 899.132 278.671 899.445 278.293C899.764 277.915 899.927 277.395 899.933 276.73C899.933 276.294 899.858 275.913 899.708 275.588C899.559 275.262 899.354 275.015 899.093 274.846C898.839 274.67 898.546 274.582 898.214 274.582C897.694 274.582 897.274 274.774 896.955 275.158C896.636 275.542 896.476 276.066 896.476 276.73ZM903.136 267.375H905.46V274.25H906.906V267.023H909.269V284.797H906.906V276.242H905.46V284.035H903.136V267.375ZM927.453 282.727H911.183V280.715H918.058V276.75H920.558V280.715H927.453V282.727ZM911.847 275.559C913.039 275.363 914.083 275.008 914.982 274.494C915.88 273.98 916.583 273.365 917.091 272.648C917.599 271.932 917.889 271.177 917.96 270.383H912.531V268.371H926.027V270.383H920.617C920.682 271.177 920.968 271.929 921.476 272.639C921.99 273.342 922.707 273.944 923.625 274.445C924.542 274.94 925.617 275.279 926.847 275.461L925.871 277.434C924.328 277.16 922.99 276.662 921.857 275.939C920.731 275.217 919.878 274.325 919.298 273.264C918.732 274.344 917.889 275.259 916.769 276.008C915.656 276.75 914.341 277.258 912.824 277.531L911.847 275.559ZM943.449 277.57H940.968V273.371H938.195V271.359H940.968V267.023H943.449V277.57ZM928.351 275.617C929.282 275.305 930.067 274.859 930.705 274.279C931.343 273.7 931.821 273.049 932.14 272.326C932.459 271.604 932.628 270.858 932.648 270.09H929.074V268.098H938.722V270.09H935.187C935.207 270.806 935.366 271.496 935.666 272.16C935.965 272.818 936.417 273.41 937.023 273.938C937.635 274.465 938.384 274.875 939.269 275.168L938.039 277.121C937.088 276.815 936.268 276.359 935.578 275.754C934.894 275.142 934.354 274.426 933.957 273.605C933.553 274.536 932.99 275.347 932.267 276.037C931.544 276.721 930.669 277.238 929.64 277.59L928.351 275.617ZM931.261 281.398C931.261 280.689 931.505 280.077 931.994 279.562C932.488 279.042 933.195 278.645 934.113 278.371C935.031 278.098 936.118 277.961 937.375 277.961C938.638 277.961 939.728 278.098 940.646 278.371C941.564 278.645 942.27 279.038 942.765 279.553C943.26 280.067 943.507 280.682 943.507 281.398C943.507 282.115 943.26 282.727 942.765 283.234C942.27 283.749 941.564 284.139 940.646 284.406C939.728 284.68 938.638 284.816 937.375 284.816C936.118 284.816 935.031 284.68 934.113 284.406C933.195 284.139 932.488 283.749 931.994 283.234C931.505 282.72 931.261 282.108 931.261 281.398ZM933.742 281.398C933.742 281.9 934.051 282.281 934.669 282.541C935.288 282.795 936.19 282.922 937.375 282.922C938.566 282.922 939.471 282.795 940.089 282.541C940.708 282.287 941.02 281.906 941.027 281.398C941.02 280.897 940.711 280.52 940.099 280.266C939.494 280.005 938.608 279.875 937.443 279.875C934.975 279.875 933.742 280.383 933.742 281.398ZM961.027 280.324H958.664V267.023H961.027V280.324ZM945.539 276.125C946.313 275.754 946.955 275.269 947.462 274.67C947.97 274.071 948.341 273.417 948.576 272.707C948.817 271.997 948.937 271.275 948.937 270.539V268.215H951.359V270.539C951.352 271.639 951.606 272.648 952.121 273.566C952.641 274.478 953.442 275.181 954.523 275.676L953.136 277.59C951.789 276.965 950.799 275.917 950.167 274.445C949.842 275.253 949.406 275.962 948.859 276.574C948.319 277.18 947.667 277.661 946.906 278.02L945.539 276.125ZM948.976 278.762H951.476V282.492H961.476V284.484H948.976V278.762ZM952.902 271.086H955.07V267.297H957.433V279.797H955.07V273.117H952.902V271.086ZM978.039 284.836H975.578V275.305H972.453V273.293H975.578V267.023H978.039V284.836ZM963.859 268.508H972.16V270.52H966.339V273.469H971.515V275.422H966.339V278.781C967.681 278.768 968.862 278.732 969.884 278.674C970.913 278.609 971.945 278.495 972.98 278.332L973.234 280.324C972.01 280.507 970.789 280.633 969.572 280.705C968.354 280.77 966.919 280.806 965.265 280.812H963.859V268.508Z" fill="#71161B"/>
<path d="M905.496 312.594H904.011V302.344H905.496V312.594ZM893.964 309.438C894.683 309.172 895.306 308.786 895.832 308.281C896.358 307.776 896.759 307.195 897.035 306.539C897.316 305.883 897.459 305.203 897.464 304.5V303.109H898.98V304.5C898.98 305.182 899.118 305.833 899.394 306.453C899.67 307.073 900.069 307.62 900.589 308.094C901.11 308.568 901.725 308.927 902.433 309.172L901.667 310.359C900.865 310.062 900.17 309.63 899.582 309.062C898.998 308.49 898.548 307.82 898.23 307.055C897.917 307.878 897.462 308.599 896.863 309.219C896.269 309.833 895.569 310.297 894.761 310.609L893.964 309.438ZM896.339 311.625H897.839V314.828H905.917V316.031H896.339V311.625ZM920.48 310.828H907.714V309.641H920.48V310.828ZM909.089 305.594C909.089 305.016 909.292 304.516 909.699 304.094C910.105 303.672 910.686 303.352 911.441 303.133C912.196 302.909 913.079 302.797 914.089 302.797C915.095 302.797 915.972 302.909 916.722 303.133C917.477 303.352 918.061 303.672 918.472 304.094C918.884 304.516 919.089 305.016 919.089 305.594C919.089 306.177 918.884 306.682 918.472 307.109C918.061 307.536 917.477 307.865 916.722 308.094C915.972 308.323 915.095 308.438 914.089 308.438C913.079 308.438 912.196 308.323 911.441 308.094C910.686 307.865 910.105 307.536 909.699 307.109C909.292 306.682 909.089 306.177 909.089 305.594ZM909.324 311.969H910.824V314.828H919.042V316.031H909.324V311.969ZM910.621 305.594C910.621 305.938 910.759 306.232 911.035 306.477C911.311 306.716 911.709 306.901 912.23 307.031C912.756 307.156 913.376 307.219 914.089 307.219C914.803 307.219 915.42 307.156 915.941 307.031C916.462 306.901 916.86 306.716 917.136 306.477C917.417 306.232 917.558 305.938 917.558 305.594C917.558 305.266 917.417 304.982 917.136 304.742C916.86 304.497 916.459 304.31 915.933 304.18C915.412 304.049 914.798 303.984 914.089 303.984C913.376 303.984 912.759 304.049 912.238 304.18C911.717 304.31 911.316 304.497 911.035 304.742C910.759 304.982 910.621 305.266 910.621 305.594ZM934.308 311.422H928.621V316.312H927.167V311.422H921.542V310.219H934.308V311.422ZM922.261 307.984C923.126 307.865 923.923 307.628 924.652 307.273C925.386 306.914 925.972 306.477 926.41 305.961C926.847 305.445 927.074 304.906 927.089 304.344H922.73V303.156H933.105V304.344H928.777C928.782 304.906 929.001 305.445 929.433 305.961C929.871 306.477 930.457 306.914 931.191 307.273C931.925 307.628 932.73 307.865 933.605 307.984L933.058 309.156C932.292 309.036 931.571 308.836 930.894 308.555C930.217 308.268 929.623 307.914 929.113 307.492C928.602 307.065 928.207 306.591 927.925 306.07C927.644 306.591 927.248 307.065 926.738 307.492C926.227 307.914 925.636 308.268 924.964 308.555C924.292 308.836 923.579 309.036 922.824 309.156L922.261 307.984ZM946.746 305.172V305.344C946.735 306.5 946.699 307.521 946.636 308.406C946.579 309.286 946.444 310.302 946.23 311.453L944.777 311.297C944.975 310.281 945.105 309.346 945.167 308.492C945.23 307.633 945.261 306.721 945.261 305.758V305.172V304.875H936.683V303.672H946.746V305.172ZM935.371 313.203H938.386V308.672H939.871V313.203H941.886V308.672H943.339V313.203H948.136V314.438H935.371V313.203ZM956.371 303.562C956.371 304.172 956.595 304.758 957.042 305.32C957.496 305.883 958.105 306.362 958.871 306.758C959.641 307.154 960.48 307.411 961.386 307.531L960.808 308.75C960.048 308.63 959.326 308.422 958.644 308.125C957.962 307.828 957.358 307.461 956.832 307.023C956.311 306.581 955.899 306.089 955.597 305.547C955.295 306.089 954.881 306.581 954.355 307.023C953.834 307.461 953.235 307.828 952.558 308.125C951.881 308.417 951.162 308.625 950.402 308.75L949.808 307.531C950.714 307.411 951.55 307.156 952.316 306.766C953.082 306.375 953.691 305.898 954.144 305.336C954.597 304.768 954.824 304.177 954.824 303.562V302.797H956.371V303.562ZM949.199 310.125H961.964V311.344H956.277V316.328H954.824V311.344H949.199V310.125ZM901.292 329.203C901.292 330.385 901.024 331.453 900.488 332.406C899.951 333.359 899.183 334.174 898.183 334.852C897.188 335.523 895.996 336.042 894.605 336.406L894.011 335.234C895.126 334.943 896.092 334.56 896.91 334.086C897.733 333.607 898.381 333.055 898.855 332.43C899.329 331.805 899.61 331.125 899.699 330.391H894.792V329.203H901.292ZM896.324 336.844H905.496V342.141H896.324V336.844ZM904.042 340.953V338.031H897.792V340.953H904.042ZM904.011 328.344H905.496V336.219H904.011V328.344ZM911.98 332.156C911.98 332.917 912.087 333.669 912.3 334.414C912.514 335.154 912.832 335.831 913.253 336.445C913.675 337.06 914.188 337.552 914.792 337.922L913.964 339.062C913.329 338.682 912.785 338.164 912.332 337.508C911.884 336.846 911.535 336.096 911.285 335.258C911.024 336.169 910.652 336.982 910.167 337.695C909.688 338.409 909.115 338.969 908.449 339.375L907.527 338.266C908.167 337.88 908.714 337.367 909.167 336.727C909.626 336.086 909.97 335.378 910.199 334.602C910.433 333.82 910.548 333.026 910.542 332.219V329.609H911.98V332.156ZM913.277 333.25H915.449V328.594H916.855V341.641H915.449V334.484H913.277V333.25ZM918.339 328.328H919.761V342.328H918.339V328.328ZM928.886 338.875H922.324V329.672H928.886V338.875ZM927.449 337.672V330.844H923.792V337.672H927.449ZM931.652 328.328H933.136V342.359H931.652V328.328ZM946.746 331.172V331.344C946.735 332.5 946.699 333.521 946.636 334.406C946.579 335.286 946.444 336.302 946.23 337.453L944.777 337.297C944.975 336.281 945.105 335.346 945.167 334.492C945.23 333.633 945.261 332.721 945.261 331.758V331.172V330.875H936.683V329.672H946.746V331.172ZM935.371 339.203H938.386V334.672H939.871V339.203H941.886V334.672H943.339V339.203H948.136V340.438H935.371V339.203ZM956.371 329.562C956.371 330.172 956.595 330.758 957.042 331.32C957.496 331.883 958.105 332.362 958.871 332.758C959.641 333.154 960.48 333.411 961.386 333.531L960.808 334.75C960.048 334.63 959.326 334.422 958.644 334.125C957.962 333.828 957.358 333.461 956.832 333.023C956.311 332.581 955.899 332.089 955.597 331.547C955.295 332.089 954.881 332.581 954.355 333.023C953.834 333.461 953.235 333.828 952.558 334.125C951.881 334.417 951.162 334.625 950.402 334.75L949.808 333.531C950.714 333.411 951.55 333.156 952.316 332.766C953.082 332.375 953.691 331.898 954.144 331.336C954.597 330.768 954.824 330.177 954.824 329.562V328.797H956.371V329.562ZM949.199 336.125H961.964V337.344H956.277V342.328H954.824V337.344H949.199V336.125Z" fill="#424242"/>
<rect x="815.5" y="253.5" width="224.882" height="101" rx="6.5" stroke="#71161B" stroke-width="3"/>
<path d="M873.664 393.191V393.748C873.664 394.471 873.638 395.161 873.585 395.818C873.54 396.469 873.445 397.169 873.302 397.918H875.597V399.91H868.683V402.469H873.683V408.797H871.183V404.422H860.968V402.469H866.183V399.91H859.328V397.918H870.783C870.932 397.169 871.033 396.476 871.085 395.838C871.138 395.2 871.17 394.513 871.183 393.777H861.32V391.805H873.664V393.191ZM891.984 408.797H889.621V391.023H891.984V408.797ZM876.242 403.602C877.472 402.846 878.377 401.769 878.957 400.369C879.542 398.963 879.835 397.436 879.835 395.789V394.832H876.925V392.84H884.933V394.832H882.238V395.789C882.231 397.397 882.508 398.862 883.068 400.184C883.634 401.505 884.529 402.514 885.753 403.211L884.289 405.047C882.791 404.161 881.714 402.684 881.056 400.613C880.744 401.694 880.311 402.648 879.757 403.475C879.204 404.301 878.533 404.956 877.746 405.438L876.242 403.602ZM883.664 397.117H886.007V391.316H888.351V407.977H886.007V399.129H883.664V397.117ZM897.16 394.207H900.656V391.922H903.117V395.086H906.398V391.023H908.878V400.75H906.398V397.117H903.117V400.242H894.66V391.922H897.16V394.207ZM897.023 401.492H899.484V403.133H906.398V401.492H908.878V408.562H897.023V401.492ZM900.656 398.25V396.121H897.16V398.25H900.656ZM906.398 406.57V405.047H899.484V406.57H906.398ZM927.433 400.711H923.429V401.746H925.48V405.945H915.519V406.98H926.007V408.68H913.039V404.363H923.019V403.465H913.019V401.746H915.187V400.711H911.164V398.895H927.433V400.711ZM913.156 391.336H925.46V395.496H915.675V396.375H925.773V398.074H913.195V393.914H922.96V393.016H913.156V391.336ZM920.929 401.746V400.711H917.667V401.746H920.929ZM935.128 394.07C935.128 394.865 935.275 395.623 935.568 396.346C935.861 397.068 936.31 397.716 936.916 398.289C937.521 398.855 938.279 399.292 939.191 399.598L937.843 401.551C936.925 401.212 936.134 400.73 935.47 400.105C934.813 399.48 934.292 398.745 933.908 397.898C933.517 398.855 932.97 399.682 932.267 400.379C931.564 401.069 930.708 401.596 929.699 401.961L928.351 400.008C929.308 399.695 930.102 399.236 930.734 398.631C931.372 398.025 931.841 397.332 932.14 396.551C932.446 395.763 932.602 394.93 932.609 394.051V392.117H935.128V394.07ZM931.613 402.781H934.132V406.492H943.82V408.484H931.613V402.781ZM937.628 394.812H940.968V391.043H943.449V404.168H940.968V396.824H937.628V394.812ZM960.5 394.305C960.493 395.32 960.477 396.186 960.451 396.902C960.431 397.612 960.373 398.445 960.275 399.402C960.184 400.353 960.037 401.382 959.835 402.488L957.394 402.273C957.648 400.828 957.811 399.529 957.882 398.377C957.954 397.225 957.993 395.945 958 394.539H947.355V392.566H960.5V394.305ZM945.753 404.598H949.21V399.012H951.691V404.598H953.644V399.012H956.105V404.598H961.964V406.629H945.753V404.598ZM978.312 404.324H975.949V391.023H978.312V404.324ZM962.824 400.125C963.598 399.754 964.24 399.269 964.748 398.67C965.255 398.071 965.626 397.417 965.861 396.707C966.102 395.997 966.222 395.275 966.222 394.539V392.215H968.644V394.539C968.638 395.639 968.891 396.648 969.406 397.566C969.927 398.478 970.727 399.181 971.808 399.676L970.421 401.59C969.074 400.965 968.084 399.917 967.453 398.445C967.127 399.253 966.691 399.962 966.144 400.574C965.604 401.18 964.953 401.661 964.191 402.02L962.824 400.125ZM966.261 402.762H968.761V406.492H978.761V408.484H966.261V402.762ZM970.187 395.086H972.355V391.297H974.718V403.797H972.355V397.117H970.187V395.086ZM995.324 408.836H992.863V399.305H989.738V397.293H992.863V391.023H995.324V408.836ZM981.144 392.508H989.445V394.52H983.625V397.469H988.8V399.422H983.625V402.781C984.966 402.768 986.147 402.732 987.169 402.674C988.198 402.609 989.23 402.495 990.265 402.332L990.519 404.324C989.295 404.507 988.074 404.633 986.857 404.705C985.639 404.77 984.204 404.806 982.55 404.812H981.144V392.508Z" fill="#71161B"/>
<path d="M905.48 440.359H903.996V426.328H905.48V440.359ZM894.371 432.281C894.371 431.302 894.524 430.443 894.832 429.703C895.139 428.958 895.566 428.385 896.113 427.984C896.665 427.578 897.292 427.375 897.996 427.375C898.688 427.375 899.308 427.578 899.855 427.984C900.402 428.385 900.829 428.958 901.136 429.703C901.449 430.443 901.605 431.302 901.605 432.281C901.605 433.271 901.449 434.138 901.136 434.883C900.829 435.628 900.402 436.201 899.855 436.602C899.308 437.003 898.688 437.203 897.996 437.203C897.292 437.203 896.665 437.003 896.113 436.602C895.566 436.201 895.139 435.628 894.832 434.883C894.524 434.138 894.371 433.271 894.371 432.281ZM895.808 432.281C895.808 433.01 895.899 433.646 896.082 434.188C896.264 434.729 896.519 435.146 896.847 435.438C897.181 435.729 897.563 435.875 897.996 435.875C898.423 435.875 898.8 435.729 899.128 435.438C899.457 435.146 899.712 434.729 899.894 434.188C900.076 433.646 900.167 433.01 900.167 432.281C900.167 431.562 900.076 430.935 899.894 430.398C899.712 429.857 899.457 429.44 899.128 429.148C898.8 428.852 898.423 428.703 897.996 428.703C897.563 428.703 897.181 428.852 896.847 429.148C896.519 429.44 896.264 429.857 896.082 430.398C895.899 430.935 895.808 431.562 895.808 432.281ZM912.542 428.562C912.542 429.172 912.678 429.758 912.949 430.32C913.225 430.883 913.618 431.38 914.128 431.812C914.639 432.245 915.235 432.573 915.917 432.797L915.121 433.969C914.365 433.703 913.704 433.31 913.136 432.789C912.574 432.263 912.139 431.651 911.832 430.953C911.524 431.75 911.076 432.443 910.488 433.031C909.904 433.62 909.209 434.062 908.402 434.359L907.605 433.172C908.324 432.917 908.941 432.552 909.457 432.078C909.977 431.604 910.376 431.055 910.652 430.43C910.928 429.799 911.069 429.135 911.074 428.438V427.062H912.542V428.562ZM909.496 437.703C909.496 437.161 909.683 436.695 910.058 436.305C910.438 435.914 910.98 435.617 911.683 435.414C912.391 435.211 913.23 435.109 914.199 435.109C915.152 435.109 915.977 435.211 916.675 435.414C917.373 435.617 917.907 435.914 918.277 436.305C918.652 436.695 918.839 437.161 918.839 437.703C918.839 438.25 918.652 438.719 918.277 439.109C917.907 439.5 917.373 439.794 916.675 439.992C915.983 440.195 915.157 440.297 914.199 440.297C913.23 440.297 912.391 440.195 911.683 439.992C910.98 439.794 910.438 439.5 910.058 439.109C909.683 438.719 909.496 438.25 909.496 437.703ZM910.98 437.703C910.975 438.161 911.253 438.513 911.816 438.758C912.384 439.003 913.178 439.13 914.199 439.141C915.214 439.13 916.001 439.003 916.558 438.758C917.115 438.513 917.391 438.161 917.386 437.703C917.386 437.406 917.261 437.151 917.011 436.938C916.761 436.724 916.397 436.562 915.917 436.453C915.438 436.339 914.865 436.281 914.199 436.281C913.527 436.281 912.949 436.339 912.464 436.453C911.985 436.562 911.618 436.724 911.363 436.938C911.108 437.151 910.98 437.406 910.98 437.703ZM917.23 426.328H918.714V429.844H920.746V431.094H918.714V434.781H917.23V426.328ZM933.667 429.5H922.152V428.297H927.183V426.531H928.652V428.297H933.667V429.5ZM921.542 437.547H927.183V435.695C926.365 435.643 925.66 435.505 925.066 435.281C924.477 435.052 924.027 434.745 923.714 434.359C923.402 433.974 923.246 433.526 923.246 433.016C923.246 432.458 923.433 431.979 923.808 431.578C924.183 431.177 924.722 430.872 925.425 430.664C926.128 430.451 926.959 430.344 927.917 430.344C928.865 430.344 929.688 430.451 930.386 430.664C931.089 430.872 931.628 431.177 932.003 431.578C932.384 431.979 932.574 432.458 932.574 433.016C932.574 433.526 932.415 433.974 932.097 434.359C931.785 434.745 931.334 435.052 930.746 435.281C930.157 435.505 929.459 435.643 928.652 435.695V437.547H934.355V438.75H921.542V437.547ZM924.761 433.016C924.756 433.5 925.027 433.872 925.574 434.133C926.126 434.393 926.907 434.526 927.917 434.531C928.912 434.526 929.686 434.393 930.238 434.133C930.79 433.872 931.063 433.5 931.058 433.016C931.063 432.536 930.79 432.167 930.238 431.906C929.686 431.646 928.912 431.516 927.917 431.516C926.912 431.516 926.134 431.646 925.582 431.906C925.029 432.167 924.756 432.536 924.761 433.016ZM946.746 429.172V429.344C946.735 430.5 946.699 431.521 946.636 432.406C946.579 433.286 946.444 434.302 946.23 435.453L944.777 435.297C944.975 434.281 945.105 433.346 945.167 432.492C945.23 431.633 945.261 430.721 945.261 429.758V429.172V428.875H936.683V427.672H946.746V429.172ZM935.371 437.203H938.386V432.672H939.871V437.203H941.886V432.672H943.339V437.203H948.136V438.438H935.371V437.203ZM956.371 427.562C956.371 428.172 956.595 428.758 957.042 429.32C957.496 429.883 958.105 430.362 958.871 430.758C959.641 431.154 960.48 431.411 961.386 431.531L960.808 432.75C960.048 432.63 959.326 432.422 958.644 432.125C957.962 431.828 957.358 431.461 956.832 431.023C956.311 430.581 955.899 430.089 955.597 429.547C955.295 430.089 954.881 430.581 954.355 431.023C953.834 431.461 953.235 431.828 952.558 432.125C951.881 432.417 951.162 432.625 950.402 432.75L949.808 431.531C950.714 431.411 951.55 431.156 952.316 430.766C953.082 430.375 953.691 429.898 954.144 429.336C954.597 428.768 954.824 428.177 954.824 427.562V426.797H956.371V427.562ZM949.199 434.125H961.964V435.344H956.277V440.328H954.824V435.344H949.199V434.125Z" fill="#424242"/>
<rect x="815.5" y="377.5" width="224.882" height="75" rx="6.5" stroke="#71161B" stroke-width="3"/>
<path d="M908.644 492.305C908.638 493.32 908.621 494.186 908.595 494.902C908.576 495.612 908.517 496.445 908.419 497.402C908.328 498.353 908.182 499.382 907.98 500.488L905.539 500.273C905.792 498.828 905.955 497.529 906.027 496.377C906.098 495.225 906.138 493.945 906.144 492.539H895.5V490.566H908.644V492.305ZM893.898 502.598H897.355V497.012H899.835V502.598H901.789V497.012H904.25V502.598H910.109V504.629H893.898V502.598ZM927.394 499.297H923.488V500.957H925.421V506.797H922.941V502.91H912.98V500.957H915.011V499.297H911.183V497.324H927.394V499.297ZM912.804 492.871C912.804 492.155 913.068 491.533 913.595 491.006C914.129 490.479 914.884 490.075 915.861 489.795C916.844 489.515 917.986 489.375 919.289 489.375C920.584 489.375 921.717 489.515 922.687 489.795C923.664 490.075 924.419 490.479 924.953 491.006C925.486 491.533 925.753 492.155 925.753 492.871C925.753 493.587 925.486 494.212 924.953 494.746C924.419 495.273 923.664 495.68 922.687 495.967C921.717 496.247 920.584 496.387 919.289 496.387C917.986 496.387 916.844 496.247 915.861 495.967C914.884 495.68 914.129 495.273 913.595 494.746C913.068 494.212 912.804 493.587 912.804 492.871ZM915.402 492.871C915.395 493.392 915.724 493.786 916.388 494.053C917.059 494.32 918.026 494.453 919.289 494.453C920.532 494.453 921.489 494.32 922.16 494.053C922.837 493.786 923.175 493.392 923.175 492.871C923.175 492.37 922.843 491.986 922.179 491.719C921.515 491.445 920.574 491.309 919.357 491.309C918.074 491.309 917.091 491.442 916.408 491.709C915.731 491.969 915.395 492.357 915.402 492.871ZM921.027 500.957V499.297H917.531V500.957H921.027ZM943.742 502.324H941.378V489.023H943.742V502.324ZM928.253 498.125C929.028 497.754 929.669 497.269 930.177 496.67C930.685 496.071 931.056 495.417 931.291 494.707C931.531 493.997 931.652 493.275 931.652 492.539V490.215H934.074V492.539C934.067 493.639 934.321 494.648 934.835 495.566C935.356 496.478 936.157 497.181 937.238 497.676L935.851 499.59C934.503 498.965 933.514 497.917 932.882 496.445C932.557 497.253 932.121 497.962 931.574 498.574C931.033 499.18 930.382 499.661 929.621 500.02L928.253 498.125ZM931.691 500.762H934.191V504.492H944.191V506.484H931.691V500.762ZM935.617 493.086H937.785V489.297H940.148V501.797H937.785V495.117H935.617V493.086ZM960.753 506.836H958.292V497.305H955.167V495.293H958.292V489.023H960.753V506.836ZM946.574 490.508H954.875V492.52H949.054V495.469H954.23V497.422H949.054V500.781C950.395 500.768 951.577 500.732 952.599 500.674C953.628 500.609 954.66 500.495 955.695 500.332L955.949 502.324C954.725 502.507 953.504 502.633 952.287 502.705C951.069 502.77 949.634 502.806 947.98 502.812H946.574V490.508Z" fill="#71161B"/>
<path d="M912.425 526.188H908.16C908.186 526.693 908.407 527.172 908.824 527.625C909.246 528.078 909.808 528.461 910.511 528.773C911.22 529.086 912.003 529.292 912.863 529.391L912.3 530.594C911.503 530.484 910.761 530.289 910.074 530.008C909.391 529.727 908.8 529.378 908.3 528.961C907.8 528.544 907.428 528.076 907.183 527.555C906.933 528.076 906.558 528.544 906.058 528.961C905.558 529.378 904.967 529.727 904.285 530.008C903.602 530.289 902.863 530.484 902.066 530.594L901.503 529.391C902.363 529.292 903.144 529.086 903.847 528.773C904.556 528.461 905.118 528.078 905.535 527.625C905.951 527.172 906.17 526.693 906.191 526.188H901.972V524.984H912.425V526.188ZM900.8 531.797H906.441V529.578H907.91V531.797H913.597V533H900.8V531.797ZM902.41 534.047H903.91V536.828H912.128V538.031H902.41V534.047ZM925.628 527.906H927.66V529.125H925.628V532.766H924.144V524.328H925.628V527.906ZM915.175 525.203H916.628V527.297H920.3V525.203H921.769V531.875H915.175V525.203ZM916.378 533.469H925.628V538.328H924.144V534.672H916.378V533.469ZM920.3 530.688V528.469H916.628V530.688H920.3ZM939.832 527.172V527.344C939.821 528.5 939.785 529.521 939.722 530.406C939.665 531.286 939.529 532.302 939.316 533.453L937.863 533.297C938.061 532.281 938.191 531.346 938.253 530.492C938.316 529.633 938.347 528.721 938.347 527.758V527.172V526.875H929.769V525.672H939.832V527.172ZM928.457 535.203H931.472V530.672H932.957V535.203H934.972V530.672H936.425V535.203H941.222V536.438H928.457V535.203ZM949.457 525.562C949.457 526.172 949.681 526.758 950.128 527.32C950.582 527.883 951.191 528.362 951.957 528.758C952.727 529.154 953.566 529.411 954.472 529.531L953.894 530.75C953.134 530.63 952.412 530.422 951.73 530.125C951.048 529.828 950.444 529.461 949.917 529.023C949.397 528.581 948.985 528.089 948.683 527.547C948.381 528.089 947.967 528.581 947.441 529.023C946.92 529.461 946.321 529.828 945.644 530.125C944.967 530.417 944.248 530.625 943.488 530.75L942.894 529.531C943.8 529.411 944.636 529.156 945.402 528.766C946.167 528.375 946.777 527.898 947.23 527.336C947.683 526.768 947.91 526.177 947.91 525.562V524.797H949.457V525.562ZM942.285 532.125H955.05V533.344H949.363V538.328H947.91V533.344H942.285V532.125Z" fill="#424242"/>
<rect x="815.5" y="475.5" width="224.882" height="75" rx="6.5" stroke="#71161B" stroke-width="3"/>
<rect x="235" width="113" height="200" rx="8" fill="#71161B"/>
<path d="M258.484 79.6562C258.477 80.9609 258.66 82.2266 259.035 83.4531C259.41 84.6719 259.977 85.7656 260.734 86.7344C261.492 87.7031 262.422 88.4531 263.523 88.9844L261.719 91.375C260.609 90.8203 259.66 90.0469 258.871 89.0547C258.082 88.0547 257.461 86.8906 257.008 85.5625C256.523 86.9922 255.863 88.2422 255.027 89.3125C254.191 90.375 253.188 91.1953 252.016 91.7734L250.164 89.3594C251.328 88.8281 252.309 88.0586 253.105 87.0508C253.902 86.0352 254.496 84.8906 254.887 83.6172C255.285 82.3359 255.484 81.0156 255.484 79.6562V76.4688H258.484V79.6562ZM264.461 74.8281H267.461V83.0547H270.602V85.5859H267.461V96.1562H264.461V74.8281ZM290.875 89.1484H282.531V96.1328H279.578V89.1484H271.352V86.7578H290.875V89.1484ZM273.648 75.8594H288.531V84.4609H273.648V75.8594ZM285.555 82.1172V78.2266H276.602V82.1172H285.555ZM311.57 87.9062H292.117V85.5156H300.344V83.4531H303.297V85.5156H311.57V87.9062ZM292.938 82.2109C294.391 82.125 295.625 81.9336 296.641 81.6367C297.664 81.332 298.453 80.9609 299.008 80.5234C299.57 80.0859 299.926 79.6094 300.074 79.0938H293.992V76.7266H300.344V74.8984H303.297V76.7266H309.695V79.0938H303.555C303.695 79.6094 304.047 80.0859 304.609 80.5234C305.172 80.9609 305.961 81.332 306.977 81.6367C308 81.9336 309.242 82.125 310.703 82.2109L309.812 84.4844C307.867 84.3438 306.219 84.0039 304.867 83.4648C303.516 82.9258 302.5 82.2188 301.82 81.3438C301.141 82.2188 300.125 82.9258 298.773 83.4648C297.422 84.0039 295.781 84.3438 293.852 84.4844L292.938 82.2109ZM294.344 92.5234C294.344 91.75 294.637 91.0938 295.223 90.5547C295.816 90.0156 296.672 89.6094 297.789 89.3359C298.914 89.0547 300.258 88.9141 301.82 88.9141C303.375 88.9141 304.707 89.0547 305.816 89.3359C306.926 89.6094 307.773 90.0156 308.359 90.5547C308.945 91.0938 309.242 91.75 309.25 92.5234C309.242 93.3047 308.945 93.9648 308.359 94.5039C307.773 95.0508 306.926 95.4609 305.816 95.7344C304.707 96.0156 303.375 96.1562 301.82 96.1562C300.258 96.1562 298.914 96.0156 297.789 95.7344C296.672 95.4609 295.816 95.0508 295.223 94.5039C294.637 93.9648 294.344 93.3047 294.344 92.5234ZM297.391 92.5234C297.383 93.0156 297.742 93.3789 298.469 93.6133C299.203 93.8398 300.32 93.9531 301.82 93.9531C303.297 93.9531 304.402 93.8359 305.137 93.6016C305.871 93.3672 306.242 93.0078 306.25 92.5234C306.242 92.0469 305.867 91.6953 305.125 91.4688C304.391 91.2344 303.289 91.1172 301.82 91.1172C300.32 91.1172 299.203 91.2344 298.469 91.4688C297.742 91.6953 297.383 92.0469 297.391 92.5234ZM324.977 78.6484H320.734C320.742 79.5 320.922 80.3125 321.273 81.0859C321.633 81.8594 322.18 82.5469 322.914 83.1484C323.648 83.75 324.562 84.2109 325.656 84.5312L324.227 86.875C323.078 86.5234 322.09 86.0078 321.262 85.3281C320.434 84.6484 319.777 83.8398 319.293 82.9023C318.801 84.0039 318.113 84.9609 317.23 85.7734C316.355 86.5781 315.297 87.1875 314.055 87.6016L312.531 85.2344C313.664 84.875 314.617 84.3555 315.391 83.6758C316.164 82.9961 316.738 82.2227 317.113 81.3555C317.496 80.4883 317.695 79.5859 317.711 78.6484H313.352V76.2578H324.977V78.6484ZM315.484 92.0078C315.484 91.1484 315.777 90.4102 316.363 89.793C316.949 89.1758 317.793 88.707 318.895 88.3867C319.996 88.0664 321.297 87.9062 322.797 87.9062C324.273 87.9062 325.551 88.0664 326.629 88.3867C327.707 88.707 328.535 89.1758 329.113 89.793C329.699 90.4102 329.992 91.1484 329.992 92.0078C329.992 92.875 329.699 93.6172 329.113 94.2344C328.535 94.8594 327.707 95.3359 326.629 95.6641C325.551 95.9922 324.273 96.1562 322.797 96.1562C321.297 96.1562 319.996 95.9922 318.895 95.6641C317.801 95.3359 316.957 94.8594 316.363 94.2344C315.777 93.6094 315.484 92.8672 315.484 92.0078ZM318.484 92.0078C318.477 92.6094 318.84 93.0664 319.574 93.3789C320.309 93.6836 321.383 93.8359 322.797 93.8359C324.188 93.8359 325.242 93.6836 325.961 93.3789C326.68 93.0742 327.039 92.6172 327.039 92.0078C327.039 91.4219 326.684 90.9805 325.973 90.6836C325.27 90.3789 324.238 90.2266 322.879 90.2266C321.434 90.2266 320.336 90.375 319.586 90.6719C318.844 90.9688 318.477 91.4141 318.484 92.0078ZM326.781 74.8281H329.781V79.7734H332.664V82.2109H329.781V87.4844H326.781V74.8281Z" fill="white"/>
<path d="M267.328 128.469H265.312V114.219H267.328V128.469ZM255.844 120.281C255.844 119.266 256.003 118.375 256.32 117.609C256.643 116.844 257.089 116.255 257.656 115.844C258.229 115.427 258.88 115.219 259.609 115.219C260.323 115.219 260.961 115.427 261.523 115.844C262.091 116.255 262.536 116.844 262.859 117.609C263.182 118.375 263.344 119.266 263.344 120.281C263.344 121.302 263.182 122.198 262.859 122.969C262.536 123.734 262.091 124.326 261.523 124.742C260.961 125.154 260.323 125.359 259.609 125.359C258.88 125.359 258.229 125.154 257.656 124.742C257.089 124.326 256.643 123.734 256.32 122.969C256.003 122.198 255.844 121.302 255.844 120.281ZM257.766 120.281C257.766 120.974 257.841 121.568 257.992 122.062C258.143 122.552 258.357 122.924 258.633 123.18C258.914 123.43 259.24 123.552 259.609 123.547C259.969 123.552 260.284 123.43 260.555 123.18C260.831 122.924 261.044 122.552 261.195 122.062C261.346 121.568 261.422 120.974 261.422 120.281C261.422 119.589 261.346 118.997 261.195 118.508C261.044 118.018 260.831 117.648 260.555 117.398C260.284 117.143 259.969 117.016 259.609 117.016C259.24 117.016 258.914 117.143 258.633 117.398C258.357 117.648 258.143 118.018 257.992 118.508C257.841 118.997 257.766 119.589 257.766 120.281ZM274.438 116.453C274.432 117.047 274.547 117.612 274.781 118.148C275.021 118.68 275.383 119.154 275.867 119.57C276.357 119.987 276.964 120.307 277.688 120.531L276.625 122.078C275.885 121.833 275.25 121.479 274.719 121.016C274.188 120.552 273.766 120.003 273.453 119.367C273.135 120.102 272.695 120.737 272.133 121.273C271.576 121.805 270.901 122.203 270.109 122.469L269.031 120.906C269.797 120.651 270.432 120.286 270.938 119.812C271.443 119.339 271.818 118.799 272.062 118.195C272.307 117.586 272.432 116.943 272.438 116.266V114.969H274.438V116.453ZM271 125.688C271 125.12 271.195 124.63 271.586 124.219C271.982 123.802 272.547 123.484 273.281 123.266C274.016 123.047 274.88 122.938 275.875 122.938C276.854 122.938 277.703 123.047 278.422 123.266C279.141 123.484 279.695 123.802 280.086 124.219C280.477 124.63 280.672 125.12 280.672 125.688C280.672 126.26 280.477 126.753 280.086 127.164C279.695 127.581 279.141 127.896 278.422 128.109C277.703 128.328 276.854 128.438 275.875 128.438C274.88 128.438 274.016 128.328 273.281 128.109C272.547 127.896 271.982 127.581 271.586 127.164C271.195 126.753 271 126.26 271 125.688ZM273 125.688C272.995 126.083 273.234 126.38 273.719 126.578C274.208 126.776 274.927 126.875 275.875 126.875C277.76 126.875 278.703 126.479 278.703 125.688C278.703 125.302 278.461 125.008 277.977 124.805C277.497 124.602 276.797 124.5 275.875 124.5C274.938 124.5 274.221 124.602 273.727 124.805C273.237 125.008 272.995 125.302 273 125.688ZM278.531 114.219H280.531V117.547H282.453V119.203H280.531V122.656H278.531V114.219ZM295.469 117.609H283.641V116.016H288.562V114.359H290.531V116.016H295.469V117.609ZM283.078 125.391H288.562V123.758C287.755 123.685 287.06 123.529 286.477 123.289C285.893 123.049 285.448 122.734 285.141 122.344C284.833 121.953 284.682 121.5 284.688 120.984C284.682 120.417 284.875 119.927 285.266 119.516C285.656 119.099 286.216 118.781 286.945 118.562C287.68 118.344 288.547 118.234 289.547 118.234C290.526 118.234 291.38 118.344 292.109 118.562C292.844 118.781 293.406 119.099 293.797 119.516C294.193 119.927 294.391 120.417 294.391 120.984C294.391 121.5 294.234 121.953 293.922 122.344C293.615 122.734 293.172 123.049 292.594 123.289C292.016 123.523 291.328 123.677 290.531 123.75V125.391H296.094V126.984H283.078V125.391ZM286.734 120.984C286.729 121.797 287.648 122.203 289.492 122.203C290.43 122.203 291.138 122.104 291.617 121.906C292.102 121.708 292.344 121.401 292.344 120.984C292.344 120.193 291.411 119.792 289.547 119.781C287.667 119.792 286.729 120.193 286.734 120.984ZM312.391 116.844C312.385 117.656 312.372 118.349 312.352 118.922C312.336 119.49 312.289 120.156 312.211 120.922C312.138 121.682 312.021 122.505 311.859 123.391L309.906 123.219C310.109 122.062 310.24 121.023 310.297 120.102C310.354 119.18 310.385 118.156 310.391 117.031H301.875V115.453H312.391V116.844ZM300.594 125.078H303.359V120.609H305.344V125.078H306.906V120.609H308.875V125.078H313.562V126.703H300.594V125.078ZM321.969 115.328C321.964 115.906 322.154 116.474 322.539 117.031C322.93 117.583 323.5 118.062 324.25 118.469C325 118.87 325.896 119.135 326.938 119.266L326.156 120.875C324.938 120.698 323.878 120.344 322.977 119.812C322.081 119.276 321.396 118.615 320.922 117.828C320.443 118.615 319.755 119.276 318.859 119.812C317.969 120.344 316.922 120.698 315.719 120.875L314.922 119.266C315.953 119.135 316.841 118.87 317.586 118.469C318.336 118.062 318.904 117.583 319.289 117.031C319.674 116.474 319.87 115.906 319.875 115.328V114.641H321.969V115.328ZM314.422 121.953H327.391V123.578H321.859V128.438H319.891V123.578H314.422V121.953Z" fill="#DEDEDE"/>
<rect y="204" width="113" height="200" rx="8" fill="#71161B"/>
<path d="M54.2031 294.953H51.2031V293.266H47.125V291.227H51.2031V278.852H54.2031V294.953ZM36.0625 288.297C38.7422 288.281 41.1953 288.234 43.4219 288.156C45.6484 288.07 47.7578 287.906 49.75 287.664L49.9141 289.797C48.2891 290.07 46.5703 290.273 44.7578 290.406V294.461H41.7578V297.391H54.6719V299.781H38.7812V293.406H41.7578V290.582C40.2734 290.637 38.4922 290.664 36.4141 290.664L36.0625 288.297ZM37.6328 283.398C37.6328 282.648 37.8594 281.984 38.3125 281.406C38.7656 280.828 39.3984 280.379 40.2109 280.059C41.0234 279.738 41.9531 279.578 43 279.578C44.0234 279.578 44.9375 279.738 45.7422 280.059C46.5469 280.379 47.1758 280.828 47.6289 281.406C48.0898 281.984 48.3203 282.648 48.3203 283.398C48.3203 284.148 48.0898 284.809 47.6289 285.379C47.1758 285.949 46.5469 286.387 45.7422 286.691C44.9375 286.996 44.0234 287.148 43 287.148C41.9453 287.148 41.0117 286.996 40.1992 286.691C39.3945 286.387 38.7656 285.949 38.3125 285.379C37.8594 284.809 37.6328 284.148 37.6328 283.398ZM40.4688 283.398C40.4609 283.906 40.6875 284.301 41.1484 284.582C41.6172 284.855 42.25 284.992 43.0469 284.992C43.7656 284.992 44.3477 284.852 44.793 284.57C45.2461 284.289 45.4766 283.898 45.4844 283.398C45.4766 282.883 45.2422 282.48 44.7812 282.191C44.3281 281.902 43.7344 281.758 43 281.758C42.2266 281.758 41.6094 281.902 41.1484 282.191C40.6875 282.48 40.4609 282.883 40.4688 283.398ZM68.9922 282.648H64.75C64.7578 283.5 64.9375 284.312 65.2891 285.086C65.6484 285.859 66.1953 286.547 66.9297 287.148C67.6641 287.75 68.5781 288.211 69.6719 288.531L68.2422 290.875C67.0938 290.523 66.1055 290.008 65.2773 289.328C64.4492 288.648 63.793 287.84 63.3086 286.902C62.8164 288.004 62.1289 288.961 61.2461 289.773C60.3711 290.578 59.3125 291.188 58.0703 291.602L56.5469 289.234C57.6797 288.875 58.6328 288.355 59.4062 287.676C60.1797 286.996 60.7539 286.223 61.1289 285.355C61.5117 284.488 61.7109 283.586 61.7266 282.648H57.3672V280.258H68.9922V282.648ZM59.5 296.008C59.5 295.148 59.793 294.41 60.3789 293.793C60.9648 293.176 61.8086 292.707 62.9102 292.387C64.0117 292.066 65.3125 291.906 66.8125 291.906C68.2891 291.906 69.5664 292.066 70.6445 292.387C71.7227 292.707 72.5508 293.176 73.1289 293.793C73.7148 294.41 74.0078 295.148 74.0078 296.008C74.0078 296.875 73.7148 297.617 73.1289 298.234C72.5508 298.859 71.7227 299.336 70.6445 299.664C69.5664 299.992 68.2891 300.156 66.8125 300.156C65.3125 300.156 64.0117 299.992 62.9102 299.664C61.8164 299.336 60.9727 298.859 60.3789 298.234C59.793 297.609 59.5 296.867 59.5 296.008ZM62.5 296.008C62.4922 296.609 62.8555 297.066 63.5898 297.379C64.3242 297.684 65.3984 297.836 66.8125 297.836C68.2031 297.836 69.2578 297.684 69.9766 297.379C70.6953 297.074 71.0547 296.617 71.0547 296.008C71.0547 295.422 70.6992 294.98 69.9883 294.684C69.2852 294.379 68.2539 294.227 66.8945 294.227C65.4492 294.227 64.3516 294.375 63.6016 294.672C62.8594 294.969 62.4922 295.414 62.5 296.008ZM70.7969 278.828H73.7969V283.773H76.6797V286.211H73.7969V291.484H70.7969V278.828Z" fill="white"/>
<path d="M32.3281 328.609H30.3281V318.234H32.3281V328.609ZM20.375 325.094C21.1406 324.839 21.7786 324.469 22.2891 323.984C22.7995 323.495 23.1771 322.94 23.4219 322.32C23.6719 321.701 23.7969 321.057 23.7969 320.391V319.016H25.875V320.391C25.8698 321.042 25.9844 321.661 26.2188 322.25C26.4583 322.833 26.8281 323.354 27.3281 323.812C27.8281 324.271 28.4531 324.62 29.2031 324.859L28.1875 326.422C27.401 326.161 26.7292 325.781 26.1719 325.281C25.6146 324.776 25.1719 324.174 24.8438 323.477C24.5104 324.227 24.0547 324.878 23.4766 325.43C22.9036 325.982 22.2135 326.396 21.4062 326.672L20.375 325.094ZM22.7969 327.609H24.8125V330.594H32.7031V332.188H22.7969V327.609ZM47.2188 327.078H34.25V325.484H47.2188V327.078ZM35.5469 321.562C35.5469 320.964 35.7604 320.445 36.1875 320.008C36.6146 319.57 37.2188 319.234 38 319C38.7865 318.766 39.6979 318.651 40.7344 318.656C41.7656 318.651 42.6693 318.766 43.4453 319C44.2266 319.234 44.8307 319.57 45.2578 320.008C45.6901 320.445 45.9062 320.964 45.9062 321.562C45.9062 322.161 45.6901 322.682 45.2578 323.125C44.8307 323.568 44.2266 323.909 43.4453 324.148C42.6693 324.383 41.7656 324.5 40.7344 324.5C39.6927 324.5 38.7812 324.383 38 324.148C37.2188 323.909 36.6146 323.568 36.1875 323.125C35.7604 322.682 35.5469 322.161 35.5469 321.562ZM35.8125 328.031H37.8125V330.594H45.75V332.188H35.8125V328.031ZM37.625 321.562C37.6198 322 37.8854 322.331 38.4219 322.555C38.9635 322.779 39.7344 322.891 40.7344 322.891C41.7292 322.891 42.4948 322.779 43.0312 322.555C43.5729 322.331 43.8438 322 43.8438 321.562C43.8438 321.135 43.5729 320.807 43.0312 320.578C42.4896 320.349 41.724 320.229 40.7344 320.219C39.7396 320.229 38.9714 320.349 38.4297 320.578C37.888 320.807 37.6198 321.135 37.625 321.562ZM61.0469 327.656H55.5156V332.438H53.5469V327.656H48.0781V326.062H61.0469V327.656ZM48.7188 323.672C49.6406 323.557 50.4401 323.344 51.1172 323.031C51.7995 322.719 52.3307 322.344 52.7109 321.906C53.0964 321.469 53.3255 321.01 53.3984 320.531H49.25V318.969H59.8906V320.531H55.7422C55.8099 321.01 56.0339 321.469 56.4141 321.906C56.7943 322.344 57.3255 322.719 58.0078 323.031C58.6901 323.344 59.5 323.557 60.4375 323.672L59.7188 325.234C58.4896 325.068 57.4323 324.737 56.5469 324.242C55.6667 323.742 55.0078 323.12 54.5703 322.375C54.1276 323.12 53.4688 323.742 52.5938 324.242C51.7188 324.737 50.6719 325.068 49.4531 325.234L48.7188 323.672ZM77.3906 320.844C77.3854 321.656 77.3724 322.349 77.3516 322.922C77.3359 323.49 77.2891 324.156 77.2109 324.922C77.138 325.682 77.0208 326.505 76.8594 327.391L74.9062 327.219C75.1094 326.062 75.2396 325.023 75.2969 324.102C75.3542 323.18 75.3854 322.156 75.3906 321.031H66.875V319.453H77.3906V320.844ZM65.5938 329.078H68.3594V324.609H70.3438V329.078H71.9062V324.609H73.875V329.078H78.5625V330.703H65.5938V329.078ZM86.9688 319.328C86.9635 319.906 87.1536 320.474 87.5391 321.031C87.9297 321.583 88.5 322.062 89.25 322.469C90 322.87 90.8958 323.135 91.9375 323.266L91.1562 324.875C89.9375 324.698 88.8776 324.344 87.9766 323.812C87.0807 323.276 86.3958 322.615 85.9219 321.828C85.4427 322.615 84.7552 323.276 83.8594 323.812C82.9688 324.344 81.9219 324.698 80.7188 324.875L79.9219 323.266C80.9531 323.135 81.8411 322.87 82.5859 322.469C83.3359 322.062 83.9036 321.583 84.2891 321.031C84.6745 320.474 84.8698 319.906 84.875 319.328V318.641H86.9688V319.328ZM79.4219 325.953H92.3906V327.578H86.8594V332.438H84.8906V327.578H79.4219V325.953Z" fill="#DEDEDE"/>
</svg>
