<svg width="1071" height="496" viewBox="0 0 1071 496" fill="none" xmlns="http://www.w3.org/2000/svg">
<line x1="787" y1="136.5" x2="843" y2="136.5" stroke="#71161B"/>
<line x1="787" y1="39.5" x2="843" y2="39.5" stroke="#71161B"/>
<line x1="787" y1="358.5" x2="843" y2="358.5" stroke="#71161B"/>
<line x1="787" y1="456.5" x2="843" y2="456.5" stroke="#71161B"/>
<line x1="786.5" y1="458" x2="786.5" y2="39" stroke="#71161B"/>
<line x1="336.5" y1="248" x2="336.5" y2="144" stroke="#71161B"/>
<rect x="381" y="193" width="294.138" height="110" rx="8" fill="#71161B"/>
<path d="M516.702 224.477H508.358V231.156H505.405V224.477H497.178V222.133H516.702V224.477ZM499.475 210.648H502.428V213.109H511.382V210.648H514.382V220.07H499.475V210.648ZM511.382 217.68V215.453H502.428V217.68H511.382ZM536.014 225.953H533.014V224.266H528.936V222.227H533.014V209.852H536.014V225.953ZM517.874 219.297C520.553 219.281 523.007 219.234 525.233 219.156C527.46 219.07 529.569 218.906 531.561 218.664L531.725 220.797C530.1 221.07 528.382 221.273 526.569 221.406V225.461H523.569V228.391H536.483V230.781H520.593V224.406H523.569V221.582C522.085 221.637 520.303 221.664 518.225 221.664L517.874 219.297ZM519.444 214.398C519.444 213.648 519.671 212.984 520.124 212.406C520.577 211.828 521.21 211.379 522.022 211.059C522.835 210.738 523.764 210.578 524.811 210.578C525.835 210.578 526.749 210.738 527.553 211.059C528.358 211.379 528.987 211.828 529.44 212.406C529.901 212.984 530.132 213.648 530.132 214.398C530.132 215.148 529.901 215.809 529.44 216.379C528.987 216.949 528.358 217.387 527.553 217.691C526.749 217.996 525.835 218.148 524.811 218.148C523.757 218.148 522.823 217.996 522.01 217.691C521.206 217.387 520.577 216.949 520.124 216.379C519.671 215.809 519.444 215.148 519.444 214.398ZM522.28 214.398C522.272 214.906 522.499 215.301 522.96 215.582C523.428 215.855 524.061 215.992 524.858 215.992C525.577 215.992 526.159 215.852 526.604 215.57C527.057 215.289 527.288 214.898 527.296 214.398C527.288 213.883 527.053 213.48 526.593 213.191C526.139 212.902 525.546 212.758 524.811 212.758C524.038 212.758 523.421 212.902 522.96 213.191C522.499 213.48 522.272 213.883 522.28 214.398ZM550.803 213.648H546.561C546.569 214.5 546.749 215.312 547.1 216.086C547.46 216.859 548.007 217.547 548.741 218.148C549.475 218.75 550.389 219.211 551.483 219.531L550.053 221.875C548.905 221.523 547.917 221.008 547.089 220.328C546.26 219.648 545.604 218.84 545.12 217.902C544.628 219.004 543.94 219.961 543.057 220.773C542.182 221.578 541.124 222.188 539.882 222.602L538.358 220.234C539.491 219.875 540.444 219.355 541.218 218.676C541.991 217.996 542.565 217.223 542.94 216.355C543.323 215.488 543.522 214.586 543.538 213.648H539.178V211.258H550.803V213.648ZM541.311 227.008C541.311 226.148 541.604 225.41 542.19 224.793C542.776 224.176 543.62 223.707 544.721 223.387C545.823 223.066 547.124 222.906 548.624 222.906C550.1 222.906 551.378 223.066 552.456 223.387C553.534 223.707 554.362 224.176 554.94 224.793C555.526 225.41 555.819 226.148 555.819 227.008C555.819 227.875 555.526 228.617 554.94 229.234C554.362 229.859 553.534 230.336 552.456 230.664C551.378 230.992 550.1 231.156 548.624 231.156C547.124 231.156 545.823 230.992 544.721 230.664C543.628 230.336 542.784 229.859 542.19 229.234C541.604 228.609 541.311 227.867 541.311 227.008ZM544.311 227.008C544.303 227.609 544.667 228.066 545.401 228.379C546.135 228.684 547.21 228.836 548.624 228.836C550.014 228.836 551.069 228.684 551.788 228.379C552.507 228.074 552.866 227.617 552.866 227.008C552.866 226.422 552.51 225.98 551.8 225.684C551.096 225.379 550.065 225.227 548.706 225.227C547.26 225.227 546.163 225.375 545.413 225.672C544.671 225.969 544.303 226.414 544.311 227.008ZM552.608 209.828H555.608V214.773H558.491V217.211H555.608V222.484H552.608V209.828Z" fill="white"/>
<path d="M490.577 263.438H488.671V249.219H490.577V263.438ZM478.374 255.375C478.374 254.328 478.499 253.417 478.749 252.641C479.004 251.865 479.363 251.271 479.827 250.859C480.296 250.443 480.843 250.234 481.468 250.234C482.035 250.234 482.538 250.404 482.975 250.742C483.418 251.081 483.775 251.57 484.046 252.211C484.322 252.846 484.496 253.604 484.569 254.484H485.733V249.422H487.608V262.781H485.733V256.062H484.585C484.527 256.984 484.363 257.784 484.093 258.461C483.822 259.133 483.46 259.648 483.007 260.008C482.559 260.367 482.046 260.547 481.468 260.547C480.843 260.547 480.296 260.339 479.827 259.922C479.363 259.5 479.004 258.901 478.749 258.125C478.499 257.344 478.374 256.427 478.374 255.375ZM480.218 255.375C480.212 256.453 480.316 257.268 480.53 257.82C480.749 258.367 481.061 258.635 481.468 258.625C481.879 258.635 482.197 258.37 482.421 257.828C482.65 257.286 482.764 256.487 482.764 255.43C482.764 254.331 482.652 253.503 482.428 252.945C482.205 252.388 481.884 252.109 481.468 252.109C481.061 252.109 480.749 252.385 480.53 252.938C480.316 253.49 480.212 254.302 480.218 255.375ZM503.983 257.938H501.983V249.234H503.983V257.938ZM492.811 250.016H499.405V254.375H494.78V255.734C496.035 255.724 497.113 255.693 498.014 255.641C498.921 255.589 499.832 255.495 500.749 255.359L500.999 256.953C500.009 257.109 499.02 257.216 498.03 257.273C497.04 257.331 495.853 257.359 494.468 257.359H494.077H492.827V252.859H497.421V251.609H492.811V250.016ZM494.202 258.562H503.983V263.438H501.983V260.172H494.202V258.562ZM509.233 250.266C509.78 250.266 510.28 250.383 510.733 250.617C511.186 250.846 511.564 251.174 511.866 251.602C512.168 252.023 512.369 252.516 512.468 253.078H513.405V249.438H515.249V259.375H513.405V254.703H512.444C512.335 255.245 512.129 255.721 511.827 256.133C511.525 256.539 511.15 256.857 510.702 257.086C510.254 257.31 509.764 257.422 509.233 257.422C508.608 257.422 508.046 257.271 507.546 256.969C507.051 256.661 506.663 256.237 506.382 255.695C506.106 255.148 505.968 254.531 505.968 253.844C505.968 253.146 506.106 252.526 506.382 251.984C506.663 251.438 507.051 251.016 507.546 250.719C508.04 250.417 508.603 250.266 509.233 250.266ZM507.749 253.82C507.749 254.409 507.884 254.87 508.155 255.203C508.426 255.536 508.785 255.703 509.233 255.703C509.525 255.703 509.783 255.63 510.007 255.484C510.236 255.333 510.415 255.12 510.546 254.844C510.676 254.562 510.744 254.229 510.749 253.844C510.744 253.458 510.676 253.122 510.546 252.836C510.415 252.549 510.236 252.331 510.007 252.18C509.783 252.029 509.525 251.953 509.233 251.953C508.941 251.953 508.684 252.029 508.46 252.18C508.236 252.331 508.061 252.547 507.936 252.828C507.811 253.109 507.749 253.44 507.749 253.82ZM508.483 258.438H510.483V261.594H518.483V263.188H508.483V258.438ZM516.233 249.219H518.124V259.812H516.233V249.219ZM532.749 261.859H519.733V260.219H525.218V258.078H521.233V253.297H529.28V251.734H521.218V250.141H531.249V254.859H523.233V256.453H531.577V258.078H527.202V260.219H532.749V261.859ZM546.561 258.797H540.999V263.453H539.03V258.797H533.546V257.172H546.561V258.797ZM534.858 252.922C534.858 252.271 535.074 251.703 535.507 251.219C535.939 250.729 536.543 250.352 537.319 250.086C538.1 249.82 538.999 249.688 540.014 249.688C541.03 249.688 541.928 249.82 542.71 250.086C543.496 250.352 544.108 250.729 544.546 251.219C544.983 251.703 545.202 252.271 545.202 252.922C545.202 253.557 544.983 254.115 544.546 254.594C544.108 255.073 543.496 255.443 542.71 255.703C541.923 255.964 541.025 256.094 540.014 256.094C539.004 256.094 538.108 255.964 537.327 255.703C536.546 255.443 535.939 255.073 535.507 254.594C535.074 254.115 534.858 253.557 534.858 252.922ZM536.905 252.922C536.905 253.255 537.03 253.542 537.28 253.781C537.53 254.021 537.889 254.203 538.358 254.328C538.827 254.448 539.379 254.51 540.014 254.516C540.988 254.51 541.751 254.37 542.303 254.094C542.861 253.812 543.139 253.422 543.139 252.922C543.139 252.401 542.861 252 542.303 251.719C541.751 251.432 540.988 251.286 540.014 251.281C539.046 251.286 538.283 251.432 537.725 251.719C537.173 252 536.9 252.401 536.905 252.922ZM562.874 251.844C562.869 252.656 562.856 253.349 562.835 253.922C562.819 254.49 562.772 255.156 562.694 255.922C562.621 256.682 562.504 257.505 562.343 258.391L560.389 258.219C560.593 257.062 560.723 256.023 560.78 255.102C560.837 254.18 560.869 253.156 560.874 252.031H552.358V250.453H562.874V251.844ZM551.077 260.078H553.843V255.609H555.827V260.078H557.389V255.609H559.358V260.078H564.046V261.703H551.077V260.078ZM572.452 250.328C572.447 250.906 572.637 251.474 573.022 252.031C573.413 252.583 573.983 253.062 574.733 253.469C575.483 253.87 576.379 254.135 577.421 254.266L576.639 255.875C575.421 255.698 574.361 255.344 573.46 254.812C572.564 254.276 571.879 253.615 571.405 252.828C570.926 253.615 570.238 254.276 569.343 254.812C568.452 255.344 567.405 255.698 566.202 255.875L565.405 254.266C566.436 254.135 567.324 253.87 568.069 253.469C568.819 253.062 569.387 252.583 569.772 252.031C570.158 251.474 570.353 250.906 570.358 250.328V249.641H572.452V250.328ZM564.905 256.953H577.874V258.578H572.343V263.438H570.374V258.578H564.905V256.953ZM504.124 285.969H502.124V284.844H499.405V283.484H502.124V275.234H504.124V285.969ZM492.03 281.531C493.816 281.521 495.452 281.49 496.936 281.438C498.421 281.38 499.827 281.271 501.155 281.109L501.264 282.531C500.181 282.714 499.035 282.849 497.827 282.938V285.641H495.827V287.594H504.436V289.188H493.843V284.938H495.827V283.055C494.837 283.091 493.65 283.109 492.264 283.109L492.03 281.531ZM493.077 278.266C493.077 277.766 493.228 277.323 493.53 276.938C493.832 276.552 494.254 276.253 494.796 276.039C495.337 275.826 495.957 275.719 496.655 275.719C497.337 275.719 497.947 275.826 498.483 276.039C499.02 276.253 499.439 276.552 499.741 276.938C500.048 277.323 500.202 277.766 500.202 278.266C500.202 278.766 500.048 279.206 499.741 279.586C499.439 279.966 499.02 280.258 498.483 280.461C497.947 280.664 497.337 280.766 496.655 280.766C495.952 280.766 495.33 280.664 494.788 280.461C494.251 280.258 493.832 279.966 493.53 279.586C493.228 279.206 493.077 278.766 493.077 278.266ZM494.968 278.266C494.962 278.604 495.113 278.867 495.421 279.055C495.733 279.237 496.155 279.328 496.686 279.328C497.165 279.328 497.553 279.234 497.85 279.047C498.152 278.859 498.306 278.599 498.311 278.266C498.306 277.922 498.15 277.654 497.843 277.461C497.54 277.268 497.145 277.172 496.655 277.172C496.139 277.172 495.728 277.268 495.421 277.461C495.113 277.654 494.962 277.922 494.968 278.266ZM518.311 289.438H516.405V282.312H515.202V288.781H513.311V284.711L512.186 286.203C510.947 285.552 510.053 284.445 509.507 282.883C509.001 284.68 508.113 285.958 506.843 286.719L505.608 285.188C506.629 284.615 507.363 283.768 507.811 282.648C508.264 281.523 508.494 280.219 508.499 278.734V278.281H506.093V276.688H512.608V278.281H510.436V278.734C510.436 280.083 510.663 281.281 511.116 282.328C511.574 283.375 512.306 284.159 513.311 284.68V275.422H515.202V280.688H516.405V275.219H518.311V289.438ZM524.968 278.562C524.973 279.115 525.098 279.648 525.343 280.164C525.587 280.674 525.96 281.135 526.46 281.547C526.96 281.958 527.582 282.276 528.327 282.5L527.374 284.047C526.598 283.823 525.926 283.482 525.358 283.023C524.79 282.56 524.343 282.01 524.014 281.375C523.686 282.062 523.236 282.656 522.663 283.156C522.095 283.656 521.41 284.031 520.608 284.281L519.639 282.719C520.384 282.495 521.007 282.169 521.507 281.742C522.007 281.315 522.376 280.828 522.616 280.281C522.861 279.734 522.983 279.161 522.983 278.562V278.453H520.124V276.891H522.983V275.312H524.999V276.891H527.843V278.453H524.968V278.562ZM522.28 284.875H524.28V287.594H532.061V289.188H522.28V284.875ZM527.374 279.375H529.733V275.234H531.718V285.781H529.733V280.984H527.374V279.375ZM549.046 277.844C549.04 278.656 549.027 279.349 549.007 279.922C548.991 280.49 548.944 281.156 548.866 281.922C548.793 282.682 548.676 283.505 548.514 284.391L546.561 284.219C546.764 283.062 546.895 282.023 546.952 281.102C547.009 280.18 547.04 279.156 547.046 278.031H538.53V276.453H549.046V277.844ZM537.249 286.078H540.014V281.609H541.999V286.078H543.561V281.609H545.53V286.078H550.218V287.703H537.249V286.078ZM558.624 276.328C558.619 276.906 558.809 277.474 559.194 278.031C559.585 278.583 560.155 279.062 560.905 279.469C561.655 279.87 562.551 280.135 563.593 280.266L562.811 281.875C561.593 281.698 560.533 281.344 559.632 280.812C558.736 280.276 558.051 279.615 557.577 278.828C557.098 279.615 556.41 280.276 555.514 280.812C554.624 281.344 553.577 281.698 552.374 281.875L551.577 280.266C552.608 280.135 553.496 279.87 554.241 279.469C554.991 279.062 555.559 278.583 555.944 278.031C556.33 277.474 556.525 276.906 556.53 276.328V275.641H558.624V276.328ZM551.077 282.953H564.046V284.578H558.514V289.438H556.546V284.578H551.077V282.953Z" fill="#DEDEDE"/>
<line x1="668" y1="247.5" x2="843" y2="247.5" stroke="#71161B"/>
<line x1="293" y1="247.5" x2="381" y2="247.5" stroke="#71161B"/>
<path d="M916.658 17.1914V17.748C916.658 18.4707 916.632 19.1608 916.58 19.8184C916.534 20.4694 916.44 21.1693 916.296 21.918H918.591V23.9102H911.677V26.4688H916.677V32.7969H914.177V28.4219H903.962V26.4688H909.177V23.9102H902.322V21.918H913.777C913.927 21.1693 914.028 20.4759 914.08 19.8379C914.132 19.1999 914.164 18.513 914.177 17.7773H904.314V15.8047H916.658V17.1914ZM934.978 32.7969H932.615V15.0234H934.978V32.7969ZM919.236 27.6016C920.466 26.8464 921.371 25.7689 921.951 24.3691C922.537 22.9629 922.83 21.4362 922.83 19.7891V18.832H919.919V16.8398H927.927V18.832H925.232V19.7891C925.225 21.3971 925.502 22.862 926.062 24.1836C926.628 25.5052 927.524 26.5143 928.748 27.2109L927.283 29.0469C925.785 28.1615 924.708 26.6836 924.05 24.6133C923.738 25.694 923.305 26.6478 922.751 27.4746C922.198 28.3014 921.528 28.9557 920.74 29.4375L919.236 27.6016ZM926.658 21.1172H929.001V15.3164H931.345V31.9766H929.001V23.1289H926.658V21.1172ZM945.095 31H942.166V16.8594H945.095V31ZM955.154 20.9023C955.095 20.3424 954.851 19.9062 954.421 19.5938C953.998 19.2812 953.429 19.125 952.712 19.125C952.224 19.125 951.804 19.1966 951.453 19.3398C951.108 19.4766 950.844 19.6686 950.662 19.916C950.479 20.1634 950.388 20.4434 950.388 20.7559C950.388 21.2246 950.59 21.5957 950.994 21.8691C951.404 22.1361 951.957 22.3477 952.654 22.5039L953.923 22.8164C955.232 23.1159 956.264 23.6042 957.019 24.2812C957.774 24.9518 958.155 25.8438 958.162 26.957C958.162 27.8164 957.944 28.5651 957.507 29.2031C957.071 29.8411 956.443 30.3327 955.623 30.6777C954.802 31.0228 953.826 31.1953 952.693 31.1953C951.547 31.2018 950.554 31.0293 949.714 30.6777C948.875 30.3262 948.22 29.8053 947.751 29.1152C947.283 28.4251 947.035 27.582 947.009 26.5859H949.861C949.906 27.2826 950.18 27.8164 950.681 28.1875C951.189 28.5521 951.847 28.7344 952.654 28.7344C953.162 28.7344 953.608 28.6595 953.992 28.5098C954.376 28.36 954.672 28.1517 954.88 27.8848C955.089 27.6178 955.193 27.3086 955.193 26.957C955.193 26.5013 954.994 26.14 954.597 25.873C954.207 25.5996 953.598 25.362 952.771 25.1602L951.228 24.7891C948.663 24.1576 947.38 22.875 947.38 20.9414C947.38 20.1016 947.608 19.3594 948.064 18.7148C948.526 18.0638 949.161 17.5592 949.968 17.2012C950.782 16.8431 951.703 16.6641 952.732 16.6641C953.761 16.6641 954.669 16.8431 955.457 17.2012C956.244 17.5592 956.856 18.0605 957.292 18.7051C957.729 19.3431 957.953 20.0755 957.966 20.9023H955.154ZM960.076 31V16.8594H965.115C966.528 16.8594 967.748 17.1426 968.777 17.709C969.812 18.2689 970.603 19.0794 971.15 20.1406C971.697 21.1953 971.97 22.4518 971.97 23.9102C971.97 25.375 971.694 26.6413 971.14 27.709C970.593 28.7702 969.799 29.584 968.757 30.1504C967.722 30.7168 966.488 31 965.056 31H960.076ZM964.939 28.4805C966.306 28.4805 967.332 28.1094 968.015 27.3672C968.699 26.625 969.041 25.4727 969.041 23.9102C969.041 22.3607 968.699 21.2181 968.015 20.4824C967.338 19.7467 966.319 19.3789 964.958 19.3789H963.005V28.4805H964.939ZM993.318 28.3242H990.955V15.0234H993.318V28.3242ZM977.83 24.125C978.604 23.7539 979.246 23.2689 979.753 22.6699C980.261 22.071 980.632 21.4167 980.867 20.707C981.108 19.9974 981.228 19.2747 981.228 18.5391V16.2148H983.65V18.5391C983.643 19.6393 983.897 20.6484 984.412 21.5664C984.932 22.4779 985.733 23.181 986.814 23.6758L985.427 25.5898C984.08 24.9648 983.09 23.9167 982.458 22.4453C982.133 23.2526 981.697 23.9622 981.15 24.5742C980.61 25.1797 979.958 25.6615 979.197 26.0195L977.83 24.125ZM981.267 26.7617H983.767V30.4922H993.767V32.4844H981.267V26.7617ZM985.193 19.0859H987.361V15.2969H989.724V27.7969H987.361V21.1172H985.193V19.0859ZM1010.33 32.8359H1007.87V23.3047H1004.74V21.293H1007.87V15.0234H1010.33V32.8359ZM996.15 16.5078H1004.45V18.5195H998.63V21.4688H1003.81V23.4219H998.63V26.7812C999.972 26.7682 1001.15 26.7324 1002.18 26.6738C1003.2 26.6087 1004.24 26.4948 1005.27 26.332L1005.52 28.3242C1004.3 28.5065 1003.08 28.6335 1001.86 28.7051C1000.65 28.7702 999.21 28.806 997.556 28.8125H996.15V16.5078Z" fill="#71161B"/>
<path d="M934.527 60.9531H933.042V59.6094H930.23V58.5625H933.042V50.3438H934.527V60.9531ZM922.996 56.7344C924.85 56.7188 926.475 56.6849 927.871 56.6328C929.266 56.5807 930.605 56.474 931.886 56.3125L931.98 57.375C930.933 57.5521 929.704 57.6901 928.292 57.7891V60.5156H926.808V57.8672C925.902 57.9036 924.636 57.9219 923.011 57.9219L922.824 56.7344H922.996ZM923.917 53.3438C923.917 52.8542 924.061 52.4245 924.347 52.0547C924.639 51.6797 925.048 51.3906 925.574 51.1875C926.105 50.9792 926.714 50.875 927.402 50.875C928.079 50.875 928.681 50.9792 929.207 51.1875C929.733 51.3906 930.141 51.6797 930.433 52.0547C930.725 52.4245 930.871 52.8542 930.871 53.3438C930.871 53.8333 930.725 54.263 930.433 54.6328C930.141 54.9974 929.733 55.2812 929.207 55.4844C928.681 55.6823 928.079 55.7812 927.402 55.7812C926.714 55.7812 926.108 55.6823 925.582 55.4844C925.056 55.2812 924.647 54.9974 924.355 54.6328C924.063 54.263 923.917 53.8333 923.917 53.3438ZM924.761 59.9219H926.23V62.8281H934.871V64.0312H924.761V59.9219ZM925.324 53.3438C925.324 53.6146 925.41 53.8516 925.582 54.0547C925.753 54.2578 925.996 54.4141 926.308 54.5234C926.626 54.6328 926.99 54.6875 927.402 54.6875C927.798 54.6875 928.152 54.6328 928.464 54.5234C928.777 54.4141 929.022 54.2578 929.199 54.0547C929.376 53.8516 929.464 53.6146 929.464 53.3438C929.464 53.0677 929.376 52.8281 929.199 52.625C929.022 52.4167 928.777 52.2578 928.464 52.1484C928.152 52.0339 927.798 51.9792 927.402 51.9844C926.99 51.9792 926.626 52.0339 926.308 52.1484C925.996 52.2578 925.753 52.4167 925.582 52.625C925.41 52.8281 925.324 53.0677 925.324 53.3438ZM948.808 64.3281H947.386V57.1406H945.714V63.6406H944.308V50.5938H945.714V55.8906H947.386V50.3281H948.808V64.3281ZM936.527 60.375C937.522 59.8177 938.269 58.9818 938.769 57.8672C939.274 56.7526 939.527 55.474 939.527 54.0312V53.125H936.902V51.9219H943.402V53.125H940.964V54.0312C940.964 54.8906 941.074 55.7005 941.292 56.4609C941.511 57.2161 941.842 57.8906 942.285 58.4844C942.733 59.0729 943.287 59.5365 943.949 59.875L943.074 61.0156C942.402 60.651 941.832 60.1562 941.363 59.5312C940.894 58.901 940.532 58.1745 940.277 57.3516C940.032 58.2943 939.673 59.1198 939.199 59.8281C938.73 60.5312 938.147 61.0885 937.449 61.5L936.527 60.375ZM955.449 53.6562C955.449 54.2448 955.589 54.8073 955.871 55.3438C956.152 55.8802 956.553 56.3568 957.074 56.7734C957.6 57.1849 958.214 57.5 958.917 57.7188L958.199 58.8906C957.402 58.6406 956.707 58.263 956.113 57.7578C955.519 57.2474 955.061 56.6458 954.738 55.9531C954.431 56.6927 953.977 57.3359 953.378 57.8828C952.785 58.4297 952.079 58.8385 951.261 59.1094L950.542 57.9531C951.246 57.7292 951.855 57.401 952.371 56.9688C952.891 56.5312 953.29 56.026 953.566 55.4531C953.842 54.8802 953.98 54.2812 953.98 53.6562V53.3281H950.933V52.125H953.98V50.4219H955.464V52.125H958.496V53.3281H955.449V53.6562ZM953.121 59.8438H954.605V62.8281H962.589V64.0312H953.121V59.8438ZM958.011 54.5781H960.73V50.3438H962.214V60.7656H960.73V55.7812H958.011V54.5781ZM975.746 53.1719V53.3438C975.735 54.5 975.699 55.5208 975.636 56.4062C975.579 57.2865 975.444 58.3021 975.23 59.4531L973.777 59.2969C973.975 58.2812 974.105 57.3464 974.167 56.4922C974.23 55.6328 974.261 54.7214 974.261 53.7578V53.1719V52.875H965.683V51.6719H975.746V53.1719ZM964.371 61.2031H967.386V56.6719H968.871V61.2031H970.886V56.6719H972.339V61.2031H977.136V62.4375H964.371V61.2031ZM985.371 51.5625C985.371 52.1719 985.595 52.7578 986.042 53.3203C986.496 53.8828 987.105 54.362 987.871 54.7578C988.641 55.1536 989.48 55.4115 990.386 55.5312L989.808 56.75C989.048 56.6302 988.326 56.4219 987.644 56.125C986.962 55.8281 986.358 55.4609 985.832 55.0234C985.311 54.5807 984.899 54.0885 984.597 53.5469C984.295 54.0885 983.881 54.5807 983.355 55.0234C982.834 55.4609 982.235 55.8281 981.558 56.125C980.881 56.4167 980.162 56.625 979.402 56.75L978.808 55.5312C979.714 55.4115 980.55 55.1562 981.316 54.7656C982.082 54.375 982.691 53.8984 983.144 53.3359C983.597 52.7682 983.824 52.1771 983.824 51.5625V50.7969H985.371V51.5625ZM978.199 58.125H990.964V59.3438H985.277V64.3281H983.824V59.3438H978.199V58.125Z" fill="#424242"/>
<rect x="844.5" y="1.5" width="224.882" height="75" rx="6.5" stroke="#71161B" stroke-width="3"/>
<path d="M919.949 115.191V115.748C919.949 116.471 919.923 117.161 919.871 117.818C919.825 118.469 919.731 119.169 919.587 119.918H921.882V121.91H914.968V124.469H919.968V130.797H917.468V126.422H907.253V124.469H912.468V121.91H905.613V119.918H917.068C917.218 119.169 917.319 118.476 917.371 117.838C917.423 117.2 917.455 116.513 917.468 115.777H907.605V113.805H919.949V115.191ZM938.269 130.797H935.906V113.023H938.269V130.797ZM922.527 125.602C923.757 124.846 924.662 123.769 925.242 122.369C925.828 120.963 926.121 119.436 926.121 117.789V116.832H923.21V114.84H931.218V116.832H928.523V117.789C928.516 119.397 928.793 120.862 929.353 122.184C929.919 123.505 930.815 124.514 932.039 125.211L930.574 127.047C929.076 126.161 927.999 124.684 927.341 122.613C927.029 123.694 926.596 124.648 926.042 125.475C925.489 126.301 924.819 126.956 924.031 127.438L922.527 125.602ZM929.949 119.117H932.292V113.316H934.636V129.977H932.292V121.129H929.949V119.117ZM956.394 123.102H949.519V124.42C951.075 124.531 952.286 124.859 953.152 125.406C954.018 125.953 954.454 126.682 954.46 127.594C954.454 128.271 954.203 128.85 953.708 129.332C953.214 129.814 952.501 130.178 951.57 130.426C950.645 130.673 949.545 130.797 948.269 130.797C946.973 130.797 945.857 130.673 944.919 130.426C943.988 130.178 943.276 129.814 942.781 129.332C942.286 128.857 942.039 128.277 942.039 127.594C942.039 126.676 942.475 125.943 943.347 125.396C944.22 124.85 945.45 124.521 947.039 124.41V123.102H940.183V121.09H956.394V123.102ZM940.906 118.473C941.96 118.382 942.878 118.199 943.66 117.926C944.441 117.652 945.063 117.327 945.525 116.949C945.994 116.572 946.306 116.168 946.462 115.738H941.667V113.785H954.929V115.738H950.095C950.245 116.168 950.551 116.575 951.013 116.959C951.482 117.337 952.11 117.662 952.898 117.936C953.692 118.202 954.63 118.382 955.71 118.473L954.832 120.426C953.184 120.27 951.801 119.902 950.681 119.322C949.561 118.736 948.757 118.001 948.269 117.115C947.787 118.001 946.986 118.736 945.867 119.322C944.747 119.908 943.367 120.276 941.726 120.426L940.906 118.473ZM944.578 127.594C944.571 128.023 944.877 128.352 945.496 128.58C946.121 128.808 947.045 128.922 948.269 128.922C949.473 128.922 950.388 128.808 951.013 128.58C951.638 128.352 951.954 128.023 951.96 127.594C951.954 126.715 950.723 126.266 948.269 126.246C947.032 126.259 946.104 126.376 945.486 126.598C944.874 126.812 944.571 127.145 944.578 127.594ZM972.976 130.797H970.593V121.891H969.089V129.977H966.726V124.889L965.32 126.754C963.77 125.94 962.654 124.557 961.97 122.604C961.339 124.85 960.229 126.448 958.64 127.398L957.097 125.484C958.373 124.768 959.291 123.71 959.851 122.311C960.417 120.904 960.704 119.273 960.71 117.418V116.852H957.703V114.859H965.847V116.852H963.132V117.418C963.132 119.104 963.416 120.602 963.982 121.91C964.555 123.219 965.47 124.199 966.726 124.85V113.277H969.089V119.859H970.593V113.023H972.976V130.797ZM990.027 126.324H987.664V113.023H990.027V126.324ZM974.539 122.125C975.313 121.754 975.955 121.269 976.462 120.67C976.97 120.071 977.341 119.417 977.576 118.707C977.817 117.997 977.937 117.275 977.937 116.539V114.215H980.359V116.539C980.352 117.639 980.606 118.648 981.121 119.566C981.641 120.478 982.442 121.181 983.523 121.676L982.136 123.59C980.789 122.965 979.799 121.917 979.167 120.445C978.842 121.253 978.406 121.962 977.859 122.574C977.319 123.18 976.667 123.661 975.906 124.02L974.539 122.125ZM977.976 124.762H980.476V128.492H990.476V130.484H977.976V124.762ZM981.902 117.086H984.07V113.297H986.433V125.797H984.07V119.117H981.902V117.086ZM1007.04 130.836H1004.58V121.305H1001.45V119.293H1004.58V113.023H1007.04V130.836ZM992.859 114.508H1001.16V116.52H995.339V119.469H1000.52V121.422H995.339V124.781C996.681 124.768 997.862 124.732 998.884 124.674C999.913 124.609 1000.94 124.495 1001.98 124.332L1002.23 126.324C1001.01 126.507 999.789 126.633 998.572 126.705C997.354 126.77 995.919 126.806 994.265 126.812H992.859V114.508Z" fill="#71161B"/>
<path d="M919.152 162.328H917.73V148.328H919.152V162.328ZM907.261 154.375C907.261 153.375 907.384 152.505 907.628 151.766C907.878 151.021 908.23 150.451 908.683 150.055C909.141 149.654 909.673 149.453 910.277 149.453C910.839 149.453 911.337 149.622 911.769 149.961C912.207 150.299 912.556 150.789 912.816 151.43C913.082 152.065 913.243 152.818 913.3 153.688H914.886V148.594H916.308V161.641H914.886V154.891H913.308C913.266 155.797 913.115 156.583 912.855 157.25C912.595 157.911 912.243 158.422 911.8 158.781C911.358 159.135 910.85 159.312 910.277 159.312C909.673 159.312 909.141 159.115 908.683 158.719C908.23 158.318 907.878 157.745 907.628 157C907.384 156.25 907.261 155.375 907.261 154.375ZM908.636 154.375C908.636 155.109 908.701 155.742 908.832 156.273C908.967 156.805 909.157 157.211 909.402 157.492C909.652 157.768 909.944 157.906 910.277 157.906C910.621 157.906 910.917 157.768 911.167 157.492C911.417 157.211 911.61 156.805 911.746 156.273C911.881 155.742 911.949 155.109 911.949 154.375C911.949 153.635 911.881 153.003 911.746 152.477C911.61 151.945 911.417 151.542 911.167 151.266C910.917 150.984 910.621 150.844 910.277 150.844C909.944 150.844 909.652 150.984 909.402 151.266C909.157 151.542 908.967 151.945 908.832 152.477C908.701 153.008 908.636 153.641 908.636 154.375ZM932.542 156.891H931.058V148.344H932.542V156.891ZM921.636 149.156H928.074V153.156H923.121V154.953C924.433 154.943 925.571 154.909 926.535 154.852C927.498 154.794 928.485 154.693 929.496 154.547L929.683 155.75C928.636 155.911 927.618 156.023 926.628 156.086C925.639 156.143 924.49 156.172 923.183 156.172H922.839H921.667V152H926.605V150.359H921.636V149.156ZM923.058 157.609H932.542V162.328H931.058V158.828H923.058V157.609ZM938.089 149.406C938.641 149.406 939.144 149.526 939.597 149.766C940.05 150 940.423 150.333 940.714 150.766C941.006 151.198 941.191 151.698 941.269 152.266H942.574V148.578H943.964V158.375H942.574V153.5H941.261C941.173 154.052 940.98 154.539 940.683 154.961C940.391 155.378 940.022 155.701 939.574 155.93C939.126 156.159 938.631 156.271 938.089 156.266C937.475 156.271 936.923 156.13 936.433 155.844C935.949 155.552 935.569 155.146 935.292 154.625C935.022 154.099 934.886 153.505 934.886 152.844C934.886 152.172 935.022 151.576 935.292 151.055C935.563 150.534 935.941 150.13 936.425 149.844C936.915 149.552 937.47 149.406 938.089 149.406ZM936.214 152.844C936.214 153.271 936.292 153.648 936.449 153.977C936.61 154.299 936.834 154.552 937.121 154.734C937.407 154.911 937.73 155 938.089 155C938.449 155 938.769 154.911 939.05 154.734C939.337 154.552 939.561 154.299 939.722 153.977C939.889 153.648 939.975 153.271 939.98 152.844C939.975 152.422 939.889 152.047 939.722 151.719C939.561 151.385 939.337 151.128 939.05 150.945C938.764 150.763 938.444 150.672 938.089 150.672C937.73 150.672 937.407 150.763 937.121 150.945C936.834 151.128 936.61 151.385 936.449 151.719C936.292 152.047 936.214 152.422 936.214 152.844ZM937.417 157.438H938.886V160.828H947.105V162.031H937.417V157.438ZM945.292 148.328H946.699V158.797H945.292V148.328ZM961.402 160.656H948.589V159.406H954.23V156.953H950.152V152.5H958.371V150.531H950.121V149.312H959.839V153.688H951.621V155.734H960.167V156.953H955.699V159.406H961.402V160.656ZM975.214 157.516H969.496V162.328H968.042V157.516H962.402V156.281H975.214V157.516ZM963.792 151.969C963.792 151.344 964.001 150.797 964.417 150.328C964.839 149.854 965.425 149.492 966.175 149.242C966.925 148.987 967.792 148.859 968.777 148.859C969.761 148.859 970.628 148.987 971.378 149.242C972.134 149.492 972.72 149.854 973.136 150.328C973.553 150.797 973.761 151.344 973.761 151.969C973.761 152.589 973.553 153.13 973.136 153.594C972.72 154.057 972.134 154.417 971.378 154.672C970.628 154.922 969.761 155.047 968.777 155.047C967.798 155.047 966.931 154.922 966.175 154.672C965.425 154.417 964.839 154.057 964.417 153.594C964.001 153.13 963.792 152.589 963.792 151.969ZM965.324 151.969C965.324 152.354 965.464 152.69 965.746 152.977C966.032 153.258 966.436 153.477 966.957 153.633C967.483 153.784 968.089 153.859 968.777 153.859C969.47 153.859 970.076 153.784 970.597 153.633C971.118 153.477 971.522 153.258 971.808 152.977C972.1 152.69 972.246 152.354 972.246 151.969C972.246 151.578 972.1 151.24 971.808 150.953C971.522 150.667 971.118 150.445 970.597 150.289C970.076 150.128 969.47 150.047 968.777 150.047C968.089 150.047 967.483 150.128 966.957 150.289C966.436 150.445 966.032 150.667 965.746 150.953C965.464 151.24 965.324 151.578 965.324 151.969ZM991.527 151.172V151.344C991.516 152.5 991.48 153.521 991.417 154.406C991.36 155.286 991.225 156.302 991.011 157.453L989.558 157.297C989.756 156.281 989.886 155.346 989.949 154.492C990.011 153.633 990.042 152.721 990.042 151.758V151.172V150.875H981.464V149.672H991.527V151.172ZM980.152 159.203H983.167V154.672H984.652V159.203H986.667V154.672H988.121V159.203H992.917V160.438H980.152V159.203ZM1001.15 149.562C1001.15 150.172 1001.38 150.758 1001.82 151.32C1002.28 151.883 1002.89 152.362 1003.65 152.758C1004.42 153.154 1005.26 153.411 1006.17 153.531L1005.59 154.75C1004.83 154.63 1004.11 154.422 1003.43 154.125C1002.74 153.828 1002.14 153.461 1001.61 153.023C1001.09 152.581 1000.68 152.089 1000.38 151.547C1000.08 152.089 999.662 152.581 999.136 153.023C998.615 153.461 998.016 153.828 997.339 154.125C996.662 154.417 995.944 154.625 995.183 154.75L994.589 153.531C995.496 153.411 996.332 153.156 997.097 152.766C997.863 152.375 998.472 151.898 998.925 151.336C999.378 150.768 999.605 150.177 999.605 149.562V148.797H1001.15V149.562ZM993.98 156.125H1006.75V157.344H1001.06V162.328H999.605V157.344H993.98V156.125Z" fill="#424242"/>
<rect x="844.5" y="99.5" width="224.882" height="75" rx="6.5" stroke="#71161B" stroke-width="3"/>
<path d="M919.832 218.25H922.156V220.32H919.832V228.797H917.312V211.023H919.832V218.25ZM905.398 223.777C907.273 223.777 908.738 223.764 909.792 223.738V222.215C909.167 222.091 908.621 221.88 908.152 221.58C907.683 221.281 907.322 220.91 907.068 220.467C906.814 220.024 906.687 219.533 906.687 218.992C906.687 218.341 906.869 217.762 907.234 217.254C907.605 216.746 908.123 216.352 908.787 216.072C909.451 215.792 910.209 215.652 911.062 215.652C911.902 215.652 912.651 215.792 913.308 216.072C913.972 216.352 914.49 216.746 914.861 217.254C915.238 217.762 915.431 218.341 915.437 218.992C915.431 219.533 915.297 220.027 915.037 220.477C914.776 220.919 914.408 221.29 913.933 221.59C913.464 221.889 912.917 222.098 912.292 222.215V223.65C913.875 223.566 915.255 223.439 916.433 223.27L916.589 225.086C915.027 225.372 913.409 225.564 911.736 225.662C910.063 225.76 908.298 225.809 906.443 225.809H905.73L905.398 223.777ZM905.75 212.996H909.792V211.121H912.292V212.996H916.296V214.949H905.75V212.996ZM909.05 218.992C909.044 219.454 909.22 219.812 909.578 220.066C909.942 220.314 910.437 220.438 911.062 220.438C911.667 220.438 912.146 220.314 912.498 220.066C912.856 219.812 913.035 219.454 913.035 218.992C913.035 218.543 912.856 218.191 912.498 217.938C912.139 217.684 911.661 217.553 911.062 217.547C910.444 217.553 909.952 217.684 909.587 217.938C909.223 218.191 909.044 218.543 909.05 218.992ZM931.472 215.711H922.878V213.738H925.964V211.512H928.425V213.738H931.472V215.711ZM923.289 220.73C923.289 219.917 923.458 219.191 923.796 218.553C924.135 217.915 924.6 217.417 925.193 217.059C925.792 216.694 926.466 216.512 927.214 216.512C927.963 216.512 928.634 216.694 929.226 217.059C929.819 217.417 930.281 217.915 930.613 218.553C930.951 219.191 931.121 219.917 931.121 220.73C931.121 221.544 930.951 222.273 930.613 222.918C930.281 223.562 929.819 224.067 929.226 224.432C928.634 224.79 927.963 224.969 927.214 224.969C926.466 224.969 925.792 224.79 925.193 224.432C924.6 224.067 924.135 223.562 923.796 222.918C923.458 222.273 923.289 221.544 923.289 220.73ZM925.476 220.73C925.476 221.401 925.632 221.925 925.945 222.303C926.264 222.674 926.687 222.859 927.214 222.859C927.722 222.859 928.132 222.671 928.445 222.293C928.764 221.915 928.927 221.395 928.933 220.73C928.933 220.294 928.858 219.913 928.708 219.588C928.559 219.262 928.354 219.015 928.093 218.846C927.839 218.67 927.546 218.582 927.214 218.582C926.694 218.582 926.274 218.774 925.955 219.158C925.636 219.542 925.476 220.066 925.476 220.73ZM932.136 211.375H934.46V218.25H935.906V211.023H938.269V228.797H935.906V220.242H934.46V228.035H932.136V211.375ZM956.453 226.727H940.183V224.715H947.058V220.75H949.558V224.715H956.453V226.727ZM940.847 219.559C942.039 219.363 943.083 219.008 943.982 218.494C944.88 217.98 945.583 217.365 946.091 216.648C946.599 215.932 946.889 215.177 946.96 214.383H941.531V212.371H955.027V214.383H949.617C949.682 215.177 949.968 215.929 950.476 216.639C950.99 217.342 951.707 217.944 952.625 218.445C953.542 218.94 954.617 219.279 955.847 219.461L954.871 221.434C953.328 221.16 951.99 220.662 950.857 219.939C949.731 219.217 948.878 218.325 948.298 217.264C947.732 218.344 946.889 219.259 945.769 220.008C944.656 220.75 943.341 221.258 941.824 221.531L940.847 219.559ZM972.449 221.57H969.968V217.371H967.195V215.359H969.968V211.023H972.449V221.57ZM957.351 219.617C958.282 219.305 959.067 218.859 959.705 218.279C960.343 217.7 960.821 217.049 961.14 216.326C961.459 215.604 961.628 214.858 961.648 214.09H958.074V212.098H967.722V214.09H964.187C964.207 214.806 964.366 215.496 964.666 216.16C964.965 216.818 965.417 217.41 966.023 217.938C966.635 218.465 967.384 218.875 968.269 219.168L967.039 221.121C966.088 220.815 965.268 220.359 964.578 219.754C963.894 219.142 963.354 218.426 962.957 217.605C962.553 218.536 961.99 219.347 961.267 220.037C960.544 220.721 959.669 221.238 958.64 221.59L957.351 219.617ZM960.261 225.398C960.261 224.689 960.505 224.077 960.994 223.562C961.488 223.042 962.195 222.645 963.113 222.371C964.031 222.098 965.118 221.961 966.375 221.961C967.638 221.961 968.728 222.098 969.646 222.371C970.564 222.645 971.27 223.038 971.765 223.553C972.26 224.067 972.507 224.682 972.507 225.398C972.507 226.115 972.26 226.727 971.765 227.234C971.27 227.749 970.564 228.139 969.646 228.406C968.728 228.68 967.638 228.816 966.375 228.816C965.118 228.816 964.031 228.68 963.113 228.406C962.195 228.139 961.488 227.749 960.994 227.234C960.505 226.72 960.261 226.108 960.261 225.398ZM962.742 225.398C962.742 225.9 963.051 226.281 963.669 226.541C964.288 226.795 965.19 226.922 966.375 226.922C967.566 226.922 968.471 226.795 969.089 226.541C969.708 226.287 970.02 225.906 970.027 225.398C970.02 224.897 969.711 224.52 969.099 224.266C968.494 224.005 967.608 223.875 966.443 223.875C963.975 223.875 962.742 224.383 962.742 225.398ZM990.027 224.324H987.664V211.023H990.027V224.324ZM974.539 220.125C975.313 219.754 975.955 219.269 976.462 218.67C976.97 218.071 977.341 217.417 977.576 216.707C977.817 215.997 977.937 215.275 977.937 214.539V212.215H980.359V214.539C980.352 215.639 980.606 216.648 981.121 217.566C981.641 218.478 982.442 219.181 983.523 219.676L982.136 221.59C980.789 220.965 979.799 219.917 979.167 218.445C978.842 219.253 978.406 219.962 977.859 220.574C977.319 221.18 976.667 221.661 975.906 222.02L974.539 220.125ZM977.976 222.762H980.476V226.492H990.476V228.484H977.976V222.762ZM981.902 215.086H984.07V211.297H986.433V223.797H984.07V217.117H981.902V215.086ZM1007.04 228.836H1004.58V219.305H1001.45V217.293H1004.58V211.023H1007.04V228.836ZM992.859 212.508H1001.16V214.52H995.339V217.469H1000.52V219.422H995.339V222.781C996.681 222.768 997.862 222.732 998.884 222.674C999.913 222.609 1000.94 222.495 1001.98 222.332L1002.23 224.324C1001.01 224.507 999.789 224.633 998.572 224.705C997.354 224.77 995.919 224.806 994.265 224.812H992.859V212.508Z" fill="#71161B"/>
<path d="M934.496 256.594H933.011V246.344H934.496V256.594ZM922.964 253.438C923.683 253.172 924.306 252.786 924.832 252.281C925.358 251.776 925.759 251.195 926.035 250.539C926.316 249.883 926.459 249.203 926.464 248.5V247.109H927.98V248.5C927.98 249.182 928.118 249.833 928.394 250.453C928.67 251.073 929.069 251.62 929.589 252.094C930.11 252.568 930.725 252.927 931.433 253.172L930.667 254.359C929.865 254.062 929.17 253.63 928.582 253.062C927.998 252.49 927.548 251.82 927.23 251.055C926.917 251.878 926.462 252.599 925.863 253.219C925.269 253.833 924.569 254.297 923.761 254.609L922.964 253.438ZM925.339 255.625H926.839V258.828H934.917V260.031H925.339V255.625ZM949.48 254.828H936.714V253.641H949.48V254.828ZM938.089 249.594C938.089 249.016 938.292 248.516 938.699 248.094C939.105 247.672 939.686 247.352 940.441 247.133C941.196 246.909 942.079 246.797 943.089 246.797C944.095 246.797 944.972 246.909 945.722 247.133C946.477 247.352 947.061 247.672 947.472 248.094C947.884 248.516 948.089 249.016 948.089 249.594C948.089 250.177 947.884 250.682 947.472 251.109C947.061 251.536 946.477 251.865 945.722 252.094C944.972 252.323 944.095 252.438 943.089 252.438C942.079 252.438 941.196 252.323 940.441 252.094C939.686 251.865 939.105 251.536 938.699 251.109C938.292 250.682 938.089 250.177 938.089 249.594ZM938.324 255.969H939.824V258.828H948.042V260.031H938.324V255.969ZM939.621 249.594C939.621 249.938 939.759 250.232 940.035 250.477C940.311 250.716 940.709 250.901 941.23 251.031C941.756 251.156 942.376 251.219 943.089 251.219C943.803 251.219 944.42 251.156 944.941 251.031C945.462 250.901 945.86 250.716 946.136 250.477C946.417 250.232 946.558 249.938 946.558 249.594C946.558 249.266 946.417 248.982 946.136 248.742C945.86 248.497 945.459 248.31 944.933 248.18C944.412 248.049 943.798 247.984 943.089 247.984C942.376 247.984 941.759 248.049 941.238 248.18C940.717 248.31 940.316 248.497 940.035 248.742C939.759 248.982 939.621 249.266 939.621 249.594ZM963.308 255.422H957.621V260.312H956.167V255.422H950.542V254.219H963.308V255.422ZM951.261 251.984C952.126 251.865 952.923 251.628 953.652 251.273C954.386 250.914 954.972 250.477 955.41 249.961C955.847 249.445 956.074 248.906 956.089 248.344H951.73V247.156H962.105V248.344H957.777C957.782 248.906 958.001 249.445 958.433 249.961C958.871 250.477 959.457 250.914 960.191 251.273C960.925 251.628 961.73 251.865 962.605 251.984L962.058 253.156C961.292 253.036 960.571 252.836 959.894 252.555C959.217 252.268 958.623 251.914 958.113 251.492C957.602 251.065 957.207 250.591 956.925 250.07C956.644 250.591 956.248 251.065 955.738 251.492C955.227 251.914 954.636 252.268 953.964 252.555C953.292 252.836 952.579 253.036 951.824 253.156L951.261 251.984ZM975.746 249.172V249.344C975.735 250.5 975.699 251.521 975.636 252.406C975.579 253.286 975.444 254.302 975.23 255.453L973.777 255.297C973.975 254.281 974.105 253.346 974.167 252.492C974.23 251.633 974.261 250.721 974.261 249.758V249.172V248.875H965.683V247.672H975.746V249.172ZM964.371 257.203H967.386V252.672H968.871V257.203H970.886V252.672H972.339V257.203H977.136V258.438H964.371V257.203ZM985.371 247.562C985.371 248.172 985.595 248.758 986.042 249.32C986.496 249.883 987.105 250.362 987.871 250.758C988.641 251.154 989.48 251.411 990.386 251.531L989.808 252.75C989.048 252.63 988.326 252.422 987.644 252.125C986.962 251.828 986.358 251.461 985.832 251.023C985.311 250.581 984.899 250.089 984.597 249.547C984.295 250.089 983.881 250.581 983.355 251.023C982.834 251.461 982.235 251.828 981.558 252.125C980.881 252.417 980.162 252.625 979.402 252.75L978.808 251.531C979.714 251.411 980.55 251.156 981.316 250.766C982.082 250.375 982.691 249.898 983.144 249.336C983.597 248.768 983.824 248.177 983.824 247.562V246.797H985.371V247.562ZM978.199 254.125H990.964V255.344H985.277V260.328H983.824V255.344H978.199V254.125ZM930.292 273.203C930.292 274.385 930.024 275.453 929.488 276.406C928.951 277.359 928.183 278.174 927.183 278.852C926.188 279.523 924.996 280.042 923.605 280.406L923.011 279.234C924.126 278.943 925.092 278.56 925.91 278.086C926.733 277.607 927.381 277.055 927.855 276.43C928.329 275.805 928.61 275.125 928.699 274.391H923.792V273.203H930.292ZM925.324 280.844H934.496V286.141H925.324V280.844ZM933.042 284.953V282.031H926.792V284.953H933.042ZM933.011 272.344H934.496V280.219H933.011V272.344ZM940.98 276.156C940.98 276.917 941.087 277.669 941.3 278.414C941.514 279.154 941.832 279.831 942.253 280.445C942.675 281.06 943.188 281.552 943.792 281.922L942.964 283.062C942.329 282.682 941.785 282.164 941.332 281.508C940.884 280.846 940.535 280.096 940.285 279.258C940.024 280.169 939.652 280.982 939.167 281.695C938.688 282.409 938.115 282.969 937.449 283.375L936.527 282.266C937.167 281.88 937.714 281.367 938.167 280.727C938.626 280.086 938.97 279.378 939.199 278.602C939.433 277.82 939.548 277.026 939.542 276.219V273.609H940.98V276.156ZM942.277 277.25H944.449V272.594H945.855V285.641H944.449V278.484H942.277V277.25ZM947.339 272.328H948.761V286.328H947.339V272.328ZM957.886 282.875H951.324V273.672H957.886V282.875ZM956.449 281.672V274.844H952.792V281.672H956.449ZM960.652 272.328H962.136V286.359H960.652V272.328ZM975.746 275.172V275.344C975.735 276.5 975.699 277.521 975.636 278.406C975.579 279.286 975.444 280.302 975.23 281.453L973.777 281.297C973.975 280.281 974.105 279.346 974.167 278.492C974.23 277.633 974.261 276.721 974.261 275.758V275.172V274.875H965.683V273.672H975.746V275.172ZM964.371 283.203H967.386V278.672H968.871V283.203H970.886V278.672H972.339V283.203H977.136V284.438H964.371V283.203ZM985.371 273.562C985.371 274.172 985.595 274.758 986.042 275.32C986.496 275.883 987.105 276.362 987.871 276.758C988.641 277.154 989.48 277.411 990.386 277.531L989.808 278.75C989.048 278.63 988.326 278.422 987.644 278.125C986.962 277.828 986.358 277.461 985.832 277.023C985.311 276.581 984.899 276.089 984.597 275.547C984.295 276.089 983.881 276.581 983.355 277.023C982.834 277.461 982.235 277.828 981.558 278.125C980.881 278.417 980.162 278.625 979.402 278.75L978.808 277.531C979.714 277.411 980.55 277.156 981.316 276.766C982.082 276.375 982.691 275.898 983.144 275.336C983.597 274.768 983.824 274.177 983.824 273.562V272.797H985.371V273.562ZM978.199 280.125H990.964V281.344H985.277V286.328H983.824V281.344H978.199V280.125Z" fill="#424242"/>
<rect x="844.5" y="197.5" width="224.882" height="101" rx="6.5" stroke="#71161B" stroke-width="3"/>
<path d="M902.664 337.191V337.748C902.664 338.471 902.638 339.161 902.585 339.818C902.54 340.469 902.445 341.169 902.302 341.918H904.597V343.91H897.683V346.469H902.683V352.797H900.183V348.422H889.968V346.469H895.183V343.91H888.328V341.918H899.783C899.932 341.169 900.033 340.476 900.085 339.838C900.138 339.2 900.17 338.513 900.183 337.777H890.32V335.805H902.664V337.191ZM920.984 352.797H918.621V335.023H920.984V352.797ZM905.242 347.602C906.472 346.846 907.377 345.769 907.957 344.369C908.542 342.963 908.835 341.436 908.835 339.789V338.832H905.925V336.84H913.933V338.832H911.238V339.789C911.231 341.397 911.508 342.862 912.068 344.184C912.634 345.505 913.529 346.514 914.753 347.211L913.289 349.047C911.791 348.161 910.714 346.684 910.056 344.613C909.744 345.694 909.311 346.648 908.757 347.475C908.204 348.301 907.533 348.956 906.746 349.438L905.242 347.602ZM912.664 341.117H915.007V335.316H917.351V351.977H915.007V343.129H912.664V341.117ZM926.16 338.207H929.656V335.922H932.117V339.086H935.398V335.023H937.878V344.75H935.398V341.117H932.117V344.242H923.66V335.922H926.16V338.207ZM926.023 345.492H928.484V347.133H935.398V345.492H937.878V352.562H926.023V345.492ZM929.656 342.25V340.121H926.16V342.25H929.656ZM935.398 350.57V349.047H928.484V350.57H935.398ZM956.433 344.711H952.429V345.746H954.48V349.945H944.519V350.98H955.007V352.68H942.039V348.363H952.019V347.465H942.019V345.746H944.187V344.711H940.164V342.895H956.433V344.711ZM942.156 335.336H954.46V339.496H944.675V340.375H954.773V342.074H942.195V337.914H951.96V337.016H942.156V335.336ZM949.929 345.746V344.711H946.667V345.746H949.929ZM964.128 338.07C964.128 338.865 964.275 339.623 964.568 340.346C964.861 341.068 965.31 341.716 965.916 342.289C966.521 342.855 967.279 343.292 968.191 343.598L966.843 345.551C965.925 345.212 965.134 344.73 964.47 344.105C963.813 343.48 963.292 342.745 962.908 341.898C962.517 342.855 961.97 343.682 961.267 344.379C960.564 345.069 959.708 345.596 958.699 345.961L957.351 344.008C958.308 343.695 959.102 343.236 959.734 342.631C960.372 342.025 960.841 341.332 961.14 340.551C961.446 339.763 961.602 338.93 961.609 338.051V336.117H964.128V338.07ZM960.613 346.781H963.132V350.492H972.82V352.484H960.613V346.781ZM966.628 338.812H969.968V335.043H972.449V348.168H969.968V340.824H966.628V338.812ZM989.5 338.305C989.493 339.32 989.477 340.186 989.451 340.902C989.431 341.612 989.373 342.445 989.275 343.402C989.184 344.353 989.037 345.382 988.835 346.488L986.394 346.273C986.648 344.828 986.811 343.529 986.882 342.377C986.954 341.225 986.993 339.945 987 338.539H976.355V336.566H989.5V338.305ZM974.753 348.598H978.21V343.012H980.691V348.598H982.644V343.012H985.105V348.598H990.964V350.629H974.753V348.598ZM1007.31 348.324H1004.95V335.023H1007.31V348.324ZM991.824 344.125C992.598 343.754 993.24 343.269 993.748 342.67C994.255 342.071 994.626 341.417 994.861 340.707C995.102 339.997 995.222 339.275 995.222 338.539V336.215H997.644V338.539C997.638 339.639 997.891 340.648 998.406 341.566C998.927 342.478 999.727 343.181 1000.81 343.676L999.421 345.59C998.074 344.965 997.084 343.917 996.453 342.445C996.127 343.253 995.691 343.962 995.144 344.574C994.604 345.18 993.953 345.661 993.191 346.02L991.824 344.125ZM995.261 346.762H997.761V350.492H1007.76V352.484H995.261V346.762ZM999.187 339.086H1001.35V335.297H1003.72V347.797H1001.35V341.117H999.187V339.086ZM1024.32 352.836H1021.86V343.305H1018.74V341.293H1021.86V335.023H1024.32V352.836ZM1010.14 336.508H1018.44V338.52H1012.62V341.469H1017.8V343.422H1012.62V346.781C1013.97 346.768 1015.15 346.732 1016.17 346.674C1017.2 346.609 1018.23 346.495 1019.27 346.332L1019.52 348.324C1018.3 348.507 1017.07 348.633 1015.86 348.705C1014.64 348.77 1013.2 348.806 1011.55 348.812H1010.14V336.508Z" fill="#71161B"/>
<path d="M934.48 384.359H932.996V370.328H934.48V384.359ZM923.371 376.281C923.371 375.302 923.524 374.443 923.832 373.703C924.139 372.958 924.566 372.385 925.113 371.984C925.665 371.578 926.292 371.375 926.996 371.375C927.688 371.375 928.308 371.578 928.855 371.984C929.402 372.385 929.829 372.958 930.136 373.703C930.449 374.443 930.605 375.302 930.605 376.281C930.605 377.271 930.449 378.138 930.136 378.883C929.829 379.628 929.402 380.201 928.855 380.602C928.308 381.003 927.688 381.203 926.996 381.203C926.292 381.203 925.665 381.003 925.113 380.602C924.566 380.201 924.139 379.628 923.832 378.883C923.524 378.138 923.371 377.271 923.371 376.281ZM924.808 376.281C924.808 377.01 924.899 377.646 925.082 378.188C925.264 378.729 925.519 379.146 925.847 379.438C926.181 379.729 926.563 379.875 926.996 379.875C927.423 379.875 927.8 379.729 928.128 379.438C928.457 379.146 928.712 378.729 928.894 378.188C929.076 377.646 929.167 377.01 929.167 376.281C929.167 375.562 929.076 374.935 928.894 374.398C928.712 373.857 928.457 373.44 928.128 373.148C927.8 372.852 927.423 372.703 926.996 372.703C926.563 372.703 926.181 372.852 925.847 373.148C925.519 373.44 925.264 373.857 925.082 374.398C924.899 374.935 924.808 375.562 924.808 376.281ZM941.542 372.562C941.542 373.172 941.678 373.758 941.949 374.32C942.225 374.883 942.618 375.38 943.128 375.812C943.639 376.245 944.235 376.573 944.917 376.797L944.121 377.969C943.365 377.703 942.704 377.31 942.136 376.789C941.574 376.263 941.139 375.651 940.832 374.953C940.524 375.75 940.076 376.443 939.488 377.031C938.904 377.62 938.209 378.062 937.402 378.359L936.605 377.172C937.324 376.917 937.941 376.552 938.457 376.078C938.977 375.604 939.376 375.055 939.652 374.43C939.928 373.799 940.069 373.135 940.074 372.438V371.062H941.542V372.562ZM938.496 381.703C938.496 381.161 938.683 380.695 939.058 380.305C939.438 379.914 939.98 379.617 940.683 379.414C941.391 379.211 942.23 379.109 943.199 379.109C944.152 379.109 944.977 379.211 945.675 379.414C946.373 379.617 946.907 379.914 947.277 380.305C947.652 380.695 947.839 381.161 947.839 381.703C947.839 382.25 947.652 382.719 947.277 383.109C946.907 383.5 946.373 383.794 945.675 383.992C944.983 384.195 944.157 384.297 943.199 384.297C942.23 384.297 941.391 384.195 940.683 383.992C939.98 383.794 939.438 383.5 939.058 383.109C938.683 382.719 938.496 382.25 938.496 381.703ZM939.98 381.703C939.975 382.161 940.253 382.513 940.816 382.758C941.384 383.003 942.178 383.13 943.199 383.141C944.214 383.13 945.001 383.003 945.558 382.758C946.115 382.513 946.391 382.161 946.386 381.703C946.386 381.406 946.261 381.151 946.011 380.938C945.761 380.724 945.397 380.562 944.917 380.453C944.438 380.339 943.865 380.281 943.199 380.281C942.527 380.281 941.949 380.339 941.464 380.453C940.985 380.562 940.618 380.724 940.363 380.938C940.108 381.151 939.98 381.406 939.98 381.703ZM946.23 370.328H947.714V373.844H949.746V375.094H947.714V378.781H946.23V370.328ZM962.667 373.5H951.152V372.297H956.183V370.531H957.652V372.297H962.667V373.5ZM950.542 381.547H956.183V379.695C955.365 379.643 954.66 379.505 954.066 379.281C953.477 379.052 953.027 378.745 952.714 378.359C952.402 377.974 952.246 377.526 952.246 377.016C952.246 376.458 952.433 375.979 952.808 375.578C953.183 375.177 953.722 374.872 954.425 374.664C955.128 374.451 955.959 374.344 956.917 374.344C957.865 374.344 958.688 374.451 959.386 374.664C960.089 374.872 960.628 375.177 961.003 375.578C961.384 375.979 961.574 376.458 961.574 377.016C961.574 377.526 961.415 377.974 961.097 378.359C960.785 378.745 960.334 379.052 959.746 379.281C959.157 379.505 958.459 379.643 957.652 379.695V381.547H963.355V382.75H950.542V381.547ZM953.761 377.016C953.756 377.5 954.027 377.872 954.574 378.133C955.126 378.393 955.907 378.526 956.917 378.531C957.912 378.526 958.686 378.393 959.238 378.133C959.79 377.872 960.063 377.5 960.058 377.016C960.063 376.536 959.79 376.167 959.238 375.906C958.686 375.646 957.912 375.516 956.917 375.516C955.912 375.516 955.134 375.646 954.582 375.906C954.029 376.167 953.756 376.536 953.761 377.016ZM975.746 373.172V373.344C975.735 374.5 975.699 375.521 975.636 376.406C975.579 377.286 975.444 378.302 975.23 379.453L973.777 379.297C973.975 378.281 974.105 377.346 974.167 376.492C974.23 375.633 974.261 374.721 974.261 373.758V373.172V372.875H965.683V371.672H975.746V373.172ZM964.371 381.203H967.386V376.672H968.871V381.203H970.886V376.672H972.339V381.203H977.136V382.438H964.371V381.203ZM985.371 371.562C985.371 372.172 985.595 372.758 986.042 373.32C986.496 373.883 987.105 374.362 987.871 374.758C988.641 375.154 989.48 375.411 990.386 375.531L989.808 376.75C989.048 376.63 988.326 376.422 987.644 376.125C986.962 375.828 986.358 375.461 985.832 375.023C985.311 374.581 984.899 374.089 984.597 373.547C984.295 374.089 983.881 374.581 983.355 375.023C982.834 375.461 982.235 375.828 981.558 376.125C980.881 376.417 980.162 376.625 979.402 376.75L978.808 375.531C979.714 375.411 980.55 375.156 981.316 374.766C982.082 374.375 982.691 373.898 983.144 373.336C983.597 372.768 983.824 372.177 983.824 371.562V370.797H985.371V371.562ZM978.199 378.125H990.964V379.344H985.277V384.328H983.824V379.344H978.199V378.125Z" fill="#424242"/>
<rect x="844.5" y="321.5" width="224.882" height="75" rx="6.5" stroke="#71161B" stroke-width="3"/>
<path d="M937.644 436.305C937.638 437.32 937.621 438.186 937.595 438.902C937.576 439.612 937.517 440.445 937.419 441.402C937.328 442.353 937.182 443.382 936.98 444.488L934.539 444.273C934.792 442.828 934.955 441.529 935.027 440.377C935.098 439.225 935.138 437.945 935.144 436.539H924.5V434.566H937.644V436.305ZM922.898 446.598H926.355V441.012H928.835V446.598H930.789V441.012H933.25V446.598H939.109V448.629H922.898V446.598ZM956.394 443.297H952.488V444.957H954.421V450.797H951.941V446.91H941.98V444.957H944.011V443.297H940.183V441.324H956.394V443.297ZM941.804 436.871C941.804 436.155 942.068 435.533 942.595 435.006C943.129 434.479 943.884 434.075 944.861 433.795C945.844 433.515 946.986 433.375 948.289 433.375C949.584 433.375 950.717 433.515 951.687 433.795C952.664 434.075 953.419 434.479 953.953 435.006C954.486 435.533 954.753 436.155 954.753 436.871C954.753 437.587 954.486 438.212 953.953 438.746C953.419 439.273 952.664 439.68 951.687 439.967C950.717 440.247 949.584 440.387 948.289 440.387C946.986 440.387 945.844 440.247 944.861 439.967C943.884 439.68 943.129 439.273 942.595 438.746C942.068 438.212 941.804 437.587 941.804 436.871ZM944.402 436.871C944.395 437.392 944.724 437.786 945.388 438.053C946.059 438.32 947.026 438.453 948.289 438.453C949.532 438.453 950.489 438.32 951.16 438.053C951.837 437.786 952.175 437.392 952.175 436.871C952.175 436.37 951.843 435.986 951.179 435.719C950.515 435.445 949.574 435.309 948.357 435.309C947.074 435.309 946.091 435.442 945.408 435.709C944.731 435.969 944.395 436.357 944.402 436.871ZM950.027 444.957V443.297H946.531V444.957H950.027ZM972.742 446.324H970.378V433.023H972.742V446.324ZM957.253 442.125C958.028 441.754 958.669 441.269 959.177 440.67C959.685 440.071 960.056 439.417 960.291 438.707C960.531 437.997 960.652 437.275 960.652 436.539V434.215H963.074V436.539C963.067 437.639 963.321 438.648 963.835 439.566C964.356 440.478 965.157 441.181 966.238 441.676L964.851 443.59C963.503 442.965 962.514 441.917 961.882 440.445C961.557 441.253 961.121 441.962 960.574 442.574C960.033 443.18 959.382 443.661 958.621 444.02L957.253 442.125ZM960.691 444.762H963.191V448.492H973.191V450.484H960.691V444.762ZM964.617 437.086H966.785V433.297H969.148V445.797H966.785V439.117H964.617V437.086ZM989.753 450.836H987.292V441.305H984.167V439.293H987.292V433.023H989.753V450.836ZM975.574 434.508H983.875V436.52H978.054V439.469H983.23V441.422H978.054V444.781C979.395 444.768 980.577 444.732 981.599 444.674C982.628 444.609 983.66 444.495 984.695 444.332L984.949 446.324C983.725 446.507 982.504 446.633 981.287 446.705C980.069 446.77 978.634 446.806 976.98 446.812H975.574V434.508Z" fill="#71161B"/>
<path d="M941.425 470.188H937.16C937.186 470.693 937.407 471.172 937.824 471.625C938.246 472.078 938.808 472.461 939.511 472.773C940.22 473.086 941.003 473.292 941.863 473.391L941.3 474.594C940.503 474.484 939.761 474.289 939.074 474.008C938.391 473.727 937.8 473.378 937.3 472.961C936.8 472.544 936.428 472.076 936.183 471.555C935.933 472.076 935.558 472.544 935.058 472.961C934.558 473.378 933.967 473.727 933.285 474.008C932.602 474.289 931.863 474.484 931.066 474.594L930.503 473.391C931.363 473.292 932.144 473.086 932.847 472.773C933.556 472.461 934.118 472.078 934.535 471.625C934.951 471.172 935.17 470.693 935.191 470.188H930.972V468.984H941.425V470.188ZM929.8 475.797H935.441V473.578H936.91V475.797H942.597V477H929.8V475.797ZM931.41 478.047H932.91V480.828H941.128V482.031H931.41V478.047ZM954.628 471.906H956.66V473.125H954.628V476.766H953.144V468.328H954.628V471.906ZM944.175 469.203H945.628V471.297H949.3V469.203H950.769V475.875H944.175V469.203ZM945.378 477.469H954.628V482.328H953.144V478.672H945.378V477.469ZM949.3 474.688V472.469H945.628V474.688H949.3ZM968.832 471.172V471.344C968.821 472.5 968.785 473.521 968.722 474.406C968.665 475.286 968.529 476.302 968.316 477.453L966.863 477.297C967.061 476.281 967.191 475.346 967.253 474.492C967.316 473.633 967.347 472.721 967.347 471.758V471.172V470.875H958.769V469.672H968.832V471.172ZM957.457 479.203H960.472V474.672H961.957V479.203H963.972V474.672H965.425V479.203H970.222V480.438H957.457V479.203ZM978.457 469.562C978.457 470.172 978.681 470.758 979.128 471.32C979.582 471.883 980.191 472.362 980.957 472.758C981.727 473.154 982.566 473.411 983.472 473.531L982.894 474.75C982.134 474.63 981.412 474.422 980.73 474.125C980.048 473.828 979.444 473.461 978.917 473.023C978.397 472.581 977.985 472.089 977.683 471.547C977.381 472.089 976.967 472.581 976.441 473.023C975.92 473.461 975.321 473.828 974.644 474.125C973.967 474.417 973.248 474.625 972.488 474.75L971.894 473.531C972.8 473.411 973.636 473.156 974.402 472.766C975.167 472.375 975.777 471.898 976.23 471.336C976.683 470.768 976.91 470.177 976.91 469.562V468.797H978.457V469.562ZM971.285 476.125H984.05V477.344H978.363V482.328H976.91V477.344H971.285V476.125Z" fill="#424242"/>
<rect x="844.5" y="419.5" width="224.882" height="75" rx="6.5" stroke="#71161B" stroke-width="3"/>
<rect x="190" y="60" width="294.138" height="84" rx="8" fill="#71161B"/>
<path d="M304.053 81.6562C304.046 82.9609 304.229 84.2266 304.604 85.4531C304.979 86.6719 305.546 87.7656 306.303 88.7344C307.061 89.7031 307.991 90.4531 309.093 90.9844L307.288 93.375C306.178 92.8203 305.229 92.0469 304.44 91.0547C303.651 90.0547 303.03 88.8906 302.577 87.5625C302.093 88.9922 301.432 90.2422 300.596 91.3125C299.76 92.375 298.757 93.1953 297.585 93.7734L295.733 91.3594C296.897 90.8281 297.878 90.0586 298.675 89.0508C299.471 88.0352 300.065 86.8906 300.456 85.6172C300.854 84.3359 301.053 83.0156 301.053 81.6562V78.4688H304.053V81.6562ZM310.03 76.8281H313.03V85.0547H316.171V87.5859H313.03V98.1562H310.03V76.8281ZM336.444 91.1484H328.1V98.1328H325.147V91.1484H316.921V88.7578H336.444V91.1484ZM319.218 77.8594H334.1V86.4609H319.218V77.8594ZM331.124 84.1172V80.2266H322.171V84.1172H331.124ZM357.139 89.9062H337.686V87.5156H345.913V85.4531H348.866V87.5156H357.139V89.9062ZM338.507 84.2109C339.96 84.125 341.194 83.9336 342.21 83.6367C343.233 83.332 344.022 82.9609 344.577 82.5234C345.139 82.0859 345.495 81.6094 345.643 81.0938H339.561V78.7266H345.913V76.8984H348.866V78.7266H355.264V81.0938H349.124C349.264 81.6094 349.616 82.0859 350.178 82.5234C350.741 82.9609 351.53 83.332 352.546 83.6367C353.569 83.9336 354.811 84.125 356.272 84.2109L355.382 86.4844C353.436 86.3438 351.788 86.0039 350.436 85.4648C349.085 84.9258 348.069 84.2188 347.389 83.3438C346.71 84.2188 345.694 84.9258 344.343 85.4648C342.991 86.0039 341.35 86.3438 339.421 86.4844L338.507 84.2109ZM339.913 94.5234C339.913 93.75 340.206 93.0938 340.792 92.5547C341.385 92.0156 342.241 91.6094 343.358 91.3359C344.483 91.0547 345.827 90.9141 347.389 90.9141C348.944 90.9141 350.276 91.0547 351.385 91.3359C352.495 91.6094 353.343 92.0156 353.928 92.5547C354.514 93.0938 354.811 93.75 354.819 94.5234C354.811 95.3047 354.514 95.9648 353.928 96.5039C353.343 97.0508 352.495 97.4609 351.385 97.7344C350.276 98.0156 348.944 98.1562 347.389 98.1562C345.827 98.1562 344.483 98.0156 343.358 97.7344C342.241 97.4609 341.385 97.0508 340.792 96.5039C340.206 95.9648 339.913 95.3047 339.913 94.5234ZM342.96 94.5234C342.952 95.0156 343.311 95.3789 344.038 95.6133C344.772 95.8398 345.889 95.9531 347.389 95.9531C348.866 95.9531 349.971 95.8359 350.706 95.6016C351.44 95.3672 351.811 95.0078 351.819 94.5234C351.811 94.0469 351.436 93.6953 350.694 93.4688C349.96 93.2344 348.858 93.1172 347.389 93.1172C345.889 93.1172 344.772 93.2344 344.038 93.4688C343.311 93.6953 342.952 94.0469 342.96 94.5234ZM370.546 80.6484H366.303C366.311 81.5 366.491 82.3125 366.843 83.0859C367.202 83.8594 367.749 84.5469 368.483 85.1484C369.218 85.75 370.132 86.2109 371.225 86.5312L369.796 88.875C368.647 88.5234 367.659 88.0078 366.831 87.3281C366.003 86.6484 365.346 85.8398 364.862 84.9023C364.37 86.0039 363.682 86.9609 362.8 87.7734C361.925 88.5781 360.866 89.1875 359.624 89.6016L358.1 87.2344C359.233 86.875 360.186 86.3555 360.96 85.6758C361.733 84.9961 362.307 84.2227 362.682 83.3555C363.065 82.4883 363.264 81.5859 363.28 80.6484H358.921V78.2578H370.546V80.6484ZM361.053 94.0078C361.053 93.1484 361.346 92.4102 361.932 91.793C362.518 91.1758 363.362 90.707 364.464 90.3867C365.565 90.0664 366.866 89.9062 368.366 89.9062C369.843 89.9062 371.12 90.0664 372.198 90.3867C373.276 90.707 374.104 91.1758 374.682 91.793C375.268 92.4102 375.561 93.1484 375.561 94.0078C375.561 94.875 375.268 95.6172 374.682 96.2344C374.104 96.8594 373.276 97.3359 372.198 97.6641C371.12 97.9922 369.843 98.1562 368.366 98.1562C366.866 98.1562 365.565 97.9922 364.464 97.6641C363.37 97.3359 362.526 96.8594 361.932 96.2344C361.346 95.6094 361.053 94.8672 361.053 94.0078ZM364.053 94.0078C364.046 94.6094 364.409 95.0664 365.143 95.3789C365.878 95.6836 366.952 95.8359 368.366 95.8359C369.757 95.8359 370.811 95.6836 371.53 95.3789C372.249 95.0742 372.608 94.6172 372.608 94.0078C372.608 93.4219 372.253 92.9805 371.542 92.6836C370.839 92.3789 369.807 92.2266 368.448 92.2266C367.003 92.2266 365.905 92.375 365.155 92.6719C364.413 92.9688 364.046 93.4141 364.053 94.0078ZM372.35 76.8281H375.35V81.7734H378.233V84.2109H375.35V89.4844H372.35V76.8281Z" fill="white"/>
<path d="M312.897 130.469H310.882V116.219H312.897V130.469ZM301.413 122.281C301.413 121.266 301.572 120.375 301.889 119.609C302.212 118.844 302.658 118.255 303.225 117.844C303.798 117.427 304.449 117.219 305.178 117.219C305.892 117.219 306.53 117.427 307.093 117.844C307.66 118.255 308.106 118.844 308.428 119.609C308.751 120.375 308.913 121.266 308.913 122.281C308.913 123.302 308.751 124.198 308.428 124.969C308.106 125.734 307.66 126.326 307.093 126.742C306.53 127.154 305.892 127.359 305.178 127.359C304.449 127.359 303.798 127.154 303.225 126.742C302.658 126.326 302.212 125.734 301.889 124.969C301.572 124.198 301.413 123.302 301.413 122.281ZM303.335 122.281C303.335 122.974 303.41 123.568 303.561 124.062C303.712 124.552 303.926 124.924 304.202 125.18C304.483 125.43 304.809 125.552 305.178 125.547C305.538 125.552 305.853 125.43 306.124 125.18C306.4 124.924 306.613 124.552 306.764 124.062C306.915 123.568 306.991 122.974 306.991 122.281C306.991 121.589 306.915 120.997 306.764 120.508C306.613 120.018 306.4 119.648 306.124 119.398C305.853 119.143 305.538 119.016 305.178 119.016C304.809 119.016 304.483 119.143 304.202 119.398C303.926 119.648 303.712 120.018 303.561 120.508C303.41 120.997 303.335 121.589 303.335 122.281ZM320.007 118.453C320.001 119.047 320.116 119.612 320.35 120.148C320.59 120.68 320.952 121.154 321.436 121.57C321.926 121.987 322.533 122.307 323.257 122.531L322.194 124.078C321.455 123.833 320.819 123.479 320.288 123.016C319.757 122.552 319.335 122.003 319.022 121.367C318.705 122.102 318.264 122.737 317.702 123.273C317.145 123.805 316.47 124.203 315.678 124.469L314.6 122.906C315.366 122.651 316.001 122.286 316.507 121.812C317.012 121.339 317.387 120.799 317.632 120.195C317.876 119.586 318.001 118.943 318.007 118.266V116.969H320.007V118.453ZM316.569 127.688C316.569 127.12 316.764 126.63 317.155 126.219C317.551 125.802 318.116 125.484 318.85 125.266C319.585 125.047 320.449 124.938 321.444 124.938C322.423 124.938 323.272 125.047 323.991 125.266C324.71 125.484 325.264 125.802 325.655 126.219C326.046 126.63 326.241 127.12 326.241 127.688C326.241 128.26 326.046 128.753 325.655 129.164C325.264 129.581 324.71 129.896 323.991 130.109C323.272 130.328 322.423 130.438 321.444 130.438C320.449 130.438 319.585 130.328 318.85 130.109C318.116 129.896 317.551 129.581 317.155 129.164C316.764 128.753 316.569 128.26 316.569 127.688ZM318.569 127.688C318.564 128.083 318.803 128.38 319.288 128.578C319.777 128.776 320.496 128.875 321.444 128.875C323.33 128.875 324.272 128.479 324.272 127.688C324.272 127.302 324.03 127.008 323.546 126.805C323.066 126.602 322.366 126.5 321.444 126.5C320.507 126.5 319.79 126.602 319.296 126.805C318.806 127.008 318.564 127.302 318.569 127.688ZM324.1 116.219H326.1V119.547H328.022V121.203H326.1V124.656H324.1V116.219ZM341.038 119.609H329.21V118.016H334.132V116.359H336.1V118.016H341.038V119.609ZM328.647 127.391H334.132V125.758C333.324 125.685 332.629 125.529 332.046 125.289C331.462 125.049 331.017 124.734 330.71 124.344C330.402 123.953 330.251 123.5 330.257 122.984C330.251 122.417 330.444 121.927 330.835 121.516C331.225 121.099 331.785 120.781 332.514 120.562C333.249 120.344 334.116 120.234 335.116 120.234C336.095 120.234 336.949 120.344 337.678 120.562C338.413 120.781 338.975 121.099 339.366 121.516C339.762 121.927 339.96 122.417 339.96 122.984C339.96 123.5 339.803 123.953 339.491 124.344C339.184 124.734 338.741 125.049 338.163 125.289C337.585 125.523 336.897 125.677 336.1 125.75V127.391H341.663V128.984H328.647V127.391ZM332.303 122.984C332.298 123.797 333.218 124.203 335.061 124.203C335.999 124.203 336.707 124.104 337.186 123.906C337.671 123.708 337.913 123.401 337.913 122.984C337.913 122.193 336.981 121.792 335.116 121.781C333.236 121.792 332.298 122.193 332.303 122.984ZM357.96 118.844C357.955 119.656 357.941 120.349 357.921 120.922C357.905 121.49 357.858 122.156 357.78 122.922C357.707 123.682 357.59 124.505 357.428 125.391L355.475 125.219C355.678 124.062 355.809 123.023 355.866 122.102C355.923 121.18 355.955 120.156 355.96 119.031H347.444V117.453H357.96V118.844ZM346.163 127.078H348.928V122.609H350.913V127.078H352.475V122.609H354.444V127.078H359.132V128.703H346.163V127.078ZM367.538 117.328C367.533 117.906 367.723 118.474 368.108 119.031C368.499 119.583 369.069 120.062 369.819 120.469C370.569 120.87 371.465 121.135 372.507 121.266L371.725 122.875C370.507 122.698 369.447 122.344 368.546 121.812C367.65 121.276 366.965 120.615 366.491 119.828C366.012 120.615 365.324 121.276 364.428 121.812C363.538 122.344 362.491 122.698 361.288 122.875L360.491 121.266C361.522 121.135 362.41 120.87 363.155 120.469C363.905 120.062 364.473 119.583 364.858 119.031C365.244 118.474 365.439 117.906 365.444 117.328V116.641H367.538V117.328ZM359.991 123.953H372.96V125.578H367.428V130.438H365.46V125.578H359.991V123.953Z" fill="#DEDEDE"/>
<rect y="206" width="293" height="84" rx="8" fill="#71161B"/>
<path d="M144.203 238.953H141.203V237.266H137.125V235.227H141.203V222.852H144.203V238.953ZM126.062 232.297C128.742 232.281 131.195 232.234 133.422 232.156C135.648 232.07 137.758 231.906 139.75 231.664L139.914 233.797C138.289 234.07 136.57 234.273 134.758 234.406V238.461H131.758V241.391H144.672V243.781H128.781V237.406H131.758V234.582C130.273 234.637 128.492 234.664 126.414 234.664L126.062 232.297ZM127.633 227.398C127.633 226.648 127.859 225.984 128.312 225.406C128.766 224.828 129.398 224.379 130.211 224.059C131.023 223.738 131.953 223.578 133 223.578C134.023 223.578 134.938 223.738 135.742 224.059C136.547 224.379 137.176 224.828 137.629 225.406C138.09 225.984 138.32 226.648 138.32 227.398C138.32 228.148 138.09 228.809 137.629 229.379C137.176 229.949 136.547 230.387 135.742 230.691C134.938 230.996 134.023 231.148 133 231.148C131.945 231.148 131.012 230.996 130.199 230.691C129.395 230.387 128.766 229.949 128.312 229.379C127.859 228.809 127.633 228.148 127.633 227.398ZM130.469 227.398C130.461 227.906 130.688 228.301 131.148 228.582C131.617 228.855 132.25 228.992 133.047 228.992C133.766 228.992 134.348 228.852 134.793 228.57C135.246 228.289 135.477 227.898 135.484 227.398C135.477 226.883 135.242 226.48 134.781 226.191C134.328 225.902 133.734 225.758 133 225.758C132.227 225.758 131.609 225.902 131.148 226.191C130.688 226.48 130.461 226.883 130.469 227.398ZM158.992 226.648H154.75C154.758 227.5 154.938 228.312 155.289 229.086C155.648 229.859 156.195 230.547 156.93 231.148C157.664 231.75 158.578 232.211 159.672 232.531L158.242 234.875C157.094 234.523 156.105 234.008 155.277 233.328C154.449 232.648 153.793 231.84 153.309 230.902C152.816 232.004 152.129 232.961 151.246 233.773C150.371 234.578 149.312 235.188 148.07 235.602L146.547 233.234C147.68 232.875 148.633 232.355 149.406 231.676C150.18 230.996 150.754 230.223 151.129 229.355C151.512 228.488 151.711 227.586 151.727 226.648H147.367V224.258H158.992V226.648ZM149.5 240.008C149.5 239.148 149.793 238.41 150.379 237.793C150.965 237.176 151.809 236.707 152.91 236.387C154.012 236.066 155.312 235.906 156.812 235.906C158.289 235.906 159.566 236.066 160.645 236.387C161.723 236.707 162.551 237.176 163.129 237.793C163.715 238.41 164.008 239.148 164.008 240.008C164.008 240.875 163.715 241.617 163.129 242.234C162.551 242.859 161.723 243.336 160.645 243.664C159.566 243.992 158.289 244.156 156.812 244.156C155.312 244.156 154.012 243.992 152.91 243.664C151.816 243.336 150.973 242.859 150.379 242.234C149.793 241.609 149.5 240.867 149.5 240.008ZM152.5 240.008C152.492 240.609 152.855 241.066 153.59 241.379C154.324 241.684 155.398 241.836 156.812 241.836C158.203 241.836 159.258 241.684 159.977 241.379C160.695 241.074 161.055 240.617 161.055 240.008C161.055 239.422 160.699 238.98 159.988 238.684C159.285 238.379 158.254 238.227 156.895 238.227C155.449 238.227 154.352 238.375 153.602 238.672C152.859 238.969 152.492 239.414 152.5 240.008ZM160.797 222.828H163.797V227.773H166.68V230.211H163.797V235.484H160.797V222.828Z" fill="white"/>
<path d="M122.328 272.609H120.328V262.234H122.328V272.609ZM110.375 269.094C111.141 268.839 111.779 268.469 112.289 267.984C112.799 267.495 113.177 266.94 113.422 266.32C113.672 265.701 113.797 265.057 113.797 264.391V263.016H115.875V264.391C115.87 265.042 115.984 265.661 116.219 266.25C116.458 266.833 116.828 267.354 117.328 267.812C117.828 268.271 118.453 268.62 119.203 268.859L118.188 270.422C117.401 270.161 116.729 269.781 116.172 269.281C115.615 268.776 115.172 268.174 114.844 267.477C114.51 268.227 114.055 268.878 113.477 269.43C112.904 269.982 112.214 270.396 111.406 270.672L110.375 269.094ZM112.797 271.609H114.812V274.594H122.703V276.188H112.797V271.609ZM137.219 271.078H124.25V269.484H137.219V271.078ZM125.547 265.562C125.547 264.964 125.76 264.445 126.188 264.008C126.615 263.57 127.219 263.234 128 263C128.786 262.766 129.698 262.651 130.734 262.656C131.766 262.651 132.669 262.766 133.445 263C134.227 263.234 134.831 263.57 135.258 264.008C135.69 264.445 135.906 264.964 135.906 265.562C135.906 266.161 135.69 266.682 135.258 267.125C134.831 267.568 134.227 267.909 133.445 268.148C132.669 268.383 131.766 268.5 130.734 268.5C129.693 268.5 128.781 268.383 128 268.148C127.219 267.909 126.615 267.568 126.188 267.125C125.76 266.682 125.547 266.161 125.547 265.562ZM125.812 272.031H127.812V274.594H135.75V276.188H125.812V272.031ZM127.625 265.562C127.62 266 127.885 266.331 128.422 266.555C128.964 266.779 129.734 266.891 130.734 266.891C131.729 266.891 132.495 266.779 133.031 266.555C133.573 266.331 133.844 266 133.844 265.562C133.844 265.135 133.573 264.807 133.031 264.578C132.49 264.349 131.724 264.229 130.734 264.219C129.74 264.229 128.971 264.349 128.43 264.578C127.888 264.807 127.62 265.135 127.625 265.562ZM151.047 271.656H145.516V276.438H143.547V271.656H138.078V270.062H151.047V271.656ZM138.719 267.672C139.641 267.557 140.44 267.344 141.117 267.031C141.799 266.719 142.331 266.344 142.711 265.906C143.096 265.469 143.326 265.01 143.398 264.531H139.25V262.969H149.891V264.531H145.742C145.81 265.01 146.034 265.469 146.414 265.906C146.794 266.344 147.326 266.719 148.008 267.031C148.69 267.344 149.5 267.557 150.438 267.672L149.719 269.234C148.49 269.068 147.432 268.737 146.547 268.242C145.667 267.742 145.008 267.12 144.57 266.375C144.128 267.12 143.469 267.742 142.594 268.242C141.719 268.737 140.672 269.068 139.453 269.234L138.719 267.672ZM167.391 264.844C167.385 265.656 167.372 266.349 167.352 266.922C167.336 267.49 167.289 268.156 167.211 268.922C167.138 269.682 167.021 270.505 166.859 271.391L164.906 271.219C165.109 270.062 165.24 269.023 165.297 268.102C165.354 267.18 165.385 266.156 165.391 265.031H156.875V263.453H167.391V264.844ZM155.594 273.078H158.359V268.609H160.344V273.078H161.906V268.609H163.875V273.078H168.562V274.703H155.594V273.078ZM176.969 263.328C176.964 263.906 177.154 264.474 177.539 265.031C177.93 265.583 178.5 266.062 179.25 266.469C180 266.87 180.896 267.135 181.938 267.266L181.156 268.875C179.938 268.698 178.878 268.344 177.977 267.812C177.081 267.276 176.396 266.615 175.922 265.828C175.443 266.615 174.755 267.276 173.859 267.812C172.969 268.344 171.922 268.698 170.719 268.875L169.922 267.266C170.953 267.135 171.841 266.87 172.586 266.469C173.336 266.062 173.904 265.583 174.289 265.031C174.674 264.474 174.87 263.906 174.875 263.328V262.641H176.969V263.328ZM169.422 269.953H182.391V271.578H176.859V276.438H174.891V271.578H169.422V269.953Z" fill="#DEDEDE"/>
</svg>
