<svg width="1287" height="434" viewBox="0 0 1287 434" fill="none" xmlns="http://www.w3.org/2000/svg">
<line x1="642.5" y1="192" x2="642.5" y2="54" stroke="#71161B"/>
<line x1="642.5" y1="387" x2="642.5" y2="249" stroke="#71161B"/>
<line x1="378.5" y1="387" x2="378.5" y2="349" stroke="#71161B"/>
<line x1="908.5" y1="387" x2="908.5" y2="349" stroke="#71161B"/>
<line x1="1173.5" y1="387" x2="1173.5" y2="349" stroke="#71161B"/>
<rect x="495" width="293" height="84" rx="8" fill="#71161B"/>
<path d="M639.203 32.9531H636.203V31.2656H632.125V29.2266H636.203V16.8516H639.203V32.9531ZM621.062 26.2969C623.742 26.2812 626.195 26.2344 628.422 26.1562C630.648 26.0703 632.758 25.9062 634.75 25.6641L634.914 27.7969C633.289 28.0703 631.57 28.2734 629.758 28.4062V32.4609H626.758V35.3906H639.672V37.7812H623.781V31.4062H626.758V28.582C625.273 28.6367 623.492 28.6641 621.414 28.6641L621.062 26.2969ZM622.633 21.3984C622.633 20.6484 622.859 19.9844 623.312 19.4062C623.766 18.8281 624.398 18.3789 625.211 18.0586C626.023 17.7383 626.953 17.5781 628 17.5781C629.023 17.5781 629.938 17.7383 630.742 18.0586C631.547 18.3789 632.176 18.8281 632.629 19.4062C633.09 19.9844 633.32 20.6484 633.32 21.3984C633.32 22.1484 633.09 22.8086 632.629 23.3789C632.176 23.9492 631.547 24.3867 630.742 24.6914C629.938 24.9961 629.023 25.1484 628 25.1484C626.945 25.1484 626.012 24.9961 625.199 24.6914C624.395 24.3867 623.766 23.9492 623.312 23.3789C622.859 22.8086 622.633 22.1484 622.633 21.3984ZM625.469 21.3984C625.461 21.9062 625.688 22.3008 626.148 22.582C626.617 22.8555 627.25 22.9922 628.047 22.9922C628.766 22.9922 629.348 22.8516 629.793 22.5703C630.246 22.2891 630.477 21.8984 630.484 21.3984C630.477 20.8828 630.242 20.4805 629.781 20.1914C629.328 19.9023 628.734 19.7578 628 19.7578C627.227 19.7578 626.609 19.9023 626.148 20.1914C625.688 20.4805 625.461 20.8828 625.469 21.3984ZM653.992 20.6484H649.75C649.758 21.5 649.938 22.3125 650.289 23.0859C650.648 23.8594 651.195 24.5469 651.93 25.1484C652.664 25.75 653.578 26.2109 654.672 26.5312L653.242 28.875C652.094 28.5234 651.105 28.0078 650.277 27.3281C649.449 26.6484 648.793 25.8398 648.309 24.9023C647.816 26.0039 647.129 26.9609 646.246 27.7734C645.371 28.5781 644.312 29.1875 643.07 29.6016L641.547 27.2344C642.68 26.875 643.633 26.3555 644.406 25.6758C645.18 24.9961 645.754 24.2227 646.129 23.3555C646.512 22.4883 646.711 21.5859 646.727 20.6484H642.367V18.2578H653.992V20.6484ZM644.5 34.0078C644.5 33.1484 644.793 32.4102 645.379 31.793C645.965 31.1758 646.809 30.707 647.91 30.3867C649.012 30.0664 650.312 29.9062 651.812 29.9062C653.289 29.9062 654.566 30.0664 655.645 30.3867C656.723 30.707 657.551 31.1758 658.129 31.793C658.715 32.4102 659.008 33.1484 659.008 34.0078C659.008 34.875 658.715 35.6172 658.129 36.2344C657.551 36.8594 656.723 37.3359 655.645 37.6641C654.566 37.9922 653.289 38.1562 651.812 38.1562C650.312 38.1562 649.012 37.9922 647.91 37.6641C646.816 37.3359 645.973 36.8594 645.379 36.2344C644.793 35.6094 644.5 34.8672 644.5 34.0078ZM647.5 34.0078C647.492 34.6094 647.855 35.0664 648.59 35.3789C649.324 35.6836 650.398 35.8359 651.812 35.8359C653.203 35.8359 654.258 35.6836 654.977 35.3789C655.695 35.0742 656.055 34.6172 656.055 34.0078C656.055 33.4219 655.699 32.9805 654.988 32.6836C654.285 32.3789 653.254 32.2266 651.895 32.2266C650.449 32.2266 649.352 32.375 648.602 32.6719C647.859 32.9688 647.492 33.4141 647.5 34.0078ZM655.797 16.8281H658.797V21.7734H661.68V24.2109H658.797V29.4844H655.797V16.8281Z" fill="white"/>
<path d="M617.328 66.6094H615.328V56.2344H617.328V66.6094ZM605.375 63.0938C606.141 62.8385 606.779 62.4688 607.289 61.9844C607.799 61.4948 608.177 60.9401 608.422 60.3203C608.672 59.7005 608.797 59.0573 608.797 58.3906V57.0156H610.875V58.3906C610.87 59.0417 610.984 59.6615 611.219 60.25C611.458 60.8333 611.828 61.3542 612.328 61.8125C612.828 62.2708 613.453 62.6198 614.203 62.8594L613.188 64.4219C612.401 64.1615 611.729 63.7812 611.172 63.2812C610.615 62.776 610.172 62.1745 609.844 61.4766C609.51 62.2266 609.055 62.8776 608.477 63.4297C607.904 63.9818 607.214 64.3958 606.406 64.6719L605.375 63.0938ZM607.797 65.6094H609.812V68.5938H617.703V70.1875H607.797V65.6094ZM632.219 65.0781H619.25V63.4844H632.219V65.0781ZM620.547 59.5625C620.547 58.9635 620.76 58.4453 621.188 58.0078C621.615 57.5703 622.219 57.2344 623 57C623.786 56.7656 624.698 56.651 625.734 56.6562C626.766 56.651 627.669 56.7656 628.445 57C629.227 57.2344 629.831 57.5703 630.258 58.0078C630.69 58.4453 630.906 58.9635 630.906 59.5625C630.906 60.1615 630.69 60.6823 630.258 61.125C629.831 61.5677 629.227 61.9089 628.445 62.1484C627.669 62.3828 626.766 62.5 625.734 62.5C624.693 62.5 623.781 62.3828 623 62.1484C622.219 61.9089 621.615 61.5677 621.188 61.125C620.76 60.6823 620.547 60.1615 620.547 59.5625ZM620.812 66.0312H622.812V68.5938H630.75V70.1875H620.812V66.0312ZM622.625 59.5625C622.62 60 622.885 60.3307 623.422 60.5547C623.964 60.7786 624.734 60.8906 625.734 60.8906C626.729 60.8906 627.495 60.7786 628.031 60.5547C628.573 60.3307 628.844 60 628.844 59.5625C628.844 59.1354 628.573 58.8073 628.031 58.5781C627.49 58.349 626.724 58.2292 625.734 58.2188C624.74 58.2292 623.971 58.349 623.43 58.5781C622.888 58.8073 622.62 59.1354 622.625 59.5625ZM646.047 65.6562H640.516V70.4375H638.547V65.6562H633.078V64.0625H646.047V65.6562ZM633.719 61.6719C634.641 61.5573 635.44 61.3438 636.117 61.0312C636.799 60.7188 637.331 60.3438 637.711 59.9062C638.096 59.4688 638.326 59.0104 638.398 58.5312H634.25V56.9688H644.891V58.5312H640.742C640.81 59.0104 641.034 59.4688 641.414 59.9062C641.794 60.3438 642.326 60.7188 643.008 61.0312C643.69 61.3438 644.5 61.5573 645.438 61.6719L644.719 63.2344C643.49 63.0677 642.432 62.737 641.547 62.2422C640.667 61.7422 640.008 61.1198 639.57 60.375C639.128 61.1198 638.469 61.7422 637.594 62.2422C636.719 62.737 635.672 63.0677 634.453 63.2344L633.719 61.6719ZM662.391 58.8438C662.385 59.6562 662.372 60.349 662.352 60.9219C662.336 61.4896 662.289 62.1562 662.211 62.9219C662.138 63.6823 662.021 64.5052 661.859 65.3906L659.906 65.2188C660.109 64.0625 660.24 63.0234 660.297 62.1016C660.354 61.1797 660.385 60.1562 660.391 59.0312H651.875V57.4531H662.391V58.8438ZM650.594 67.0781H653.359V62.6094H655.344V67.0781H656.906V62.6094H658.875V67.0781H663.562V68.7031H650.594V67.0781ZM671.969 57.3281C671.964 57.9062 672.154 58.474 672.539 59.0312C672.93 59.5833 673.5 60.0625 674.25 60.4688C675 60.8698 675.896 61.1354 676.938 61.2656L676.156 62.875C674.938 62.6979 673.878 62.3438 672.977 61.8125C672.081 61.276 671.396 60.6146 670.922 59.8281C670.443 60.6146 669.755 61.276 668.859 61.8125C667.969 62.3438 666.922 62.6979 665.719 62.875L664.922 61.2656C665.953 61.1354 666.841 60.8698 667.586 60.4688C668.336 60.0625 668.904 59.5833 669.289 59.0312C669.674 58.474 669.87 57.9062 669.875 57.3281V56.6406H671.969V57.3281ZM664.422 63.9531H677.391V65.5781H671.859V70.4375H669.891V65.5781H664.422V63.9531Z" fill="#DEDEDE"/>
<rect x="952" y="74" width="293" height="84" rx="8" fill="#71161B"/>
<path d="M1065.48 95.6562C1065.48 96.9609 1065.66 98.2266 1066.04 99.4531C1066.41 100.672 1066.98 101.766 1067.73 102.734C1068.49 103.703 1069.42 104.453 1070.52 104.984L1068.72 107.375C1067.61 106.82 1066.66 106.047 1065.87 105.055C1065.08 104.055 1064.46 102.891 1064.01 101.562C1063.52 102.992 1062.86 104.242 1062.03 105.312C1061.19 106.375 1060.19 107.195 1059.02 107.773L1057.16 105.359C1058.33 104.828 1059.31 104.059 1060.11 103.051C1060.9 102.035 1061.5 100.891 1061.89 99.6172C1062.29 98.3359 1062.48 97.0156 1062.48 95.6562V92.4688H1065.48V95.6562ZM1071.46 90.8281H1074.46V99.0547H1077.6V101.586H1074.46V112.156H1071.46V90.8281ZM1097.88 105.148H1089.53V112.133H1086.58V105.148H1078.35V102.758H1097.88V105.148ZM1080.65 91.8594H1095.53V100.461H1080.65V91.8594ZM1092.55 98.1172V94.2266H1083.6V98.1172H1092.55ZM1118.57 103.906H1099.12V101.516H1107.34V99.4531H1110.3V101.516H1118.57V103.906ZM1099.94 98.2109C1101.39 98.125 1102.62 97.9336 1103.64 97.6367C1104.66 97.332 1105.45 96.9609 1106.01 96.5234C1106.57 96.0859 1106.93 95.6094 1107.07 95.0938H1100.99V92.7266H1107.34V90.8984H1110.3V92.7266H1116.7V95.0938H1110.55C1110.7 95.6094 1111.05 96.0859 1111.61 96.5234C1112.17 96.9609 1112.96 97.332 1113.98 97.6367C1115 97.9336 1116.24 98.125 1117.7 98.2109L1116.81 100.484C1114.87 100.344 1113.22 100.004 1111.87 99.4648C1110.52 98.9258 1109.5 98.2188 1108.82 97.3438C1108.14 98.2188 1107.12 98.9258 1105.77 99.4648C1104.42 100.004 1102.78 100.344 1100.85 100.484L1099.94 98.2109ZM1101.34 108.523C1101.34 107.75 1101.64 107.094 1102.22 106.555C1102.82 106.016 1103.67 105.609 1104.79 105.336C1105.91 105.055 1107.26 104.914 1108.82 104.914C1110.38 104.914 1111.71 105.055 1112.82 105.336C1113.93 105.609 1114.77 106.016 1115.36 106.555C1115.95 107.094 1116.24 107.75 1116.25 108.523C1116.24 109.305 1115.95 109.965 1115.36 110.504C1114.77 111.051 1113.93 111.461 1112.82 111.734C1111.71 112.016 1110.38 112.156 1108.82 112.156C1107.26 112.156 1105.91 112.016 1104.79 111.734C1103.67 111.461 1102.82 111.051 1102.22 110.504C1101.64 109.965 1101.34 109.305 1101.34 108.523ZM1104.39 108.523C1104.38 109.016 1104.74 109.379 1105.47 109.613C1106.2 109.84 1107.32 109.953 1108.82 109.953C1110.3 109.953 1111.4 109.836 1112.14 109.602C1112.87 109.367 1113.24 109.008 1113.25 108.523C1113.24 108.047 1112.87 107.695 1112.12 107.469C1111.39 107.234 1110.29 107.117 1108.82 107.117C1107.32 107.117 1106.2 107.234 1105.47 107.469C1104.74 107.695 1104.38 108.047 1104.39 108.523ZM1131.98 94.6484H1127.73C1127.74 95.5 1127.92 96.3125 1128.27 97.0859C1128.63 97.8594 1129.18 98.5469 1129.91 99.1484C1130.65 99.75 1131.56 100.211 1132.66 100.531L1131.23 102.875C1130.08 102.523 1129.09 102.008 1128.26 101.328C1127.43 100.648 1126.78 99.8398 1126.29 98.9023C1125.8 100.004 1125.11 100.961 1124.23 101.773C1123.36 102.578 1122.3 103.188 1121.05 103.602L1119.53 101.234C1120.66 100.875 1121.62 100.355 1122.39 99.6758C1123.16 98.9961 1123.74 98.2227 1124.11 97.3555C1124.5 96.4883 1124.7 95.5859 1124.71 94.6484H1120.35V92.2578H1131.98V94.6484ZM1122.48 108.008C1122.48 107.148 1122.78 106.41 1123.36 105.793C1123.95 105.176 1124.79 104.707 1125.89 104.387C1127 104.066 1128.3 103.906 1129.8 103.906C1131.27 103.906 1132.55 104.066 1133.63 104.387C1134.71 104.707 1135.54 105.176 1136.11 105.793C1136.7 106.41 1136.99 107.148 1136.99 108.008C1136.99 108.875 1136.7 109.617 1136.11 110.234C1135.54 110.859 1134.71 111.336 1133.63 111.664C1132.55 111.992 1131.27 112.156 1129.8 112.156C1128.3 112.156 1127 111.992 1125.89 111.664C1124.8 111.336 1123.96 110.859 1123.36 110.234C1122.78 109.609 1122.48 108.867 1122.48 108.008ZM1125.48 108.008C1125.48 108.609 1125.84 109.066 1126.57 109.379C1127.31 109.684 1128.38 109.836 1129.8 109.836C1131.19 109.836 1132.24 109.684 1132.96 109.379C1133.68 109.074 1134.04 108.617 1134.04 108.008C1134.04 107.422 1133.68 106.98 1132.97 106.684C1132.27 106.379 1131.24 106.227 1129.88 106.227C1128.43 106.227 1127.34 106.375 1126.59 106.672C1125.84 106.969 1125.48 107.414 1125.48 108.008ZM1133.78 90.8281H1136.78V95.7734H1139.66V98.2109H1136.78V103.484H1133.78V90.8281Z" fill="white"/>
<path d="M1074.33 144.469H1072.31V130.219H1074.33V144.469ZM1062.84 136.281C1062.84 135.266 1063 134.375 1063.32 133.609C1063.64 132.844 1064.09 132.255 1064.66 131.844C1065.23 131.427 1065.88 131.219 1066.61 131.219C1067.32 131.219 1067.96 131.427 1068.52 131.844C1069.09 132.255 1069.54 132.844 1069.86 133.609C1070.18 134.375 1070.34 135.266 1070.34 136.281C1070.34 137.302 1070.18 138.198 1069.86 138.969C1069.54 139.734 1069.09 140.326 1068.52 140.742C1067.96 141.154 1067.32 141.359 1066.61 141.359C1065.88 141.359 1065.23 141.154 1064.66 140.742C1064.09 140.326 1063.64 139.734 1063.32 138.969C1063 138.198 1062.84 137.302 1062.84 136.281ZM1064.77 136.281C1064.77 136.974 1064.84 137.568 1064.99 138.062C1065.14 138.552 1065.36 138.924 1065.63 139.18C1065.91 139.43 1066.24 139.552 1066.61 139.547C1066.97 139.552 1067.28 139.43 1067.55 139.18C1067.83 138.924 1068.04 138.552 1068.2 138.062C1068.35 137.568 1068.42 136.974 1068.42 136.281C1068.42 135.589 1068.35 134.997 1068.2 134.508C1068.04 134.018 1067.83 133.648 1067.55 133.398C1067.28 133.143 1066.97 133.016 1066.61 133.016C1066.24 133.016 1065.91 133.143 1065.63 133.398C1065.36 133.648 1065.14 134.018 1064.99 134.508C1064.84 134.997 1064.77 135.589 1064.77 136.281ZM1081.44 132.453C1081.43 133.047 1081.55 133.612 1081.78 134.148C1082.02 134.68 1082.38 135.154 1082.87 135.57C1083.36 135.987 1083.96 136.307 1084.69 136.531L1083.62 138.078C1082.89 137.833 1082.25 137.479 1081.72 137.016C1081.19 136.552 1080.77 136.003 1080.45 135.367C1080.14 136.102 1079.7 136.737 1079.13 137.273C1078.58 137.805 1077.9 138.203 1077.11 138.469L1076.03 136.906C1076.8 136.651 1077.43 136.286 1077.94 135.812C1078.44 135.339 1078.82 134.799 1079.06 134.195C1079.31 133.586 1079.43 132.943 1079.44 132.266V130.969H1081.44V132.453ZM1078 141.688C1078 141.12 1078.2 140.63 1078.59 140.219C1078.98 139.802 1079.55 139.484 1080.28 139.266C1081.02 139.047 1081.88 138.938 1082.88 138.938C1083.85 138.938 1084.7 139.047 1085.42 139.266C1086.14 139.484 1086.7 139.802 1087.09 140.219C1087.48 140.63 1087.67 141.12 1087.67 141.688C1087.67 142.26 1087.48 142.753 1087.09 143.164C1086.7 143.581 1086.14 143.896 1085.42 144.109C1084.7 144.328 1083.85 144.438 1082.88 144.438C1081.88 144.438 1081.02 144.328 1080.28 144.109C1079.55 143.896 1078.98 143.581 1078.59 143.164C1078.2 142.753 1078 142.26 1078 141.688ZM1080 141.688C1079.99 142.083 1080.23 142.38 1080.72 142.578C1081.21 142.776 1081.93 142.875 1082.88 142.875C1084.76 142.875 1085.7 142.479 1085.7 141.688C1085.7 141.302 1085.46 141.008 1084.98 140.805C1084.5 140.602 1083.8 140.5 1082.88 140.5C1081.94 140.5 1081.22 140.602 1080.73 140.805C1080.24 141.008 1079.99 141.302 1080 141.688ZM1085.53 130.219H1087.53V133.547H1089.45V135.203H1087.53V138.656H1085.53V130.219ZM1102.47 133.609H1090.64V132.016H1095.56V130.359H1097.53V132.016H1102.47V133.609ZM1090.08 141.391H1095.56V139.758C1094.76 139.685 1094.06 139.529 1093.48 139.289C1092.89 139.049 1092.45 138.734 1092.14 138.344C1091.83 137.953 1091.68 137.5 1091.69 136.984C1091.68 136.417 1091.88 135.927 1092.27 135.516C1092.66 135.099 1093.22 134.781 1093.95 134.562C1094.68 134.344 1095.55 134.234 1096.55 134.234C1097.53 134.234 1098.38 134.344 1099.11 134.562C1099.84 134.781 1100.41 135.099 1100.8 135.516C1101.19 135.927 1101.39 136.417 1101.39 136.984C1101.39 137.5 1101.23 137.953 1100.92 138.344C1100.61 138.734 1100.17 139.049 1099.59 139.289C1099.02 139.523 1098.33 139.677 1097.53 139.75V141.391H1103.09V142.984H1090.08V141.391ZM1093.73 136.984C1093.73 137.797 1094.65 138.203 1096.49 138.203C1097.43 138.203 1098.14 138.104 1098.62 137.906C1099.1 137.708 1099.34 137.401 1099.34 136.984C1099.34 136.193 1098.41 135.792 1096.55 135.781C1094.67 135.792 1093.73 136.193 1093.73 136.984ZM1119.39 132.844C1119.39 133.656 1119.37 134.349 1119.35 134.922C1119.34 135.49 1119.29 136.156 1119.21 136.922C1119.14 137.682 1119.02 138.505 1118.86 139.391L1116.91 139.219C1117.11 138.062 1117.24 137.023 1117.3 136.102C1117.35 135.18 1117.39 134.156 1117.39 133.031H1108.88V131.453H1119.39V132.844ZM1107.59 141.078H1110.36V136.609H1112.34V141.078H1113.91V136.609H1115.88V141.078H1120.56V142.703H1107.59V141.078ZM1128.97 131.328C1128.96 131.906 1129.15 132.474 1129.54 133.031C1129.93 133.583 1130.5 134.062 1131.25 134.469C1132 134.87 1132.9 135.135 1133.94 135.266L1133.16 136.875C1131.94 136.698 1130.88 136.344 1129.98 135.812C1129.08 135.276 1128.4 134.615 1127.92 133.828C1127.44 134.615 1126.76 135.276 1125.86 135.812C1124.97 136.344 1123.92 136.698 1122.72 136.875L1121.92 135.266C1122.95 135.135 1123.84 134.87 1124.59 134.469C1125.34 134.062 1125.9 133.583 1126.29 133.031C1126.67 132.474 1126.87 131.906 1126.88 131.328V130.641H1128.97V131.328ZM1121.42 137.953H1134.39V139.578H1128.86V144.438H1126.89V139.578H1121.42V137.953Z" fill="#DEDEDE"/>
<rect x="496" y="150" width="293" height="110" rx="8" fill="#71161B"/>
<path d="M631.133 181.477H622.789V188.156H619.836V181.477H611.609V179.133H631.133V181.477ZM613.906 167.648H616.859V170.109H625.812V167.648H628.812V177.07H613.906V167.648ZM625.812 174.68V172.453H616.859V174.68H625.812ZM650.445 182.953H647.445V181.266H643.367V179.227H647.445V166.852H650.445V182.953ZM632.305 176.297C634.984 176.281 637.438 176.234 639.664 176.156C641.891 176.07 644 175.906 645.992 175.664L646.156 177.797C644.531 178.07 642.812 178.273 641 178.406V182.461H638V185.391H650.914V187.781H635.023V181.406H638V178.582C636.516 178.637 634.734 178.664 632.656 178.664L632.305 176.297ZM633.875 171.398C633.875 170.648 634.102 169.984 634.555 169.406C635.008 168.828 635.641 168.379 636.453 168.059C637.266 167.738 638.195 167.578 639.242 167.578C640.266 167.578 641.18 167.738 641.984 168.059C642.789 168.379 643.418 168.828 643.871 169.406C644.332 169.984 644.562 170.648 644.562 171.398C644.562 172.148 644.332 172.809 643.871 173.379C643.418 173.949 642.789 174.387 641.984 174.691C641.18 174.996 640.266 175.148 639.242 175.148C638.188 175.148 637.254 174.996 636.441 174.691C635.637 174.387 635.008 173.949 634.555 173.379C634.102 172.809 633.875 172.148 633.875 171.398ZM636.711 171.398C636.703 171.906 636.93 172.301 637.391 172.582C637.859 172.855 638.492 172.992 639.289 172.992C640.008 172.992 640.59 172.852 641.035 172.57C641.488 172.289 641.719 171.898 641.727 171.398C641.719 170.883 641.484 170.48 641.023 170.191C640.57 169.902 639.977 169.758 639.242 169.758C638.469 169.758 637.852 169.902 637.391 170.191C636.93 170.48 636.703 170.883 636.711 171.398ZM665.234 170.648H660.992C661 171.5 661.18 172.312 661.531 173.086C661.891 173.859 662.438 174.547 663.172 175.148C663.906 175.75 664.82 176.211 665.914 176.531L664.484 178.875C663.336 178.523 662.348 178.008 661.52 177.328C660.691 176.648 660.035 175.84 659.551 174.902C659.059 176.004 658.371 176.961 657.488 177.773C656.613 178.578 655.555 179.188 654.312 179.602L652.789 177.234C653.922 176.875 654.875 176.355 655.648 175.676C656.422 174.996 656.996 174.223 657.371 173.355C657.754 172.488 657.953 171.586 657.969 170.648H653.609V168.258H665.234V170.648ZM655.742 184.008C655.742 183.148 656.035 182.41 656.621 181.793C657.207 181.176 658.051 180.707 659.152 180.387C660.254 180.066 661.555 179.906 663.055 179.906C664.531 179.906 665.809 180.066 666.887 180.387C667.965 180.707 668.793 181.176 669.371 181.793C669.957 182.41 670.25 183.148 670.25 184.008C670.25 184.875 669.957 185.617 669.371 186.234C668.793 186.859 667.965 187.336 666.887 187.664C665.809 187.992 664.531 188.156 663.055 188.156C661.555 188.156 660.254 187.992 659.152 187.664C658.059 187.336 657.215 186.859 656.621 186.234C656.035 185.609 655.742 184.867 655.742 184.008ZM658.742 184.008C658.734 184.609 659.098 185.066 659.832 185.379C660.566 185.684 661.641 185.836 663.055 185.836C664.445 185.836 665.5 185.684 666.219 185.379C666.938 185.074 667.297 184.617 667.297 184.008C667.297 183.422 666.941 182.98 666.23 182.684C665.527 182.379 664.496 182.227 663.137 182.227C661.691 182.227 660.594 182.375 659.844 182.672C659.102 182.969 658.734 183.414 658.742 184.008ZM667.039 166.828H670.039V171.773H672.922V174.211H670.039V179.484H667.039V166.828Z" fill="white"/>
<path d="M605.008 220.438H603.102V206.219H605.008V220.438ZM592.805 212.375C592.805 211.328 592.93 210.417 593.18 209.641C593.435 208.865 593.794 208.271 594.258 207.859C594.727 207.443 595.273 207.234 595.898 207.234C596.466 207.234 596.969 207.404 597.406 207.742C597.849 208.081 598.206 208.57 598.477 209.211C598.753 209.846 598.927 210.604 599 211.484H600.164V206.422H602.039V219.781H600.164V213.062H599.016C598.958 213.984 598.794 214.784 598.523 215.461C598.253 216.133 597.891 216.648 597.438 217.008C596.99 217.367 596.477 217.547 595.898 217.547C595.273 217.547 594.727 217.339 594.258 216.922C593.794 216.5 593.435 215.901 593.18 215.125C592.93 214.344 592.805 213.427 592.805 212.375ZM594.648 212.375C594.643 213.453 594.747 214.268 594.961 214.82C595.18 215.367 595.492 215.635 595.898 215.625C596.31 215.635 596.628 215.37 596.852 214.828C597.081 214.286 597.195 213.487 597.195 212.43C597.195 211.331 597.083 210.503 596.859 209.945C596.635 209.388 596.315 209.109 595.898 209.109C595.492 209.109 595.18 209.385 594.961 209.938C594.747 210.49 594.643 211.302 594.648 212.375ZM618.414 214.938H616.414V206.234H618.414V214.938ZM607.242 207.016H613.836V211.375H609.211V212.734C610.466 212.724 611.544 212.693 612.445 212.641C613.352 212.589 614.263 212.495 615.18 212.359L615.43 213.953C614.44 214.109 613.451 214.216 612.461 214.273C611.471 214.331 610.284 214.359 608.898 214.359H608.508H607.258V209.859H611.852V208.609H607.242V207.016ZM608.633 215.562H618.414V220.438H616.414V217.172H608.633V215.562ZM623.664 207.266C624.211 207.266 624.711 207.383 625.164 207.617C625.617 207.846 625.995 208.174 626.297 208.602C626.599 209.023 626.799 209.516 626.898 210.078H627.836V206.438H629.68V216.375H627.836V211.703H626.875C626.766 212.245 626.56 212.721 626.258 213.133C625.956 213.539 625.581 213.857 625.133 214.086C624.685 214.31 624.195 214.422 623.664 214.422C623.039 214.422 622.477 214.271 621.977 213.969C621.482 213.661 621.094 213.237 620.812 212.695C620.536 212.148 620.398 211.531 620.398 210.844C620.398 210.146 620.536 209.526 620.812 208.984C621.094 208.438 621.482 208.016 621.977 207.719C622.471 207.417 623.034 207.266 623.664 207.266ZM622.18 210.82C622.18 211.409 622.315 211.87 622.586 212.203C622.857 212.536 623.216 212.703 623.664 212.703C623.956 212.703 624.214 212.63 624.438 212.484C624.667 212.333 624.846 212.12 624.977 211.844C625.107 211.562 625.174 211.229 625.18 210.844C625.174 210.458 625.107 210.122 624.977 209.836C624.846 209.549 624.667 209.331 624.438 209.18C624.214 209.029 623.956 208.953 623.664 208.953C623.372 208.953 623.115 209.029 622.891 209.18C622.667 209.331 622.492 209.547 622.367 209.828C622.242 210.109 622.18 210.44 622.18 210.82ZM622.914 215.438H624.914V218.594H632.914V220.188H622.914V215.438ZM630.664 206.219H632.555V216.812H630.664V206.219ZM647.18 218.859H634.164V217.219H639.648V215.078H635.664V210.297H643.711V208.734H635.648V207.141H645.68V211.859H637.664V213.453H646.008V215.078H641.633V217.219H647.18V218.859ZM660.992 215.797H655.43V220.453H653.461V215.797H647.977V214.172H660.992V215.797ZM649.289 209.922C649.289 209.271 649.505 208.703 649.938 208.219C650.37 207.729 650.974 207.352 651.75 207.086C652.531 206.82 653.43 206.688 654.445 206.688C655.461 206.688 656.359 206.82 657.141 207.086C657.927 207.352 658.539 207.729 658.977 208.219C659.414 208.703 659.633 209.271 659.633 209.922C659.633 210.557 659.414 211.115 658.977 211.594C658.539 212.073 657.927 212.443 657.141 212.703C656.354 212.964 655.456 213.094 654.445 213.094C653.435 213.094 652.539 212.964 651.758 212.703C650.977 212.443 650.37 212.073 649.938 211.594C649.505 211.115 649.289 210.557 649.289 209.922ZM651.336 209.922C651.336 210.255 651.461 210.542 651.711 210.781C651.961 211.021 652.32 211.203 652.789 211.328C653.258 211.448 653.81 211.51 654.445 211.516C655.419 211.51 656.182 211.37 656.734 211.094C657.292 210.812 657.57 210.422 657.57 209.922C657.57 209.401 657.292 209 656.734 208.719C656.182 208.432 655.419 208.286 654.445 208.281C653.477 208.286 652.714 208.432 652.156 208.719C651.604 209 651.331 209.401 651.336 209.922ZM677.305 208.844C677.299 209.656 677.286 210.349 677.266 210.922C677.25 211.49 677.203 212.156 677.125 212.922C677.052 213.682 676.935 214.505 676.773 215.391L674.82 215.219C675.023 214.062 675.154 213.023 675.211 212.102C675.268 211.18 675.299 210.156 675.305 209.031H666.789V207.453H677.305V208.844ZM665.508 217.078H668.273V212.609H670.258V217.078H671.82V212.609H673.789V217.078H678.477V218.703H665.508V217.078ZM686.883 207.328C686.878 207.906 687.068 208.474 687.453 209.031C687.844 209.583 688.414 210.062 689.164 210.469C689.914 210.87 690.81 211.135 691.852 211.266L691.07 212.875C689.852 212.698 688.792 212.344 687.891 211.812C686.995 211.276 686.31 210.615 685.836 209.828C685.357 210.615 684.669 211.276 683.773 211.812C682.883 212.344 681.836 212.698 680.633 212.875L679.836 211.266C680.867 211.135 681.755 210.87 682.5 210.469C683.25 210.062 683.818 209.583 684.203 209.031C684.589 208.474 684.784 207.906 684.789 207.328V206.641H686.883V207.328ZM679.336 213.953H692.305V215.578H686.773V220.438H684.805V215.578H679.336V213.953ZM618.555 242.969H616.555V241.844H613.836V240.484H616.555V232.234H618.555V242.969ZM606.461 238.531C608.247 238.521 609.883 238.49 611.367 238.438C612.852 238.38 614.258 238.271 615.586 238.109L615.695 239.531C614.612 239.714 613.466 239.849 612.258 239.938V242.641H610.258V244.594H618.867V246.188H608.273V241.938H610.258V240.055C609.268 240.091 608.081 240.109 606.695 240.109L606.461 238.531ZM607.508 235.266C607.508 234.766 607.659 234.323 607.961 233.938C608.263 233.552 608.685 233.253 609.227 233.039C609.768 232.826 610.388 232.719 611.086 232.719C611.768 232.719 612.378 232.826 612.914 233.039C613.451 233.253 613.87 233.552 614.172 233.938C614.479 234.323 614.633 234.766 614.633 235.266C614.633 235.766 614.479 236.206 614.172 236.586C613.87 236.966 613.451 237.258 612.914 237.461C612.378 237.664 611.768 237.766 611.086 237.766C610.383 237.766 609.76 237.664 609.219 237.461C608.682 237.258 608.263 236.966 607.961 236.586C607.659 236.206 607.508 235.766 607.508 235.266ZM609.398 235.266C609.393 235.604 609.544 235.867 609.852 236.055C610.164 236.237 610.586 236.328 611.117 236.328C611.596 236.328 611.984 236.234 612.281 236.047C612.583 235.859 612.737 235.599 612.742 235.266C612.737 234.922 612.581 234.654 612.273 234.461C611.971 234.268 611.576 234.172 611.086 234.172C610.57 234.172 610.159 234.268 609.852 234.461C609.544 234.654 609.393 234.922 609.398 235.266ZM632.742 246.438H630.836V239.312H629.633V245.781H627.742V241.711L626.617 243.203C625.378 242.552 624.484 241.445 623.938 239.883C623.432 241.68 622.544 242.958 621.273 243.719L620.039 242.188C621.06 241.615 621.794 240.768 622.242 239.648C622.695 238.523 622.924 237.219 622.93 235.734V235.281H620.523V233.688H627.039V235.281H624.867V235.734C624.867 237.083 625.094 238.281 625.547 239.328C626.005 240.375 626.737 241.159 627.742 241.68V232.422H629.633V237.688H630.836V232.219H632.742V246.438ZM639.398 235.562C639.404 236.115 639.529 236.648 639.773 237.164C640.018 237.674 640.391 238.135 640.891 238.547C641.391 238.958 642.013 239.276 642.758 239.5L641.805 241.047C641.029 240.823 640.357 240.482 639.789 240.023C639.221 239.56 638.773 239.01 638.445 238.375C638.117 239.062 637.667 239.656 637.094 240.156C636.526 240.656 635.841 241.031 635.039 241.281L634.07 239.719C634.815 239.495 635.438 239.169 635.938 238.742C636.438 238.315 636.807 237.828 637.047 237.281C637.292 236.734 637.414 236.161 637.414 235.562V235.453H634.555V233.891H637.414V232.312H639.43V233.891H642.273V235.453H639.398V235.562ZM636.711 241.875H638.711V244.594H646.492V246.188H636.711V241.875ZM641.805 236.375H644.164V232.234H646.148V242.781H644.164V237.984H641.805V236.375ZM663.477 234.844C663.471 235.656 663.458 236.349 663.438 236.922C663.422 237.49 663.375 238.156 663.297 238.922C663.224 239.682 663.107 240.505 662.945 241.391L660.992 241.219C661.195 240.062 661.326 239.023 661.383 238.102C661.44 237.18 661.471 236.156 661.477 235.031H652.961V233.453H663.477V234.844ZM651.68 243.078H654.445V238.609H656.43V243.078H657.992V238.609H659.961V243.078H664.648V244.703H651.68V243.078ZM673.055 233.328C673.049 233.906 673.24 234.474 673.625 235.031C674.016 235.583 674.586 236.062 675.336 236.469C676.086 236.87 676.982 237.135 678.023 237.266L677.242 238.875C676.023 238.698 674.964 238.344 674.062 237.812C673.167 237.276 672.482 236.615 672.008 235.828C671.529 236.615 670.841 237.276 669.945 237.812C669.055 238.344 668.008 238.698 666.805 238.875L666.008 237.266C667.039 237.135 667.927 236.87 668.672 236.469C669.422 236.062 669.99 235.583 670.375 235.031C670.76 234.474 670.956 233.906 670.961 233.328V232.641H673.055V233.328ZM665.508 239.953H678.477V241.578H672.945V246.438H670.977V241.578H665.508V239.953Z" fill="#DEDEDE"/>
<line x1="642" y1="116.5" x2="980" y2="116.5" stroke="#71161B"/>
<line x1="114" y1="349.5" x2="1174" y2="349.5" stroke="#71161B"/>
<path d="M72.8633 403.191V403.748C72.8633 404.471 72.8372 405.161 72.7852 405.818C72.7396 406.469 72.6452 407.169 72.502 407.918H74.7969V409.91H67.8828V412.469H72.8828V418.797H70.3828V414.422H60.168V412.469H65.3828V409.91H58.5273V407.918H69.9824C70.1322 407.169 70.2331 406.476 70.2852 405.838C70.3372 405.2 70.3698 404.513 70.3828 403.777H60.5195V401.805H72.8633V403.191ZM91.1836 418.797H88.8203V401.023H91.1836V418.797ZM75.4414 413.602C76.6719 412.846 77.5768 411.769 78.1562 410.369C78.7422 408.963 79.0352 407.436 79.0352 405.789V404.832H76.125V402.84H84.1328V404.832H81.4375V405.789C81.431 407.397 81.7077 408.862 82.2676 410.184C82.834 411.505 83.7292 412.514 84.9531 413.211L83.4883 415.047C81.9909 414.161 80.9134 412.684 80.2559 410.613C79.9434 411.694 79.5104 412.648 78.957 413.475C78.4036 414.301 77.7331 414.956 76.9453 415.438L75.4414 413.602ZM82.8633 407.117H85.207V401.316H87.5508V417.977H85.207V409.129H82.8633V407.117ZM101.301 417H98.3711V402.859H101.301V417ZM111.359 406.902C111.301 406.342 111.057 405.906 110.627 405.594C110.204 405.281 109.634 405.125 108.918 405.125C108.43 405.125 108.01 405.197 107.658 405.34C107.313 405.477 107.049 405.669 106.867 405.916C106.685 406.163 106.594 406.443 106.594 406.756C106.594 407.225 106.796 407.596 107.199 407.869C107.609 408.136 108.163 408.348 108.859 408.504L110.129 408.816C111.438 409.116 112.469 409.604 113.225 410.281C113.98 410.952 114.361 411.844 114.367 412.957C114.367 413.816 114.149 414.565 113.713 415.203C113.277 415.841 112.648 416.333 111.828 416.678C111.008 417.023 110.031 417.195 108.898 417.195C107.753 417.202 106.76 417.029 105.92 416.678C105.08 416.326 104.426 415.805 103.957 415.115C103.488 414.425 103.241 413.582 103.215 412.586H106.066C106.112 413.283 106.385 413.816 106.887 414.188C107.395 414.552 108.052 414.734 108.859 414.734C109.367 414.734 109.813 414.66 110.197 414.51C110.581 414.36 110.878 414.152 111.086 413.885C111.294 413.618 111.398 413.309 111.398 412.957C111.398 412.501 111.2 412.14 110.803 411.873C110.412 411.6 109.803 411.362 108.977 411.16L107.434 410.789C104.868 410.158 103.586 408.875 103.586 406.941C103.586 406.102 103.814 405.359 104.27 404.715C104.732 404.064 105.367 403.559 106.174 403.201C106.988 402.843 107.909 402.664 108.938 402.664C109.966 402.664 110.874 402.843 111.662 403.201C112.45 403.559 113.062 404.061 113.498 404.705C113.934 405.343 114.159 406.076 114.172 406.902H111.359ZM116.281 417V402.859H121.32C122.733 402.859 123.954 403.143 124.982 403.709C126.018 404.269 126.809 405.079 127.355 406.141C127.902 407.195 128.176 408.452 128.176 409.91C128.176 411.375 127.899 412.641 127.346 413.709C126.799 414.77 126.005 415.584 124.963 416.15C123.928 416.717 122.694 417 121.262 417H116.281ZM121.145 414.48C122.512 414.48 123.537 414.109 124.221 413.367C124.904 412.625 125.246 411.473 125.246 409.91C125.246 408.361 124.904 407.218 124.221 406.482C123.544 405.747 122.525 405.379 121.164 405.379H119.211V414.48H121.145ZM149.523 414.324H147.16V401.023H149.523V414.324ZM134.035 410.125C134.81 409.754 135.451 409.269 135.959 408.67C136.467 408.071 136.838 407.417 137.072 406.707C137.313 405.997 137.434 405.275 137.434 404.539V402.215H139.855V404.539C139.849 405.639 140.103 406.648 140.617 407.566C141.138 408.478 141.939 409.181 143.02 409.676L141.633 411.59C140.285 410.965 139.296 409.917 138.664 408.445C138.339 409.253 137.902 409.962 137.355 410.574C136.815 411.18 136.164 411.661 135.402 412.02L134.035 410.125ZM137.473 412.762H139.973V416.492H149.973V418.484H137.473V412.762ZM141.398 405.086H143.566V401.297H145.93V413.797H143.566V407.117H141.398V405.086ZM166.535 418.836H164.074V409.305H160.949V407.293H164.074V401.023H166.535V418.836ZM152.355 402.508H160.656V404.52H154.836V407.469H160.012V409.422H154.836V412.781C156.177 412.768 157.359 412.732 158.381 412.674C159.41 412.609 160.441 412.495 161.477 412.332L161.73 414.324C160.507 414.507 159.286 414.633 158.068 414.705C156.851 414.77 155.415 414.806 153.762 414.812H152.355V402.508Z" fill="#71161B"/>
<rect x="1.5" y="387.5" width="224" height="45" rx="6.5" stroke="#71161B" stroke-width="3"/>
<path d="M341.363 403.191V403.748C341.363 404.471 341.337 405.161 341.285 405.818C341.24 406.469 341.145 407.169 341.002 407.918H343.297V409.91H336.383V412.469H341.383V418.797H338.883V414.422H328.668V412.469H333.883V409.91H327.027V407.918H338.482C338.632 407.169 338.733 406.476 338.785 405.838C338.837 405.2 338.87 404.513 338.883 403.777H329.02V401.805H341.363V403.191ZM359.684 418.797H357.32V401.023H359.684V418.797ZM343.941 413.602C345.172 412.846 346.077 411.769 346.656 410.369C347.242 408.963 347.535 407.436 347.535 405.789V404.832H344.625V402.84H352.633V404.832H349.938V405.789C349.931 407.397 350.208 408.862 350.768 410.184C351.334 411.505 352.229 412.514 353.453 413.211L351.988 415.047C350.491 414.161 349.413 412.684 348.756 410.613C348.443 411.694 348.01 412.648 347.457 413.475C346.904 414.301 346.233 414.956 345.445 415.438L343.941 413.602ZM351.363 407.117H353.707V401.316H356.051V417.977H353.707V409.129H351.363V407.117ZM377.809 411.102H370.934V412.42C372.49 412.531 373.701 412.859 374.566 413.406C375.432 413.953 375.868 414.682 375.875 415.594C375.868 416.271 375.618 416.85 375.123 417.332C374.628 417.814 373.915 418.178 372.984 418.426C372.06 418.673 370.96 418.797 369.684 418.797C368.388 418.797 367.271 418.673 366.334 418.426C365.403 418.178 364.69 417.814 364.195 417.332C363.701 416.857 363.453 416.277 363.453 415.594C363.453 414.676 363.889 413.943 364.762 413.396C365.634 412.85 366.865 412.521 368.453 412.41V411.102H361.598V409.09H377.809V411.102ZM362.32 406.473C363.375 406.382 364.293 406.199 365.074 405.926C365.855 405.652 366.477 405.327 366.939 404.949C367.408 404.572 367.721 404.168 367.877 403.738H363.082V401.785H376.344V403.738H371.51C371.66 404.168 371.965 404.575 372.428 404.959C372.896 405.337 373.525 405.662 374.312 405.936C375.107 406.202 376.044 406.382 377.125 406.473L376.246 408.426C374.599 408.27 373.215 407.902 372.096 407.322C370.976 406.736 370.172 406.001 369.684 405.115C369.202 406.001 368.401 406.736 367.281 407.322C366.161 407.908 364.781 408.276 363.141 408.426L362.32 406.473ZM365.992 415.594C365.986 416.023 366.292 416.352 366.91 416.58C367.535 416.808 368.46 416.922 369.684 416.922C370.888 416.922 371.803 416.808 372.428 416.58C373.053 416.352 373.368 416.023 373.375 415.594C373.368 414.715 372.138 414.266 369.684 414.246C368.447 414.259 367.519 414.376 366.9 414.598C366.288 414.812 365.986 415.145 365.992 415.594ZM394.391 418.797H392.008V409.891H390.504V417.977H388.141V412.889L386.734 414.754C385.185 413.94 384.068 412.557 383.385 410.604C382.753 412.85 381.643 414.448 380.055 415.398L378.512 413.484C379.788 412.768 380.706 411.71 381.266 410.311C381.832 408.904 382.118 407.273 382.125 405.418V404.852H379.117V402.859H387.262V404.852H384.547V405.418C384.547 407.104 384.83 408.602 385.396 409.91C385.969 411.219 386.884 412.199 388.141 412.85V401.277H390.504V407.859H392.008V401.023H394.391V418.797ZM411.441 414.324H409.078V401.023H411.441V414.324ZM395.953 410.125C396.728 409.754 397.369 409.269 397.877 408.67C398.385 408.071 398.756 407.417 398.99 406.707C399.231 405.997 399.352 405.275 399.352 404.539V402.215H401.773V404.539C401.767 405.639 402.021 406.648 402.535 407.566C403.056 408.478 403.857 409.181 404.938 409.676L403.551 411.59C402.203 410.965 401.214 409.917 400.582 408.445C400.257 409.253 399.82 409.962 399.273 410.574C398.733 411.18 398.082 411.661 397.32 412.02L395.953 410.125ZM399.391 412.762H401.891V416.492H411.891V418.484H399.391V412.762ZM403.316 405.086H405.484V401.297H407.848V413.797H405.484V407.117H403.316V405.086ZM428.453 418.836H425.992V409.305H422.867V407.293H425.992V401.023H428.453V418.836ZM414.273 402.508H422.574V404.52H416.754V407.469H421.93V409.422H416.754V412.781C418.095 412.768 419.277 412.732 420.299 412.674C421.327 412.609 422.359 412.495 423.395 412.332L423.648 414.324C422.424 414.507 421.204 414.633 419.986 414.705C418.769 414.77 417.333 414.806 415.68 414.812H414.273V402.508Z" fill="#71161B"/>
<rect x="266.5" y="387.5" width="224" height="45" rx="6.5" stroke="#71161B" stroke-width="3"/>
<path d="M606.246 408.25H608.57V410.32H606.246V418.797H603.727V401.023H606.246V408.25ZM591.812 413.777C593.688 413.777 595.152 413.764 596.207 413.738V412.215C595.582 412.091 595.035 411.88 594.566 411.58C594.098 411.281 593.736 410.91 593.482 410.467C593.229 410.024 593.102 409.533 593.102 408.992C593.102 408.341 593.284 407.762 593.648 407.254C594.02 406.746 594.537 406.352 595.201 406.072C595.865 405.792 596.624 405.652 597.477 405.652C598.316 405.652 599.065 405.792 599.723 406.072C600.387 406.352 600.904 406.746 601.275 407.254C601.653 407.762 601.845 408.341 601.852 408.992C601.845 409.533 601.712 410.027 601.451 410.477C601.191 410.919 600.823 411.29 600.348 411.59C599.879 411.889 599.332 412.098 598.707 412.215V413.65C600.289 413.566 601.669 413.439 602.848 413.27L603.004 415.086C601.441 415.372 599.824 415.564 598.15 415.662C596.477 415.76 594.713 415.809 592.857 415.809H592.145L591.812 413.777ZM592.164 402.996H596.207V401.121H598.707V402.996H602.711V404.949H592.164V402.996ZM595.465 408.992C595.458 409.454 595.634 409.812 595.992 410.066C596.357 410.314 596.852 410.438 597.477 410.438C598.082 410.438 598.561 410.314 598.912 410.066C599.27 409.812 599.449 409.454 599.449 408.992C599.449 408.543 599.27 408.191 598.912 407.938C598.554 407.684 598.076 407.553 597.477 407.547C596.858 407.553 596.367 407.684 596.002 407.938C595.637 408.191 595.458 408.543 595.465 408.992ZM617.887 405.711H609.293V403.738H612.379V401.512H614.84V403.738H617.887V405.711ZM609.703 410.73C609.703 409.917 609.872 409.191 610.211 408.553C610.549 407.915 611.015 407.417 611.607 407.059C612.206 406.694 612.88 406.512 613.629 406.512C614.378 406.512 615.048 406.694 615.641 407.059C616.233 407.417 616.695 407.915 617.027 408.553C617.366 409.191 617.535 409.917 617.535 410.73C617.535 411.544 617.366 412.273 617.027 412.918C616.695 413.562 616.233 414.067 615.641 414.432C615.048 414.79 614.378 414.969 613.629 414.969C612.88 414.969 612.206 414.79 611.607 414.432C611.015 414.067 610.549 413.562 610.211 412.918C609.872 412.273 609.703 411.544 609.703 410.73ZM611.891 410.73C611.891 411.401 612.047 411.925 612.359 412.303C612.678 412.674 613.102 412.859 613.629 412.859C614.137 412.859 614.547 412.671 614.859 412.293C615.178 411.915 615.341 411.395 615.348 410.73C615.348 410.294 615.273 409.913 615.123 409.588C614.973 409.262 614.768 409.015 614.508 408.846C614.254 408.67 613.961 408.582 613.629 408.582C613.108 408.582 612.688 408.774 612.369 409.158C612.05 409.542 611.891 410.066 611.891 410.73ZM618.551 401.375H620.875V408.25H622.32V401.023H624.684V418.797H622.32V410.242H620.875V418.035H618.551V401.375ZM642.867 416.727H626.598V414.715H633.473V410.75H635.973V414.715H642.867V416.727ZM627.262 409.559C628.453 409.363 629.498 409.008 630.396 408.494C631.295 407.98 631.998 407.365 632.506 406.648C633.014 405.932 633.303 405.177 633.375 404.383H627.945V402.371H641.441V404.383H636.031C636.096 405.177 636.383 405.929 636.891 406.639C637.405 407.342 638.121 407.944 639.039 408.445C639.957 408.94 641.031 409.279 642.262 409.461L641.285 411.434C639.742 411.16 638.404 410.662 637.271 409.939C636.145 409.217 635.292 408.325 634.713 407.264C634.146 408.344 633.303 409.259 632.184 410.008C631.07 410.75 629.755 411.258 628.238 411.531L627.262 409.559ZM658.863 411.57H656.383V407.371H653.609V405.359H656.383V401.023H658.863V411.57ZM643.766 409.617C644.697 409.305 645.481 408.859 646.119 408.279C646.757 407.7 647.236 407.049 647.555 406.326C647.874 405.604 648.043 404.858 648.062 404.09H644.488V402.098H654.137V404.09H650.602C650.621 404.806 650.781 405.496 651.08 406.16C651.38 406.818 651.832 407.41 652.438 407.938C653.049 408.465 653.798 408.875 654.684 409.168L653.453 411.121C652.503 410.815 651.682 410.359 650.992 409.754C650.309 409.142 649.768 408.426 649.371 407.605C648.967 408.536 648.404 409.347 647.682 410.037C646.959 410.721 646.083 411.238 645.055 411.59L643.766 409.617ZM646.676 415.398C646.676 414.689 646.92 414.077 647.408 413.562C647.903 413.042 648.609 412.645 649.527 412.371C650.445 412.098 651.533 411.961 652.789 411.961C654.052 411.961 655.143 412.098 656.061 412.371C656.979 412.645 657.685 413.038 658.18 413.553C658.674 414.067 658.922 414.682 658.922 415.398C658.922 416.115 658.674 416.727 658.18 417.234C657.685 417.749 656.979 418.139 656.061 418.406C655.143 418.68 654.052 418.816 652.789 418.816C651.533 418.816 650.445 418.68 649.527 418.406C648.609 418.139 647.903 417.749 647.408 417.234C646.92 416.72 646.676 416.108 646.676 415.398ZM649.156 415.398C649.156 415.9 649.465 416.281 650.084 416.541C650.702 416.795 651.604 416.922 652.789 416.922C653.98 416.922 654.885 416.795 655.504 416.541C656.122 416.287 656.435 415.906 656.441 415.398C656.435 414.897 656.126 414.52 655.514 414.266C654.908 414.005 654.023 413.875 652.857 413.875C650.39 413.875 649.156 414.383 649.156 415.398ZM676.441 414.324H674.078V401.023H676.441V414.324ZM660.953 410.125C661.728 409.754 662.369 409.269 662.877 408.67C663.385 408.071 663.756 407.417 663.99 406.707C664.231 405.997 664.352 405.275 664.352 404.539V402.215H666.773V404.539C666.767 405.639 667.021 406.648 667.535 407.566C668.056 408.478 668.857 409.181 669.938 409.676L668.551 411.59C667.203 410.965 666.214 409.917 665.582 408.445C665.257 409.253 664.82 409.962 664.273 410.574C663.733 411.18 663.082 411.661 662.32 412.02L660.953 410.125ZM664.391 412.762H666.891V416.492H676.891V418.484H664.391V412.762ZM668.316 405.086H670.484V401.297H672.848V413.797H670.484V407.117H668.316V405.086ZM693.453 418.836H690.992V409.305H687.867V407.293H690.992V401.023H693.453V418.836ZM679.273 402.508H687.574V404.52H681.754V407.469H686.93V409.422H681.754V412.781C683.095 412.768 684.277 412.732 685.299 412.674C686.327 412.609 687.359 412.495 688.395 412.332L688.648 414.324C687.424 414.507 686.204 414.633 684.986 414.705C683.769 414.77 682.333 414.806 680.68 414.812H679.273V402.508Z" fill="#71161B"/>
<rect x="531.5" y="387.5" width="224" height="45" rx="6.5" stroke="#71161B" stroke-width="3"/>
<path d="M853.863 403.191V403.748C853.863 404.471 853.837 405.161 853.785 405.818C853.74 406.469 853.645 407.169 853.502 407.918H855.797V409.91H848.883V412.469H853.883V418.797H851.383V414.422H841.168V412.469H846.383V409.91H839.527V407.918H850.982C851.132 407.169 851.233 406.476 851.285 405.838C851.337 405.2 851.37 404.513 851.383 403.777H841.52V401.805H853.863V403.191ZM872.184 418.797H869.82V401.023H872.184V418.797ZM856.441 413.602C857.672 412.846 858.577 411.769 859.156 410.369C859.742 408.963 860.035 407.436 860.035 405.789V404.832H857.125V402.84H865.133V404.832H862.438V405.789C862.431 407.397 862.708 408.862 863.268 410.184C863.834 411.505 864.729 412.514 865.953 413.211L864.488 415.047C862.991 414.161 861.913 412.684 861.256 410.613C860.943 411.694 860.51 412.648 859.957 413.475C859.404 414.301 858.733 414.956 857.945 415.438L856.441 413.602ZM863.863 407.117H866.207V401.316H868.551V417.977H866.207V409.129H863.863V407.117ZM877.359 404.207H880.855V401.922H883.316V405.086H886.598V401.023H889.078V410.75H886.598V407.117H883.316V410.242H874.859V401.922H877.359V404.207ZM877.223 411.492H879.684V413.133H886.598V411.492H889.078V418.562H877.223V411.492ZM880.855 408.25V406.121H877.359V408.25H880.855ZM886.598 416.57V415.047H879.684V416.57H886.598ZM907.633 410.711H903.629V411.746H905.68V415.945H895.719V416.98H906.207V418.68H893.238V414.363H903.219V413.465H893.219V411.746H895.387V410.711H891.363V408.895H907.633V410.711ZM893.355 401.336H905.66V405.496H895.875V406.375H905.973V408.074H893.395V403.914H903.16V403.016H893.355V401.336ZM901.129 411.746V410.711H897.867V411.746H901.129ZM915.328 404.07C915.328 404.865 915.475 405.623 915.768 406.346C916.061 407.068 916.51 407.716 917.115 408.289C917.721 408.855 918.479 409.292 919.391 409.598L918.043 411.551C917.125 411.212 916.334 410.73 915.67 410.105C915.012 409.48 914.492 408.745 914.107 407.898C913.717 408.855 913.17 409.682 912.467 410.379C911.764 411.069 910.908 411.596 909.898 411.961L908.551 410.008C909.508 409.695 910.302 409.236 910.934 408.631C911.572 408.025 912.04 407.332 912.34 406.551C912.646 405.763 912.802 404.93 912.809 404.051V402.117H915.328V404.07ZM911.812 412.781H914.332V416.492H924.02V418.484H911.812V412.781ZM917.828 404.812H921.168V401.043H923.648V414.168H921.168V406.824H917.828V404.812ZM940.699 404.305C940.693 405.32 940.676 406.186 940.65 406.902C940.631 407.612 940.572 408.445 940.475 409.402C940.383 410.353 940.237 411.382 940.035 412.488L937.594 412.273C937.848 410.828 938.01 409.529 938.082 408.377C938.154 407.225 938.193 405.945 938.199 404.539H927.555V402.566H940.699V404.305ZM925.953 414.598H929.41V409.012H931.891V414.598H933.844V409.012H936.305V414.598H942.164V416.629H925.953V414.598ZM958.512 414.324H956.148V401.023H958.512V414.324ZM943.023 410.125C943.798 409.754 944.439 409.269 944.947 408.67C945.455 408.071 945.826 407.417 946.061 406.707C946.301 405.997 946.422 405.275 946.422 404.539V402.215H948.844V404.539C948.837 405.639 949.091 406.648 949.605 407.566C950.126 408.478 950.927 409.181 952.008 409.676L950.621 411.59C949.273 410.965 948.284 409.917 947.652 408.445C947.327 409.253 946.891 409.962 946.344 410.574C945.803 411.18 945.152 411.661 944.391 412.02L943.023 410.125ZM946.461 412.762H948.961V416.492H958.961V418.484H946.461V412.762ZM950.387 405.086H952.555V401.297H954.918V413.797H952.555V407.117H950.387V405.086ZM975.523 418.836H973.062V409.305H969.938V407.293H973.062V401.023H975.523V418.836ZM961.344 402.508H969.645V404.52H963.824V407.469H969V409.422H963.824V412.781C965.165 412.768 966.347 412.732 967.369 412.674C968.398 412.609 969.43 412.495 970.465 412.332L970.719 414.324C969.495 414.507 968.274 414.633 967.057 414.705C965.839 414.77 964.404 414.806 962.75 414.812H961.344V402.508Z" fill="#71161B"/>
<rect x="796.5" y="387.5" width="224" height="45" rx="6.5" stroke="#71161B" stroke-width="3"/>
<path d="M1153.77 404.305C1153.77 405.32 1153.75 406.186 1153.72 406.902C1153.71 407.612 1153.65 408.445 1153.55 409.402C1153.46 410.353 1153.31 411.382 1153.11 412.488L1150.67 412.273C1150.92 410.828 1151.08 409.529 1151.16 408.377C1151.23 407.225 1151.27 405.945 1151.27 404.539H1140.63V402.566H1153.77V404.305ZM1139.03 414.598H1142.48V409.012H1144.96V414.598H1146.92V409.012H1149.38V414.598H1155.24V416.629H1139.03V414.598ZM1172.52 411.297H1168.62V412.957H1170.55V418.797H1168.07V414.91H1158.11V412.957H1160.14V411.297H1156.31V409.324H1172.52V411.297ZM1157.93 404.871C1157.93 404.155 1158.2 403.533 1158.72 403.006C1159.26 402.479 1160.01 402.075 1160.99 401.795C1161.97 401.515 1163.12 401.375 1164.42 401.375C1165.71 401.375 1166.85 401.515 1167.82 401.795C1168.79 402.075 1169.55 402.479 1170.08 403.006C1170.62 403.533 1170.88 404.155 1170.88 404.871C1170.88 405.587 1170.62 406.212 1170.08 406.746C1169.55 407.273 1168.79 407.68 1167.82 407.967C1166.85 408.247 1165.71 408.387 1164.42 408.387C1163.12 408.387 1161.97 408.247 1160.99 407.967C1160.01 407.68 1159.26 407.273 1158.72 406.746C1158.2 406.212 1157.93 405.587 1157.93 404.871ZM1160.53 404.871C1160.52 405.392 1160.85 405.786 1161.52 406.053C1162.19 406.32 1163.15 406.453 1164.42 406.453C1165.66 406.453 1166.62 406.32 1167.29 406.053C1167.97 405.786 1168.3 405.392 1168.3 404.871C1168.3 404.37 1167.97 403.986 1167.31 403.719C1166.64 403.445 1165.7 403.309 1164.49 403.309C1163.2 403.309 1162.22 403.442 1161.54 403.709C1160.86 403.969 1160.52 404.357 1160.53 404.871ZM1166.16 412.957V411.297H1162.66V412.957H1166.16ZM1188.87 414.324H1186.51V401.023H1188.87V414.324ZM1173.38 410.125C1174.16 409.754 1174.8 409.269 1175.31 408.67C1175.81 408.071 1176.19 407.417 1176.42 406.707C1176.66 405.997 1176.78 405.275 1176.78 404.539V402.215H1179.2V404.539C1179.2 405.639 1179.45 406.648 1179.96 407.566C1180.49 408.478 1181.29 409.181 1182.37 409.676L1180.98 411.59C1179.63 410.965 1178.64 409.917 1178.01 408.445C1177.69 409.253 1177.25 409.962 1176.7 410.574C1176.16 411.18 1175.51 411.661 1174.75 412.02L1173.38 410.125ZM1176.82 412.762H1179.32V416.492H1189.32V418.484H1176.82V412.762ZM1180.75 405.086H1182.91V401.297H1185.28V413.797H1182.91V407.117H1180.75V405.086ZM1205.88 418.836H1203.42V409.305H1200.3V407.293H1203.42V401.023H1205.88V418.836ZM1191.7 402.508H1200V404.52H1194.18V407.469H1199.36V409.422H1194.18V412.781C1195.52 412.768 1196.71 412.732 1197.73 412.674C1198.76 412.609 1199.79 412.495 1200.82 412.332L1201.08 414.324C1199.85 414.507 1198.63 414.633 1197.42 414.705C1196.2 414.77 1194.76 414.806 1193.11 414.812H1191.7V402.508Z" fill="#71161B"/>
<rect x="1061.5" y="387.5" width="224" height="45" rx="6.5" stroke="#71161B" stroke-width="3"/>
<line x1="642.5" y1="192" x2="642.5" y2="54" stroke="#71161B"/>
<line x1="642.5" y1="387" x2="642.5" y2="249" stroke="#71161B"/>
<line x1="113.5" y1="387" x2="113.5" y2="349" stroke="#71161B"/>
<line x1="378.5" y1="387" x2="378.5" y2="349" stroke="#71161B"/>
<line x1="908.5" y1="387" x2="908.5" y2="349" stroke="#71161B"/>
<line x1="1173.5" y1="387" x2="1173.5" y2="349" stroke="#71161B"/>
<rect x="495" width="293" height="84" rx="8" fill="#71161B"/>
<path d="M639.203 32.9531H636.203V31.2656H632.125V29.2266H636.203V16.8516H639.203V32.9531ZM621.062 26.2969C623.742 26.2812 626.195 26.2344 628.422 26.1562C630.648 26.0703 632.758 25.9062 634.75 25.6641L634.914 27.7969C633.289 28.0703 631.57 28.2734 629.758 28.4062V32.4609H626.758V35.3906H639.672V37.7812H623.781V31.4062H626.758V28.582C625.273 28.6367 623.492 28.6641 621.414 28.6641L621.062 26.2969ZM622.633 21.3984C622.633 20.6484 622.859 19.9844 623.312 19.4062C623.766 18.8281 624.398 18.3789 625.211 18.0586C626.023 17.7383 626.953 17.5781 628 17.5781C629.023 17.5781 629.938 17.7383 630.742 18.0586C631.547 18.3789 632.176 18.8281 632.629 19.4062C633.09 19.9844 633.32 20.6484 633.32 21.3984C633.32 22.1484 633.09 22.8086 632.629 23.3789C632.176 23.9492 631.547 24.3867 630.742 24.6914C629.938 24.9961 629.023 25.1484 628 25.1484C626.945 25.1484 626.012 24.9961 625.199 24.6914C624.395 24.3867 623.766 23.9492 623.312 23.3789C622.859 22.8086 622.633 22.1484 622.633 21.3984ZM625.469 21.3984C625.461 21.9062 625.688 22.3008 626.148 22.582C626.617 22.8555 627.25 22.9922 628.047 22.9922C628.766 22.9922 629.348 22.8516 629.793 22.5703C630.246 22.2891 630.477 21.8984 630.484 21.3984C630.477 20.8828 630.242 20.4805 629.781 20.1914C629.328 19.9023 628.734 19.7578 628 19.7578C627.227 19.7578 626.609 19.9023 626.148 20.1914C625.688 20.4805 625.461 20.8828 625.469 21.3984ZM653.992 20.6484H649.75C649.758 21.5 649.938 22.3125 650.289 23.0859C650.648 23.8594 651.195 24.5469 651.93 25.1484C652.664 25.75 653.578 26.2109 654.672 26.5312L653.242 28.875C652.094 28.5234 651.105 28.0078 650.277 27.3281C649.449 26.6484 648.793 25.8398 648.309 24.9023C647.816 26.0039 647.129 26.9609 646.246 27.7734C645.371 28.5781 644.312 29.1875 643.07 29.6016L641.547 27.2344C642.68 26.875 643.633 26.3555 644.406 25.6758C645.18 24.9961 645.754 24.2227 646.129 23.3555C646.512 22.4883 646.711 21.5859 646.727 20.6484H642.367V18.2578H653.992V20.6484ZM644.5 34.0078C644.5 33.1484 644.793 32.4102 645.379 31.793C645.965 31.1758 646.809 30.707 647.91 30.3867C649.012 30.0664 650.312 29.9062 651.812 29.9062C653.289 29.9062 654.566 30.0664 655.645 30.3867C656.723 30.707 657.551 31.1758 658.129 31.793C658.715 32.4102 659.008 33.1484 659.008 34.0078C659.008 34.875 658.715 35.6172 658.129 36.2344C657.551 36.8594 656.723 37.3359 655.645 37.6641C654.566 37.9922 653.289 38.1562 651.812 38.1562C650.312 38.1562 649.012 37.9922 647.91 37.6641C646.816 37.3359 645.973 36.8594 645.379 36.2344C644.793 35.6094 644.5 34.8672 644.5 34.0078ZM647.5 34.0078C647.492 34.6094 647.855 35.0664 648.59 35.3789C649.324 35.6836 650.398 35.8359 651.812 35.8359C653.203 35.8359 654.258 35.6836 654.977 35.3789C655.695 35.0742 656.055 34.6172 656.055 34.0078C656.055 33.4219 655.699 32.9805 654.988 32.6836C654.285 32.3789 653.254 32.2266 651.895 32.2266C650.449 32.2266 649.352 32.375 648.602 32.6719C647.859 32.9688 647.492 33.4141 647.5 34.0078ZM655.797 16.8281H658.797V21.7734H661.68V24.2109H658.797V29.4844H655.797V16.8281Z" fill="white"/>
<path d="M617.328 66.6094H615.328V56.2344H617.328V66.6094ZM605.375 63.0938C606.141 62.8385 606.779 62.4688 607.289 61.9844C607.799 61.4948 608.177 60.9401 608.422 60.3203C608.672 59.7005 608.797 59.0573 608.797 58.3906V57.0156H610.875V58.3906C610.87 59.0417 610.984 59.6615 611.219 60.25C611.458 60.8333 611.828 61.3542 612.328 61.8125C612.828 62.2708 613.453 62.6198 614.203 62.8594L613.188 64.4219C612.401 64.1615 611.729 63.7812 611.172 63.2812C610.615 62.776 610.172 62.1745 609.844 61.4766C609.51 62.2266 609.055 62.8776 608.477 63.4297C607.904 63.9818 607.214 64.3958 606.406 64.6719L605.375 63.0938ZM607.797 65.6094H609.812V68.5938H617.703V70.1875H607.797V65.6094ZM632.219 65.0781H619.25V63.4844H632.219V65.0781ZM620.547 59.5625C620.547 58.9635 620.76 58.4453 621.188 58.0078C621.615 57.5703 622.219 57.2344 623 57C623.786 56.7656 624.698 56.651 625.734 56.6562C626.766 56.651 627.669 56.7656 628.445 57C629.227 57.2344 629.831 57.5703 630.258 58.0078C630.69 58.4453 630.906 58.9635 630.906 59.5625C630.906 60.1615 630.69 60.6823 630.258 61.125C629.831 61.5677 629.227 61.9089 628.445 62.1484C627.669 62.3828 626.766 62.5 625.734 62.5C624.693 62.5 623.781 62.3828 623 62.1484C622.219 61.9089 621.615 61.5677 621.188 61.125C620.76 60.6823 620.547 60.1615 620.547 59.5625ZM620.812 66.0312H622.812V68.5938H630.75V70.1875H620.812V66.0312ZM622.625 59.5625C622.62 60 622.885 60.3307 623.422 60.5547C623.964 60.7786 624.734 60.8906 625.734 60.8906C626.729 60.8906 627.495 60.7786 628.031 60.5547C628.573 60.3307 628.844 60 628.844 59.5625C628.844 59.1354 628.573 58.8073 628.031 58.5781C627.49 58.349 626.724 58.2292 625.734 58.2188C624.74 58.2292 623.971 58.349 623.43 58.5781C622.888 58.8073 622.62 59.1354 622.625 59.5625ZM646.047 65.6562H640.516V70.4375H638.547V65.6562H633.078V64.0625H646.047V65.6562ZM633.719 61.6719C634.641 61.5573 635.44 61.3438 636.117 61.0312C636.799 60.7188 637.331 60.3438 637.711 59.9062C638.096 59.4688 638.326 59.0104 638.398 58.5312H634.25V56.9688H644.891V58.5312H640.742C640.81 59.0104 641.034 59.4688 641.414 59.9062C641.794 60.3438 642.326 60.7188 643.008 61.0312C643.69 61.3438 644.5 61.5573 645.438 61.6719L644.719 63.2344C643.49 63.0677 642.432 62.737 641.547 62.2422C640.667 61.7422 640.008 61.1198 639.57 60.375C639.128 61.1198 638.469 61.7422 637.594 62.2422C636.719 62.737 635.672 63.0677 634.453 63.2344L633.719 61.6719ZM662.391 58.8438C662.385 59.6562 662.372 60.349 662.352 60.9219C662.336 61.4896 662.289 62.1562 662.211 62.9219C662.138 63.6823 662.021 64.5052 661.859 65.3906L659.906 65.2188C660.109 64.0625 660.24 63.0234 660.297 62.1016C660.354 61.1797 660.385 60.1562 660.391 59.0312H651.875V57.4531H662.391V58.8438ZM650.594 67.0781H653.359V62.6094H655.344V67.0781H656.906V62.6094H658.875V67.0781H663.562V68.7031H650.594V67.0781ZM671.969 57.3281C671.964 57.9062 672.154 58.474 672.539 59.0312C672.93 59.5833 673.5 60.0625 674.25 60.4688C675 60.8698 675.896 61.1354 676.938 61.2656L676.156 62.875C674.938 62.6979 673.878 62.3438 672.977 61.8125C672.081 61.276 671.396 60.6146 670.922 59.8281C670.443 60.6146 669.755 61.276 668.859 61.8125C667.969 62.3438 666.922 62.6979 665.719 62.875L664.922 61.2656C665.953 61.1354 666.841 60.8698 667.586 60.4688C668.336 60.0625 668.904 59.5833 669.289 59.0312C669.674 58.474 669.87 57.9062 669.875 57.3281V56.6406H671.969V57.3281ZM664.422 63.9531H677.391V65.5781H671.859V70.4375H669.891V65.5781H664.422V63.9531Z" fill="#DEDEDE"/>
<rect x="952" y="74" width="293" height="84" rx="8" fill="#71161B"/>
<path d="M1065.48 95.6562C1065.48 96.9609 1065.66 98.2266 1066.04 99.4531C1066.41 100.672 1066.98 101.766 1067.73 102.734C1068.49 103.703 1069.42 104.453 1070.52 104.984L1068.72 107.375C1067.61 106.82 1066.66 106.047 1065.87 105.055C1065.08 104.055 1064.46 102.891 1064.01 101.562C1063.52 102.992 1062.86 104.242 1062.03 105.312C1061.19 106.375 1060.19 107.195 1059.02 107.773L1057.16 105.359C1058.33 104.828 1059.31 104.059 1060.11 103.051C1060.9 102.035 1061.5 100.891 1061.89 99.6172C1062.29 98.3359 1062.48 97.0156 1062.48 95.6562V92.4688H1065.48V95.6562ZM1071.46 90.8281H1074.46V99.0547H1077.6V101.586H1074.46V112.156H1071.46V90.8281ZM1097.88 105.148H1089.53V112.133H1086.58V105.148H1078.35V102.758H1097.88V105.148ZM1080.65 91.8594H1095.53V100.461H1080.65V91.8594ZM1092.55 98.1172V94.2266H1083.6V98.1172H1092.55ZM1118.57 103.906H1099.12V101.516H1107.34V99.4531H1110.3V101.516H1118.57V103.906ZM1099.94 98.2109C1101.39 98.125 1102.62 97.9336 1103.64 97.6367C1104.66 97.332 1105.45 96.9609 1106.01 96.5234C1106.57 96.0859 1106.93 95.6094 1107.07 95.0938H1100.99V92.7266H1107.34V90.8984H1110.3V92.7266H1116.7V95.0938H1110.55C1110.7 95.6094 1111.05 96.0859 1111.61 96.5234C1112.17 96.9609 1112.96 97.332 1113.98 97.6367C1115 97.9336 1116.24 98.125 1117.7 98.2109L1116.81 100.484C1114.87 100.344 1113.22 100.004 1111.87 99.4648C1110.52 98.9258 1109.5 98.2188 1108.82 97.3438C1108.14 98.2188 1107.12 98.9258 1105.77 99.4648C1104.42 100.004 1102.78 100.344 1100.85 100.484L1099.94 98.2109ZM1101.34 108.523C1101.34 107.75 1101.64 107.094 1102.22 106.555C1102.82 106.016 1103.67 105.609 1104.79 105.336C1105.91 105.055 1107.26 104.914 1108.82 104.914C1110.38 104.914 1111.71 105.055 1112.82 105.336C1113.93 105.609 1114.77 106.016 1115.36 106.555C1115.95 107.094 1116.24 107.75 1116.25 108.523C1116.24 109.305 1115.95 109.965 1115.36 110.504C1114.77 111.051 1113.93 111.461 1112.82 111.734C1111.71 112.016 1110.38 112.156 1108.82 112.156C1107.26 112.156 1105.91 112.016 1104.79 111.734C1103.67 111.461 1102.82 111.051 1102.22 110.504C1101.64 109.965 1101.34 109.305 1101.34 108.523ZM1104.39 108.523C1104.38 109.016 1104.74 109.379 1105.47 109.613C1106.2 109.84 1107.32 109.953 1108.82 109.953C1110.3 109.953 1111.4 109.836 1112.14 109.602C1112.87 109.367 1113.24 109.008 1113.25 108.523C1113.24 108.047 1112.87 107.695 1112.12 107.469C1111.39 107.234 1110.29 107.117 1108.82 107.117C1107.32 107.117 1106.2 107.234 1105.47 107.469C1104.74 107.695 1104.38 108.047 1104.39 108.523ZM1131.98 94.6484H1127.73C1127.74 95.5 1127.92 96.3125 1128.27 97.0859C1128.63 97.8594 1129.18 98.5469 1129.91 99.1484C1130.65 99.75 1131.56 100.211 1132.66 100.531L1131.23 102.875C1130.08 102.523 1129.09 102.008 1128.26 101.328C1127.43 100.648 1126.78 99.8398 1126.29 98.9023C1125.8 100.004 1125.11 100.961 1124.23 101.773C1123.36 102.578 1122.3 103.188 1121.05 103.602L1119.53 101.234C1120.66 100.875 1121.62 100.355 1122.39 99.6758C1123.16 98.9961 1123.74 98.2227 1124.11 97.3555C1124.5 96.4883 1124.7 95.5859 1124.71 94.6484H1120.35V92.2578H1131.98V94.6484ZM1122.48 108.008C1122.48 107.148 1122.78 106.41 1123.36 105.793C1123.95 105.176 1124.79 104.707 1125.89 104.387C1127 104.066 1128.3 103.906 1129.8 103.906C1131.27 103.906 1132.55 104.066 1133.63 104.387C1134.71 104.707 1135.54 105.176 1136.11 105.793C1136.7 106.41 1136.99 107.148 1136.99 108.008C1136.99 108.875 1136.7 109.617 1136.11 110.234C1135.54 110.859 1134.71 111.336 1133.63 111.664C1132.55 111.992 1131.27 112.156 1129.8 112.156C1128.3 112.156 1127 111.992 1125.89 111.664C1124.8 111.336 1123.96 110.859 1123.36 110.234C1122.78 109.609 1122.48 108.867 1122.48 108.008ZM1125.48 108.008C1125.48 108.609 1125.84 109.066 1126.57 109.379C1127.31 109.684 1128.38 109.836 1129.8 109.836C1131.19 109.836 1132.24 109.684 1132.96 109.379C1133.68 109.074 1134.04 108.617 1134.04 108.008C1134.04 107.422 1133.68 106.98 1132.97 106.684C1132.27 106.379 1131.24 106.227 1129.88 106.227C1128.43 106.227 1127.34 106.375 1126.59 106.672C1125.84 106.969 1125.48 107.414 1125.48 108.008ZM1133.78 90.8281H1136.78V95.7734H1139.66V98.2109H1136.78V103.484H1133.78V90.8281Z" fill="white"/>
<path d="M1074.33 144.469H1072.31V130.219H1074.33V144.469ZM1062.84 136.281C1062.84 135.266 1063 134.375 1063.32 133.609C1063.64 132.844 1064.09 132.255 1064.66 131.844C1065.23 131.427 1065.88 131.219 1066.61 131.219C1067.32 131.219 1067.96 131.427 1068.52 131.844C1069.09 132.255 1069.54 132.844 1069.86 133.609C1070.18 134.375 1070.34 135.266 1070.34 136.281C1070.34 137.302 1070.18 138.198 1069.86 138.969C1069.54 139.734 1069.09 140.326 1068.52 140.742C1067.96 141.154 1067.32 141.359 1066.61 141.359C1065.88 141.359 1065.23 141.154 1064.66 140.742C1064.09 140.326 1063.64 139.734 1063.32 138.969C1063 138.198 1062.84 137.302 1062.84 136.281ZM1064.77 136.281C1064.77 136.974 1064.84 137.568 1064.99 138.062C1065.14 138.552 1065.36 138.924 1065.63 139.18C1065.91 139.43 1066.24 139.552 1066.61 139.547C1066.97 139.552 1067.28 139.43 1067.55 139.18C1067.83 138.924 1068.04 138.552 1068.2 138.062C1068.35 137.568 1068.42 136.974 1068.42 136.281C1068.42 135.589 1068.35 134.997 1068.2 134.508C1068.04 134.018 1067.83 133.648 1067.55 133.398C1067.28 133.143 1066.97 133.016 1066.61 133.016C1066.24 133.016 1065.91 133.143 1065.63 133.398C1065.36 133.648 1065.14 134.018 1064.99 134.508C1064.84 134.997 1064.77 135.589 1064.77 136.281ZM1081.44 132.453C1081.43 133.047 1081.55 133.612 1081.78 134.148C1082.02 134.68 1082.38 135.154 1082.87 135.57C1083.36 135.987 1083.96 136.307 1084.69 136.531L1083.62 138.078C1082.89 137.833 1082.25 137.479 1081.72 137.016C1081.19 136.552 1080.77 136.003 1080.45 135.367C1080.14 136.102 1079.7 136.737 1079.13 137.273C1078.58 137.805 1077.9 138.203 1077.11 138.469L1076.03 136.906C1076.8 136.651 1077.43 136.286 1077.94 135.812C1078.44 135.339 1078.82 134.799 1079.06 134.195C1079.31 133.586 1079.43 132.943 1079.44 132.266V130.969H1081.44V132.453ZM1078 141.688C1078 141.12 1078.2 140.63 1078.59 140.219C1078.98 139.802 1079.55 139.484 1080.28 139.266C1081.02 139.047 1081.88 138.938 1082.88 138.938C1083.85 138.938 1084.7 139.047 1085.42 139.266C1086.14 139.484 1086.7 139.802 1087.09 140.219C1087.48 140.63 1087.67 141.12 1087.67 141.688C1087.67 142.26 1087.48 142.753 1087.09 143.164C1086.7 143.581 1086.14 143.896 1085.42 144.109C1084.7 144.328 1083.85 144.438 1082.88 144.438C1081.88 144.438 1081.02 144.328 1080.28 144.109C1079.55 143.896 1078.98 143.581 1078.59 143.164C1078.2 142.753 1078 142.26 1078 141.688ZM1080 141.688C1079.99 142.083 1080.23 142.38 1080.72 142.578C1081.21 142.776 1081.93 142.875 1082.88 142.875C1084.76 142.875 1085.7 142.479 1085.7 141.688C1085.7 141.302 1085.46 141.008 1084.98 140.805C1084.5 140.602 1083.8 140.5 1082.88 140.5C1081.94 140.5 1081.22 140.602 1080.73 140.805C1080.24 141.008 1079.99 141.302 1080 141.688ZM1085.53 130.219H1087.53V133.547H1089.45V135.203H1087.53V138.656H1085.53V130.219ZM1102.47 133.609H1090.64V132.016H1095.56V130.359H1097.53V132.016H1102.47V133.609ZM1090.08 141.391H1095.56V139.758C1094.76 139.685 1094.06 139.529 1093.48 139.289C1092.89 139.049 1092.45 138.734 1092.14 138.344C1091.83 137.953 1091.68 137.5 1091.69 136.984C1091.68 136.417 1091.88 135.927 1092.27 135.516C1092.66 135.099 1093.22 134.781 1093.95 134.562C1094.68 134.344 1095.55 134.234 1096.55 134.234C1097.53 134.234 1098.38 134.344 1099.11 134.562C1099.84 134.781 1100.41 135.099 1100.8 135.516C1101.19 135.927 1101.39 136.417 1101.39 136.984C1101.39 137.5 1101.23 137.953 1100.92 138.344C1100.61 138.734 1100.17 139.049 1099.59 139.289C1099.02 139.523 1098.33 139.677 1097.53 139.75V141.391H1103.09V142.984H1090.08V141.391ZM1093.73 136.984C1093.73 137.797 1094.65 138.203 1096.49 138.203C1097.43 138.203 1098.14 138.104 1098.62 137.906C1099.1 137.708 1099.34 137.401 1099.34 136.984C1099.34 136.193 1098.41 135.792 1096.55 135.781C1094.67 135.792 1093.73 136.193 1093.73 136.984ZM1119.39 132.844C1119.39 133.656 1119.37 134.349 1119.35 134.922C1119.34 135.49 1119.29 136.156 1119.21 136.922C1119.14 137.682 1119.02 138.505 1118.86 139.391L1116.91 139.219C1117.11 138.062 1117.24 137.023 1117.3 136.102C1117.35 135.18 1117.39 134.156 1117.39 133.031H1108.88V131.453H1119.39V132.844ZM1107.59 141.078H1110.36V136.609H1112.34V141.078H1113.91V136.609H1115.88V141.078H1120.56V142.703H1107.59V141.078ZM1128.97 131.328C1128.96 131.906 1129.15 132.474 1129.54 133.031C1129.93 133.583 1130.5 134.062 1131.25 134.469C1132 134.87 1132.9 135.135 1133.94 135.266L1133.16 136.875C1131.94 136.698 1130.88 136.344 1129.98 135.812C1129.08 135.276 1128.4 134.615 1127.92 133.828C1127.44 134.615 1126.76 135.276 1125.86 135.812C1124.97 136.344 1123.92 136.698 1122.72 136.875L1121.92 135.266C1122.95 135.135 1123.84 134.87 1124.59 134.469C1125.34 134.062 1125.9 133.583 1126.29 133.031C1126.67 132.474 1126.87 131.906 1126.88 131.328V130.641H1128.97V131.328ZM1121.42 137.953H1134.39V139.578H1128.86V144.438H1126.89V139.578H1121.42V137.953Z" fill="#DEDEDE"/>
<rect x="496" y="150" width="293" height="110" rx="8" fill="#71161B"/>
<path d="M631.133 181.477H622.789V188.156H619.836V181.477H611.609V179.133H631.133V181.477ZM613.906 167.648H616.859V170.109H625.812V167.648H628.812V177.07H613.906V167.648ZM625.812 174.68V172.453H616.859V174.68H625.812ZM650.445 182.953H647.445V181.266H643.367V179.227H647.445V166.852H650.445V182.953ZM632.305 176.297C634.984 176.281 637.438 176.234 639.664 176.156C641.891 176.07 644 175.906 645.992 175.664L646.156 177.797C644.531 178.07 642.812 178.273 641 178.406V182.461H638V185.391H650.914V187.781H635.023V181.406H638V178.582C636.516 178.637 634.734 178.664 632.656 178.664L632.305 176.297ZM633.875 171.398C633.875 170.648 634.102 169.984 634.555 169.406C635.008 168.828 635.641 168.379 636.453 168.059C637.266 167.738 638.195 167.578 639.242 167.578C640.266 167.578 641.18 167.738 641.984 168.059C642.789 168.379 643.418 168.828 643.871 169.406C644.332 169.984 644.562 170.648 644.562 171.398C644.562 172.148 644.332 172.809 643.871 173.379C643.418 173.949 642.789 174.387 641.984 174.691C641.18 174.996 640.266 175.148 639.242 175.148C638.188 175.148 637.254 174.996 636.441 174.691C635.637 174.387 635.008 173.949 634.555 173.379C634.102 172.809 633.875 172.148 633.875 171.398ZM636.711 171.398C636.703 171.906 636.93 172.301 637.391 172.582C637.859 172.855 638.492 172.992 639.289 172.992C640.008 172.992 640.59 172.852 641.035 172.57C641.488 172.289 641.719 171.898 641.727 171.398C641.719 170.883 641.484 170.48 641.023 170.191C640.57 169.902 639.977 169.758 639.242 169.758C638.469 169.758 637.852 169.902 637.391 170.191C636.93 170.48 636.703 170.883 636.711 171.398ZM665.234 170.648H660.992C661 171.5 661.18 172.312 661.531 173.086C661.891 173.859 662.438 174.547 663.172 175.148C663.906 175.75 664.82 176.211 665.914 176.531L664.484 178.875C663.336 178.523 662.348 178.008 661.52 177.328C660.691 176.648 660.035 175.84 659.551 174.902C659.059 176.004 658.371 176.961 657.488 177.773C656.613 178.578 655.555 179.188 654.312 179.602L652.789 177.234C653.922 176.875 654.875 176.355 655.648 175.676C656.422 174.996 656.996 174.223 657.371 173.355C657.754 172.488 657.953 171.586 657.969 170.648H653.609V168.258H665.234V170.648ZM655.742 184.008C655.742 183.148 656.035 182.41 656.621 181.793C657.207 181.176 658.051 180.707 659.152 180.387C660.254 180.066 661.555 179.906 663.055 179.906C664.531 179.906 665.809 180.066 666.887 180.387C667.965 180.707 668.793 181.176 669.371 181.793C669.957 182.41 670.25 183.148 670.25 184.008C670.25 184.875 669.957 185.617 669.371 186.234C668.793 186.859 667.965 187.336 666.887 187.664C665.809 187.992 664.531 188.156 663.055 188.156C661.555 188.156 660.254 187.992 659.152 187.664C658.059 187.336 657.215 186.859 656.621 186.234C656.035 185.609 655.742 184.867 655.742 184.008ZM658.742 184.008C658.734 184.609 659.098 185.066 659.832 185.379C660.566 185.684 661.641 185.836 663.055 185.836C664.445 185.836 665.5 185.684 666.219 185.379C666.938 185.074 667.297 184.617 667.297 184.008C667.297 183.422 666.941 182.98 666.23 182.684C665.527 182.379 664.496 182.227 663.137 182.227C661.691 182.227 660.594 182.375 659.844 182.672C659.102 182.969 658.734 183.414 658.742 184.008ZM667.039 166.828H670.039V171.773H672.922V174.211H670.039V179.484H667.039V166.828Z" fill="white"/>
<path d="M605.008 220.438H603.102V206.219H605.008V220.438ZM592.805 212.375C592.805 211.328 592.93 210.417 593.18 209.641C593.435 208.865 593.794 208.271 594.258 207.859C594.727 207.443 595.273 207.234 595.898 207.234C596.466 207.234 596.969 207.404 597.406 207.742C597.849 208.081 598.206 208.57 598.477 209.211C598.753 209.846 598.927 210.604 599 211.484H600.164V206.422H602.039V219.781H600.164V213.062H599.016C598.958 213.984 598.794 214.784 598.523 215.461C598.253 216.133 597.891 216.648 597.438 217.008C596.99 217.367 596.477 217.547 595.898 217.547C595.273 217.547 594.727 217.339 594.258 216.922C593.794 216.5 593.435 215.901 593.18 215.125C592.93 214.344 592.805 213.427 592.805 212.375ZM594.648 212.375C594.643 213.453 594.747 214.268 594.961 214.82C595.18 215.367 595.492 215.635 595.898 215.625C596.31 215.635 596.628 215.37 596.852 214.828C597.081 214.286 597.195 213.487 597.195 212.43C597.195 211.331 597.083 210.503 596.859 209.945C596.635 209.388 596.315 209.109 595.898 209.109C595.492 209.109 595.18 209.385 594.961 209.938C594.747 210.49 594.643 211.302 594.648 212.375ZM618.414 214.938H616.414V206.234H618.414V214.938ZM607.242 207.016H613.836V211.375H609.211V212.734C610.466 212.724 611.544 212.693 612.445 212.641C613.352 212.589 614.263 212.495 615.18 212.359L615.43 213.953C614.44 214.109 613.451 214.216 612.461 214.273C611.471 214.331 610.284 214.359 608.898 214.359H608.508H607.258V209.859H611.852V208.609H607.242V207.016ZM608.633 215.562H618.414V220.438H616.414V217.172H608.633V215.562ZM623.664 207.266C624.211 207.266 624.711 207.383 625.164 207.617C625.617 207.846 625.995 208.174 626.297 208.602C626.599 209.023 626.799 209.516 626.898 210.078H627.836V206.438H629.68V216.375H627.836V211.703H626.875C626.766 212.245 626.56 212.721 626.258 213.133C625.956 213.539 625.581 213.857 625.133 214.086C624.685 214.31 624.195 214.422 623.664 214.422C623.039 214.422 622.477 214.271 621.977 213.969C621.482 213.661 621.094 213.237 620.812 212.695C620.536 212.148 620.398 211.531 620.398 210.844C620.398 210.146 620.536 209.526 620.812 208.984C621.094 208.438 621.482 208.016 621.977 207.719C622.471 207.417 623.034 207.266 623.664 207.266ZM622.18 210.82C622.18 211.409 622.315 211.87 622.586 212.203C622.857 212.536 623.216 212.703 623.664 212.703C623.956 212.703 624.214 212.63 624.438 212.484C624.667 212.333 624.846 212.12 624.977 211.844C625.107 211.562 625.174 211.229 625.18 210.844C625.174 210.458 625.107 210.122 624.977 209.836C624.846 209.549 624.667 209.331 624.438 209.18C624.214 209.029 623.956 208.953 623.664 208.953C623.372 208.953 623.115 209.029 622.891 209.18C622.667 209.331 622.492 209.547 622.367 209.828C622.242 210.109 622.18 210.44 622.18 210.82ZM622.914 215.438H624.914V218.594H632.914V220.188H622.914V215.438ZM630.664 206.219H632.555V216.812H630.664V206.219ZM647.18 218.859H634.164V217.219H639.648V215.078H635.664V210.297H643.711V208.734H635.648V207.141H645.68V211.859H637.664V213.453H646.008V215.078H641.633V217.219H647.18V218.859ZM660.992 215.797H655.43V220.453H653.461V215.797H647.977V214.172H660.992V215.797ZM649.289 209.922C649.289 209.271 649.505 208.703 649.938 208.219C650.37 207.729 650.974 207.352 651.75 207.086C652.531 206.82 653.43 206.688 654.445 206.688C655.461 206.688 656.359 206.82 657.141 207.086C657.927 207.352 658.539 207.729 658.977 208.219C659.414 208.703 659.633 209.271 659.633 209.922C659.633 210.557 659.414 211.115 658.977 211.594C658.539 212.073 657.927 212.443 657.141 212.703C656.354 212.964 655.456 213.094 654.445 213.094C653.435 213.094 652.539 212.964 651.758 212.703C650.977 212.443 650.37 212.073 649.938 211.594C649.505 211.115 649.289 210.557 649.289 209.922ZM651.336 209.922C651.336 210.255 651.461 210.542 651.711 210.781C651.961 211.021 652.32 211.203 652.789 211.328C653.258 211.448 653.81 211.51 654.445 211.516C655.419 211.51 656.182 211.37 656.734 211.094C657.292 210.812 657.57 210.422 657.57 209.922C657.57 209.401 657.292 209 656.734 208.719C656.182 208.432 655.419 208.286 654.445 208.281C653.477 208.286 652.714 208.432 652.156 208.719C651.604 209 651.331 209.401 651.336 209.922ZM677.305 208.844C677.299 209.656 677.286 210.349 677.266 210.922C677.25 211.49 677.203 212.156 677.125 212.922C677.052 213.682 676.935 214.505 676.773 215.391L674.82 215.219C675.023 214.062 675.154 213.023 675.211 212.102C675.268 211.18 675.299 210.156 675.305 209.031H666.789V207.453H677.305V208.844ZM665.508 217.078H668.273V212.609H670.258V217.078H671.82V212.609H673.789V217.078H678.477V218.703H665.508V217.078ZM686.883 207.328C686.878 207.906 687.068 208.474 687.453 209.031C687.844 209.583 688.414 210.062 689.164 210.469C689.914 210.87 690.81 211.135 691.852 211.266L691.07 212.875C689.852 212.698 688.792 212.344 687.891 211.812C686.995 211.276 686.31 210.615 685.836 209.828C685.357 210.615 684.669 211.276 683.773 211.812C682.883 212.344 681.836 212.698 680.633 212.875L679.836 211.266C680.867 211.135 681.755 210.87 682.5 210.469C683.25 210.062 683.818 209.583 684.203 209.031C684.589 208.474 684.784 207.906 684.789 207.328V206.641H686.883V207.328ZM679.336 213.953H692.305V215.578H686.773V220.438H684.805V215.578H679.336V213.953ZM618.555 242.969H616.555V241.844H613.836V240.484H616.555V232.234H618.555V242.969ZM606.461 238.531C608.247 238.521 609.883 238.49 611.367 238.438C612.852 238.38 614.258 238.271 615.586 238.109L615.695 239.531C614.612 239.714 613.466 239.849 612.258 239.938V242.641H610.258V244.594H618.867V246.188H608.273V241.938H610.258V240.055C609.268 240.091 608.081 240.109 606.695 240.109L606.461 238.531ZM607.508 235.266C607.508 234.766 607.659 234.323 607.961 233.938C608.263 233.552 608.685 233.253 609.227 233.039C609.768 232.826 610.388 232.719 611.086 232.719C611.768 232.719 612.378 232.826 612.914 233.039C613.451 233.253 613.87 233.552 614.172 233.938C614.479 234.323 614.633 234.766 614.633 235.266C614.633 235.766 614.479 236.206 614.172 236.586C613.87 236.966 613.451 237.258 612.914 237.461C612.378 237.664 611.768 237.766 611.086 237.766C610.383 237.766 609.76 237.664 609.219 237.461C608.682 237.258 608.263 236.966 607.961 236.586C607.659 236.206 607.508 235.766 607.508 235.266ZM609.398 235.266C609.393 235.604 609.544 235.867 609.852 236.055C610.164 236.237 610.586 236.328 611.117 236.328C611.596 236.328 611.984 236.234 612.281 236.047C612.583 235.859 612.737 235.599 612.742 235.266C612.737 234.922 612.581 234.654 612.273 234.461C611.971 234.268 611.576 234.172 611.086 234.172C610.57 234.172 610.159 234.268 609.852 234.461C609.544 234.654 609.393 234.922 609.398 235.266ZM632.742 246.438H630.836V239.312H629.633V245.781H627.742V241.711L626.617 243.203C625.378 242.552 624.484 241.445 623.938 239.883C623.432 241.68 622.544 242.958 621.273 243.719L620.039 242.188C621.06 241.615 621.794 240.768 622.242 239.648C622.695 238.523 622.924 237.219 622.93 235.734V235.281H620.523V233.688H627.039V235.281H624.867V235.734C624.867 237.083 625.094 238.281 625.547 239.328C626.005 240.375 626.737 241.159 627.742 241.68V232.422H629.633V237.688H630.836V232.219H632.742V246.438ZM639.398 235.562C639.404 236.115 639.529 236.648 639.773 237.164C640.018 237.674 640.391 238.135 640.891 238.547C641.391 238.958 642.013 239.276 642.758 239.5L641.805 241.047C641.029 240.823 640.357 240.482 639.789 240.023C639.221 239.56 638.773 239.01 638.445 238.375C638.117 239.062 637.667 239.656 637.094 240.156C636.526 240.656 635.841 241.031 635.039 241.281L634.07 239.719C634.815 239.495 635.438 239.169 635.938 238.742C636.438 238.315 636.807 237.828 637.047 237.281C637.292 236.734 637.414 236.161 637.414 235.562V235.453H634.555V233.891H637.414V232.312H639.43V233.891H642.273V235.453H639.398V235.562ZM636.711 241.875H638.711V244.594H646.492V246.188H636.711V241.875ZM641.805 236.375H644.164V232.234H646.148V242.781H644.164V237.984H641.805V236.375ZM663.477 234.844C663.471 235.656 663.458 236.349 663.438 236.922C663.422 237.49 663.375 238.156 663.297 238.922C663.224 239.682 663.107 240.505 662.945 241.391L660.992 241.219C661.195 240.062 661.326 239.023 661.383 238.102C661.44 237.18 661.471 236.156 661.477 235.031H652.961V233.453H663.477V234.844ZM651.68 243.078H654.445V238.609H656.43V243.078H657.992V238.609H659.961V243.078H664.648V244.703H651.68V243.078ZM673.055 233.328C673.049 233.906 673.24 234.474 673.625 235.031C674.016 235.583 674.586 236.062 675.336 236.469C676.086 236.87 676.982 237.135 678.023 237.266L677.242 238.875C676.023 238.698 674.964 238.344 674.062 237.812C673.167 237.276 672.482 236.615 672.008 235.828C671.529 236.615 670.841 237.276 669.945 237.812C669.055 238.344 668.008 238.698 666.805 238.875L666.008 237.266C667.039 237.135 667.927 236.87 668.672 236.469C669.422 236.062 669.99 235.583 670.375 235.031C670.76 234.474 670.956 233.906 670.961 233.328V232.641H673.055V233.328ZM665.508 239.953H678.477V241.578H672.945V246.438H670.977V241.578H665.508V239.953Z" fill="#DEDEDE"/>
<line x1="642" y1="116.5" x2="980" y2="116.5" stroke="#71161B"/>
<line x1="114" y1="349.5" x2="1174" y2="349.5" stroke="#71161B"/>
<path d="M72.8633 403.191V403.748C72.8633 404.471 72.8372 405.161 72.7852 405.818C72.7396 406.469 72.6452 407.169 72.502 407.918H74.7969V409.91H67.8828V412.469H72.8828V418.797H70.3828V414.422H60.168V412.469H65.3828V409.91H58.5273V407.918H69.9824C70.1322 407.169 70.2331 406.476 70.2852 405.838C70.3372 405.2 70.3698 404.513 70.3828 403.777H60.5195V401.805H72.8633V403.191ZM91.1836 418.797H88.8203V401.023H91.1836V418.797ZM75.4414 413.602C76.6719 412.846 77.5768 411.769 78.1562 410.369C78.7422 408.963 79.0352 407.436 79.0352 405.789V404.832H76.125V402.84H84.1328V404.832H81.4375V405.789C81.431 407.397 81.7077 408.862 82.2676 410.184C82.834 411.505 83.7292 412.514 84.9531 413.211L83.4883 415.047C81.9909 414.161 80.9134 412.684 80.2559 410.613C79.9434 411.694 79.5104 412.648 78.957 413.475C78.4036 414.301 77.7331 414.956 76.9453 415.438L75.4414 413.602ZM82.8633 407.117H85.207V401.316H87.5508V417.977H85.207V409.129H82.8633V407.117ZM101.301 417H98.3711V402.859H101.301V417ZM111.359 406.902C111.301 406.342 111.057 405.906 110.627 405.594C110.204 405.281 109.634 405.125 108.918 405.125C108.43 405.125 108.01 405.197 107.658 405.34C107.313 405.477 107.049 405.669 106.867 405.916C106.685 406.163 106.594 406.443 106.594 406.756C106.594 407.225 106.796 407.596 107.199 407.869C107.609 408.136 108.163 408.348 108.859 408.504L110.129 408.816C111.438 409.116 112.469 409.604 113.225 410.281C113.98 410.952 114.361 411.844 114.367 412.957C114.367 413.816 114.149 414.565 113.713 415.203C113.277 415.841 112.648 416.333 111.828 416.678C111.008 417.023 110.031 417.195 108.898 417.195C107.753 417.202 106.76 417.029 105.92 416.678C105.08 416.326 104.426 415.805 103.957 415.115C103.488 414.425 103.241 413.582 103.215 412.586H106.066C106.112 413.283 106.385 413.816 106.887 414.188C107.395 414.552 108.052 414.734 108.859 414.734C109.367 414.734 109.813 414.66 110.197 414.51C110.581 414.36 110.878 414.152 111.086 413.885C111.294 413.618 111.398 413.309 111.398 412.957C111.398 412.501 111.2 412.14 110.803 411.873C110.412 411.6 109.803 411.362 108.977 411.16L107.434 410.789C104.868 410.158 103.586 408.875 103.586 406.941C103.586 406.102 103.814 405.359 104.27 404.715C104.732 404.064 105.367 403.559 106.174 403.201C106.988 402.843 107.909 402.664 108.938 402.664C109.966 402.664 110.874 402.843 111.662 403.201C112.45 403.559 113.062 404.061 113.498 404.705C113.934 405.343 114.159 406.076 114.172 406.902H111.359ZM116.281 417V402.859H121.32C122.733 402.859 123.954 403.143 124.982 403.709C126.018 404.269 126.809 405.079 127.355 406.141C127.902 407.195 128.176 408.452 128.176 409.91C128.176 411.375 127.899 412.641 127.346 413.709C126.799 414.77 126.005 415.584 124.963 416.15C123.928 416.717 122.694 417 121.262 417H116.281ZM121.145 414.48C122.512 414.48 123.537 414.109 124.221 413.367C124.904 412.625 125.246 411.473 125.246 409.91C125.246 408.361 124.904 407.218 124.221 406.482C123.544 405.747 122.525 405.379 121.164 405.379H119.211V414.48H121.145ZM149.523 414.324H147.16V401.023H149.523V414.324ZM134.035 410.125C134.81 409.754 135.451 409.269 135.959 408.67C136.467 408.071 136.838 407.417 137.072 406.707C137.313 405.997 137.434 405.275 137.434 404.539V402.215H139.855V404.539C139.849 405.639 140.103 406.648 140.617 407.566C141.138 408.478 141.939 409.181 143.02 409.676L141.633 411.59C140.285 410.965 139.296 409.917 138.664 408.445C138.339 409.253 137.902 409.962 137.355 410.574C136.815 411.18 136.164 411.661 135.402 412.02L134.035 410.125ZM137.473 412.762H139.973V416.492H149.973V418.484H137.473V412.762ZM141.398 405.086H143.566V401.297H145.93V413.797H143.566V407.117H141.398V405.086ZM166.535 418.836H164.074V409.305H160.949V407.293H164.074V401.023H166.535V418.836ZM152.355 402.508H160.656V404.52H154.836V407.469H160.012V409.422H154.836V412.781C156.177 412.768 157.359 412.732 158.381 412.674C159.41 412.609 160.441 412.495 161.477 412.332L161.73 414.324C160.507 414.507 159.286 414.633 158.068 414.705C156.851 414.77 155.415 414.806 153.762 414.812H152.355V402.508Z" fill="#71161B"/>
<rect x="1.5" y="387.5" width="224" height="45" rx="6.5" stroke="#71161B" stroke-width="3"/>
<path d="M341.363 403.191V403.748C341.363 404.471 341.337 405.161 341.285 405.818C341.24 406.469 341.145 407.169 341.002 407.918H343.297V409.91H336.383V412.469H341.383V418.797H338.883V414.422H328.668V412.469H333.883V409.91H327.027V407.918H338.482C338.632 407.169 338.733 406.476 338.785 405.838C338.837 405.2 338.87 404.513 338.883 403.777H329.02V401.805H341.363V403.191ZM359.684 418.797H357.32V401.023H359.684V418.797ZM343.941 413.602C345.172 412.846 346.077 411.769 346.656 410.369C347.242 408.963 347.535 407.436 347.535 405.789V404.832H344.625V402.84H352.633V404.832H349.938V405.789C349.931 407.397 350.208 408.862 350.768 410.184C351.334 411.505 352.229 412.514 353.453 413.211L351.988 415.047C350.491 414.161 349.413 412.684 348.756 410.613C348.443 411.694 348.01 412.648 347.457 413.475C346.904 414.301 346.233 414.956 345.445 415.438L343.941 413.602ZM351.363 407.117H353.707V401.316H356.051V417.977H353.707V409.129H351.363V407.117ZM377.809 411.102H370.934V412.42C372.49 412.531 373.701 412.859 374.566 413.406C375.432 413.953 375.868 414.682 375.875 415.594C375.868 416.271 375.618 416.85 375.123 417.332C374.628 417.814 373.915 418.178 372.984 418.426C372.06 418.673 370.96 418.797 369.684 418.797C368.388 418.797 367.271 418.673 366.334 418.426C365.403 418.178 364.69 417.814 364.195 417.332C363.701 416.857 363.453 416.277 363.453 415.594C363.453 414.676 363.889 413.943 364.762 413.396C365.634 412.85 366.865 412.521 368.453 412.41V411.102H361.598V409.09H377.809V411.102ZM362.32 406.473C363.375 406.382 364.293 406.199 365.074 405.926C365.855 405.652 366.477 405.327 366.939 404.949C367.408 404.572 367.721 404.168 367.877 403.738H363.082V401.785H376.344V403.738H371.51C371.66 404.168 371.965 404.575 372.428 404.959C372.896 405.337 373.525 405.662 374.312 405.936C375.107 406.202 376.044 406.382 377.125 406.473L376.246 408.426C374.599 408.27 373.215 407.902 372.096 407.322C370.976 406.736 370.172 406.001 369.684 405.115C369.202 406.001 368.401 406.736 367.281 407.322C366.161 407.908 364.781 408.276 363.141 408.426L362.32 406.473ZM365.992 415.594C365.986 416.023 366.292 416.352 366.91 416.58C367.535 416.808 368.46 416.922 369.684 416.922C370.888 416.922 371.803 416.808 372.428 416.58C373.053 416.352 373.368 416.023 373.375 415.594C373.368 414.715 372.138 414.266 369.684 414.246C368.447 414.259 367.519 414.376 366.9 414.598C366.288 414.812 365.986 415.145 365.992 415.594ZM394.391 418.797H392.008V409.891H390.504V417.977H388.141V412.889L386.734 414.754C385.185 413.94 384.068 412.557 383.385 410.604C382.753 412.85 381.643 414.448 380.055 415.398L378.512 413.484C379.788 412.768 380.706 411.71 381.266 410.311C381.832 408.904 382.118 407.273 382.125 405.418V404.852H379.117V402.859H387.262V404.852H384.547V405.418C384.547 407.104 384.83 408.602 385.396 409.91C385.969 411.219 386.884 412.199 388.141 412.85V401.277H390.504V407.859H392.008V401.023H394.391V418.797ZM411.441 414.324H409.078V401.023H411.441V414.324ZM395.953 410.125C396.728 409.754 397.369 409.269 397.877 408.67C398.385 408.071 398.756 407.417 398.99 406.707C399.231 405.997 399.352 405.275 399.352 404.539V402.215H401.773V404.539C401.767 405.639 402.021 406.648 402.535 407.566C403.056 408.478 403.857 409.181 404.938 409.676L403.551 411.59C402.203 410.965 401.214 409.917 400.582 408.445C400.257 409.253 399.82 409.962 399.273 410.574C398.733 411.18 398.082 411.661 397.32 412.02L395.953 410.125ZM399.391 412.762H401.891V416.492H411.891V418.484H399.391V412.762ZM403.316 405.086H405.484V401.297H407.848V413.797H405.484V407.117H403.316V405.086ZM428.453 418.836H425.992V409.305H422.867V407.293H425.992V401.023H428.453V418.836ZM414.273 402.508H422.574V404.52H416.754V407.469H421.93V409.422H416.754V412.781C418.095 412.768 419.277 412.732 420.299 412.674C421.327 412.609 422.359 412.495 423.395 412.332L423.648 414.324C422.424 414.507 421.204 414.633 419.986 414.705C418.769 414.77 417.333 414.806 415.68 414.812H414.273V402.508Z" fill="#71161B"/>
<rect x="266.5" y="387.5" width="224" height="45" rx="6.5" stroke="#71161B" stroke-width="3"/>
<path d="M606.246 408.25H608.57V410.32H606.246V418.797H603.727V401.023H606.246V408.25ZM591.812 413.777C593.688 413.777 595.152 413.764 596.207 413.738V412.215C595.582 412.091 595.035 411.88 594.566 411.58C594.098 411.281 593.736 410.91 593.482 410.467C593.229 410.024 593.102 409.533 593.102 408.992C593.102 408.341 593.284 407.762 593.648 407.254C594.02 406.746 594.537 406.352 595.201 406.072C595.865 405.792 596.624 405.652 597.477 405.652C598.316 405.652 599.065 405.792 599.723 406.072C600.387 406.352 600.904 406.746 601.275 407.254C601.653 407.762 601.845 408.341 601.852 408.992C601.845 409.533 601.712 410.027 601.451 410.477C601.191 410.919 600.823 411.29 600.348 411.59C599.879 411.889 599.332 412.098 598.707 412.215V413.65C600.289 413.566 601.669 413.439 602.848 413.27L603.004 415.086C601.441 415.372 599.824 415.564 598.15 415.662C596.477 415.76 594.713 415.809 592.857 415.809H592.145L591.812 413.777ZM592.164 402.996H596.207V401.121H598.707V402.996H602.711V404.949H592.164V402.996ZM595.465 408.992C595.458 409.454 595.634 409.812 595.992 410.066C596.357 410.314 596.852 410.438 597.477 410.438C598.082 410.438 598.561 410.314 598.912 410.066C599.27 409.812 599.449 409.454 599.449 408.992C599.449 408.543 599.27 408.191 598.912 407.938C598.554 407.684 598.076 407.553 597.477 407.547C596.858 407.553 596.367 407.684 596.002 407.938C595.637 408.191 595.458 408.543 595.465 408.992ZM617.887 405.711H609.293V403.738H612.379V401.512H614.84V403.738H617.887V405.711ZM609.703 410.73C609.703 409.917 609.872 409.191 610.211 408.553C610.549 407.915 611.015 407.417 611.607 407.059C612.206 406.694 612.88 406.512 613.629 406.512C614.378 406.512 615.048 406.694 615.641 407.059C616.233 407.417 616.695 407.915 617.027 408.553C617.366 409.191 617.535 409.917 617.535 410.73C617.535 411.544 617.366 412.273 617.027 412.918C616.695 413.562 616.233 414.067 615.641 414.432C615.048 414.79 614.378 414.969 613.629 414.969C612.88 414.969 612.206 414.79 611.607 414.432C611.015 414.067 610.549 413.562 610.211 412.918C609.872 412.273 609.703 411.544 609.703 410.73ZM611.891 410.73C611.891 411.401 612.047 411.925 612.359 412.303C612.678 412.674 613.102 412.859 613.629 412.859C614.137 412.859 614.547 412.671 614.859 412.293C615.178 411.915 615.341 411.395 615.348 410.73C615.348 410.294 615.273 409.913 615.123 409.588C614.973 409.262 614.768 409.015 614.508 408.846C614.254 408.67 613.961 408.582 613.629 408.582C613.108 408.582 612.688 408.774 612.369 409.158C612.05 409.542 611.891 410.066 611.891 410.73ZM618.551 401.375H620.875V408.25H622.32V401.023H624.684V418.797H622.32V410.242H620.875V418.035H618.551V401.375ZM642.867 416.727H626.598V414.715H633.473V410.75H635.973V414.715H642.867V416.727ZM627.262 409.559C628.453 409.363 629.498 409.008 630.396 408.494C631.295 407.98 631.998 407.365 632.506 406.648C633.014 405.932 633.303 405.177 633.375 404.383H627.945V402.371H641.441V404.383H636.031C636.096 405.177 636.383 405.929 636.891 406.639C637.405 407.342 638.121 407.944 639.039 408.445C639.957 408.94 641.031 409.279 642.262 409.461L641.285 411.434C639.742 411.16 638.404 410.662 637.271 409.939C636.145 409.217 635.292 408.325 634.713 407.264C634.146 408.344 633.303 409.259 632.184 410.008C631.07 410.75 629.755 411.258 628.238 411.531L627.262 409.559ZM658.863 411.57H656.383V407.371H653.609V405.359H656.383V401.023H658.863V411.57ZM643.766 409.617C644.697 409.305 645.481 408.859 646.119 408.279C646.757 407.7 647.236 407.049 647.555 406.326C647.874 405.604 648.043 404.858 648.062 404.09H644.488V402.098H654.137V404.09H650.602C650.621 404.806 650.781 405.496 651.08 406.16C651.38 406.818 651.832 407.41 652.438 407.938C653.049 408.465 653.798 408.875 654.684 409.168L653.453 411.121C652.503 410.815 651.682 410.359 650.992 409.754C650.309 409.142 649.768 408.426 649.371 407.605C648.967 408.536 648.404 409.347 647.682 410.037C646.959 410.721 646.083 411.238 645.055 411.59L643.766 409.617ZM646.676 415.398C646.676 414.689 646.92 414.077 647.408 413.562C647.903 413.042 648.609 412.645 649.527 412.371C650.445 412.098 651.533 411.961 652.789 411.961C654.052 411.961 655.143 412.098 656.061 412.371C656.979 412.645 657.685 413.038 658.18 413.553C658.674 414.067 658.922 414.682 658.922 415.398C658.922 416.115 658.674 416.727 658.18 417.234C657.685 417.749 656.979 418.139 656.061 418.406C655.143 418.68 654.052 418.816 652.789 418.816C651.533 418.816 650.445 418.68 649.527 418.406C648.609 418.139 647.903 417.749 647.408 417.234C646.92 416.72 646.676 416.108 646.676 415.398ZM649.156 415.398C649.156 415.9 649.465 416.281 650.084 416.541C650.702 416.795 651.604 416.922 652.789 416.922C653.98 416.922 654.885 416.795 655.504 416.541C656.122 416.287 656.435 415.906 656.441 415.398C656.435 414.897 656.126 414.52 655.514 414.266C654.908 414.005 654.023 413.875 652.857 413.875C650.39 413.875 649.156 414.383 649.156 415.398ZM676.441 414.324H674.078V401.023H676.441V414.324ZM660.953 410.125C661.728 409.754 662.369 409.269 662.877 408.67C663.385 408.071 663.756 407.417 663.99 406.707C664.231 405.997 664.352 405.275 664.352 404.539V402.215H666.773V404.539C666.767 405.639 667.021 406.648 667.535 407.566C668.056 408.478 668.857 409.181 669.938 409.676L668.551 411.59C667.203 410.965 666.214 409.917 665.582 408.445C665.257 409.253 664.82 409.962 664.273 410.574C663.733 411.18 663.082 411.661 662.32 412.02L660.953 410.125ZM664.391 412.762H666.891V416.492H676.891V418.484H664.391V412.762ZM668.316 405.086H670.484V401.297H672.848V413.797H670.484V407.117H668.316V405.086ZM693.453 418.836H690.992V409.305H687.867V407.293H690.992V401.023H693.453V418.836ZM679.273 402.508H687.574V404.52H681.754V407.469H686.93V409.422H681.754V412.781C683.095 412.768 684.277 412.732 685.299 412.674C686.327 412.609 687.359 412.495 688.395 412.332L688.648 414.324C687.424 414.507 686.204 414.633 684.986 414.705C683.769 414.77 682.333 414.806 680.68 414.812H679.273V402.508Z" fill="#71161B"/>
<rect x="531.5" y="387.5" width="224" height="45" rx="6.5" stroke="#71161B" stroke-width="3"/>
<path d="M853.863 403.191V403.748C853.863 404.471 853.837 405.161 853.785 405.818C853.74 406.469 853.645 407.169 853.502 407.918H855.797V409.91H848.883V412.469H853.883V418.797H851.383V414.422H841.168V412.469H846.383V409.91H839.527V407.918H850.982C851.132 407.169 851.233 406.476 851.285 405.838C851.337 405.2 851.37 404.513 851.383 403.777H841.52V401.805H853.863V403.191ZM872.184 418.797H869.82V401.023H872.184V418.797ZM856.441 413.602C857.672 412.846 858.577 411.769 859.156 410.369C859.742 408.963 860.035 407.436 860.035 405.789V404.832H857.125V402.84H865.133V404.832H862.438V405.789C862.431 407.397 862.708 408.862 863.268 410.184C863.834 411.505 864.729 412.514 865.953 413.211L864.488 415.047C862.991 414.161 861.913 412.684 861.256 410.613C860.943 411.694 860.51 412.648 859.957 413.475C859.404 414.301 858.733 414.956 857.945 415.438L856.441 413.602ZM863.863 407.117H866.207V401.316H868.551V417.977H866.207V409.129H863.863V407.117ZM877.359 404.207H880.855V401.922H883.316V405.086H886.598V401.023H889.078V410.75H886.598V407.117H883.316V410.242H874.859V401.922H877.359V404.207ZM877.223 411.492H879.684V413.133H886.598V411.492H889.078V418.562H877.223V411.492ZM880.855 408.25V406.121H877.359V408.25H880.855ZM886.598 416.57V415.047H879.684V416.57H886.598ZM907.633 410.711H903.629V411.746H905.68V415.945H895.719V416.98H906.207V418.68H893.238V414.363H903.219V413.465H893.219V411.746H895.387V410.711H891.363V408.895H907.633V410.711ZM893.355 401.336H905.66V405.496H895.875V406.375H905.973V408.074H893.395V403.914H903.16V403.016H893.355V401.336ZM901.129 411.746V410.711H897.867V411.746H901.129ZM915.328 404.07C915.328 404.865 915.475 405.623 915.768 406.346C916.061 407.068 916.51 407.716 917.115 408.289C917.721 408.855 918.479 409.292 919.391 409.598L918.043 411.551C917.125 411.212 916.334 410.73 915.67 410.105C915.012 409.48 914.492 408.745 914.107 407.898C913.717 408.855 913.17 409.682 912.467 410.379C911.764 411.069 910.908 411.596 909.898 411.961L908.551 410.008C909.508 409.695 910.302 409.236 910.934 408.631C911.572 408.025 912.04 407.332 912.34 406.551C912.646 405.763 912.802 404.93 912.809 404.051V402.117H915.328V404.07ZM911.812 412.781H914.332V416.492H924.02V418.484H911.812V412.781ZM917.828 404.812H921.168V401.043H923.648V414.168H921.168V406.824H917.828V404.812ZM940.699 404.305C940.693 405.32 940.676 406.186 940.65 406.902C940.631 407.612 940.572 408.445 940.475 409.402C940.383 410.353 940.237 411.382 940.035 412.488L937.594 412.273C937.848 410.828 938.01 409.529 938.082 408.377C938.154 407.225 938.193 405.945 938.199 404.539H927.555V402.566H940.699V404.305ZM925.953 414.598H929.41V409.012H931.891V414.598H933.844V409.012H936.305V414.598H942.164V416.629H925.953V414.598ZM958.512 414.324H956.148V401.023H958.512V414.324ZM943.023 410.125C943.798 409.754 944.439 409.269 944.947 408.67C945.455 408.071 945.826 407.417 946.061 406.707C946.301 405.997 946.422 405.275 946.422 404.539V402.215H948.844V404.539C948.837 405.639 949.091 406.648 949.605 407.566C950.126 408.478 950.927 409.181 952.008 409.676L950.621 411.59C949.273 410.965 948.284 409.917 947.652 408.445C947.327 409.253 946.891 409.962 946.344 410.574C945.803 411.18 945.152 411.661 944.391 412.02L943.023 410.125ZM946.461 412.762H948.961V416.492H958.961V418.484H946.461V412.762ZM950.387 405.086H952.555V401.297H954.918V413.797H952.555V407.117H950.387V405.086ZM975.523 418.836H973.062V409.305H969.938V407.293H973.062V401.023H975.523V418.836ZM961.344 402.508H969.645V404.52H963.824V407.469H969V409.422H963.824V412.781C965.165 412.768 966.347 412.732 967.369 412.674C968.398 412.609 969.43 412.495 970.465 412.332L970.719 414.324C969.495 414.507 968.274 414.633 967.057 414.705C965.839 414.77 964.404 414.806 962.75 414.812H961.344V402.508Z" fill="#71161B"/>
<rect x="796.5" y="387.5" width="224" height="45" rx="6.5" stroke="#71161B" stroke-width="3"/>
<path d="M1153.77 404.305C1153.77 405.32 1153.75 406.186 1153.72 406.902C1153.71 407.612 1153.65 408.445 1153.55 409.402C1153.46 410.353 1153.31 411.382 1153.11 412.488L1150.67 412.273C1150.92 410.828 1151.08 409.529 1151.16 408.377C1151.23 407.225 1151.27 405.945 1151.27 404.539H1140.63V402.566H1153.77V404.305ZM1139.03 414.598H1142.48V409.012H1144.96V414.598H1146.92V409.012H1149.38V414.598H1155.24V416.629H1139.03V414.598ZM1172.52 411.297H1168.62V412.957H1170.55V418.797H1168.07V414.91H1158.11V412.957H1160.14V411.297H1156.31V409.324H1172.52V411.297ZM1157.93 404.871C1157.93 404.155 1158.2 403.533 1158.72 403.006C1159.26 402.479 1160.01 402.075 1160.99 401.795C1161.97 401.515 1163.12 401.375 1164.42 401.375C1165.71 401.375 1166.85 401.515 1167.82 401.795C1168.79 402.075 1169.55 402.479 1170.08 403.006C1170.62 403.533 1170.88 404.155 1170.88 404.871C1170.88 405.587 1170.62 406.212 1170.08 406.746C1169.55 407.273 1168.79 407.68 1167.82 407.967C1166.85 408.247 1165.71 408.387 1164.42 408.387C1163.12 408.387 1161.97 408.247 1160.99 407.967C1160.01 407.68 1159.26 407.273 1158.72 406.746C1158.2 406.212 1157.93 405.587 1157.93 404.871ZM1160.53 404.871C1160.52 405.392 1160.85 405.786 1161.52 406.053C1162.19 406.32 1163.15 406.453 1164.42 406.453C1165.66 406.453 1166.62 406.32 1167.29 406.053C1167.97 405.786 1168.3 405.392 1168.3 404.871C1168.3 404.37 1167.97 403.986 1167.31 403.719C1166.64 403.445 1165.7 403.309 1164.49 403.309C1163.2 403.309 1162.22 403.442 1161.54 403.709C1160.86 403.969 1160.52 404.357 1160.53 404.871ZM1166.16 412.957V411.297H1162.66V412.957H1166.16ZM1188.87 414.324H1186.51V401.023H1188.87V414.324ZM1173.38 410.125C1174.16 409.754 1174.8 409.269 1175.31 408.67C1175.81 408.071 1176.19 407.417 1176.42 406.707C1176.66 405.997 1176.78 405.275 1176.78 404.539V402.215H1179.2V404.539C1179.2 405.639 1179.45 406.648 1179.96 407.566C1180.49 408.478 1181.29 409.181 1182.37 409.676L1180.98 411.59C1179.63 410.965 1178.64 409.917 1178.01 408.445C1177.69 409.253 1177.25 409.962 1176.7 410.574C1176.16 411.18 1175.51 411.661 1174.75 412.02L1173.38 410.125ZM1176.82 412.762H1179.32V416.492H1189.32V418.484H1176.82V412.762ZM1180.75 405.086H1182.91V401.297H1185.28V413.797H1182.91V407.117H1180.75V405.086ZM1205.88 418.836H1203.42V409.305H1200.3V407.293H1203.42V401.023H1205.88V418.836ZM1191.7 402.508H1200V404.52H1194.18V407.469H1199.36V409.422H1194.18V412.781C1195.52 412.768 1196.71 412.732 1197.73 412.674C1198.76 412.609 1199.79 412.495 1200.82 412.332L1201.08 414.324C1199.85 414.507 1198.63 414.633 1197.42 414.705C1196.2 414.77 1194.76 414.806 1193.11 414.812H1191.7V402.508Z" fill="#71161B"/>
<rect x="1061.5" y="387.5" width="224" height="45" rx="6.5" stroke="#71161B" stroke-width="3"/>
</svg>
