<svg width="606" height="679" viewBox="0 0 606 679" fill="none" xmlns="http://www.w3.org/2000/svg">
<circle cx="303" cy="376" r="240" stroke="#71161B" stroke-width="4"/>
<circle cx="526" cy="366" r="80" fill="#666666"/>
<path d="M522.844 359.387V359.934C522.844 360.715 522.814 361.47 522.756 362.199C522.697 362.922 522.577 363.71 522.395 364.562H524.855V366.066H508.859V364.562H520.49C520.712 363.625 520.852 362.782 520.91 362.033C520.975 361.278 521.008 360.454 521.008 359.562H510.871V358.059H522.844V359.387ZM510.676 371.32C510.676 370.617 510.923 370.015 511.418 369.514C511.913 369.006 512.622 368.622 513.547 368.361C514.471 368.094 515.565 367.961 516.828 367.961C518.085 367.961 519.172 368.094 520.09 368.361C521.014 368.622 521.724 369.006 522.219 369.514C522.714 370.015 522.961 370.617 522.961 371.32C522.961 372.017 522.714 372.609 522.219 373.098C521.724 373.592 521.018 373.97 520.1 374.23C519.182 374.491 518.091 374.621 516.828 374.621C515.559 374.615 514.462 374.481 513.537 374.221C512.619 373.967 511.913 373.592 511.418 373.098C510.923 372.609 510.676 372.017 510.676 371.32ZM512.551 371.32C512.544 371.887 512.915 372.329 513.664 372.648C514.413 372.961 515.467 373.124 516.828 373.137C518.169 373.124 519.214 372.961 519.963 372.648C520.718 372.329 521.099 371.887 521.105 371.32C521.099 370.721 520.725 370.262 519.982 369.943C519.247 369.624 518.215 369.465 516.887 369.465C515.493 369.465 514.419 369.624 513.664 369.943C512.915 370.256 512.544 370.715 512.551 371.32ZM541.203 359.66H526.965V358.312H533.195V356.906H535.051V358.312H541.203V359.66ZM526.145 365.578H542.102V366.965H537.922V368.215H540.09V371.906H529.953V373.137H540.578V374.484H528.078V370.637H538.195V369.523H528.059V368.215H530.285V366.965H526.145V365.578ZM528.371 362.512C528.365 361.757 528.846 361.193 529.816 360.822C530.786 360.451 532.219 360.272 534.113 360.285C536.001 360.272 537.43 360.454 538.4 360.832C539.377 361.203 539.862 361.763 539.855 362.512C539.862 364.009 537.948 364.758 534.113 364.758C530.279 364.758 528.365 364.009 528.371 362.512ZM530.344 362.512C530.337 362.857 530.643 363.114 531.262 363.283C531.88 363.452 532.831 363.54 534.113 363.547C535.389 363.54 536.34 363.452 536.965 363.283C537.596 363.114 537.915 362.857 537.922 362.512C537.902 361.848 536.669 361.516 534.221 361.516C532.893 361.516 531.913 361.597 531.281 361.76C530.65 361.923 530.337 362.173 530.344 362.512ZM536.047 368.215V366.965H532.141V368.215H536.047Z" fill="white"/>
<circle cx="303" cy="376" r="103" fill="#71161B"/>
<path d="M298.309 374.331H301.473V376.206H298.309V386.542H296.083V365.542H298.309V374.331ZM281.598 380.823C283.981 380.823 285.841 380.804 287.177 380.765V378.632C286.388 378.515 285.696 378.284 285.102 377.941C284.516 377.597 284.063 377.159 283.743 376.628C283.43 376.089 283.278 375.487 283.286 374.823C283.278 374.042 283.481 373.355 283.895 372.761C284.317 372.167 284.907 371.706 285.665 371.378C286.43 371.05 287.309 370.886 288.302 370.886C289.286 370.886 290.161 371.05 290.927 371.378C291.692 371.706 292.29 372.167 292.72 372.761C293.149 373.355 293.364 374.042 293.364 374.823C293.364 375.487 293.2 376.089 292.872 376.628C292.544 377.159 292.079 377.601 291.477 377.952C290.884 378.296 290.192 378.523 289.403 378.632V380.683C291.466 380.581 293.294 380.417 294.888 380.191L295.028 381.831C293.13 382.167 291.165 382.394 289.134 382.511C287.11 382.62 284.977 382.675 282.735 382.675H281.95L281.598 380.823ZM281.997 368.027H287.177V365.589H289.403V368.027H294.583V369.808H281.997V368.027ZM285.372 374.823C285.372 375.261 285.493 375.644 285.735 375.972C285.977 376.292 286.313 376.542 286.743 376.722C287.18 376.894 287.688 376.98 288.266 376.98C289.165 376.98 289.88 376.788 290.411 376.405C290.95 376.023 291.223 375.495 291.231 374.823C291.231 374.378 291.106 373.991 290.856 373.663C290.614 373.327 290.27 373.07 289.825 372.89C289.388 372.71 288.88 372.62 288.302 372.62C287.716 372.62 287.2 372.71 286.755 372.89C286.317 373.07 285.977 373.327 285.735 373.663C285.493 373.991 285.372 374.378 285.372 374.823ZM314.364 368.87H312.348V375.222C313.309 375.144 314.169 375.058 314.927 374.964L315.02 376.652C313.216 376.933 311.298 377.12 309.266 377.214C307.235 377.308 305.114 377.355 302.903 377.355L302.622 375.503C303.723 375.503 304.575 375.499 305.177 375.491V368.87H303.208V367.066H314.364V368.87ZM305.973 382.698C305.973 381.886 306.255 381.195 306.817 380.624C307.38 380.046 308.192 379.609 309.255 379.312C310.325 379.007 311.598 378.855 313.075 378.855C314.544 378.855 315.809 379.007 316.872 379.312C317.942 379.609 318.759 380.046 319.321 380.624C319.891 381.195 320.177 381.886 320.177 382.698C320.177 383.495 319.891 384.179 319.321 384.749C318.751 385.32 317.934 385.753 316.872 386.05C315.809 386.347 314.544 386.495 313.075 386.495C311.598 386.495 310.325 386.347 309.255 386.05C308.192 385.753 307.38 385.32 306.817 384.749C306.255 384.179 305.973 383.495 305.973 382.698ZM307.333 375.456C308.286 375.433 309.247 375.398 310.216 375.351V368.87H307.333V375.456ZM308.177 382.698C308.169 383.355 308.595 383.866 309.454 384.234C310.313 384.593 311.52 384.777 313.075 384.784C314.622 384.777 315.821 384.593 316.673 384.234C317.532 383.866 317.966 383.355 317.973 382.698C317.966 382.027 317.54 381.507 316.696 381.14C315.852 380.773 314.669 380.589 313.145 380.589C311.559 380.589 310.333 380.773 309.466 381.14C308.598 381.499 308.169 382.019 308.177 382.698ZM314.669 373.019H317.88V370.98H314.669V369.198H317.88V365.542H320.106V378.456H317.88V374.8H314.669V373.019Z" fill="white"/>
<circle cx="303" cy="153" r="80" fill="#666666"/>
<path d="M299.57 151.484H302.207V153.047H299.57V161.66H297.715V144.16H299.57V151.484ZM285.645 156.895C287.63 156.895 289.18 156.878 290.293 156.846V155.068C289.635 154.971 289.059 154.779 288.564 154.492C288.076 154.206 287.699 153.841 287.432 153.398C287.171 152.949 287.044 152.448 287.051 151.895C287.044 151.243 287.214 150.671 287.559 150.176C287.91 149.681 288.402 149.297 289.033 149.023C289.671 148.75 290.404 148.613 291.23 148.613C292.051 148.613 292.78 148.75 293.418 149.023C294.056 149.297 294.554 149.681 294.912 150.176C295.27 150.671 295.449 151.243 295.449 151.895C295.449 152.448 295.312 152.949 295.039 153.398C294.766 153.841 294.378 154.209 293.877 154.502C293.382 154.788 292.806 154.977 292.148 155.068V156.777C293.867 156.693 295.391 156.556 296.719 156.367L296.836 157.734C295.254 158.014 293.617 158.203 291.924 158.301C290.238 158.392 288.46 158.438 286.592 158.438H285.938L285.645 156.895ZM285.977 146.23H290.293V144.199H292.148V146.23H296.465V147.715H285.977V146.23ZM288.789 151.895C288.789 152.259 288.89 152.578 289.092 152.852C289.294 153.118 289.574 153.327 289.932 153.477C290.296 153.62 290.719 153.691 291.201 153.691C291.95 153.691 292.546 153.532 292.988 153.213C293.438 152.894 293.665 152.454 293.672 151.895C293.672 151.523 293.568 151.201 293.359 150.928C293.158 150.648 292.871 150.433 292.5 150.283C292.135 150.133 291.712 150.059 291.23 150.059C290.742 150.059 290.312 150.133 289.941 150.283C289.577 150.433 289.294 150.648 289.092 150.928C288.89 151.201 288.789 151.523 288.789 151.895ZM311.797 148.555H303.105V147.051H306.543V144.668H308.379V147.051H311.797V148.555ZM303.672 153.633C303.672 152.858 303.831 152.165 304.15 151.553C304.476 150.941 304.928 150.465 305.508 150.127C306.087 149.782 306.738 149.609 307.461 149.609C308.19 149.609 308.841 149.782 309.414 150.127C309.993 150.465 310.446 150.941 310.771 151.553C311.104 152.165 311.27 152.858 311.27 153.633C311.27 154.421 311.104 155.124 310.771 155.742C310.446 156.361 309.993 156.842 309.414 157.188C308.841 157.526 308.19 157.695 307.461 157.695C306.738 157.695 306.087 157.526 305.508 157.188C304.928 156.842 304.476 156.361 304.15 155.742C303.831 155.124 303.672 154.421 303.672 153.633ZM305.312 153.633C305.312 154.121 305.404 154.554 305.586 154.932C305.768 155.303 306.022 155.592 306.348 155.801C306.673 156.009 307.044 156.113 307.461 156.113C307.878 156.113 308.249 156.009 308.574 155.801C308.906 155.592 309.163 155.303 309.346 154.932C309.535 154.554 309.629 154.121 309.629 153.633C309.629 153.158 309.535 152.731 309.346 152.354C309.163 151.976 308.906 151.683 308.574 151.475C308.249 151.26 307.878 151.152 307.461 151.152C307.044 151.152 306.673 151.26 306.348 151.475C306.022 151.683 305.768 151.976 305.586 152.354C305.404 152.731 305.312 153.158 305.312 153.633ZM312.598 144.551H314.355V151.445H316.367V144.16H318.125V161.66H316.367V152.969H314.355V160.84H312.598V144.551Z" fill="white"/>
<circle cx="303" cy="599" r="80" fill="#666666"/>
<path d="M300.332 607.66H298.477V590.16H300.332V607.66ZM285.957 602.895C288.066 602.882 289.668 602.862 290.762 602.836V601.078C290.085 600.987 289.492 600.798 288.984 600.512C288.477 600.225 288.086 599.857 287.812 599.408C287.539 598.959 287.402 598.454 287.402 597.895C287.402 597.243 287.578 596.671 287.93 596.176C288.281 595.681 288.779 595.297 289.424 595.023C290.068 594.75 290.807 594.613 291.641 594.613C292.487 594.613 293.236 594.75 293.887 595.023C294.538 595.297 295.046 595.681 295.41 596.176C295.775 596.671 295.957 597.243 295.957 597.895C295.957 598.448 295.817 598.949 295.537 599.398C295.264 599.841 294.873 600.206 294.365 600.492C293.864 600.779 293.275 600.971 292.598 601.068V602.768C294.473 602.676 296.074 602.543 297.402 602.367L297.539 603.754C295.905 604.027 294.206 604.21 292.441 604.301C290.677 604.392 288.812 604.438 286.846 604.438H286.211L285.957 602.895ZM286.328 592.25H290.762V590.199H292.617V592.25H297.012V593.734H286.328V592.25ZM289.16 597.895C289.154 598.259 289.251 598.578 289.453 598.852C289.661 599.118 289.951 599.327 290.322 599.477C290.7 599.62 291.13 599.691 291.611 599.691C292.119 599.691 292.565 599.62 292.949 599.477C293.34 599.333 293.643 599.128 293.857 598.861C294.072 598.588 294.18 598.266 294.18 597.895C294.18 597.523 294.072 597.201 293.857 596.928C293.649 596.648 293.353 596.433 292.969 596.283C292.585 596.133 292.142 596.059 291.641 596.059C291.152 596.059 290.719 596.133 290.342 596.283C289.964 596.433 289.671 596.648 289.463 596.928C289.255 597.201 289.154 597.523 289.16 597.895ZM319.102 600.59H303.145V599.086H310.195V597.191H305.234V590.57H307.07V592.465H315.176V590.57H317.031V597.191H312.031V599.086H319.102V600.59ZM304.922 602.152H317.148V607.66H315.273V603.637H304.922V602.152ZM315.176 595.707V593.852H307.07V595.707H315.176Z" fill="white"/>
<circle cx="80" cy="367" r="80" fill="#666666"/>
<path d="M77.4492 371.52H75.5938V367.906H72.7812V366.422H75.5938V364.254H72.7812V362.73H75.5938V358.18H77.4492V371.52ZM62.8789 360.211H66.9805V358.16H68.8164V360.211H72.7227V361.715H62.8789V360.211ZM63.8555 365.914C63.8555 365.257 64.0247 364.674 64.3633 364.166C64.7083 363.652 65.1836 363.255 65.7891 362.975C66.401 362.695 67.0977 362.555 67.8789 362.555C68.6536 362.555 69.347 362.695 69.959 362.975C70.571 363.255 71.0495 363.652 71.3945 364.166C71.7461 364.674 71.9219 365.257 71.9219 365.914C71.9219 366.578 71.7461 367.167 71.3945 367.682C71.0495 368.189 70.571 368.587 69.959 368.873C69.347 369.153 68.6536 369.293 67.8789 369.293C67.0977 369.293 66.401 369.153 65.7891 368.873C65.1836 368.587 64.7083 368.189 64.3633 367.682C64.0247 367.167 63.8555 366.578 63.8555 365.914ZM65.5938 365.914C65.5938 366.305 65.6882 366.646 65.877 366.939C66.0658 367.232 66.3327 367.457 66.6777 367.613C67.0293 367.77 67.4297 367.848 67.8789 367.848C68.3216 367.848 68.7155 367.77 69.0605 367.613C69.4121 367.457 69.6855 367.232 69.8809 366.939C70.0762 366.646 70.1771 366.305 70.1836 365.914C70.1771 365.536 70.0762 365.204 69.8809 364.918C69.6855 364.632 69.4121 364.41 69.0605 364.254C68.7155 364.091 68.3216 364.007 67.8789 364C67.4297 364.007 67.0293 364.091 66.6777 364.254C66.3327 364.41 66.0658 364.632 65.877 364.918C65.6882 365.204 65.5938 365.536 65.5938 365.914ZM66.0234 370.348H67.8984V373.785H77.8398V375.289H66.0234V370.348ZM94.6562 370.992H92.8008V358.18H94.6562V370.992ZM80.2422 367.047C81.1406 366.715 81.9186 366.233 82.5762 365.602C83.2337 364.97 83.735 364.244 84.0801 363.424C84.4316 362.604 84.6107 361.754 84.6172 360.875V359.137H86.5117V360.875C86.5117 361.728 86.6842 362.542 87.0293 363.316C87.3743 364.091 87.8724 364.775 88.5234 365.367C89.1745 365.96 89.9427 366.409 90.8281 366.715L89.8711 368.199C88.8685 367.828 87.9993 367.288 87.2637 366.578C86.5345 365.862 85.9714 365.025 85.5742 364.068C85.1836 365.097 84.6139 365.999 83.8652 366.773C83.123 367.542 82.2474 368.121 81.2383 368.512L80.2422 367.047ZM83.2109 369.781H85.0859V373.785H95.1836V375.289H83.2109V369.781Z" fill="white"/>
<path d="M249 42.16L245.04 18.4C244.88 17.4133 244.333 16.64 243.4 16.08L243.24 16L243.32 15.6H252.72L252.68 16L252.16 16.2C251.147 16.6533 250.72 17.3867 250.88 18.4L253.48 36.4L262.56 18.28C263.067 17.2133 262.773 16.4933 261.68 16.12L261.28 16L261.36 15.6H266.8L266.72 16L266.28 16.12C265.08 16.5467 264.187 17.3333 263.6 18.48L251.56 42.16H249ZM264.182 42L264.302 41.6L265.502 41.08C266.142 40.8133 266.528 40.3333 266.662 39.64L268.862 28C269.128 26.5067 269.422 24.8667 269.742 23.08C270.062 21.2933 270.355 19.6133 270.622 18.04C270.755 17.24 270.435 16.6667 269.662 16.32L268.862 16L268.982 15.6H278.622L278.542 16L277.382 16.44C276.742 16.68 276.328 17.1733 276.142 17.92L273.942 29.56C273.675 31.0533 273.382 32.6933 273.062 34.48C272.742 36.2667 272.435 37.9467 272.142 39.52C272.062 40.2933 272.368 40.8533 273.062 41.2L273.982 41.6L273.862 42H264.182ZM285.201 42.72C283.814 42.72 282.441 42.5467 281.081 42.2C279.747 41.8533 278.614 41.36 277.681 40.72L278.641 34.84H279.041L280.201 38.12C280.654 39.4267 281.241 40.3867 281.961 41C282.707 41.6133 283.787 41.92 285.201 41.92C286.774 41.92 288.014 41.4533 288.921 40.52C289.854 39.5867 290.321 38.4667 290.321 37.16C290.321 36.4667 290.214 35.8133 290.001 35.2C289.787 34.5867 289.374 33.9467 288.761 33.28C288.174 32.6133 287.294 31.8667 286.121 31.04C284.681 30 283.574 29.0267 282.801 28.12C282.027 27.2133 281.494 26.32 281.201 25.44C280.907 24.56 280.761 23.6667 280.761 22.76C280.761 21.1867 281.161 19.8133 281.961 18.64C282.761 17.44 283.867 16.52 285.281 15.88C286.721 15.2133 288.347 14.88 290.161 14.88C291.494 14.88 292.814 15.0667 294.121 15.44C295.454 15.7867 296.561 16.2667 297.441 16.88L296.321 22.48H295.921L295.121 19.84C294.694 18.4267 294.134 17.3867 293.441 16.72C292.747 16.0267 291.694 15.68 290.281 15.68C288.894 15.68 287.721 16.08 286.761 16.88C285.827 17.68 285.361 18.7467 285.361 20.08C285.361 21.2267 285.667 22.2667 286.281 23.2C286.894 24.1333 288.001 25.1733 289.601 26.32C291.707 27.8667 293.161 29.2667 293.961 30.52C294.787 31.7467 295.201 33.08 295.201 34.52C295.201 36.2267 294.774 37.6933 293.921 38.92C293.067 40.12 291.881 41.0533 290.361 41.72C288.867 42.3867 287.147 42.72 285.201 42.72ZM296.408 42L296.528 41.6L297.728 41.08C298.368 40.8133 298.755 40.3333 298.888 39.64L301.088 28C301.355 26.5067 301.648 24.8667 301.968 23.08C302.288 21.2933 302.581 19.6133 302.848 18.04C302.981 17.24 302.661 16.6667 301.888 16.32L301.088 16L301.208 15.6H310.848L310.768 16L309.608 16.44C308.968 16.68 308.555 17.1733 308.368 17.92L306.168 29.56C305.901 31.0533 305.608 32.6933 305.288 34.48C304.968 36.2667 304.661 37.9467 304.368 39.52C304.288 40.2933 304.595 40.8533 305.288 41.2L306.208 41.6L306.088 42H296.408ZM320.554 42.68C318.634 42.68 316.927 42.2667 315.434 41.44C313.94 40.6133 312.767 39.3867 311.914 37.76C311.06 36.1333 310.634 34.1067 310.634 31.68C310.634 29.4667 310.98 27.36 311.674 25.36C312.367 23.36 313.354 21.5733 314.634 20C315.94 18.4267 317.5 17.1867 319.314 16.28C321.154 15.3733 323.194 14.92 325.434 14.92C327.434 14.92 329.18 15.3733 330.674 16.28C332.167 17.16 333.327 18.4267 334.154 20.08C334.98 21.7067 335.394 23.64 335.394 25.88C335.394 28.12 335.047 30.2533 334.354 32.28C333.66 34.3067 332.66 36.1067 331.354 37.68C330.074 39.2267 328.514 40.4533 326.674 41.36C324.86 42.24 322.82 42.68 320.554 42.68ZM320.954 41.88C322.154 41.88 323.287 41.44 324.354 40.56C325.42 39.6533 326.354 38.4267 327.154 36.88C327.98 35.3067 328.62 33.4933 329.074 31.44C329.554 29.36 329.794 27.16 329.794 24.84C329.794 21.9067 329.447 19.6533 328.754 18.08C328.06 16.5067 326.887 15.72 325.234 15.72C324.007 15.72 322.847 16.16 321.754 17.04C320.66 17.92 319.7 19.1333 318.874 20.68C318.047 22.2267 317.394 24.0267 316.914 26.08C316.434 28.1067 316.194 30.28 316.194 32.6C316.194 35.5867 316.567 37.88 317.314 39.48C318.087 41.08 319.3 41.88 320.954 41.88ZM353.52 42.16L342.32 20.6L338.8 39.08C338.587 40.2 339.013 40.96 340.08 41.36L340.76 41.6L340.72 42H334.92L335 41.6L335.88 41.28C336.413 41.0667 336.827 40.8 337.12 40.48C337.44 40.1333 337.653 39.6667 337.76 39.08L341.6 18.8L341.12 17.8C340.773 17.08 340.24 16.52 339.52 16.12L339.4 16L339.48 15.6H345.64L355.96 35.04L359.12 18.32C359.307 17.3067 358.92 16.6133 357.96 16.24L357.32 16L357.4 15.6H362.84L362.8 16L361.96 16.28C361.453 16.4667 361.04 16.7333 360.72 17.08C360.427 17.4 360.227 17.84 360.12 18.4L355.64 42.16H353.52Z" fill="black"/>
</svg>
