<svg width="20" height="20" viewBox="0 0 20 20" fill="none" xmlns="http://www.w3.org/2000/svg">
<path d="M7.50016 14.1666H10.0002M3.3335 3.33329V16.6666C3.3335 17.1087 3.50909 17.5326 3.82165 17.8451C4.13421 18.1577 4.55814 18.3333 5.00016 18.3333H15.0002C15.4422 18.3333 15.8661 18.1577 16.1787 17.8451C16.4912 17.5326 16.6668 17.1087 16.6668 16.6666V6.95163C16.6668 6.72959 16.6224 6.5098 16.5363 6.30516C16.4501 6.10052 16.3239 5.91516 16.1652 5.75996L12.4652 2.14163C12.1538 1.83717 11.7356 1.66668 11.3002 1.66663H5.00016C4.55814 1.66663 4.13421 1.84222 3.82165 2.15478C3.50909 2.46734 3.3335 2.89127 3.3335 3.33329V3.33329ZM7.50016 10.8333H12.5002H7.50016Z" stroke="#71161B" stroke-width="2" stroke-linecap="round" stroke-linejoin="round"/>
<path d="M11.667 1.66663V4.99996C11.667 5.44199 11.8426 5.86591 12.1551 6.17847C12.4677 6.49103 12.8916 6.66663 13.3337 6.66663H16.667" stroke="#71161B" stroke-width="2" stroke-linejoin="round"/>
</svg>
