<svg width="1438" height="385" viewBox="0 0 1438 385" fill="none" xmlns="http://www.w3.org/2000/svg">
<rect width="1440" height="385" transform="translate(-2)" fill="#2C2C2C"/>
<ellipse cx="717.5" cy="193" rx="254.5" ry="116" fill="url(#paint0_radial_261_523)" fill-opacity="0.8"/>
<path d="M90.6445 71.75H93.8984V74.6484H90.6445V86.5156H87.1172V61.6328H90.6445V71.75ZM70.4375 79.4883C73.0625 79.4883 75.1133 79.4701 76.5898 79.4336V77.3008C75.7148 77.1276 74.9492 76.8314 74.293 76.4121C73.6367 75.9928 73.1309 75.4733 72.7754 74.8535C72.4199 74.2337 72.2422 73.5456 72.2422 72.7891C72.2422 71.8776 72.4974 71.0664 73.0078 70.3555C73.5273 69.6445 74.252 69.0931 75.1816 68.7012C76.1113 68.3092 77.1732 68.1133 78.3672 68.1133C79.543 68.1133 80.5911 68.3092 81.5117 68.7012C82.4414 69.0931 83.166 69.6445 83.6855 70.3555C84.2142 71.0664 84.4831 71.8776 84.4922 72.7891C84.4831 73.5456 84.2962 74.2383 83.9316 74.8672C83.5671 75.487 83.0521 76.0065 82.3867 76.4258C81.7305 76.8451 80.9648 77.1367 80.0898 77.3008V79.3105C82.3047 79.1921 84.237 79.0143 85.8867 78.7773L86.1055 81.3203C83.918 81.7214 81.653 81.9902 79.3105 82.127C76.9681 82.2637 74.498 82.332 71.9004 82.332H70.9023L70.4375 79.4883ZM70.9297 64.3945H76.5898V61.7695H80.0898V64.3945H85.6953V67.1289H70.9297V64.3945ZM75.5508 72.7891C75.5417 73.4362 75.7878 73.9375 76.2891 74.293C76.7995 74.6393 77.4922 74.8125 78.3672 74.8125C79.2148 74.8125 79.8848 74.6393 80.377 74.293C80.8783 73.9375 81.1289 73.4362 81.1289 72.7891C81.1289 72.1602 80.8783 71.668 80.377 71.3125C79.8757 70.957 79.2057 70.7747 78.3672 70.7656C77.5013 70.7747 76.8132 70.957 76.3027 71.3125C75.7923 71.668 75.5417 72.1602 75.5508 72.7891ZM106.941 68.1953H94.9102V65.4336H99.2305V62.3164H102.676V65.4336H106.941V68.1953ZM95.4844 75.2227C95.4844 74.0833 95.7214 73.0671 96.1953 72.1738C96.6693 71.2806 97.321 70.5833 98.1504 70.082C98.9889 69.5716 99.9323 69.3164 100.98 69.3164C102.029 69.3164 102.967 69.5716 103.797 70.082C104.626 70.5833 105.273 71.2806 105.738 72.1738C106.212 73.0671 106.449 74.0833 106.449 75.2227C106.449 76.362 106.212 77.3828 105.738 78.2852C105.273 79.1875 104.626 79.8939 103.797 80.4043C102.967 80.9056 102.029 81.1562 100.98 81.1562C99.9323 81.1562 98.9889 80.9056 98.1504 80.4043C97.321 79.8939 96.6693 79.1875 96.1953 78.2852C95.7214 77.3828 95.4844 76.362 95.4844 75.2227ZM98.5469 75.2227C98.5469 76.1615 98.7656 76.8952 99.2031 77.4238C99.6497 77.9434 100.242 78.2031 100.98 78.2031C101.691 78.2031 102.266 77.9388 102.703 77.4102C103.15 76.8815 103.378 76.1523 103.387 75.2227C103.387 74.612 103.282 74.0788 103.072 73.623C102.863 73.1673 102.576 72.821 102.211 72.584C101.855 72.3379 101.445 72.2148 100.98 72.2148C100.251 72.2148 99.6634 72.4837 99.2168 73.0215C98.7702 73.5592 98.5469 74.293 98.5469 75.2227ZM107.871 62.125H111.125V71.75H113.148V61.6328H116.457V86.5156H113.148V74.5391H111.125V85.4492H107.871V62.125ZM141.832 75.7422H132.207V77.5879C134.385 77.7428 136.081 78.2031 137.293 78.9688C138.505 79.7344 139.116 80.7552 139.125 82.0312C139.116 82.9792 138.765 83.7904 138.072 84.4648C137.38 85.1393 136.382 85.6497 135.078 85.9961C133.784 86.3424 132.243 86.5156 130.457 86.5156C128.643 86.5156 127.08 86.3424 125.768 85.9961C124.464 85.6497 123.466 85.1393 122.773 84.4648C122.081 83.7995 121.734 82.9883 121.734 82.0312C121.734 80.7461 122.345 79.7207 123.566 78.9551C124.788 78.1895 126.51 77.7292 128.734 77.5742V75.7422H119.137V72.9258H141.832V75.7422ZM120.148 69.2617C121.625 69.1341 122.91 68.8789 124.004 68.4961C125.098 68.1133 125.968 67.6576 126.615 67.1289C127.271 66.6003 127.709 66.0352 127.928 65.4336H121.215V62.6992H139.781V65.4336H133.014C133.223 66.0352 133.652 66.6048 134.299 67.1426C134.955 67.6712 135.835 68.127 136.938 68.5098C138.049 68.8835 139.362 69.1341 140.875 69.2617L139.645 71.9961C137.339 71.7773 135.402 71.2624 133.834 70.4512C132.266 69.6309 131.141 68.6009 130.457 67.3613C129.783 68.6009 128.661 69.6309 127.094 70.4512C125.526 71.2715 123.594 71.7865 121.297 71.9961L120.148 69.2617ZM125.289 82.0312C125.28 82.6328 125.708 83.0931 126.574 83.4121C127.449 83.7311 128.743 83.8906 130.457 83.8906C132.143 83.8906 133.424 83.7311 134.299 83.4121C135.174 83.0931 135.616 82.6328 135.625 82.0312C135.616 80.8008 133.893 80.1719 130.457 80.1445C128.725 80.1628 127.426 80.3268 126.561 80.6367C125.704 80.9375 125.28 81.4023 125.289 82.0312ZM165.047 86.5156H161.711V74.0469H159.605V85.3672H156.297V78.2441L154.328 80.8555C152.159 79.7161 150.596 77.7793 149.639 75.0449C148.755 78.1895 147.201 80.4271 144.977 81.7578L142.816 79.0781C144.603 78.0755 145.888 76.5944 146.672 74.6348C147.465 72.666 147.866 70.3828 147.875 67.7852V66.9922H143.664V64.2031H155.066V66.9922H151.266V67.7852C151.266 70.1458 151.662 72.2422 152.455 74.0742C153.257 75.9062 154.538 77.278 156.297 78.1895V61.9883H159.605V71.2031H161.711V61.6328H165.047V86.5156ZM188.617 80.4453H185.117V78.4766H180.359V76.0977H185.117V61.6602H188.617V80.4453ZM167.453 72.6797C170.579 72.6615 173.441 72.6068 176.039 72.5156C178.637 72.4154 181.098 72.224 183.422 71.9414L183.613 74.4297C181.717 74.7487 179.712 74.9857 177.598 75.1406V79.8711H174.098V83.2891H189.164V86.0781H170.625V78.6406H174.098V75.3457C172.366 75.4095 170.288 75.4414 167.863 75.4414L167.453 72.6797ZM169.285 66.9648C169.285 66.0898 169.549 65.3151 170.078 64.6406C170.607 63.9661 171.345 63.4421 172.293 63.0684C173.241 62.6947 174.326 62.5078 175.547 62.5078C176.741 62.5078 177.807 62.6947 178.746 63.0684C179.685 63.4421 180.419 63.9661 180.947 64.6406C181.485 65.3151 181.754 66.0898 181.754 66.9648C181.754 67.8398 181.485 68.61 180.947 69.2754C180.419 69.9408 179.685 70.4512 178.746 70.8066C177.807 71.1621 176.741 71.3398 175.547 71.3398C174.316 71.3398 173.227 71.1621 172.279 70.8066C171.34 70.4512 170.607 69.9408 170.078 69.2754C169.549 68.61 169.285 67.8398 169.285 66.9648ZM172.594 66.9648C172.585 67.5573 172.849 68.0176 173.387 68.3457C173.934 68.6647 174.672 68.8242 175.602 68.8242C176.44 68.8242 177.119 68.6602 177.639 68.332C178.167 68.0039 178.436 67.5482 178.445 66.9648C178.436 66.3633 178.163 65.8939 177.625 65.5566C177.096 65.2194 176.404 65.0508 175.547 65.0508C174.645 65.0508 173.924 65.2194 173.387 65.5566C172.849 65.8939 172.585 66.3633 172.594 66.9648ZM220.883 78.1484H211.203V86.5156H207.758V78.1484H198.188V75.3594H220.883V78.1484ZM199.309 71.1758C200.922 70.9753 202.321 70.6016 203.506 70.0547C204.7 69.5078 205.63 68.8516 206.295 68.0859C206.969 67.3203 207.37 66.5182 207.498 65.6797H200.238V62.9453H218.859V65.6797H211.6C211.718 66.5182 212.11 67.3203 212.775 68.0859C213.441 68.8516 214.37 69.5078 215.564 70.0547C216.758 70.6016 218.176 70.9753 219.816 71.1758L218.559 73.9102C216.408 73.6185 214.557 73.0397 213.008 72.1738C211.467 71.2988 210.314 70.2096 209.549 68.9062C208.774 70.2096 207.621 71.2988 206.09 72.1738C204.559 73.0397 202.727 73.6185 200.594 73.9102L199.309 71.1758ZM243.906 86.5156H240.598V61.6328H243.906V86.5156ZM221.867 79.2422C223.59 78.1849 224.857 76.6764 225.668 74.7168C226.488 72.748 226.898 70.6107 226.898 68.3047V66.9648H222.824V64.1758H234.035V66.9648H230.262V68.3047C230.253 70.556 230.64 72.6068 231.424 74.457C232.217 76.3073 233.47 77.7201 235.184 78.6953L233.133 81.2656C231.036 80.026 229.528 77.957 228.607 75.0586C228.17 76.5716 227.564 77.9069 226.789 79.0645C226.014 80.222 225.076 81.138 223.973 81.8125L221.867 79.2422ZM232.258 70.1641H235.539V62.043H238.82V85.3672H235.539V72.9805H232.258V70.1641ZM272.781 66.4453H276.145V69.3164H272.781V74.0742H269.281V61.6328H272.781V66.4453ZM253.777 62.8086H265.727V73.1445H253.777V62.8086ZM256.266 75.0586H272.781V81.8398H259.738V83.5078H273.492V86.2422H256.32V79.3242H269.309V77.7383H256.266V75.0586ZM262.281 70.3828V65.543H257.223V70.3828H262.281ZM299.934 75.7695H277.238V72.9531H299.934V75.7695ZM277.402 68.9609C278.451 68.6419 279.321 68.1862 280.014 67.5938C280.706 66.9922 281.217 66.3223 281.545 65.584C281.873 64.8366 282.042 64.0664 282.051 63.2734V62.125H285.496V63.2734C285.496 64.2578 285.751 65.2194 286.262 66.1582C286.772 67.097 287.533 67.8854 288.545 68.5234C289.566 67.8945 290.327 67.1152 290.828 66.1855C291.339 65.2467 291.594 64.276 291.594 63.2734V62.125H295.148V63.2734C295.139 64.0846 295.294 64.8639 295.613 65.6113C295.932 66.3587 296.434 67.0286 297.117 67.6211C297.801 68.2044 298.667 68.651 299.715 68.9609L298.129 71.5039C296.98 71.1393 296.01 70.6198 295.217 69.9453C294.433 69.2617 293.818 68.4596 293.371 67.5391C292.924 68.5326 292.305 69.403 291.512 70.1504C290.719 70.8978 289.743 71.4674 288.586 71.8594C287.41 71.4674 286.421 70.8978 285.619 70.1504C284.826 69.3939 284.206 68.5098 283.76 67.498C283.304 68.4277 282.684 69.2344 281.9 69.918C281.126 70.5924 280.182 71.112 279.07 71.4766L277.402 68.9609ZM279.863 77.5469H297.227V86.2422H279.863V77.5469ZM293.809 83.4531V80.3086H283.309V83.4531H293.809Z" fill="#D0D0D0"/>
<line x1="354.5" y1="293" x2="354.5" y2="308" stroke="white"/>
<line x1="361.5" y1="301" x2="346.5" y2="301" stroke="white"/>
<line x1="1088.5" y1="114" x2="1088.5" y2="152" stroke="white"/>
<line x1="1107" y1="133.5" x2="1069" y2="133.5" stroke="white"/>
<path d="M571.17 168.372C570.99 166.536 571.494 162.432 571.782 160.596C572.106 158.544 572.826 154.98 573.222 152.964C573.33 152.388 573.726 152.28 573.726 152.28C574.446 152.208 575.418 152.532 575.238 153.468C574.878 155.592 573.618 161.1 573.366 163.08C573.906 162.936 575.202 162.792 575.778 162.648C576.858 162.432 577.614 162.396 578.37 162.36C579.342 162.324 580.242 162.504 580.242 163.152C580.242 163.62 579.342 163.764 579.018 163.836C578.01 164.016 577.146 164.124 575.778 164.556C574.878 164.808 573.258 165.132 573.042 166.212C572.862 167.508 573.006 168.336 572.97 169.596C572.97 169.92 572.754 170.136 572.286 170.172C571.278 170.28 571.242 169.164 571.17 168.372ZM557.67 170.676C557.598 170.136 557.886 169.92 558.426 169.56C558.57 169.488 559.254 168.948 559.362 168.84C559.65 168.552 560.226 167.904 560.37 167.652C560.694 167.112 560.982 166.752 561.162 166.248C561.486 165.42 562.206 163.8 562.314 163.08C562.386 162.504 562.71 161.748 563.322 161.712C564.294 161.676 564.402 162.396 564.33 162.828C564.222 163.584 563.646 165.204 563.286 166.14C562.962 166.968 562.422 167.976 561.81 168.516C563.718 167.652 565.122 167.22 565.914 167.076C566.85 166.896 567.75 166.716 568.65 166.716C569.01 166.716 569.478 166.716 569.55 167.112C569.658 167.796 569.118 167.904 568.722 168.048C568.038 168.3 566.778 168.66 566.094 168.84C565.518 169.02 564.942 169.2 564.33 169.38C562.566 169.884 562.026 170.496 560.37 171.18C559.83 171.396 559.722 171.468 559.146 171.648C558.606 171.828 557.778 171.54 557.67 170.676ZM560.226 160.704C559.938 160.452 559.794 160.056 559.794 159.84C559.722 158.292 560.622 156.492 561.954 155.952C563.466 155.34 564.762 156.096 564.69 157.68C564.69 158.076 564.654 158.328 564.546 158.652C564.33 159.408 563.79 160.272 563.178 160.704C562.602 161.1 562.098 161.172 561.666 161.172C561.162 161.172 560.514 160.956 560.226 160.704ZM563.214 157.068C562.926 157.176 562.53 157.608 562.17 158.184C561.99 158.472 561.81 159.084 561.882 159.516C562.242 159.372 562.602 159.012 562.926 158.328C563.178 157.788 563.286 157.392 563.214 157.068ZM555.906 155.88C555.906 155.664 556.014 155.304 556.266 155.124C558.174 153.54 561.954 152.424 564.438 152.424C565.662 152.424 566.994 152.568 567.498 153.072C567.642 153.216 567.642 153.864 567.39 153.864C565.41 153.864 563.826 153.9 561.954 154.44C561.234 154.656 560.082 155.016 559.11 155.412C558.498 155.664 557.274 156.852 556.734 156.852C556.338 156.852 555.906 156.276 555.906 155.88ZM562.062 151.02C561.918 149.58 562.17 146.952 562.746 144.756C562.926 144.072 563.07 143.352 563.718 143.208C564.114 143.136 564.87 143.424 564.942 143.82C565.05 144.432 564.51 145.872 564.294 146.448C563.898 147.6 563.79 149.22 563.43 150.948C563.358 151.308 562.962 151.452 562.782 151.488C562.386 151.56 562.062 151.164 562.062 151.02ZM583.205 164.412C583.205 163.872 583.421 163.584 583.673 163.116C584.033 162.468 584.537 160.524 585.185 158.94C585.401 158.4 585.617 157.86 585.797 157.392C586.085 156.708 586.625 154.656 586.841 153.972C587.021 153.324 587.381 152.064 588.137 152.064C588.713 152.064 589.145 152.64 589.073 153.324C589.001 154.152 588.101 156.276 587.885 157.032C587.669 157.932 586.301 161.46 585.869 162.54C586.553 162.252 586.733 162.144 587.129 162.036C588.065 161.748 588.353 161.568 589.469 161.424C589.721 161.388 590.405 161.388 590.441 161.748C590.513 162.144 590.405 162.576 590.117 162.648C589.001 162.972 587.849 163.584 586.877 163.944C586.337 164.124 585.473 164.592 585.005 164.844C584.537 165.096 584.357 165.132 584.105 165.168C583.637 165.24 583.205 164.916 583.205 164.412ZM582.233 157.824C582.161 157.392 582.089 156.384 582.089 155.988C582.125 154.836 582.269 154.044 582.521 153.036C582.665 152.424 582.773 151.776 583.025 151.236C583.133 150.984 583.853 150.984 584.249 151.092C584.537 151.164 584.897 151.488 584.861 151.812C584.789 152.352 584.645 152.784 584.393 153.684C584.033 154.98 584.069 156.204 584.069 157.572C584.069 157.968 583.889 158.364 583.457 158.508C582.809 158.724 582.341 158.4 582.233 157.824ZM580.649 150.804C580.289 149.94 581.333 149.112 581.765 148.788C582.629 148.104 583.853 147.492 585.149 147.204C585.905 147.096 586.553 146.988 587.417 146.988C589.253 146.988 590.621 147.312 590.837 147.384C591.269 147.564 591.449 147.888 591.413 148.356C591.377 148.788 591.161 149.076 590.765 149.04C589.469 148.896 588.497 148.968 587.057 148.968C585.221 149.112 583.925 149.4 582.701 150.408C582.449 150.588 582.269 150.948 581.873 151.164C581.117 151.596 580.685 150.876 580.649 150.804ZM595.841 170.172C595.841 167.868 597.209 165.312 598.217 163.332C598.721 162.324 599.045 162.144 599.801 162.144C600.341 162.144 600.773 162.432 600.665 162.936C600.521 163.584 600.053 164.412 599.873 164.952C600.233 165.276 600.773 165.564 600.917 166.752C601.169 168.732 599.225 171.792 597.605 171.792C596.633 171.792 595.841 170.892 595.841 170.172ZM597.929 168.912C597.893 169.02 597.821 169.74 598.037 169.668C598.685 169.452 599.513 168.12 599.513 167.04C599.513 166.896 599.477 166.284 599.225 166.14C598.721 166.716 598.289 167.652 597.929 168.912ZM591.341 153.432C590.981 153.144 591.017 152.712 591.161 152.388C591.557 151.452 594.113 150.3 595.085 150.048C595.913 149.832 596.381 149.724 597.389 149.76C598.001 149.796 598.145 150.048 598.181 150.264C598.253 150.912 597.821 151.272 597.065 151.416C595.985 151.632 595.193 151.884 594.185 152.388C593.609 152.676 592.673 153.648 592.025 153.648C591.701 153.648 591.521 153.576 591.341 153.432ZM601.745 160.812C601.277 159.732 601.277 159.12 601.277 157.932C601.277 157.212 601.277 156.312 601.421 155.556C601.529 154.944 601.601 154.224 601.817 153.54C601.385 154.08 600.197 154.98 599.297 155.628C597.353 157.032 596.093 157.608 593.825 158.616C593.141 158.94 591.989 159.516 591.053 159.3C590.513 159.156 590.189 158.472 590.405 157.896C590.477 157.788 590.549 157.644 590.945 157.536C593.429 156.924 595.157 155.952 597.173 154.836C599.297 153.684 601.421 151.884 602.681 149.976C602.969 149.508 603.149 148.428 603.293 147.888C603.329 147.708 603.581 147.528 603.797 147.528C604.841 147.528 605.165 148.104 605.057 148.788C604.985 149.256 604.877 149.724 604.733 150.264C604.553 150.876 604.265 151.524 604.085 152.136C603.797 153.108 603.653 153.684 603.437 154.728C603.365 155.124 603.185 155.916 603.185 156.312C603.077 157.896 603.113 159.156 602.861 160.704C602.825 160.956 602.537 161.1 602.321 161.1C602.105 161.1 601.853 161.064 601.745 160.812ZM623.304 162.144C623.304 161.496 623.34 159.696 623.34 159.588C623.34 158.652 623.592 154.944 623.736 154.008C623.988 152.388 624.276 150.66 624.816 149.112C624.888 148.896 625.284 148.824 625.752 148.824C626.328 148.824 626.724 149.184 626.724 149.76C626.724 150.12 626.616 150.588 626.544 150.984C626.076 152.892 625.752 154.764 625.608 156.708C625.464 158.22 625.428 158.58 625.32 160.092V161.316C626.4 160.848 627.12 160.596 627.768 160.416C628.524 160.2 629.928 159.732 631.26 159.624C632.088 159.552 632.124 160.092 631.908 160.452C631.836 160.596 631.62 160.704 631.512 160.776C630.9 161.064 630.432 161.28 629.748 161.568C628.308 162.18 626.544 162.864 625.32 163.728C625.32 163.944 625.248 164.988 625.248 165.204V166.14C625.248 166.428 625.284 167.652 625.32 167.796C625.392 168.372 625.752 169.308 624.996 169.416C624.6 169.488 624.024 169.416 623.772 168.768C623.664 168.48 623.556 168.048 623.484 167.544C623.412 166.896 623.34 166.212 623.34 165.456C623.34 165.276 623.304 162.972 623.304 162.144ZM611.928 166.032C611.964 165.204 612.18 164.52 612.468 163.692C612.72 163.008 613.368 161.676 613.62 161.28C613.908 160.812 614.448 159.732 615.06 159.516C615.276 159.444 615.564 159.48 615.672 159.516C616.176 159.624 616.608 159.876 616.356 160.524C616.212 160.92 616.068 161.28 615.888 161.82C616.068 161.928 616.212 162.108 616.356 162.252C616.932 162.9 617.112 163.512 617.04 164.376C616.896 166.104 616.356 167.328 614.916 168.228C614.556 168.444 613.728 168.588 613.296 168.408C612.252 168.012 611.892 166.896 611.928 166.032ZM608.292 160.164C607.968 159.84 607.968 159.228 608.22 158.868C608.4 158.58 609.372 157.824 609.588 157.644C610.56 157.032 611.46 156.708 612.396 156.384C613.728 155.916 614.916 155.664 616.212 155.484C617.148 155.448 618.912 155.268 620.028 155.484C620.712 155.556 620.928 156.708 619.704 156.852C618.696 156.96 616.32 157.104 615.024 157.464C613.8 157.716 613.188 158.076 611.82 158.724C611.352 158.94 610.776 159.228 610.38 159.588C609.804 160.092 609.588 160.452 608.868 160.38C608.652 160.38 608.436 160.272 608.292 160.164ZM611.892 151.488C611.892 149.364 612.504 147.456 613.152 145.584C613.332 145.08 613.728 144.9 614.304 144.9C614.484 144.9 615.096 145.044 615.096 145.476C615.096 146.052 615.06 146.412 614.844 147.024C614.7 147.528 614.556 148.104 614.304 148.644C613.764 149.868 613.692 151.236 613.62 152.568C613.548 153.72 613.584 154.728 612.864 154.728C612.612 154.728 612.288 154.296 612.18 153.972C611.964 153.18 611.892 152.28 611.892 151.488ZM613.98 165.96C613.98 166.068 613.944 166.464 614.016 166.644C614.196 166.644 614.484 166.536 614.628 166.356C615.276 165.636 615.384 165.24 615.528 164.232C615.6 163.692 615.492 163.332 615.312 163.008C614.736 163.584 614.088 164.952 613.98 165.96ZM646.469 164.52C646.469 163.296 646.577 162.144 646.829 160.776C645.605 161.568 643.841 162.36 642.365 163.08C641.357 163.512 640.493 163.98 639.773 164.448C638.873 165.024 638.405 166.032 638.189 167.58C638.081 168.372 636.137 168.66 636.353 167.076C636.497 166.032 636.749 165.06 637.145 163.872C637.829 161.928 638.333 160.092 638.837 158.148C638.909 157.788 639.017 157.392 639.017 157.32C639.125 156.816 638.837 156.564 638.405 156.564C637.217 156.564 636.064 157.104 635.165 157.644C634.697 157.896 634.337 158.184 633.833 158.292C633.221 158.436 632.897 157.716 632.897 157.176C632.897 155.88 637.109 154.8 638.297 154.728C640.097 154.62 641.213 155.052 641.141 156.528C641.033 158.58 640.205 160.344 639.701 162.288C640.529 161.964 641.285 161.568 642.041 161.208C644.237 160.2 645.785 159.444 647.117 158.616C647.405 157.86 647.621 157.284 647.873 156.42C647.909 156.276 648.125 155.88 648.125 155.88C648.305 155.484 649.241 155.592 649.565 155.88C649.853 156.096 649.853 156.708 649.853 156.924C649.853 157.716 649.385 158.112 649.241 158.724C648.485 161.748 648.269 164.448 648.269 167.58C648.269 167.976 647.837 168.192 647.513 168.192C647.009 168.192 646.793 167.832 646.685 167.436C646.433 166.536 646.469 165.492 646.469 164.52ZM652.373 163.98C652.373 163.476 652.373 161.856 652.985 159.156C653.237 158.184 653.417 157.5 653.633 156.708C653.921 155.412 654.209 154.152 654.677 152.964C654.785 152.676 654.965 152.352 655.217 152.208C655.829 151.884 656.981 152.208 656.981 153.252C656.981 153.756 656.837 153.9 656.549 154.296C656.549 154.296 656.369 154.836 656.333 154.908C655.289 157.968 654.497 160.884 654.029 163.98C653.921 164.7 653.812 165.06 653.057 165.06C652.589 165.06 652.373 164.664 652.373 163.98ZM683.246 162.144C683.246 161.496 683.282 159.696 683.282 159.588C683.282 158.652 683.534 154.944 683.678 154.008C683.93 152.388 684.218 150.66 684.758 149.112C684.83 148.896 685.226 148.824 685.694 148.824C686.27 148.824 686.666 149.184 686.666 149.76C686.666 150.12 686.558 150.588 686.486 150.984C686.018 152.892 685.694 154.764 685.55 156.708C685.406 158.22 685.37 158.58 685.262 160.092V161.316C686.342 160.848 687.062 160.596 687.71 160.416C688.466 160.2 689.87 159.732 691.202 159.624C692.03 159.552 692.066 160.092 691.85 160.452C691.778 160.596 691.562 160.704 691.454 160.776C690.842 161.064 690.374 161.28 689.69 161.568C688.25 162.18 686.486 162.864 685.262 163.728C685.262 163.944 685.19 164.988 685.19 165.204V166.14C685.19 166.428 685.226 167.652 685.262 167.796C685.334 168.372 685.694 169.308 684.938 169.416C684.542 169.488 683.966 169.416 683.714 168.768C683.606 168.48 683.498 168.048 683.426 167.544C683.354 166.896 683.282 166.212 683.282 165.456C683.282 165.276 683.246 162.972 683.246 162.144ZM671.87 166.032C671.906 165.204 672.122 164.52 672.41 163.692C672.662 163.008 673.31 161.676 673.562 161.28C673.85 160.812 674.39 159.732 675.002 159.516C675.218 159.444 675.506 159.48 675.614 159.516C676.118 159.624 676.55 159.876 676.298 160.524C676.154 160.92 676.01 161.28 675.83 161.82C676.01 161.928 676.154 162.108 676.298 162.252C676.874 162.9 677.054 163.512 676.982 164.376C676.838 166.104 676.298 167.328 674.858 168.228C674.498 168.444 673.67 168.588 673.238 168.408C672.194 168.012 671.834 166.896 671.87 166.032ZM668.234 160.164C667.91 159.84 667.91 159.228 668.162 158.868C668.342 158.58 669.314 157.824 669.53 157.644C670.502 157.032 671.402 156.708 672.338 156.384C673.67 155.916 674.858 155.664 676.154 155.484C677.09 155.448 678.854 155.268 679.97 155.484C680.654 155.556 680.87 156.708 679.646 156.852C678.638 156.96 676.262 157.104 674.966 157.464C673.742 157.716 673.13 158.076 671.762 158.724C671.294 158.94 670.718 159.228 670.322 159.588C669.746 160.092 669.53 160.452 668.81 160.38C668.594 160.38 668.378 160.272 668.234 160.164ZM671.834 151.488C671.834 149.364 672.446 147.456 673.094 145.584C673.274 145.08 673.67 144.9 674.246 144.9C674.426 144.9 675.038 145.044 675.038 145.476C675.038 146.052 675.002 146.412 674.786 147.024C674.642 147.528 674.498 148.104 674.246 148.644C673.706 149.868 673.634 151.236 673.562 152.568C673.49 153.72 673.526 154.728 672.806 154.728C672.554 154.728 672.23 154.296 672.122 153.972C671.906 153.18 671.834 152.28 671.834 151.488ZM673.922 165.96C673.922 166.068 673.886 166.464 673.958 166.644C674.138 166.644 674.426 166.536 674.57 166.356C675.218 165.636 675.326 165.24 675.47 164.232C675.542 163.692 675.434 163.332 675.254 163.008C674.678 163.584 674.03 164.952 673.922 165.96ZM699.246 168.552C699.246 166.356 700.326 164.772 701.334 162.9C701.406 162.756 701.694 162.504 701.946 162.468C702.342 162.36 703.242 162.36 703.386 162.792C703.566 163.26 703.026 163.908 702.81 164.268C702.666 164.484 702.45 164.7 702.27 165.132C702.09 165.564 701.766 166.104 701.514 166.752C701.37 167.148 701.226 167.508 701.226 167.94C701.226 168.516 701.658 168.588 702.27 168.48C704.646 168.012 706.554 167.004 708.894 166.716C709.686 166.608 709.722 168.048 708.822 168.228C707.922 168.408 703.062 170.28 702.162 170.46C701.982 170.496 701.442 170.604 701.154 170.604H700.974C699.822 170.604 699.246 169.596 699.246 168.552ZM694.926 154.62C694.926 153.684 695.25 152.496 695.466 151.74C695.646 151.128 696.654 148.752 696.978 148.212C697.194 147.816 697.734 147.816 698.058 147.816C698.67 147.816 698.922 148.176 698.922 148.536C698.922 148.716 698.778 149.112 698.778 149.112C697.914 150.804 697.014 152.82 696.87 154.224C697.482 154.152 698.238 153.972 698.886 153.828C700.146 153.54 701.082 153.252 702.09 153.036C702.81 152.892 703.206 153.288 703.278 153.648C703.386 154.152 703.098 154.332 702.846 154.476C702.486 154.656 701.262 155.124 700.686 155.304C699.246 155.736 697.554 156.312 696.438 156.312C695.106 156.312 694.926 155.592 694.926 154.62ZM692.586 161.172C692.586 160.776 692.982 160.488 693.162 160.416C696.474 159.012 700.362 158.688 704.106 158.688H706.014C707.598 158.688 708.822 158.868 709.722 159.084C710.55 159.264 711.45 159.66 711.126 160.452C711.054 160.632 710.766 160.632 710.55 160.632C709.974 160.632 708.678 160.488 707.706 160.38C707.022 160.308 706.338 160.272 705.654 160.272C702.882 160.272 698.886 160.524 696.294 161.316C695.538 161.532 694.278 162.252 693.63 162.324C692.874 162.396 692.586 161.748 692.586 161.172ZM726.946 162.504C726.766 162.9 726.514 163.368 725.938 164.556C725.758 164.916 725.218 165.06 724.75 164.844C724.642 164.844 724.282 164.628 724.282 164.16C724.282 163.8 724.426 163.404 724.57 163.08C724.642 162.828 725.47 161.172 725.614 160.848C726.046 159.804 726.802 158.616 727.414 157.392C728.062 156.204 728.638 154.476 728.854 153.324C728.17 153.18 727.162 153.576 726.55 154.008C726.19 154.296 725.362 154.872 724.606 155.664C724.354 155.952 724.102 156.312 723.742 156.312C723.238 156.312 722.914 155.664 722.914 155.268C722.914 154.764 723.346 154.404 723.634 154.044C724.03 153.612 724.498 153.144 724.93 152.856C726.19 152.028 727.306 151.524 728.602 151.524C728.926 151.524 729.394 151.524 729.646 151.56C730.546 151.632 731.05 152.532 730.906 153.504C730.726 154.764 730.366 155.664 730.042 156.348C729.718 157.032 729.538 157.428 729.07 158.364C728.818 158.868 728.566 159.408 728.458 159.912C728.566 160.488 729.574 162.324 730.51 163.224C730.618 163.332 731.59 164.196 731.698 164.268C732.274 164.844 732.346 165.168 732.058 165.708C731.914 165.996 731.59 166.14 731.194 165.996C730.906 165.924 730.366 165.528 730.186 165.42C729.394 164.736 728.494 163.728 727.882 162.864C727.558 162.396 727.27 161.892 727.234 161.82C727.198 161.856 727.126 162.144 726.946 162.504ZM736.09 164.988C735.982 164.592 735.982 163.188 735.946 162.9C735.91 162.612 735.766 162.396 735.802 162.072C736.234 158.292 736.81 154.656 737.638 150.84C737.746 150.408 737.854 149.868 738.466 149.868C739.15 149.868 739.582 150.3 739.582 150.984C739.582 151.812 739.186 152.532 739.042 153.216C738.538 155.448 738.142 157.86 737.998 160.236C739.15 159.696 741.85 158.904 743.47 158.832C743.47 158.832 744.082 158.796 744.334 158.868C744.586 158.94 744.694 159.084 744.622 159.444C744.55 159.768 744.082 160.056 743.362 160.272C742.138 160.632 739.87 161.424 739.042 161.892C738.286 162.324 737.89 162.936 737.89 163.872C737.89 164.88 738.214 165.852 738.214 166.824C738.214 167.22 737.746 167.4 737.494 167.4C736.378 167.4 736.27 165.708 736.09 164.988ZM752.051 168.552C752.051 166.356 753.131 164.772 754.139 162.9C754.211 162.756 754.499 162.504 754.751 162.468C755.147 162.36 756.047 162.36 756.191 162.792C756.371 163.26 755.831 163.908 755.615 164.268C755.471 164.484 755.255 164.7 755.075 165.132C754.895 165.564 754.571 166.104 754.319 166.752C754.175 167.148 754.031 167.508 754.031 167.94C754.031 168.516 754.463 168.588 755.075 168.48C757.451 168.012 759.359 167.004 761.699 166.716C762.491 166.608 762.527 168.048 761.627 168.228C760.727 168.408 755.867 170.28 754.967 170.46C754.787 170.496 754.247 170.604 753.959 170.604H753.779C752.627 170.604 752.051 169.596 752.051 168.552ZM747.731 154.62C747.731 153.684 748.055 152.496 748.271 151.74C748.451 151.128 749.459 148.752 749.783 148.212C749.999 147.816 750.539 147.816 750.863 147.816C751.475 147.816 751.727 148.176 751.727 148.536C751.727 148.716 751.583 149.112 751.583 149.112C750.719 150.804 749.819 152.82 749.675 154.224C750.287 154.152 751.043 153.972 751.691 153.828C752.951 153.54 753.887 153.252 754.895 153.036C755.615 152.892 756.011 153.288 756.083 153.648C756.191 154.152 755.903 154.332 755.651 154.476C755.291 154.656 754.067 155.124 753.491 155.304C752.051 155.736 750.359 156.312 749.243 156.312C747.911 156.312 747.731 155.592 747.731 154.62ZM745.391 161.172C745.391 160.776 745.787 160.488 745.967 160.416C749.279 159.012 753.167 158.688 756.911 158.688H758.819C760.403 158.688 761.627 158.868 762.527 159.084C763.355 159.264 764.255 159.66 763.931 160.452C763.859 160.632 763.571 160.632 763.355 160.632C762.779 160.632 761.483 160.488 760.511 160.38C759.827 160.308 759.143 160.272 758.459 160.272C755.687 160.272 751.691 160.524 749.099 161.316C748.343 161.532 747.083 162.252 746.435 162.324C745.679 162.396 745.391 161.748 745.391 161.172ZM783.243 179.208C783.279 178.128 783.603 176.616 783.783 175.824C784.179 174.024 784.863 172.296 784.971 170.388C785.007 169.812 785.043 169.308 784.467 169.128C784.359 169.092 784.143 169.092 784.071 169.092C783.027 169.092 781.299 169.668 780.579 170.28C780.363 170.46 780.039 170.748 779.751 170.748C779.175 170.748 778.887 169.848 779.031 169.416C779.103 169.164 779.175 169.02 779.679 168.588C780.579 167.832 782.775 167.148 783.999 167.148C784.395 167.148 785.043 167.184 785.331 167.256C786.663 167.544 786.951 168.192 786.951 169.524C786.951 171.324 786.519 173.052 786.015 174.888C785.727 175.968 785.367 177.588 785.151 178.668C785.115 178.884 785.007 179.352 784.971 179.676C784.935 180.252 784.143 180.36 783.711 180.288C783.351 180.216 783.207 179.964 783.243 179.208ZM776.403 164.448C776.331 163.98 776.835 163.656 777.195 163.368C778.095 162.684 778.851 161.244 779.247 160.272C779.679 159.192 779.931 158.292 780.507 157.176C780.651 156.888 781.119 156.78 781.515 156.816C782.127 156.852 782.235 157.356 782.235 157.752C782.235 158.364 781.767 159.336 781.515 159.876C781.155 160.632 780.903 161.136 780.615 161.784C780.435 162.144 780.111 162.756 779.787 163.188C781.551 162.828 783.711 162.432 785.547 162.324C786.915 162.252 787.995 162.252 789.111 162.54C789.507 162.72 789.399 163.656 789.003 163.728C788.571 163.764 786.663 163.908 786.303 163.944C785.763 164.016 784.431 164.16 783.819 164.268C781.695 164.592 779.571 165.168 777.447 165.564C776.907 165.672 776.475 165.204 776.403 164.448ZM775.143 149.508C775.071 148.608 775.107 147.744 775.107 146.88C775.107 146.088 775.071 145.62 775.143 144.936C775.179 144.54 775.431 144.252 776.043 144.252C776.727 144.252 777.051 144.54 777.015 145.08C776.979 145.584 776.907 146.052 776.907 146.88C776.907 147.564 776.907 147.96 776.979 148.788C776.979 148.932 777.159 149.04 777.303 149.04C777.951 149.004 778.887 148.68 779.535 148.392C779.787 148.284 779.823 147.924 779.823 147.924C779.859 147.78 779.967 147.168 780.003 147.024C780.075 146.556 780.363 145.404 780.471 144.972C780.543 144.684 780.759 144.396 781.407 144.396C782.019 144.396 782.379 144.612 782.235 145.224C782.055 146.088 781.911 146.592 781.731 147.564C781.695 147.708 781.479 148.644 781.443 148.968C781.371 149.76 780.831 153.972 780.615 154.8C780.363 155.772 779.535 156.348 778.563 156.348C777.015 156.348 775.935 154.26 775.683 152.856C775.575 152.172 775.251 150.768 775.143 149.508ZM777.303 151.524C777.303 151.956 777.915 154.548 778.563 154.548C778.995 154.548 779.211 154.08 779.247 153.684C779.283 153.288 779.283 152.856 779.319 152.46C779.319 152.316 779.391 151.38 779.391 151.236V150.804C779.391 150.552 779.391 150.408 779.103 150.408C778.419 150.408 777.303 150.948 777.303 151.524ZM804.302 165.636C804.194 164.592 804.23 163.548 804.302 162.504C804.446 160.452 804.77 158.508 805.202 156.492C805.418 155.484 805.67 153.108 806.678 153.108C807.218 153.108 807.902 153.504 807.866 154.008C807.794 154.8 807.47 155.556 807.326 156.24C806.282 161.316 806.246 161.712 806.174 162.252C805.958 163.8 805.922 165.24 805.778 166.824C805.742 167.184 805.274 167.184 805.13 167.184C804.554 167.184 804.374 166.392 804.302 165.636ZM791.702 163.98C791.63 162.432 792.674 160.74 793.502 159.3C794.006 158.472 794.546 157.536 794.978 156.924C795.374 156.384 796.274 156.132 796.814 156.672C797.21 157.068 796.922 157.68 796.706 158.184C797.174 158.436 798.47 159.408 798.29 161.172C798.146 162.54 797.534 163.548 796.526 164.34C795.77 164.952 794.582 165.492 793.466 165.564C792.854 165.6 791.774 165.24 791.702 163.98ZM795.95 159.372C795.482 159.66 793.826 162.576 793.754 163.62C794.366 163.728 796.238 163.08 796.562 161.1C796.706 160.236 796.31 159.588 795.95 159.372ZM833.085 158.724C833.121 157.716 833.193 156.672 833.337 155.628C833.553 153.756 833.769 152.136 834.381 150.192C834.669 149.4 834.849 148.68 835.137 148.212C835.353 147.852 836.253 147.816 836.613 148.068C836.793 148.212 837.009 148.464 837.009 148.644C837.045 149.328 836.649 149.796 836.469 150.372C835.857 152.568 835.497 154.8 835.065 157.284C834.957 158.04 834.777 158.868 834.705 159.516C834.669 159.984 834.345 160.668 833.949 160.596C833.085 160.416 833.049 159.264 833.085 158.724ZM833.949 168.192C833.589 168.48 833.121 168.948 832.797 169.272C832.221 169.884 832.041 170.46 831.141 170.532C830.565 170.568 830.097 169.956 830.421 169.236C830.529 169.056 830.781 168.732 830.889 168.588C832.833 166.572 834.669 164.7 836.721 162.936C837.261 162.468 838.557 163.008 838.305 163.872C838.053 164.772 836.037 165.996 835.713 166.752C835.785 168.804 837.225 170.496 837.873 171.648C838.161 172.188 838.377 172.8 837.981 172.872C837.549 172.98 837.081 172.908 836.721 172.584C836.289 172.188 835.749 171.504 835.425 171C834.921 170.28 834.093 168.552 833.949 168.192ZM823.833 168.552C823.401 168.876 822.825 169.344 822.357 169.848C821.781 170.424 821.745 171.252 820.989 171.36C820.233 171.504 819.909 171.072 819.909 170.496C819.909 170.028 820.017 169.668 820.413 169.272C821.925 167.4 825.021 164.232 826.893 162.828C827.073 162.72 827.433 162.576 827.685 162.576C828.117 162.576 828.765 162.936 828.765 163.512C828.765 164.412 825.561 166.716 825.633 167.4C825.741 168.12 827.109 169.848 828.009 170.604C828.441 171.036 828.009 171.792 827.577 171.72C825.777 171.396 824.589 169.56 823.833 168.552ZM819.837 158.652C819.765 157.104 820.953 154.908 821.781 153.468C822.285 152.64 822.753 151.812 823.185 151.2C823.581 150.624 824.481 150.624 824.913 151.128C825.057 151.272 825.201 151.812 824.877 152.424C824.769 152.604 824.697 152.748 824.553 153.072C825.021 153.252 825.993 154.044 825.885 155.628C825.849 156.348 825.597 157.428 824.553 158.688C823.653 159.768 822.717 160.164 821.601 160.236C820.989 160.272 819.909 159.912 819.837 158.652ZM823.797 154.26C823.329 154.548 821.961 157.248 821.889 158.292C822.933 158.292 824.157 156.996 824.301 155.376C824.337 155.016 824.193 154.368 823.797 154.26ZM841.638 163.116C841.422 161.748 841.746 157.032 842.358 154.368C842.466 153.9 842.538 153.036 843.546 153.036C843.978 153.036 844.518 153.504 844.41 154.08C844.23 155.016 844.05 156.924 843.834 157.824C843.654 158.652 843.51 160.416 843.474 161.568C843.438 162.252 843.834 162.468 844.23 162.324C846.282 161.676 849.45 160.056 850.782 159.732C851.106 159.66 851.286 159.84 851.394 160.056C851.502 160.344 851.43 160.812 851.034 161.136C850.638 161.496 850.17 161.784 849.702 162.072C848.91 162.576 845.418 164.304 843.798 164.628C842.898 164.808 841.818 164.232 841.638 163.116ZM854.094 167.868C853.986 167.472 853.986 163.908 853.95 163.62C853.914 163.332 853.77 163.116 853.806 162.792C854.238 159.012 854.814 153.936 855.642 150.12C855.75 149.688 855.858 149.148 856.47 149.148C857.154 149.148 857.586 149.58 857.586 150.264C857.586 151.092 857.19 151.812 857.046 152.496C856.542 154.728 856.146 158.58 856.002 160.956C857.154 160.416 859.998 159.876 861.402 159.84C861.402 159.84 862.122 159.804 862.266 159.876C862.482 159.984 862.626 160.056 862.518 160.524C862.338 161.28 858.558 161.748 857.046 162.612C856.29 163.044 855.894 163.656 855.894 164.592C855.894 165.6 856.218 168.732 856.218 169.704C856.218 170.1 855.75 170.28 855.498 170.28C854.382 170.28 854.274 168.588 854.094 167.868ZM864.278 163.116C864.062 161.748 864.386 157.032 864.998 154.368C865.106 153.9 865.178 153.036 866.186 153.036C866.618 153.036 867.158 153.504 867.05 154.08C866.87 155.016 866.69 156.924 866.474 157.824C866.294 158.652 866.15 160.416 866.114 161.568C866.078 162.252 866.474 162.468 866.87 162.324C868.922 161.676 872.09 160.056 873.422 159.732C873.746 159.66 873.926 159.84 874.034 160.056C874.142 160.344 874.07 160.812 873.674 161.136C873.278 161.496 872.81 161.784 872.342 162.072C871.55 162.576 868.058 164.304 866.438 164.628C865.538 164.808 864.458 164.232 864.278 163.116ZM877.238 166.824C877.13 165.78 877.31 161.892 877.382 160.848C877.526 158.796 877.886 155.412 878.318 153.396C878.534 152.388 878.786 150.012 879.794 150.012C880.334 150.012 881.018 150.408 880.982 150.912C880.91 151.704 880.586 152.46 880.442 153.144C879.47 158.148 879.326 160.056 879.254 160.596C879.038 162.144 878.858 166.428 878.714 168.012C878.678 168.372 878.21 168.372 878.066 168.372C877.49 168.372 877.31 167.58 877.238 166.824ZM476.424 223.6C476.388 223.312 476.46 222.808 476.784 222.736C476.856 222.736 477.54 222.664 477.612 222.664C479.016 222.52 480.348 222.232 481.716 222.052C482.76 221.908 483.768 221.728 484.812 221.62C486.108 221.476 489.024 221.404 490.356 221.404C490.968 221.404 493.128 221.368 493.74 221.44C493.812 221.44 494.496 221.512 494.676 221.548C495.036 221.584 495.36 221.872 495.252 222.628C495.216 222.916 494.82 223.024 494.532 223.024C494.352 223.024 491.508 223.132 491.148 223.168C490.572 223.204 490.068 223.204 489.492 223.276C487.692 223.492 484.164 223.672 482.364 223.888C480.708 224.068 479.088 224.644 477.432 224.644C476.676 224.644 476.496 224.176 476.424 223.6ZM482.508 219.892C482.724 218.776 483.66 217.12 484.128 216.22C484.74 214.996 485.208 214.06 485.208 213.124C485.208 212.62 484.416 212.404 483.948 212.44C483.372 212.476 482.58 212.584 482.04 212.836C481.572 213.052 480.24 213.448 479.556 213.664C478.836 213.88 478.26 213.088 478.692 212.404C479.124 211.72 481.212 211.072 481.788 210.928C482.508 210.748 483.444 210.64 484.2 210.64C485.712 210.64 487.08 211.288 487.08 213.016C487.08 214.492 486.612 215.608 486 216.796C485.64 217.48 484.488 219.676 483.84 220.432C483.408 220.936 482.328 220.756 482.508 219.892ZM497.314 216.472C497.314 216.184 497.458 215.824 497.71 215.68C498.358 215.356 501.958 214.384 502.642 214.204C504.946 213.628 508.294 213.124 510.67 213.124C511.282 213.124 512.11 213.196 512.434 213.376C512.686 213.484 512.758 213.664 512.758 213.736C512.83 214.096 512.65 214.42 512.434 214.492C511.534 214.744 510.85 214.78 509.734 214.852C508.402 214.924 505.882 215.248 504.478 215.644C503.578 215.932 499.87 216.94 498.898 217.372C498.61 217.516 498.43 217.588 498.178 217.588C497.602 217.588 497.314 216.904 497.314 216.472ZM499.87 210.568C499.834 210.424 499.798 209.92 499.798 209.776C499.798 208.66 500.122 208.012 500.59 207.292C500.698 207.112 501.058 206.752 501.49 206.752C502.174 206.752 502.75 207.004 502.534 207.76C502.39 208.372 501.85 209.056 501.85 209.776C503.902 209.596 506.35 208.624 508.222 208.408C508.69 208.372 509.014 208.516 509.014 209.02V209.164C509.014 209.344 508.798 209.668 508.006 209.92C506.782 210.424 503.074 211.684 501.742 211.684C500.734 211.684 500.158 211.432 499.87 210.568ZM498.682 205.132C498.682 204.736 498.97 204.34 499.474 203.98C500.914 202.936 503.974 202.18 505.126 202.18C505.45 202.18 505.954 202.216 506.17 202.252C506.782 202.324 506.962 202.612 506.962 203.008C506.962 203.332 506.854 203.584 506.53 203.656C506.314 203.692 505.594 203.8 505.126 203.908C504.118 204.124 503.254 204.412 502.174 204.7C501.67 204.844 501.31 205.06 501.058 205.312C500.554 205.816 500.23 206.104 499.762 206.104C499.114 206.104 498.682 205.816 498.682 205.132ZM502.606 234.436C502.678 232.888 505.126 230.872 505.702 230.224C506.134 229.792 507.862 227.92 508.474 227.308C507.862 227.272 507.322 227.308 505.63 227.308C504.442 227.308 503.65 226.552 503.758 225.58C503.902 224.284 506.782 221.944 507.682 221.044C508.078 220.648 508.798 219.928 508.834 219.856C508.942 219.712 508.87 219.496 508.618 219.532C506.998 219.712 505.018 220.144 503.758 220.756C503.182 221.044 502.534 221.296 501.958 221.656C501.382 222.016 500.986 222.34 500.518 222.34C499.87 222.34 499.51 221.836 499.51 221.368C499.51 221.116 499.69 220.756 499.906 220.576C501.634 219.1 507.538 217.588 509.95 217.624C510.886 217.624 511.642 218.236 511.642 219.064C511.642 220.288 508.978 222.196 508.006 223.204C507.466 223.672 506.674 224.464 506.17 225.148C506.062 225.292 506.098 225.472 506.386 225.472C507.358 225.472 508.33 225.472 509.41 225.508C510.202 225.544 510.922 225.976 510.958 226.624C510.994 227.164 510.706 227.452 510.562 227.668C510.526 227.704 509.806 228.496 509.374 228.964C507.934 230.512 506.386 232.096 505.162 233.68C504.802 234.148 504.91 234.904 506.026 234.796C507.754 234.688 510.814 233.896 512.722 233.464C513.118 233.392 513.334 233.572 513.406 233.68C513.586 233.932 513.622 234.544 513.046 234.832C511.102 235.804 506.062 236.704 504.91 236.704C503.47 236.704 502.57 235.804 502.606 234.436ZM527.886 223.636C527.778 222.592 527.814 221.548 527.886 220.504C528.03 218.452 528.354 216.508 528.786 214.492C529.002 213.484 529.254 211.108 530.262 211.108C530.802 211.108 531.486 211.504 531.45 212.008C531.378 212.8 531.054 213.556 530.91 214.24C529.866 219.316 529.83 219.712 529.758 220.252C529.542 221.8 529.506 223.24 529.362 224.824C529.326 225.184 528.858 225.184 528.714 225.184C528.138 225.184 527.958 224.392 527.886 223.636ZM515.286 221.98C515.214 220.432 516.258 218.74 517.086 217.3C517.59 216.472 518.13 215.536 518.562 214.924C518.958 214.384 519.858 214.132 520.398 214.672C520.794 215.068 520.506 215.68 520.29 216.184C520.758 216.436 522.054 217.408 521.874 219.172C521.73 220.54 521.118 221.548 520.11 222.34C519.354 222.952 518.166 223.492 517.05 223.564C516.438 223.6 515.358 223.24 515.286 221.98ZM519.534 217.372C519.066 217.66 517.41 220.576 517.338 221.62C517.95 221.728 519.822 221.08 520.146 219.1C520.29 218.236 519.894 217.588 519.534 217.372ZM558.037 220.144C558.037 219.496 558.073 217.696 558.073 217.588C558.073 216.652 558.325 212.944 558.469 212.008C558.721 210.388 559.009 208.66 559.549 207.112C559.621 206.896 560.017 206.824 560.485 206.824C561.061 206.824 561.457 207.184 561.457 207.76C561.457 208.12 561.349 208.588 561.277 208.984C560.809 210.892 560.485 212.764 560.341 214.708C560.197 216.22 560.161 216.58 560.053 218.092V219.316C561.133 218.848 561.853 218.596 562.501 218.416C563.257 218.2 564.661 217.732 565.993 217.624C566.821 217.552 566.857 218.092 566.641 218.452C566.569 218.596 566.353 218.704 566.245 218.776C565.633 219.064 565.165 219.28 564.481 219.568C563.041 220.18 561.277 220.864 560.053 221.728C560.053 221.944 559.981 222.988 559.981 223.204V224.14C559.981 224.428 560.017 225.652 560.053 225.796C560.125 226.372 560.485 227.308 559.729 227.416C559.333 227.488 558.757 227.416 558.505 226.768C558.397 226.48 558.289 226.048 558.217 225.544C558.145 224.896 558.073 224.212 558.073 223.456C558.073 223.276 558.037 220.972 558.037 220.144ZM546.661 224.032C546.697 223.204 546.913 222.52 547.201 221.692C547.453 221.008 548.101 219.676 548.353 219.28C548.641 218.812 549.181 217.732 549.793 217.516C550.009 217.444 550.297 217.48 550.405 217.516C550.909 217.624 551.341 217.876 551.089 218.524C550.945 218.92 550.801 219.28 550.621 219.82C550.801 219.928 550.945 220.108 551.089 220.252C551.665 220.9 551.845 221.512 551.773 222.376C551.629 224.104 551.089 225.328 549.649 226.228C549.289 226.444 548.461 226.588 548.029 226.408C546.985 226.012 546.625 224.896 546.661 224.032ZM543.025 218.164C542.701 217.84 542.701 217.228 542.953 216.868C543.133 216.58 544.105 215.824 544.321 215.644C545.293 215.032 546.193 214.708 547.129 214.384C548.461 213.916 549.649 213.664 550.945 213.484C551.881 213.448 553.645 213.268 554.761 213.484C555.445 213.556 555.661 214.708 554.437 214.852C553.429 214.96 551.053 215.104 549.757 215.464C548.533 215.716 547.921 216.076 546.553 216.724C546.085 216.94 545.509 217.228 545.113 217.588C544.537 218.092 544.321 218.452 543.601 218.38C543.385 218.38 543.169 218.272 543.025 218.164ZM546.625 209.488C546.625 207.364 547.237 205.456 547.885 203.584C548.065 203.08 548.461 202.9 549.037 202.9C549.217 202.9 549.829 203.044 549.829 203.476C549.829 204.052 549.793 204.412 549.577 205.024C549.433 205.528 549.289 206.104 549.037 206.644C548.497 207.868 548.425 209.236 548.353 210.568C548.281 211.72 548.317 212.728 547.597 212.728C547.345 212.728 547.021 212.296 546.913 211.972C546.697 211.18 546.625 210.28 546.625 209.488ZM548.713 223.96C548.713 224.068 548.677 224.464 548.749 224.644C548.929 224.644 549.217 224.536 549.361 224.356C550.009 223.636 550.117 223.24 550.261 222.232C550.333 221.692 550.225 221.332 550.045 221.008C549.469 221.584 548.821 222.952 548.713 223.96ZM568.421 221.116C568.205 219.748 568.529 215.032 569.141 212.368C569.249 211.9 569.321 211.036 570.329 211.036C570.761 211.036 571.301 211.504 571.193 212.08C571.013 213.016 570.833 214.924 570.617 215.824C570.437 216.652 570.293 218.416 570.257 219.568C570.221 220.252 570.617 220.468 571.013 220.324C573.065 219.676 576.233 218.056 577.565 217.732C577.889 217.66 578.069 217.84 578.177 218.056C578.285 218.344 578.213 218.812 577.817 219.136C577.421 219.496 576.953 219.784 576.485 220.072C575.693 220.576 572.201 222.304 570.581 222.628C569.681 222.808 568.601 222.232 568.421 221.116ZM580.877 225.868C580.769 225.472 580.769 221.908 580.733 221.62C580.697 221.332 580.553 221.116 580.589 220.792C581.021 217.012 581.597 211.936 582.425 208.12C582.533 207.688 582.641 207.148 583.253 207.148C583.937 207.148 584.369 207.58 584.369 208.264C584.369 209.092 583.973 209.812 583.829 210.496C583.325 212.728 582.929 216.58 582.785 218.956C583.937 218.416 586.781 217.876 588.185 217.84C588.185 217.84 588.905 217.804 589.049 217.876C589.265 217.984 589.409 218.056 589.301 218.524C589.121 219.28 585.341 219.748 583.829 220.612C583.073 221.044 582.677 221.656 582.677 222.592C582.677 223.6 583.001 226.732 583.001 227.704C583.001 228.1 582.533 228.28 582.281 228.28C581.165 228.28 581.057 226.588 580.877 225.868ZM605.03 216.832C605.066 215.824 605.174 215.5 605.318 214.456C605.57 212.584 605.966 209.884 606.614 207.976C606.902 207.184 607.118 206.464 607.406 205.996C607.622 205.636 608.522 205.636 608.882 205.888C609.062 206.032 609.278 206.284 609.278 206.464C609.278 207.148 608.882 207.616 608.702 208.192C608.054 210.352 607.514 213.16 607.046 215.644C606.902 216.4 606.686 217.012 606.65 217.66C606.614 218.128 606.254 218.812 605.858 218.704C604.994 218.524 604.994 217.372 605.03 216.832ZM591.422 217.876C591.206 216.508 591.386 212.692 591.998 210.028C592.106 209.56 592.178 208.696 593.186 208.696C593.618 208.696 594.158 209.164 594.05 209.74C593.87 210.676 593.654 212.224 593.546 213.124C593.438 213.952 593.294 215.176 593.258 216.328C593.222 217.012 593.618 217.228 594.014 217.084C596.066 216.436 598.226 215.284 599.558 214.96C599.882 214.888 600.062 215.068 600.17 215.284C600.278 215.572 600.206 216.04 599.81 216.364C599.414 216.724 598.946 217.012 598.478 217.3C597.686 217.804 595.202 219.064 593.582 219.388C592.682 219.568 591.602 218.992 591.422 217.876ZM602.006 229.324C602.15 228.604 603.41 228.28 603.986 227.848C604.13 227.74 604.31 227.524 604.382 227.416C605.03 226.264 605.498 225.328 605.498 223.96C605.498 223.456 605.282 223.24 604.706 223.24C604.274 223.24 603.77 223.276 603.446 223.384C602.006 223.816 601.502 224.32 600.818 225.4C600.458 225.976 600.35 226.84 600.35 228.244C600.35 228.604 599.918 228.856 599.306 228.856C598.19 228.856 598.406 227.416 598.406 226.696C598.406 225.94 598.622 224.248 598.838 223.276C599.054 222.448 599.09 222.16 599.306 221.296C599.558 220.36 600.206 219.748 601.07 219.748C601.394 219.748 601.934 220.036 601.826 220.468C601.61 221.332 601.322 221.908 601.25 222.664C601.61 222.412 602.006 222.124 602.33 221.944C603.158 221.548 603.698 221.332 604.49 221.296C605.642 221.26 606.722 221.332 607.226 222.268C607.586 222.952 607.586 224.32 607.262 225.436C607.19 225.688 606.686 226.912 606.542 227.128C607.406 226.876 608.126 226.696 608.738 226.624C609.71 226.516 610.538 226.444 611.366 226.516C611.942 226.552 611.906 227.92 611.258 227.884C609.818 228.064 608.27 228.496 606.794 228.928C606.29 229.072 605.39 229.36 604.958 229.576C604.274 229.936 603.518 230.512 602.726 230.44C602.186 230.404 601.898 229.756 602.006 229.324ZM615.51 215.5C615.51 213.34 616.878 211.18 617.886 210.28C618.174 210.028 618.426 210.136 618.786 209.992C618.966 209.92 619.074 209.74 619.506 209.74C620.514 209.74 621.234 210.964 621.234 212.044C621.234 214.276 619.938 216.868 617.238 216.976C616.302 217.012 615.51 216.472 615.51 215.5ZM619.47 211.36C618.642 211.864 617.634 213.88 617.634 215.248C618.714 215.248 619.722 213.412 619.722 212.044C619.722 211.756 619.614 211.54 619.47 211.36ZM629.802 222.808C629.802 220.864 630.126 219.208 630.378 217.192C628.002 219.1 625.122 220.396 622.098 221.728C619.686 222.808 616.482 223.78 613.494 223.888C612.882 223.924 612.63 223.492 612.63 222.808C612.63 221.98 614.358 221.872 615.366 221.656C618.642 220.9 621.882 219.964 624.834 218.38C626.922 217.264 629.802 215.572 630.846 213.52C630.99 213.196 631.89 209.128 631.962 208.804C632.142 208.048 633.006 207.976 633.762 208.444C633.942 208.552 634.158 209.056 634.122 209.524C634.086 210.208 633.33 212.404 633.15 213.052C632.358 215.932 632.286 217.48 631.998 220.396C631.782 222.7 631.674 223.96 631.242 225.364C631.098 225.868 630.522 225.94 630.162 225.508C629.91 225.256 629.802 224.212 629.802 222.808ZM657.529 221.8C657.349 221.512 657.241 221.116 657.277 220.72C657.349 219.892 657.889 219.784 657.961 219.388C658.105 218.236 659.077 212.944 659.293 211.828C659.617 210.208 659.941 208.732 660.229 207.076C660.301 206.68 660.949 206.536 661.309 206.536C662.029 206.536 662.461 207.112 662.461 207.616C662.461 208.048 662.245 208.408 662.173 208.732C661.417 211.54 660.841 214.276 660.373 217.192C660.265 217.804 660.121 218.416 660.121 219.136C661.237 218.848 661.921 218.704 662.965 218.488C663.901 218.308 665.701 218.2 666.169 218.236C666.493 218.272 666.673 219.172 666.097 219.46C665.809 219.604 665.017 219.748 664.369 219.964C664.009 220.108 662.857 220.396 662.497 220.504C661.381 220.864 659.581 221.008 659.581 222.484V226.588C659.581 226.876 659.149 226.984 658.897 226.984C657.529 226.984 657.529 226.012 657.529 225.04V221.8ZM645.505 220.684C645.433 219.136 646.477 217.444 647.305 216.004C647.809 215.176 648.349 214.24 648.781 213.628C649.177 213.088 650.077 212.836 650.617 213.376C651.013 213.772 650.725 214.384 650.509 214.888C650.977 215.14 652.273 216.112 652.093 217.876C651.949 219.244 651.337 220.252 650.329 221.044C649.573 221.656 648.385 222.196 647.269 222.268C646.657 222.304 645.577 221.944 645.505 220.684ZM649.753 216.076C649.285 216.364 647.629 219.28 647.557 220.324C648.169 220.432 650.041 219.784 650.365 217.804C650.509 216.94 650.113 216.292 649.753 216.076ZM667.119 216.472C667.119 216.184 667.263 215.824 667.515 215.68C668.163 215.356 671.763 214.384 672.447 214.204C674.751 213.628 678.099 213.124 680.475 213.124C681.087 213.124 681.915 213.196 682.239 213.376C682.491 213.484 682.563 213.664 682.563 213.736C682.635 214.096 682.455 214.42 682.239 214.492C681.339 214.744 680.655 214.78 679.539 214.852C678.207 214.924 675.687 215.248 674.283 215.644C673.383 215.932 669.675 216.94 668.703 217.372C668.415 217.516 668.235 217.588 667.983 217.588C667.407 217.588 667.119 216.904 667.119 216.472ZM669.675 210.568C669.639 210.424 669.603 209.92 669.603 209.776C669.603 208.66 669.927 208.012 670.395 207.292C670.503 207.112 670.863 206.752 671.295 206.752C671.979 206.752 672.555 207.004 672.339 207.76C672.195 208.372 671.655 209.056 671.655 209.776C673.707 209.596 676.155 208.624 678.027 208.408C678.495 208.372 678.819 208.516 678.819 209.02V209.164C678.819 209.344 678.603 209.668 677.811 209.92C676.587 210.424 672.879 211.684 671.547 211.684C670.539 211.684 669.963 211.432 669.675 210.568ZM668.487 205.132C668.487 204.736 668.775 204.34 669.279 203.98C670.719 202.936 673.779 202.18 674.931 202.18C675.255 202.18 675.759 202.216 675.975 202.252C676.587 202.324 676.767 202.612 676.767 203.008C676.767 203.332 676.659 203.584 676.335 203.656C676.119 203.692 675.399 203.8 674.931 203.908C673.923 204.124 673.059 204.412 671.979 204.7C671.475 204.844 671.115 205.06 670.863 205.312C670.359 205.816 670.035 206.104 669.567 206.104C668.919 206.104 668.487 205.816 668.487 205.132ZM672.411 234.436C672.483 232.888 674.931 230.872 675.507 230.224C675.939 229.792 677.667 227.92 678.279 227.308C677.667 227.272 677.127 227.308 675.435 227.308C674.247 227.308 673.455 226.552 673.563 225.58C673.707 224.284 676.587 221.944 677.487 221.044C677.883 220.648 678.603 219.928 678.639 219.856C678.747 219.712 678.675 219.496 678.423 219.532C676.803 219.712 674.823 220.144 673.563 220.756C672.987 221.044 672.339 221.296 671.763 221.656C671.187 222.016 670.791 222.34 670.323 222.34C669.675 222.34 669.315 221.836 669.315 221.368C669.315 221.116 669.495 220.756 669.711 220.576C671.439 219.1 677.343 217.588 679.755 217.624C680.691 217.624 681.447 218.236 681.447 219.064C681.447 220.288 678.783 222.196 677.811 223.204C677.271 223.672 676.479 224.464 675.975 225.148C675.867 225.292 675.903 225.472 676.191 225.472C677.163 225.472 678.135 225.472 679.215 225.508C680.007 225.544 680.727 225.976 680.763 226.624C680.799 227.164 680.511 227.452 680.367 227.668C680.331 227.704 679.611 228.496 679.179 228.964C677.739 230.512 676.191 232.096 674.967 233.68C674.607 234.148 674.715 234.904 675.831 234.796C677.559 234.688 680.619 233.896 682.527 233.464C682.923 233.392 683.139 233.572 683.211 233.68C683.391 233.932 683.427 234.544 682.851 234.832C680.907 235.804 675.867 236.704 674.715 236.704C673.275 236.704 672.375 235.804 672.411 234.436ZM697.691 223.636C697.583 222.592 697.619 221.548 697.691 220.504C697.835 218.452 698.159 216.508 698.591 214.492C698.807 213.484 699.059 211.108 700.067 211.108C700.607 211.108 701.291 211.504 701.255 212.008C701.183 212.8 700.859 213.556 700.715 214.24C699.671 219.316 699.635 219.712 699.563 220.252C699.347 221.8 699.311 223.24 699.167 224.824C699.131 225.184 698.663 225.184 698.519 225.184C697.943 225.184 697.763 224.392 697.691 223.636ZM685.091 221.98C685.019 220.432 686.063 218.74 686.891 217.3C687.395 216.472 687.935 215.536 688.367 214.924C688.763 214.384 689.663 214.132 690.203 214.672C690.599 215.068 690.311 215.68 690.095 216.184C690.563 216.436 691.859 217.408 691.679 219.172C691.535 220.54 690.923 221.548 689.915 222.34C689.159 222.952 687.971 223.492 686.855 223.564C686.243 223.6 685.163 223.24 685.091 221.98ZM689.339 217.372C688.871 217.66 687.215 220.576 687.143 221.62C687.755 221.728 689.627 221.08 689.951 219.1C690.095 218.236 689.699 217.588 689.339 217.372ZM718.248 218.704C718.248 218.056 718.284 216.256 718.284 216.148C718.32 213.34 718.608 210.424 719.508 207.616C719.58 207.4 719.976 207.328 720.444 207.328C721.02 207.328 721.416 207.688 721.416 208.264C721.416 208.624 721.308 209.092 721.236 209.488C720.588 212.08 720.48 213.88 720.264 216.652V217.876C721.56 217.336 723.216 216.94 723.864 216.76C724.62 216.544 725.34 216.328 726.672 216.22C727.5 216.148 727.536 216.688 727.32 217.048C727.248 217.192 727.032 217.3 726.924 217.372C726.312 217.66 725.844 217.876 725.16 218.164C724.404 218.488 723.648 218.74 722.928 219.136C722.244 219.46 720.84 219.892 720.264 220.288C720.264 220.504 720.192 221.548 720.192 221.764V222.7C720.192 222.988 720.228 224.212 720.264 224.356C720.336 224.932 720.696 225.868 719.94 225.976C719.544 226.048 718.968 225.976 718.716 225.328C718.608 225.04 718.5 224.608 718.428 224.104C718.356 223.456 718.284 222.772 718.284 222.016C718.284 221.836 718.248 219.532 718.248 218.704ZM705.324 226.696C705.288 226.372 705.252 226.012 705.288 225.616C705.396 225.004 705.54 224.5 705.756 223.888C706.224 222.556 707.628 220.108 708.384 218.812C709.032 217.732 709.608 217.012 709.644 216.58C709.644 216.436 709.536 216.328 709.212 216.184C708.996 216.112 708.456 216.04 708.024 215.788C707.592 215.5 707.124 215.104 707.124 214.024C707.124 213.124 707.34 212.728 707.628 212.044C708.024 211.072 708.636 209.668 709.032 208.696C709.14 208.336 709.176 208.048 709.212 207.544C709.248 207.256 709.032 207.076 708.852 207.076C708.384 207.076 707.7 207.076 707.088 207.292C706.548 207.436 705.936 207.76 705.324 207.76C704.892 207.76 704.532 207.436 704.532 206.86C704.532 206.5 704.784 206.284 704.928 206.176C705.144 205.96 706.008 205.6 706.584 205.456C707.412 205.204 708.888 205.204 709.392 205.24C710.328 205.312 711.444 205.888 711.444 207.112C711.444 208.192 710.976 208.984 710.544 210.064C710.256 211 709.14 212.944 709.032 213.736C708.996 214.168 709.068 214.384 709.428 214.492C709.932 214.672 710.472 214.78 710.76 214.852C711.336 215.032 711.696 215.392 711.696 216.076C711.696 216.616 711.552 217.156 711.264 217.696C710.796 218.524 709.608 220.468 709.428 220.792C709.032 221.548 707.916 223.168 707.664 224.104C707.448 224.716 707.16 225.58 707.268 226.12C707.304 226.372 707.448 226.516 707.7 226.408C708.708 226.084 709.536 225.652 710.508 225.076C710.94 224.86 711.876 224.392 712.272 224.248C712.524 224.176 712.74 224.14 712.956 224.104C713.352 224.104 713.532 224.644 713.1 225.112C712.956 225.292 712.596 225.58 712.416 225.652C711.804 226.156 711.228 226.588 710.472 226.984C710.04 227.308 709.248 227.74 708.852 227.992C708.42 228.136 708.204 228.244 707.808 228.352C706.764 228.532 705.576 228.352 705.324 226.696ZM750.485 213.484C750.521 212.476 750.593 211.432 750.737 210.388C750.953 208.516 751.169 207.256 751.781 205.312C752.069 204.52 752.249 203.8 752.537 203.332C752.753 202.972 753.653 202.936 754.013 203.188C754.193 203.332 754.409 203.584 754.409 203.764C754.445 204.448 754.049 204.916 753.869 205.492C753.257 207.688 752.897 209.56 752.465 212.044C752.357 212.8 752.177 213.628 752.105 214.276C752.069 214.42 752.033 214.6 751.997 214.744C752.825 214.78 753.761 214.924 754.157 215.104C754.697 215.356 754.949 215.896 754.949 216.22C754.949 218.596 752.033 220.612 750.773 222.232C750.521 222.556 750.233 223.168 750.197 223.6C751.313 223.6 754.085 223.636 754.877 223.672C755.957 223.708 756.857 223.924 756.857 225.22C756.857 226.336 755.525 227.416 754.481 228.424C753.617 229.252 749.081 232.492 748.217 233.5C748.721 233.536 749.369 233.536 749.873 233.5C751.817 233.32 753.293 233.032 754.805 232.636C755.381 232.492 756.101 232.348 756.209 232.96C756.353 233.752 755.273 234.076 754.805 234.22C752.825 234.832 750.989 235.408 748.937 235.408C748.145 235.408 747.569 235.3 746.921 234.976C746.705 234.868 746.165 234.4 746.165 233.464C746.165 232.06 748.649 230.656 749.729 229.864C751.349 228.676 753.365 227.02 754.805 225.436H750.845C749.261 225.436 747.965 225.436 747.965 223.528C747.965 221.296 751.025 219.244 752.249 217.48C752.321 217.372 752.645 216.94 752.573 216.688C752.537 216.544 752.249 216.544 752.105 216.544C750.341 216.544 747.821 217.3 746.309 218.272C746.057 218.416 745.193 219.208 744.545 219.496C743.825 219.82 743.249 218.704 743.429 218.092C743.609 217.48 744.509 216.94 744.977 216.688C746.597 215.824 748.613 215.14 750.665 214.816C750.449 214.384 750.449 213.808 750.485 213.484ZM737.237 213.772C737.165 212.224 738.353 210.028 739.181 208.588C739.685 207.76 740.153 206.932 740.585 206.32C740.981 205.744 741.881 205.744 742.313 206.248C742.457 206.392 742.601 206.932 742.277 207.544C742.169 207.724 742.097 207.868 741.953 208.192C742.421 208.372 743.393 209.164 743.285 210.748C743.249 211.468 742.997 212.548 741.953 213.808C741.053 214.888 740.117 215.284 739.001 215.356C738.389 215.392 737.309 215.032 737.237 213.772ZM741.197 209.38C740.729 209.668 739.361 212.368 739.289 213.412C740.333 213.412 741.557 212.116 741.701 210.496C741.737 210.136 741.593 209.488 741.197 209.38ZM763.267 218.776C763.375 218.164 763.591 217.552 763.879 217.048C764.095 216.58 765.499 213.952 765.967 213.052C764.563 213.16 763.303 213.34 762.007 213.736C761.143 213.988 760.243 214.312 759.199 214.528C758.623 214.636 758.263 214.096 758.371 213.484C758.407 213.124 758.659 212.908 759.091 212.728C760.603 212.08 763.915 211.504 764.779 211.396C765.391 211.324 766.111 211.252 766.723 211.216C767.083 210.64 767.875 209.2 767.875 208.444C767.875 207.58 767.263 207.256 766.399 207.256C765.247 207.256 764.347 207.616 763.375 207.76C762.655 207.868 762.547 207.292 762.619 206.86C762.691 206.284 762.943 206.032 763.879 205.852C765.211 205.6 766.291 205.528 767.083 205.564C768.523 205.636 769.891 206.428 769.891 207.94C769.891 208.732 769.747 209.668 769.495 210.316C768.487 212.872 766.723 215.608 765.787 217.336C765.679 217.516 764.959 218.956 764.851 219.1C764.455 219.784 763.159 219.496 763.267 218.776ZM778.891 216.256C778.603 216.256 778.063 216.076 778.135 215.536C778.243 214.6 778.747 213.088 778.999 212.08C779.251 211.18 779.467 210.388 779.611 209.668C778.747 210.316 777.847 210.784 776.443 211.576C776.047 211.792 774.031 212.764 773.635 212.98C772.915 213.304 772.303 213.628 771.475 213.7C770.863 213.772 770.503 213.376 770.503 212.728C770.503 212.512 770.575 212.116 770.935 211.9C771.439 211.612 772.519 211.288 773.167 211.036C775.759 209.92 778.207 208.768 780.367 206.716C780.835 206.176 781.051 204.952 781.519 204.16C781.735 203.764 782.131 203.332 782.851 203.476C783.427 203.584 783.895 204.304 783.499 205.096C783.247 205.672 782.455 207.292 782.275 207.724C781.555 210.424 780.691 212.944 779.971 215.68C779.863 216.076 779.503 216.256 778.891 216.256ZM772.231 234.256C772.231 232.24 775.435 228.1 776.731 226.624C775.183 226.768 773.311 226.768 773.311 225.076C773.311 223.852 773.887 223.06 774.355 222.484C774.751 221.98 776.227 220.144 776.407 219.856C776.587 219.568 776.731 219.424 776.731 219.136C776.443 218.956 773.455 219.856 772.411 220.468C772.051 220.648 771.511 221.224 770.935 221.224C770.431 221.224 770.035 220.432 770.503 219.748C771.511 218.308 775.471 217.3 777.055 217.3C778.279 217.3 778.999 217.696 778.999 218.776C778.999 220.36 776.983 222.052 776.047 223.276C775.723 223.708 775.363 224.248 775.399 224.68C775.399 224.824 775.507 224.932 775.831 224.932C776.587 224.968 777.451 224.932 778.171 224.968C778.819 225.004 779.359 225.148 779.359 225.904C779.359 226.588 779.143 226.84 778.783 227.344C778.423 227.776 776.875 229.54 776.371 230.224C775.579 231.268 774.859 232.456 774.463 233.644C774.463 233.644 774.139 234.76 774.751 234.76C775.795 234.724 777.091 234.22 778.135 233.5C778.747 233.104 779.107 232.924 779.323 232.996C779.863 233.176 780.007 233.752 779.071 234.796C778.819 235.084 778.387 235.372 777.955 235.624C776.911 236.236 775.579 236.74 774.103 236.596C773.167 236.488 772.231 235.912 772.231 234.256ZM785.98 219.496C785.98 219.1 786.376 218.812 786.556 218.74C789.868 217.336 793.432 217.012 797.536 217.012C799.12 217.012 800.344 217.192 801.244 217.408C802.072 217.588 802.972 217.984 802.648 218.776C802.576 218.956 802.288 218.956 802.072 218.956C801.496 218.956 800.2 218.812 799.228 218.704C798.544 218.632 797.86 218.596 797.176 218.596C794.764 218.632 792.28 218.848 789.688 219.64C788.932 219.856 787.672 220.576 787.024 220.648C786.268 220.72 785.98 220.072 785.98 219.496ZM790.66 212.62C790.66 210.46 792.352 208.372 793.36 207.472C793.648 207.22 793.9 207.328 794.26 207.184C794.44 207.112 794.548 206.932 794.98 206.932C795.988 206.932 796.708 208.156 796.708 209.236C796.708 211.468 795.088 213.988 792.388 214.096C791.452 214.132 790.66 213.592 790.66 212.62ZM794.944 208.552C794.116 209.056 792.784 211 792.784 212.368C793.864 212.368 795.196 210.604 795.196 209.236C795.196 208.948 795.088 208.732 794.944 208.552ZM797.068 225.112C797.212 224.536 797.032 224.068 796.456 224.068C795.628 224.068 795.016 224.32 793.9 224.536C793.288 224.644 793 224.32 793 223.528C793 222.664 794.08 222.592 794.62 222.484C795.196 222.376 796.312 222.304 796.816 222.304C798.364 222.268 799.012 222.844 799.048 224.068C799.084 224.896 798.508 226.444 797.932 227.668C799.408 227.452 800.56 227.38 802.108 227.344C802.576 227.344 803.044 227.344 803.44 227.38C804.484 227.452 804.34 228.496 803.728 228.64C803.332 228.712 802.504 228.784 802.144 228.82C800.236 229 798.76 229.216 796.852 229.792C795.844 230.08 795.016 230.584 794.188 230.692C793.9 230.728 793.432 230.62 793.252 230.44C793.036 230.188 792.964 229.648 793.252 229.324C793.324 229.108 793.972 228.928 794.368 228.748C794.8 228.532 795.52 228.172 795.916 227.668C796.348 227.128 796.744 226.048 797.068 225.112ZM789.364 229.72C789.076 228.028 789.796 224.968 790.084 223.06C790.192 222.196 789.976 221.404 791.092 221.224C791.92 221.08 792.136 221.584 792.244 222.268C792.424 223.24 791.776 224.32 791.632 225.22C791.452 226.66 791.2 229.072 790.948 230.512C790.876 230.836 790.588 231.016 790.336 231.052C789.58 231.16 789.436 230.296 789.364 229.72ZM809.137 233.608C809.281 232.6 811.045 231.016 812.377 229.864C813.889 228.496 816.265 226.804 816.913 226.012C815.077 226.084 813.601 226.048 811.837 226.048C809.677 226.048 809.821 224.14 811.009 223.132C811.477 222.736 813.601 220.684 814.177 220.144C814.537 219.784 815.149 219.424 815.185 219.136C813.349 219.244 811.981 219.46 810.973 219.64C810.181 219.784 808.957 220.108 807.877 220.18C807.229 220.252 806.941 219.676 806.941 219.172C806.941 218.812 807.373 218.38 808.093 218.2C810.217 217.48 814.141 217.264 815.149 217.264C816.337 217.264 817.309 217.84 817.309 218.884C817.309 220.324 814.789 221.98 813.349 223.384C813.205 223.564 812.881 223.852 812.485 224.212C813.241 224.248 813.925 224.248 814.681 224.248C814.969 224.248 817.201 224.284 817.309 224.284C820.045 224.284 819.433 226.012 818.245 227.02C818.101 227.2 815.473 229.504 815.005 229.864C814.357 230.368 812.377 232.276 811.405 233.176C812.197 233.176 813.601 232.996 814.717 232.852C816.085 232.672 818.497 232.132 818.929 232.096C819.181 232.024 819.757 231.916 820.189 231.916C820.657 231.916 820.873 233.068 819.253 233.572C817.309 234.184 812.845 235.012 811.009 235.084C809.785 235.12 808.993 234.58 809.137 233.608ZM804.889 215.032C804.925 214.636 805.357 214.384 805.537 214.312C808.921 213.088 811.189 212.98 813.205 212.944C814.789 212.908 816.013 213.016 816.913 213.196C817.741 213.376 818.641 213.772 818.317 214.564C818.245 214.744 817.957 214.744 817.741 214.744C817.165 214.744 815.869 214.6 814.897 214.6C812.773 214.564 810.829 214.708 808.597 215.32C807.841 215.536 806.545 216.148 805.897 216.184C805.141 216.22 804.889 215.608 804.889 215.032ZM808.849 209.38C808.849 207.22 810.541 205.132 811.549 204.232C811.837 203.98 812.089 204.088 812.449 203.944C812.629 203.872 812.737 203.692 813.169 203.692C814.177 203.692 814.897 204.916 814.897 205.996C814.897 208.228 813.277 210.748 810.577 210.856C809.641 210.892 808.849 210.352 808.849 209.38ZM813.133 205.312C812.305 205.816 810.973 207.76 810.973 209.128C812.053 209.128 813.385 207.364 813.385 205.996C813.385 205.708 813.277 205.492 813.133 205.312ZM839.428 229.108C839.428 227.776 839.896 226.516 840.436 225.328C840.58 225.04 841.12 224.824 841.516 224.86C842.2 224.896 842.56 225.184 842.488 225.688C842.38 226.516 841.948 227.056 841.696 227.92C841.588 228.208 841.444 229.072 841.84 229.252C842.164 229.396 842.992 229.324 843.136 229.288C845.404 228.928 846.664 228.46 849.148 228.1C849.868 227.992 850.12 229.54 849.184 229.756C846.268 230.44 844.072 231.088 841.732 231.268C841.48 231.304 840.832 231.376 840.4 231.16C839.716 230.836 839.428 230.116 839.428 229.108ZM837.88 223.6C837.952 223.204 838.312 222.988 838.528 222.844C840.472 221.404 845.008 220.756 848.032 221.008C848.86 221.08 848.86 222.448 847.96 222.556C845.908 222.772 843.136 222.88 841.516 223.492C840.652 223.816 839.32 224.824 838.42 224.68C837.952 224.608 837.736 224.032 837.88 223.6ZM844.468 217.732C844.288 215.896 844.756 212.296 845.08 210.46C845.476 208.408 845.764 206.68 846.088 204.664C846.16 204.088 846.592 203.98 846.592 203.98C847.312 203.908 848.464 204.232 848.284 205.168C847.96 207.292 847.564 209.344 847.276 211.324C847.816 211.18 848.932 211.036 849.508 210.892C850.588 210.676 851.488 210.568 852.712 210.532C853.684 210.496 854.584 210.676 854.584 211.324C854.584 211.792 853.684 211.972 853.36 212.008C851.956 212.188 850.876 212.368 849.508 212.8C848.608 213.052 846.988 213.376 846.772 214.456C846.592 215.752 846.484 217.336 846.448 218.596C846.448 218.92 846.232 219.136 845.764 219.172C844.756 219.28 844.54 218.524 844.468 217.732ZM830.644 214.456C830.716 211.324 831.076 208.624 831.94 205.744C832.084 205.24 832.516 205.096 832.984 205.096C833.524 205.096 833.812 205.528 833.812 205.924C833.812 206.32 833.596 206.788 833.524 207.04C833.092 208.66 832.876 210.028 832.66 212.692C833.128 212.584 834.208 212.224 834.676 212.044C835.18 211.864 835.648 211.54 835.864 211.108C836.224 210.388 836.584 209.02 836.764 208.192C836.944 207.292 837.412 207.04 837.988 207.04C838.456 207.04 838.708 207.364 838.636 207.868C838.528 208.516 838.384 208.912 838.276 209.56C838.168 210.208 838.06 210.856 837.88 211.54C837.844 211.72 837.628 212.512 837.556 212.728C837.34 213.736 837.052 215.068 836.836 216.004C836.404 217.768 836.116 219.208 835.108 219.208C834.532 219.208 834.388 218.776 834.496 218.272C834.784 216.796 835.252 214.564 835.396 213.844C834.676 213.844 832.84 214.744 832.552 215.104C832.516 215.752 832.516 216.004 832.552 217.228C832.552 217.516 832.696 218.74 832.804 219.064C832.948 219.64 833.2 220.54 833.704 220.504C834.064 220.468 834.46 219.856 834.748 219.856C835.036 219.856 835.072 220.216 835.036 220.684C834.964 221.44 834.388 222.52 833.596 222.52C832.3 222.52 831.328 220.396 831.148 219.496C830.788 217.516 830.608 216.436 830.644 214.456ZM859.305 233.608C859.449 232.6 861.213 231.016 862.545 229.864C864.057 228.496 866.433 226.804 867.081 226.012C865.245 226.084 863.769 226.048 862.005 226.048C859.845 226.048 859.989 224.14 861.177 223.132C861.645 222.736 863.769 220.684 864.345 220.144C864.705 219.784 865.317 219.424 865.353 219.136C863.517 219.244 862.149 219.46 861.141 219.64C860.349 219.784 859.125 220.108 858.045 220.18C857.397 220.252 857.109 219.676 857.109 219.172C857.109 218.812 857.541 218.38 858.261 218.2C860.385 217.48 864.309 217.264 865.317 217.264C866.505 217.264 867.477 217.84 867.477 218.884C867.477 220.324 864.957 221.98 863.517 223.384C863.373 223.564 863.049 223.852 862.653 224.212C863.409 224.248 864.093 224.248 864.849 224.248C865.137 224.248 867.369 224.284 867.477 224.284C870.213 224.284 869.601 226.012 868.413 227.02C868.269 227.2 865.641 229.504 865.173 229.864C864.525 230.368 862.545 232.276 861.573 233.176C862.365 233.176 863.769 232.996 864.885 232.852C866.253 232.672 868.665 232.132 869.097 232.096C869.349 232.024 869.925 231.916 870.357 231.916C870.825 231.916 871.041 233.068 869.421 233.572C867.477 234.184 863.013 235.012 861.177 235.084C859.953 235.12 859.161 234.58 859.305 233.608ZM855.057 215.032C855.093 214.636 855.525 214.384 855.705 214.312C859.089 213.088 861.357 212.98 863.373 212.944C864.957 212.908 866.181 213.016 867.081 213.196C867.909 213.376 868.809 213.772 868.485 214.564C868.413 214.744 868.125 214.744 867.909 214.744C867.333 214.744 866.037 214.6 865.065 214.6C862.941 214.564 860.997 214.708 858.765 215.32C858.009 215.536 856.713 216.148 856.065 216.184C855.309 216.22 855.057 215.608 855.057 215.032ZM859.017 209.38C859.017 207.22 860.709 205.132 861.717 204.232C862.005 203.98 862.257 204.088 862.617 203.944C862.797 203.872 862.905 203.692 863.337 203.692C864.345 203.692 865.065 204.916 865.065 205.996C865.065 208.228 863.445 210.748 860.745 210.856C859.809 210.892 859.017 210.352 859.017 209.38ZM863.301 205.312C862.473 205.816 861.141 207.76 861.141 209.128C862.221 209.128 863.553 207.364 863.553 205.996C863.553 205.708 863.445 205.492 863.301 205.312ZM893.16 225.004C892.692 225.292 891.648 226.084 891.108 226.552C890.604 226.948 890.424 227.668 889.596 227.668C888.552 227.668 888.696 226.3 889.236 225.724C891.288 223.492 894.456 221.62 896.796 219.64C897.48 219.064 897.948 218.416 898.992 218.416C899.352 218.416 899.676 218.704 899.748 219.136C899.784 219.316 899.712 219.892 899.28 220.216C897.732 221.512 896.364 222.484 894.852 223.744C895.932 225.04 898.956 227.776 900.828 229.108C902.016 229.936 902.952 230.764 904.068 231.484C904.608 231.808 906.444 232.924 906.444 233.428C906.444 233.752 906.192 233.932 905.832 233.896C904.284 233.752 901.44 231.664 899.784 230.476C899.244 230.08 896.508 228.028 895.896 227.452C895.212 226.84 893.592 225.436 893.16 225.004ZM888.156 215.68C887.94 216.472 887.724 217.3 887.4 218.092C887.004 219.064 886.608 220.216 885.96 220.216C885.168 220.216 884.952 219.784 885.06 218.992C885.204 218.02 885.42 217.372 885.708 216.58C886.32 214.852 886.752 212.44 886.752 210.748C886.752 210.136 886.464 209.956 885.96 209.992C884.88 210.064 883.728 210.496 882.9 210.928C882.396 211.18 881.856 211.468 881.388 211.576C880.74 211.72 880.344 211.252 880.344 210.46C880.344 209.956 881.028 209.452 881.928 209.056C883.476 208.372 885.744 207.904 886.5 207.976C887.94 208.12 888.48 208.588 888.804 209.56C888.912 209.848 888.912 210.568 888.912 210.748C888.912 212.368 888.624 213.916 888.156 215.68ZM899.64 212.188C899.028 212.44 897.948 212.836 896.832 213.268C896.616 213.34 894.78 214.06 893.772 214.384C893.124 214.6 891.864 215.068 891.288 215.212C890.64 215.32 890.064 215.104 890.028 214.348C889.992 213.772 890.64 213.484 891.144 213.304C891.432 213.196 893.196 212.62 893.34 212.584C894.276 212.26 894.924 212.008 895.356 211.864C897.048 211.252 899.856 210.172 900.144 209.416C900.324 208.912 900.648 207.4 900.9 206.788C901.152 206.32 901.404 205.924 902.052 205.924C902.628 205.924 902.952 206.284 902.988 206.896C903.06 208.12 902.232 208.948 901.836 210.46C901.44 212.008 901.044 213.916 900.9 215.428C900.864 215.788 900.828 216.148 900.756 216.364C900.54 217.048 899.496 217.048 899.316 216.292C899.244 216.004 899.244 215.428 899.28 215.068C899.424 213.952 899.496 213.268 899.64 212.188ZM920.645 216.364C920.681 215.356 920.753 214.312 920.897 213.268C921.113 211.396 921.185 210.496 921.797 208.552C922.085 207.76 922.265 207.04 922.553 206.572C922.769 206.212 923.669 206.176 924.029 206.428C924.209 206.572 924.425 206.824 924.425 207.004C924.461 207.688 924.065 208.156 923.885 208.732C923.273 210.928 923.057 212.44 922.625 214.924C922.517 215.68 922.337 216.508 922.265 217.156C922.229 217.624 921.905 218.308 921.509 218.236C920.645 218.056 920.609 216.904 920.645 216.364ZM917.693 228.676C917.837 227.956 919.097 227.632 919.673 227.2C919.817 227.092 919.997 226.876 920.069 226.768C920.717 225.616 921.185 224.68 921.185 223.312C921.185 222.808 920.969 222.592 920.393 222.592C919.961 222.592 919.457 222.628 919.133 222.736C917.693 223.168 917.189 223.672 916.505 224.752C916.145 225.328 916.037 226.192 916.037 227.596C916.037 227.956 915.605 228.208 914.993 228.208C913.877 228.208 914.093 226.768 914.093 226.048C914.093 225.292 914.309 223.6 914.525 222.628C914.741 221.8 914.777 221.512 914.993 220.648C915.245 219.712 915.893 219.1 916.757 219.1C917.081 219.1 917.621 219.388 917.513 219.82C917.297 220.684 917.009 221.26 916.937 222.016C917.297 221.764 917.693 221.476 918.017 221.296C918.845 220.9 919.385 220.684 920.177 220.648C921.329 220.612 922.409 220.684 922.913 221.62C923.273 222.304 923.273 223.672 922.949 224.788C922.877 225.04 922.373 226.264 922.229 226.48C923.093 226.228 923.813 226.048 924.425 225.976C925.397 225.868 925.865 225.868 926.693 225.94C927.269 225.976 927.233 227.344 926.585 227.308C925.145 227.488 923.957 227.848 922.481 228.28C921.977 228.424 921.077 228.712 920.645 228.928C919.961 229.288 919.205 229.864 918.413 229.792C917.873 229.756 917.585 229.108 917.693 228.676ZM907.253 215.932C907.181 214.384 908.369 212.188 909.197 210.748C909.701 209.92 910.169 209.092 910.601 208.48C910.997 207.904 911.897 207.904 912.329 208.408C912.473 208.552 912.617 209.092 912.293 209.704C912.185 209.884 912.113 210.028 911.969 210.352C912.437 210.532 913.409 211.324 913.301 212.908C913.265 213.628 913.013 214.708 911.969 215.968C911.069 217.048 910.133 217.444 909.017 217.516C908.405 217.552 907.325 217.192 907.253 215.932ZM911.213 211.54C910.745 211.828 909.377 214.528 909.305 215.572C910.349 215.572 911.573 214.276 911.717 212.656C911.753 212.296 911.609 211.648 911.213 211.54ZM941.007 223.636C940.899 222.592 940.935 221.548 941.007 220.504C941.151 218.452 941.475 216.508 941.907 214.492C942.123 213.484 942.375 211.108 943.383 211.108C943.923 211.108 944.607 211.504 944.571 212.008C944.499 212.8 944.175 213.556 944.031 214.24C942.987 219.316 942.951 219.712 942.879 220.252C942.663 221.8 942.627 223.24 942.483 224.824C942.447 225.184 941.979 225.184 941.835 225.184C941.259 225.184 941.079 224.392 941.007 223.636ZM928.407 221.98C928.335 220.432 929.379 218.74 930.207 217.3C930.711 216.472 931.251 215.536 931.683 214.924C932.079 214.384 932.979 214.132 933.519 214.672C933.915 215.068 933.627 215.68 933.411 216.184C933.879 216.436 935.175 217.408 934.995 219.172C934.851 220.54 934.239 221.548 933.231 222.34C932.475 222.952 931.287 223.492 930.171 223.564C929.559 223.6 928.479 223.24 928.407 221.98ZM932.655 217.372C932.187 217.66 930.531 220.576 930.459 221.62C931.071 221.728 932.943 221.08 933.267 219.1C933.411 218.236 933.015 217.588 932.655 217.372ZM947.597 228.136C947.597 227.776 947.597 227.452 947.957 227.236C948.389 226.984 949.073 226.948 949.649 226.696C951.125 226.012 952.781 224.86 953.573 223.42C954.473 221.836 955.013 219.568 955.517 217.768C955.805 216.796 956.165 215.608 956.345 214.744C956.525 213.952 956.633 212.296 957.677 212.296C958.253 212.296 958.469 212.836 958.469 213.304C958.469 214.096 958.217 214.636 958.037 215.32C957.425 217.66 957.065 219.244 956.273 221.62C955.805 222.988 955.661 223.852 954.689 225.112C954.257 225.688 953.393 226.372 952.889 226.768C953.861 226.768 955.013 226.804 957.173 226.804C958.109 226.804 959.981 226.948 960.701 227.02C961.061 227.056 961.385 227.38 961.385 227.884C961.385 228.28 961.133 228.388 960.665 228.352C959.549 228.352 957.785 228.424 956.273 228.424C954.977 228.424 953.717 228.424 952.241 228.496C951.089 228.712 949.865 228.928 948.749 228.928C948.281 228.928 947.597 228.712 947.597 228.136ZM948.605 222.052C948.605 220.504 949.325 218.668 949.757 217.192C949.901 216.76 950.009 216.292 950.549 216.292C951.125 216.292 951.737 216.616 951.737 217.192C951.737 218.092 951.233 218.776 950.945 219.676C950.657 220.54 950.261 221.728 950.261 222.628C950.261 223.204 950.477 223.528 950.477 223.996C950.477 224.428 950.297 224.536 949.973 224.536C948.749 224.536 948.605 222.988 948.605 222.052ZM949.253 212.44C949.253 210.28 950.945 208.192 951.953 207.292C952.241 207.04 952.493 207.148 952.853 207.004C953.033 206.932 953.141 206.752 953.573 206.752C954.581 206.752 955.301 207.976 955.301 209.056C955.301 211.288 953.681 213.808 950.981 213.916C950.045 213.952 949.253 213.412 949.253 212.44ZM953.537 208.372C952.709 208.876 951.377 210.82 951.377 212.188C952.457 212.188 953.789 210.424 953.789 209.056C953.789 208.768 953.681 208.552 953.537 208.372Z" fill="white"/>
<path d="M678.753 269.344C679.401 268.84 679.617 268.72 680.313 268.336C680.361 268.024 680.457 267.568 680.553 267.16C680.745 266.008 680.985 265.336 681.105 264.112C681.153 263.584 680.865 263.392 680.433 263.416C679.713 263.464 678.657 263.776 678.153 264.688C678.105 264.784 678.009 265.408 678.033 265.792C678.081 266.488 678.105 266.944 678.129 267.568C678.153 268.168 677.697 268.192 677.529 268.192C677.025 268.192 676.809 267.472 676.761 267.136C676.737 266.992 676.689 266.608 676.689 266.536C676.617 265.792 676.569 265.072 676.665 264.304C676.785 263.248 676.929 262.192 677.337 261.208C677.457 260.872 677.985 260.824 678.321 260.968C678.585 261.04 678.657 261.304 678.609 261.496C678.561 261.736 678.513 261.88 678.417 262.096C678.321 262.384 678.273 262.456 678.225 262.768C679.113 262.312 679.785 262.048 680.721 261.976C681.657 261.904 682.497 262.456 682.425 263.416C682.281 265.12 682.113 265.912 681.873 267.064C681.801 267.352 681.753 267.568 681.753 267.76C682.137 267.616 682.449 267.52 682.569 267.472C683.241 267.208 684.225 266.8 684.537 266.728C684.969 266.632 685.065 267.136 684.897 267.328C684.609 267.616 682.401 268.696 682.113 268.84C681.513 269.128 681.225 269.32 680.577 269.656C680.337 269.8 679.641 270.256 679.353 270.376C678.897 270.496 678.321 269.704 678.753 269.344ZM687.393 269.512C687.321 269.248 687.321 268.312 687.297 268.12C687.273 267.928 687.177 267.784 687.201 267.568C687.489 265.048 687.873 262.624 688.425 260.08C688.497 259.792 688.569 259.432 688.977 259.432C689.433 259.432 689.721 259.72 689.721 260.176C689.721 260.728 689.457 261.208 689.361 261.664C689.025 263.152 688.761 264.76 688.665 266.344C689.433 265.984 690.849 265.624 691.785 265.6C691.785 265.6 692.265 265.576 692.361 265.624C692.505 265.696 692.601 265.744 692.529 266.056C692.409 266.56 690.369 266.872 689.361 267.448C688.857 267.736 688.593 268.144 688.593 268.768C688.593 269.44 688.809 270.088 688.809 270.736C688.809 271 688.497 271.12 688.329 271.12C687.585 271.12 687.513 269.992 687.393 269.512ZM693.967 269.608C693.943 268.552 693.991 267.4 694.231 266.104C694.351 265.408 694.375 264.544 694.543 263.944C694.567 263.848 694.687 263.488 694.903 263.368C695.335 263.104 695.911 263.344 695.839 263.944C695.767 264.616 695.575 265.792 695.479 266.512C695.743 266.416 696.511 266.056 696.607 266.008C697.183 265.72 697.999 265.312 698.599 265.048C698.935 264.904 699.391 264.688 699.823 264.688C700.111 264.688 700.207 264.976 700.183 265.216C700.159 265.384 700.015 265.528 699.823 265.648C699.319 265.936 698.887 266.152 698.311 266.44C697.735 266.728 696.391 267.352 695.743 267.712C695.455 267.88 695.335 268.048 695.287 268.48C695.239 268.864 695.239 269.392 695.263 269.776C695.311 270.448 695.719 270.592 696.103 270.4C696.727 270.088 697.735 269.488 698.311 269.056C698.407 268.984 698.623 268.864 698.863 268.912C699.079 268.96 699.199 269.128 699.175 269.32C699.151 269.632 698.791 269.872 698.431 270.16C698.047 270.448 697.111 270.976 696.679 271.216C696.271 271.456 695.863 271.648 695.431 271.648C694.327 271.648 693.991 270.688 693.967 269.608ZM693.487 261.16C693.631 260.992 693.967 260.68 694.039 260.632C694.615 260.2 695.119 259.84 695.743 259.648C696.607 259.384 697.207 259.408 697.735 259.48C698.767 259.624 699.103 259.864 699.103 260.296C699.103 260.608 698.911 260.728 698.623 260.728C698.167 260.728 697.759 260.656 697.327 260.656C697.087 260.656 696.607 260.704 696.247 260.824C695.815 260.968 695.191 261.28 694.903 261.544C694.591 261.832 694.327 262.144 693.943 262.192C693.247 262.192 693.199 261.496 693.487 261.16ZM702.079 269.752C701.815 268.84 701.671 268.048 701.575 267.04C701.551 266.8 701.527 266.176 701.527 266.056V265.288C701.527 263.632 701.815 261.952 702.415 260.296C702.463 260.128 702.511 259.936 702.727 259.84C703.063 259.672 703.687 259.864 703.855 260.224C703.855 260.392 703.855 260.536 703.759 260.704C703.279 262.168 702.895 263.68 702.895 265.336C702.895 265.528 702.919 266.224 702.991 266.584C703.303 266.464 703.639 266.296 703.879 266.176C704.191 266.008 704.935 265.696 705.271 265.528C705.775 265.264 706.351 265.072 706.975 265.144C707.431 265.192 707.383 265.696 707.239 265.912L707.191 265.96C706.807 266.2 706.279 266.392 705.823 266.632C705.175 266.992 703.231 267.832 703.159 268.408C703.279 269.152 703.423 269.416 703.471 269.68C703.519 270.088 703.063 270.232 702.703 270.208C702.391 270.208 702.223 270.04 702.079 269.752ZM708.007 268.336C707.887 267.88 707.791 267.472 707.767 266.92C707.743 266.776 707.791 266.056 707.815 265.864C707.959 264.664 708.295 263.584 708.463 262.408C708.511 262.288 708.631 262.168 708.751 262.12C709.183 261.904 709.711 262.12 709.831 262.648C709.855 262.792 709.807 263.104 709.663 263.584C709.639 263.728 709.447 264.472 709.351 265.144C709.063 266.776 709.015 267.04 708.991 267.256C708.991 267.76 709.111 268.552 708.511 268.72H708.463C708.271 268.744 708.079 268.552 708.007 268.336ZM717.306 279.472C717.33 278.752 717.546 277.744 717.666 277.216C717.93 276.016 718.386 274.864 718.458 273.592C718.482 273.208 718.506 272.872 718.122 272.752C718.05 272.728 717.906 272.728 717.858 272.728C717.162 272.728 716.01 273.112 715.53 273.52C715.386 273.64 715.17 273.832 714.978 273.832C714.594 273.832 714.402 273.232 714.498 272.944C714.546 272.776 714.594 272.68 714.93 272.392C715.53 271.888 716.994 271.432 717.81 271.432C718.074 271.432 718.506 271.456 718.698 271.504C719.586 271.696 719.778 272.128 719.778 273.016C719.778 274.216 719.49 275.368 719.154 276.592C718.962 277.312 718.722 278.392 718.578 279.112C718.554 279.256 718.482 279.568 718.458 279.784C718.434 280.168 717.906 280.24 717.618 280.192C717.378 280.144 717.282 279.976 717.306 279.472ZM712.746 269.632C712.698 269.32 713.034 269.104 713.274 268.912C713.874 268.456 714.378 267.496 714.642 266.848C714.93 266.128 715.098 265.528 715.482 264.784C715.578 264.592 715.89 264.52 716.154 264.544C716.562 264.568 716.634 264.904 716.634 265.168C716.634 265.576 716.322 266.224 716.154 266.584C715.914 267.088 715.746 267.424 715.554 267.856C715.434 268.096 715.218 268.504 715.002 268.792C716.178 268.552 717.618 268.288 718.842 268.216C719.754 268.168 720.474 268.168 721.218 268.36C721.482 268.48 721.41 269.104 721.146 269.152C720.858 269.176 719.586 269.272 719.346 269.296C718.986 269.344 718.098 269.44 717.69 269.512C716.274 269.728 714.858 270.112 713.442 270.376C713.082 270.448 712.794 270.136 712.746 269.632ZM711.906 259.672C711.858 259.072 711.882 258.496 711.882 257.92C711.882 257.392 711.858 257.08 711.906 256.624C711.93 256.36 712.098 256.168 712.506 256.168C712.962 256.168 713.178 256.36 713.154 256.72C713.13 257.056 713.082 257.368 713.082 257.92C713.082 258.376 713.082 258.64 713.13 259.192C713.13 259.288 713.25 259.36 713.346 259.36C713.778 259.336 714.402 259.12 714.834 258.928C715.002 258.856 715.026 258.616 715.026 258.616C715.05 258.52 715.122 258.112 715.146 258.016C715.194 257.704 715.386 256.936 715.458 256.648C715.506 256.456 715.65 256.264 716.082 256.264C716.49 256.264 716.73 256.408 716.634 256.816C716.514 257.392 716.418 257.728 716.298 258.376C716.274 258.472 716.13 259.096 716.106 259.312C716.058 259.84 715.698 262.648 715.554 263.2C715.386 263.848 714.834 264.232 714.186 264.232C713.154 264.232 712.434 262.84 712.266 261.904C712.194 261.448 711.978 260.512 711.906 259.672ZM713.346 261.016C713.346 261.304 713.754 263.032 714.186 263.032C714.474 263.032 714.618 262.72 714.642 262.456C714.666 262.192 714.666 261.904 714.69 261.64C714.69 261.544 714.738 260.92 714.738 260.824V260.536C714.738 260.368 714.738 260.272 714.546 260.272C714.09 260.272 713.346 260.632 713.346 261.016ZM722.682 267.664C722.682 267.4 722.946 267.208 723.066 267.16C725.274 266.224 727.65 266.008 730.386 266.008C731.442 266.008 732.258 266.128 732.858 266.272C733.41 266.392 734.01 266.656 733.794 267.184C733.746 267.304 733.554 267.304 733.41 267.304C733.026 267.304 732.162 267.208 731.514 267.136C731.058 267.088 730.602 267.064 730.146 267.064C728.538 267.088 726.882 267.232 725.154 267.76C724.65 267.904 723.81 268.384 723.378 268.432C722.874 268.48 722.682 268.048 722.682 267.664ZM725.802 263.08C725.802 261.64 726.93 260.248 727.602 259.648C727.794 259.48 727.962 259.552 728.202 259.456C728.322 259.408 728.394 259.288 728.682 259.288C729.354 259.288 729.834 260.104 729.834 260.824C729.834 262.312 728.754 263.992 726.954 264.064C726.33 264.088 725.802 263.728 725.802 263.08ZM728.658 260.368C728.106 260.704 727.218 262 727.218 262.912C727.938 262.912 728.826 261.736 728.826 260.824C728.826 260.632 728.754 260.488 728.658 260.368ZM730.074 271.408C730.17 271.024 730.05 270.712 729.666 270.712C729.114 270.712 728.706 270.88 727.962 271.024C727.554 271.096 727.362 270.88 727.362 270.352C727.362 269.776 728.082 269.728 728.442 269.656C728.826 269.584 729.57 269.536 729.906 269.536C730.938 269.512 731.37 269.896 731.394 270.712C731.418 271.264 731.034 272.296 730.65 273.112C731.634 272.968 732.402 272.92 733.434 272.896C733.746 272.896 734.058 272.896 734.322 272.92C735.018 272.968 734.922 273.664 734.514 273.76C734.25 273.808 733.698 273.856 733.458 273.88C732.186 274 731.202 274.144 729.93 274.528C729.258 274.72 728.706 275.056 728.154 275.128C727.962 275.152 727.65 275.08 727.53 274.96C727.386 274.792 727.338 274.432 727.53 274.216C727.578 274.072 728.01 273.952 728.274 273.832C728.562 273.688 729.042 273.448 729.306 273.112C729.594 272.752 729.858 272.032 730.074 271.408ZM724.938 274.48C724.746 273.352 725.226 271.312 725.418 270.04C725.49 269.464 725.346 268.936 726.09 268.816C726.642 268.72 726.786 269.056 726.858 269.512C726.978 270.16 726.546 270.88 726.45 271.48C726.33 272.44 726.162 274.048 725.994 275.008C725.946 275.224 725.754 275.344 725.586 275.368C725.082 275.44 724.986 274.864 724.938 274.48ZM741.491 276.136C741.491 275.872 741.731 275.632 741.899 275.488C742.931 274.456 745.091 272.512 745.763 270.928C745.835 270.76 745.907 270.424 745.907 270.304C745.835 269.32 743.675 269.056 742.715 268C742.091 267.304 741.755 266.008 741.611 265.144C741.587 264.976 741.515 263.968 741.443 263.8C741.323 263.536 741.227 263.176 741.227 262.912C741.227 262.696 741.371 262.6 741.395 262.36C741.443 261.952 741.419 261.52 741.419 261.112C741.419 260.656 741.467 259.816 741.539 259.312C741.611 258.736 741.779 258.184 742.235 258.064C742.571 257.968 742.931 258.088 743.123 258.4C743.219 258.544 743.147 258.904 743.075 259.096C742.811 259.864 742.835 260.848 742.835 261.664C742.835 261.736 742.835 262.12 742.859 262.384C743.123 262.432 744.083 262.432 744.419 262.432C744.851 262.432 746.819 262.552 747.419 262.624C747.683 262.648 747.827 262.864 747.827 263.104C747.827 263.392 747.659 263.584 747.299 263.584C746.075 263.584 744.107 263.68 742.883 263.704C742.979 265.024 743.147 266.488 743.771 267.136C744.227 267.616 744.755 268.024 745.523 268.36C746.435 268.768 747.419 269.44 747.347 270.568C747.275 271.672 746.339 272.824 745.427 273.904C745.043 274.36 743.819 275.464 743.387 275.848C743.051 276.136 742.547 276.472 742.115 276.52C741.755 276.568 741.491 276.52 741.491 276.136ZM750.145 262.072C750.025 261.664 750.265 261.064 750.745 260.968C751.537 260.8 752.137 261.304 752.281 262C752.425 262.6 752.209 263.032 751.681 263.128C750.817 263.32 750.361 262.792 750.145 262.072ZM750.145 269.752C750.025 269.344 750.265 268.744 750.745 268.648C751.537 268.48 752.137 268.984 752.281 269.68C752.425 270.28 752.209 270.712 751.681 270.808C750.817 271 750.361 270.472 750.145 269.752ZM758.253 274C758.445 273.208 758.493 272.56 758.637 271.624C758.781 270.712 758.781 269.8 758.877 268.792C758.997 267.664 759.045 266.56 759.045 265.264C758.661 265.648 758.205 266.08 757.749 266.392C757.197 266.776 756.549 267.064 755.661 266.872C755.181 266.776 754.821 266.344 754.701 265.624C754.533 264.688 754.773 263.608 754.845 263.248C755.037 262.192 756.501 259.072 758.205 259.072C760.149 259.072 760.413 261.112 760.389 263.32V265.096C760.389 266.224 760.389 267.424 760.269 268.552C760.197 269.32 760.005 270.928 759.885 271.624C759.789 272.248 759.669 273.232 759.405 273.784C759.261 274.12 758.997 274.648 758.493 274.576C758.253 274.552 758.181 274.336 758.253 274ZM756.117 265.528C756.549 265.816 758.325 264.664 758.925 263.968C758.949 263.464 758.949 262.816 758.901 262.072C758.853 261.376 758.685 260.344 758.205 260.368C757.365 260.416 756.693 262.048 756.357 263.008C755.997 264.016 755.781 265.288 756.117 265.528Z" fill="white"/>
<defs>
<radialGradient id="paint0_radial_261_523" cx="0" cy="0" r="1" gradientUnits="userSpaceOnUse" gradientTransform="translate(717.5 193) rotate(90) scale(116 254.5)">
<stop stop-color="#D2D2D2" stop-opacity="0.4"/>
<stop offset="1" stop-color="#2C2C2C" stop-opacity="0.13"/>
</radialGradient>
</defs>
</svg>
