<svg width="375" height="385" viewBox="0 0 375 385" fill="none" xmlns="http://www.w3.org/2000/svg">
<rect width="375" height="385" fill="#2C2C2C"/>
<ellipse cx="187.5" cy="197" rx="187.5" ry="85.4617" fill="url(#paint0_radial_441_751)" fill-opacity="0.8"/>
<path d="M45.6953 38.5H48.4844V40.9844H45.6953V51.1562H42.6719V29.8281H45.6953V38.5ZM28.375 45.1328C30.625 45.1328 32.3828 45.1172 33.6484 45.0859V43.2578C32.8984 43.1094 32.2422 42.8555 31.6797 42.4961C31.1172 42.1367 30.6836 41.6914 30.3789 41.1602C30.0742 40.6289 29.9219 40.0391 29.9219 39.3906C29.9219 38.6094 30.1406 37.9141 30.5781 37.3047C31.0234 36.6953 31.6445 36.2227 32.4414 35.8867C33.2383 35.5508 34.1484 35.3828 35.1719 35.3828C36.1797 35.3828 37.0781 35.5508 37.8672 35.8867C38.6641 36.2227 39.2852 36.6953 39.7305 37.3047C40.1836 37.9141 40.4141 38.6094 40.4219 39.3906C40.4141 40.0391 40.2539 40.6328 39.9414 41.1719C39.6289 41.7031 39.1875 42.1484 38.6172 42.5078C38.0547 42.8672 37.3984 43.1172 36.6484 43.2578V44.9805C38.5469 44.8789 40.2031 44.7266 41.6172 44.5234L41.8047 46.7031C39.9297 47.0469 37.9883 47.2773 35.9805 47.3945C33.9727 47.5117 31.8555 47.5703 29.6289 47.5703H28.7734L28.375 45.1328ZM28.7969 32.1953H33.6484V29.9453H36.6484V32.1953H41.4531V34.5391H28.7969V32.1953ZM32.7578 39.3906C32.75 39.9453 32.9609 40.375 33.3906 40.6797C33.8281 40.9766 34.4219 41.125 35.1719 41.125C35.8984 41.125 36.4727 40.9766 36.8945 40.6797C37.3242 40.375 37.5391 39.9453 37.5391 39.3906C37.5391 38.8516 37.3242 38.4297 36.8945 38.125C36.4648 37.8203 35.8906 37.6641 35.1719 37.6562C34.4297 37.6641 33.8398 37.8203 33.4023 38.125C32.9648 38.4297 32.75 38.8516 32.7578 39.3906ZM59.6641 35.4531H49.3516V33.0859H53.0547V30.4141H56.0078V33.0859H59.6641V35.4531ZM49.8438 41.4766C49.8438 40.5 50.0469 39.6289 50.4531 38.8633C50.8594 38.0977 51.418 37.5 52.1289 37.0703C52.8477 36.6328 53.6562 36.4141 54.5547 36.4141C55.4531 36.4141 56.2578 36.6328 56.9688 37.0703C57.6797 37.5 58.2344 38.0977 58.6328 38.8633C59.0391 39.6289 59.2422 40.5 59.2422 41.4766C59.2422 42.4531 59.0391 43.3281 58.6328 44.1016C58.2344 44.875 57.6797 45.4805 56.9688 45.918C56.2578 46.3477 55.4531 46.5625 54.5547 46.5625C53.6562 46.5625 52.8477 46.3477 52.1289 45.918C51.418 45.4805 50.8594 44.875 50.4531 44.1016C50.0469 43.3281 49.8438 42.4531 49.8438 41.4766ZM52.4688 41.4766C52.4688 42.2812 52.6562 42.9102 53.0312 43.3633C53.4141 43.8086 53.9219 44.0312 54.5547 44.0312C55.1641 44.0312 55.6562 43.8047 56.0312 43.3516C56.4141 42.8984 56.6094 42.2734 56.6172 41.4766C56.6172 40.9531 56.5273 40.4961 56.3477 40.1055C56.168 39.7148 55.9219 39.418 55.6094 39.2148C55.3047 39.0039 54.9531 38.8984 54.5547 38.8984C53.9297 38.8984 53.4258 39.1289 53.043 39.5898C52.6602 40.0508 52.4688 40.6797 52.4688 41.4766ZM60.4609 30.25H63.25V38.5H64.9844V29.8281H67.8203V51.1562H64.9844V40.8906H63.25V50.2422H60.4609V30.25ZM89.5703 41.9219H81.3203V43.5039C83.1875 43.6367 84.6406 44.0312 85.6797 44.6875C86.7188 45.3438 87.2422 46.2188 87.25 47.3125C87.2422 48.125 86.9414 48.8203 86.3477 49.3984C85.7539 49.9766 84.8984 50.4141 83.7812 50.7109C82.6719 51.0078 81.3516 51.1562 79.8203 51.1562C78.2656 51.1562 76.9258 51.0078 75.8008 50.7109C74.6836 50.4141 73.8281 49.9766 73.2344 49.3984C72.6406 48.8281 72.3438 48.1328 72.3438 47.3125C72.3438 46.2109 72.8672 45.332 73.9141 44.6758C74.9609 44.0195 76.4375 43.625 78.3438 43.4922V41.9219H70.1172V39.5078H89.5703V41.9219ZM70.9844 36.3672C72.25 36.2578 73.3516 36.0391 74.2891 35.7109C75.2266 35.3828 75.9727 34.9922 76.5273 34.5391C77.0898 34.0859 77.4648 33.6016 77.6523 33.0859H71.8984V30.7422H87.8125V33.0859H82.0117C82.1914 33.6016 82.5586 34.0898 83.1133 34.5508C83.6758 35.0039 84.4297 35.3945 85.375 35.7227C86.3281 36.043 87.4531 36.2578 88.75 36.3672L87.6953 38.7109C85.7188 38.5234 84.0586 38.082 82.7148 37.3867C81.3711 36.6836 80.4062 35.8008 79.8203 34.7383C79.2422 35.8008 78.2812 36.6836 76.9375 37.3867C75.5938 38.0898 73.9375 38.5312 71.9688 38.7109L70.9844 36.3672ZM75.3906 47.3125C75.3828 47.8281 75.75 48.2227 76.4922 48.4961C77.2422 48.7695 78.3516 48.9062 79.8203 48.9062C81.2656 48.9062 82.3633 48.7695 83.1133 48.4961C83.8633 48.2227 84.2422 47.8281 84.25 47.3125C84.2422 46.2578 82.7656 45.7188 79.8203 45.6953C78.3359 45.7109 77.2227 45.8516 76.4805 46.1172C75.7461 46.375 75.3828 46.7734 75.3906 47.3125ZM109.469 51.1562H106.609V40.4688H104.805V50.1719H101.969V44.0664L100.281 46.3047C98.4219 45.3281 97.082 43.668 96.2617 41.3242C95.5039 44.0195 94.1719 45.9375 92.2656 47.0781L90.4141 44.7812C91.9453 43.9219 93.0469 42.6523 93.7188 40.9727C94.3984 39.2852 94.7422 37.3281 94.75 35.1016V34.4219H91.1406V32.0312H100.914V34.4219H97.6562V35.1016C97.6562 37.125 97.9961 38.9219 98.6758 40.4922C99.3633 42.0625 100.461 43.2383 101.969 44.0195V30.1328H104.805V38.0312H106.609V29.8281H109.469V51.1562ZM129.672 45.9531H126.672V44.2656H122.594V42.2266H126.672V29.8516H129.672V45.9531ZM111.531 39.2969C114.211 39.2812 116.664 39.2344 118.891 39.1562C121.117 39.0703 123.227 38.9062 125.219 38.6641L125.383 40.7969C123.758 41.0703 122.039 41.2734 120.227 41.4062V45.4609H117.227V48.3906H130.141V50.7812H114.25V44.4062H117.227V41.582C115.742 41.6367 113.961 41.6641 111.883 41.6641L111.531 39.2969ZM113.102 34.3984C113.102 33.6484 113.328 32.9844 113.781 32.4062C114.234 31.8281 114.867 31.3789 115.68 31.0586C116.492 30.7383 117.422 30.5781 118.469 30.5781C119.492 30.5781 120.406 30.7383 121.211 31.0586C122.016 31.3789 122.645 31.8281 123.098 32.4062C123.559 32.9844 123.789 33.6484 123.789 34.3984C123.789 35.1484 123.559 35.8086 123.098 36.3789C122.645 36.9492 122.016 37.3867 121.211 37.6914C120.406 37.9961 119.492 38.1484 118.469 38.1484C117.414 38.1484 116.48 37.9961 115.668 37.6914C114.863 37.3867 114.234 36.9492 113.781 36.3789C113.328 35.8086 113.102 35.1484 113.102 34.3984ZM115.938 34.3984C115.93 34.9062 116.156 35.3008 116.617 35.582C117.086 35.8555 117.719 35.9922 118.516 35.9922C119.234 35.9922 119.816 35.8516 120.262 35.5703C120.715 35.2891 120.945 34.8984 120.953 34.3984C120.945 33.8828 120.711 33.4805 120.25 33.1914C119.797 32.9023 119.203 32.7578 118.469 32.7578C117.695 32.7578 117.078 32.9023 116.617 33.1914C116.156 33.4805 115.93 33.8828 115.938 34.3984ZM157.328 43.9844H149.031V51.1562H146.078V43.9844H137.875V41.5938H157.328V43.9844ZM138.836 38.0078C140.219 37.8359 141.418 37.5156 142.434 37.0469C143.457 36.5781 144.254 36.0156 144.824 35.3594C145.402 34.7031 145.746 34.0156 145.855 33.2969H139.633V30.9531H155.594V33.2969H149.371C149.473 34.0156 149.809 34.7031 150.379 35.3594C150.949 36.0156 151.746 36.5781 152.77 37.0469C153.793 37.5156 155.008 37.8359 156.414 38.0078L155.336 40.3516C153.492 40.1016 151.906 39.6055 150.578 38.8633C149.258 38.1133 148.27 37.1797 147.613 36.0625C146.949 37.1797 145.961 38.1133 144.648 38.8633C143.336 39.6055 141.766 40.1016 139.938 40.3516L138.836 38.0078ZM177.062 51.1562H174.227V29.8281H177.062V51.1562ZM158.172 44.9219C159.648 44.0156 160.734 42.7227 161.43 41.043C162.133 39.3555 162.484 37.5234 162.484 35.5469V34.3984H158.992V32.0078H168.602V34.3984H165.367V35.5469C165.359 37.4766 165.691 39.2344 166.363 40.8203C167.043 42.4062 168.117 43.6172 169.586 44.4531L167.828 46.6562C166.031 45.5938 164.738 43.8203 163.949 41.3359C163.574 42.6328 163.055 43.7773 162.391 44.7695C161.727 45.7617 160.922 46.5469 159.977 47.125L158.172 44.9219ZM167.078 37.1406H169.891V30.1797H172.703V50.1719H169.891V39.5547H167.078V37.1406ZM201.812 33.9531H204.695V36.4141H201.812V40.4922H198.812V29.8281H201.812V33.9531ZM185.523 30.8359H195.766V39.6953H185.523V30.8359ZM187.656 41.3359H201.812V47.1484H190.633V48.5781H202.422V50.9219H187.703V44.9922H198.836V43.6328H187.656V41.3359ZM192.812 37.3281V33.1797H188.477V37.3281H192.812ZM225.086 41.9453H205.633V39.5312H225.086V41.9453ZM205.773 36.1094C206.672 35.8359 207.418 35.4453 208.012 34.9375C208.605 34.4219 209.043 33.8477 209.324 33.2148C209.605 32.5742 209.75 31.9141 209.758 31.2344V30.25H212.711V31.2344C212.711 32.0781 212.93 32.9023 213.367 33.707C213.805 34.5117 214.457 35.1875 215.324 35.7344C216.199 35.1953 216.852 34.5273 217.281 33.7305C217.719 32.9258 217.938 32.0938 217.938 31.2344V30.25H220.984V31.2344C220.977 31.9297 221.109 32.5977 221.383 33.2383C221.656 33.8789 222.086 34.4531 222.672 34.9609C223.258 35.4609 224 35.8438 224.898 36.1094L223.539 38.2891C222.555 37.9766 221.723 37.5312 221.043 36.9531C220.371 36.3672 219.844 35.6797 219.461 34.8906C219.078 35.7422 218.547 36.4883 217.867 37.1289C217.188 37.7695 216.352 38.2578 215.359 38.5938C214.352 38.2578 213.504 37.7695 212.816 37.1289C212.137 36.4805 211.605 35.7227 211.223 34.8555C210.832 35.6523 210.301 36.3438 209.629 36.9297C208.965 37.5078 208.156 37.9531 207.203 38.2656L205.773 36.1094ZM207.883 43.4688H222.766V50.9219H207.883V43.4688ZM219.836 48.5312V45.8359H210.836V48.5312H219.836Z" fill="#D0D0D0"/>
<path d="M105.65 171.54C105.55 170.52 105.83 168.24 105.99 167.22C106.17 166.08 106.57 164.1 106.79 162.98C106.85 162.66 107.07 162.6 107.07 162.6C107.47 162.56 108.01 162.74 107.91 163.26C107.71 164.44 107.01 167.5 106.87 168.6C107.17 168.52 107.89 168.44 108.21 168.36C108.81 168.24 109.23 168.22 109.65 168.2C110.19 168.18 110.69 168.28 110.69 168.64C110.69 168.9 110.19 168.98 110.01 169.02C109.45 169.12 108.97 169.18 108.21 169.42C107.71 169.56 106.81 169.74 106.69 170.34C106.59 171.06 106.67 171.52 106.65 172.22C106.65 172.4 106.53 172.52 106.27 172.54C105.71 172.6 105.69 171.98 105.65 171.54ZM98.15 172.82C98.11 172.52 98.27 172.4 98.57 172.2C98.65 172.16 99.03 171.86 99.09 171.8C99.25 171.64 99.57 171.28 99.65 171.14C99.83 170.84 99.99 170.64 100.09 170.36C100.27 169.9 100.67 169 100.73 168.6C100.77 168.28 100.95 167.86 101.29 167.84C101.83 167.82 101.89 168.22 101.85 168.46C101.79 168.88 101.47 169.78 101.27 170.3C101.09 170.76 100.79 171.32 100.45 171.62C101.51 171.14 102.29 170.9 102.73 170.82C103.25 170.72 103.75 170.62 104.25 170.62C104.45 170.62 104.71 170.62 104.75 170.84C104.81 171.22 104.51 171.28 104.29 171.36C103.91 171.5 103.21 171.7 102.83 171.8C102.51 171.9 102.19 172 101.85 172.1C100.87 172.38 100.57 172.72 99.65 173.1C99.35 173.22 99.29 173.26 98.97 173.36C98.67 173.46 98.21 173.3 98.15 172.82ZM99.57 167.28C99.41 167.14 99.33 166.92 99.33 166.8C99.29 165.94 99.79 164.94 100.53 164.64C101.37 164.3 102.09 164.72 102.05 165.6C102.05 165.82 102.03 165.96 101.97 166.14C101.85 166.56 101.55 167.04 101.21 167.28C100.89 167.5 100.61 167.54 100.37 167.54C100.09 167.54 99.73 167.42 99.57 167.28ZM101.23 165.26C101.07 165.32 100.85 165.56 100.65 165.88C100.55 166.04 100.45 166.38 100.49 166.62C100.69 166.54 100.89 166.34 101.07 165.96C101.21 165.66 101.27 165.44 101.23 165.26ZM97.17 164.6C97.17 164.48 97.23 164.28 97.37 164.18C98.43 163.3 100.53 162.68 101.91 162.68C102.59 162.68 103.33 162.76 103.61 163.04C103.69 163.12 103.69 163.48 103.55 163.48C102.45 163.48 101.57 163.5 100.53 163.8C100.13 163.92 99.49 164.12 98.95 164.34C98.61 164.48 97.93 165.14 97.63 165.14C97.41 165.14 97.17 164.82 97.17 164.6ZM100.59 161.9C100.51 161.1 100.65 159.64 100.97 158.42C101.07 158.04 101.15 157.64 101.51 157.56C101.73 157.52 102.15 157.68 102.19 157.9C102.25 158.24 101.95 159.04 101.83 159.36C101.61 160 101.55 160.9 101.35 161.86C101.31 162.06 101.09 162.14 100.99 162.16C100.77 162.2 100.59 161.98 100.59 161.9ZM112.336 169.34C112.336 169.04 112.456 168.88 112.596 168.62C112.796 168.26 113.076 167.18 113.436 166.3C113.556 166 113.676 165.7 113.776 165.44C113.936 165.06 114.236 163.92 114.356 163.54C114.456 163.18 114.656 162.48 115.076 162.48C115.396 162.48 115.636 162.8 115.596 163.18C115.556 163.64 115.056 164.82 114.936 165.24C114.816 165.74 114.056 167.7 113.816 168.3C114.196 168.14 114.296 168.08 114.516 168.02C115.036 167.86 115.196 167.76 115.816 167.68C115.956 167.66 116.336 167.66 116.356 167.86C116.396 168.08 116.336 168.32 116.176 168.36C115.556 168.54 114.916 168.88 114.376 169.08C114.076 169.18 113.596 169.44 113.336 169.58C113.076 169.72 112.976 169.74 112.836 169.76C112.576 169.8 112.336 169.62 112.336 169.34ZM111.796 165.68C111.756 165.44 111.716 164.88 111.716 164.66C111.736 164.02 111.816 163.58 111.956 163.02C112.036 162.68 112.096 162.32 112.236 162.02C112.296 161.88 112.696 161.88 112.916 161.94C113.076 161.98 113.276 162.16 113.256 162.34C113.216 162.64 113.136 162.88 112.996 163.38C112.796 164.1 112.816 164.78 112.816 165.54C112.816 165.76 112.716 165.98 112.476 166.06C112.116 166.18 111.856 166 111.796 165.68ZM110.916 161.78C110.716 161.3 111.296 160.84 111.536 160.66C112.016 160.28 112.696 159.94 113.416 159.78C113.836 159.72 114.196 159.66 114.676 159.66C115.696 159.66 116.456 159.84 116.576 159.88C116.816 159.98 116.916 160.16 116.896 160.42C116.876 160.66 116.756 160.82 116.536 160.8C115.816 160.72 115.276 160.76 114.476 160.76C113.456 160.84 112.736 161 112.056 161.56C111.916 161.66 111.816 161.86 111.596 161.98C111.176 162.22 110.936 161.82 110.916 161.78ZM119.356 172.54C119.356 171.26 120.116 169.84 120.676 168.74C120.956 168.18 121.136 168.08 121.556 168.08C121.856 168.08 122.096 168.24 122.036 168.52C121.956 168.88 121.696 169.34 121.596 169.64C121.796 169.82 122.096 169.98 122.176 170.64C122.316 171.74 121.236 173.44 120.336 173.44C119.796 173.44 119.356 172.94 119.356 172.54ZM120.516 171.84C120.496 171.9 120.456 172.3 120.576 172.26C120.936 172.14 121.396 171.4 121.396 170.8C121.396 170.72 121.376 170.38 121.236 170.3C120.956 170.62 120.716 171.14 120.516 171.84ZM116.856 163.24C116.656 163.08 116.676 162.84 116.756 162.66C116.976 162.14 118.396 161.5 118.936 161.36C119.396 161.24 119.656 161.18 120.216 161.2C120.556 161.22 120.636 161.36 120.656 161.48C120.696 161.84 120.456 162.04 120.036 162.12C119.436 162.24 118.996 162.38 118.436 162.66C118.116 162.82 117.596 163.36 117.236 163.36C117.056 163.36 116.956 163.32 116.856 163.24ZM122.636 167.34C122.376 166.74 122.376 166.4 122.376 165.74C122.376 165.34 122.376 164.84 122.456 164.42C122.516 164.08 122.556 163.68 122.676 163.3C122.436 163.6 121.776 164.1 121.276 164.46C120.196 165.24 119.496 165.56 118.236 166.12C117.856 166.3 117.216 166.62 116.696 166.5C116.396 166.42 116.216 166.04 116.336 165.72C116.376 165.66 116.416 165.58 116.636 165.52C118.016 165.18 118.976 164.64 120.096 164.02C121.276 163.38 122.456 162.38 123.156 161.32C123.316 161.06 123.416 160.46 123.496 160.16C123.516 160.06 123.656 159.96 123.776 159.96C124.356 159.96 124.536 160.28 124.476 160.66C124.436 160.92 124.376 161.18 124.296 161.48C124.196 161.82 124.036 162.18 123.936 162.52C123.776 163.06 123.696 163.38 123.576 163.96C123.536 164.18 123.436 164.62 123.436 164.84C123.376 165.72 123.396 166.42 123.256 167.28C123.236 167.42 123.076 167.5 122.956 167.5C122.836 167.5 122.696 167.48 122.636 167.34ZM134.613 168.08C134.613 167.72 134.633 166.72 134.633 166.66C134.633 166.14 134.773 164.08 134.853 163.56C134.993 162.66 135.153 161.7 135.453 160.84C135.493 160.72 135.713 160.68 135.973 160.68C136.293 160.68 136.513 160.88 136.513 161.2C136.513 161.4 136.453 161.66 136.413 161.88C136.153 162.94 135.973 163.98 135.893 165.06C135.813 165.9 135.793 166.1 135.733 166.94V167.62C136.333 167.36 136.733 167.22 137.093 167.12C137.513 167 138.293 166.74 139.033 166.68C139.493 166.64 139.513 166.94 139.393 167.14C139.353 167.22 139.233 167.28 139.173 167.32C138.833 167.48 138.573 167.6 138.193 167.76C137.393 168.1 136.413 168.48 135.733 168.96C135.733 169.08 135.693 169.66 135.693 169.78V170.3C135.693 170.46 135.713 171.14 135.733 171.22C135.773 171.54 135.973 172.06 135.553 172.12C135.333 172.16 135.013 172.12 134.873 171.76C134.813 171.6 134.753 171.36 134.713 171.08C134.673 170.72 134.633 170.34 134.633 169.92C134.633 169.82 134.613 168.54 134.613 168.08ZM128.293 170.24C128.313 169.78 128.433 169.4 128.593 168.94C128.733 168.56 129.093 167.82 129.233 167.6C129.393 167.34 129.693 166.74 130.033 166.62C130.153 166.58 130.313 166.6 130.373 166.62C130.653 166.68 130.893 166.82 130.753 167.18C130.673 167.4 130.593 167.6 130.493 167.9C130.593 167.96 130.673 168.06 130.753 168.14C131.073 168.5 131.173 168.84 131.133 169.32C131.053 170.28 130.753 170.96 129.953 171.46C129.753 171.58 129.293 171.66 129.053 171.56C128.473 171.34 128.273 170.72 128.293 170.24ZM126.273 166.98C126.093 166.8 126.093 166.46 126.233 166.26C126.333 166.1 126.873 165.68 126.993 165.58C127.533 165.24 128.033 165.06 128.553 164.88C129.293 164.62 129.953 164.48 130.673 164.38C131.193 164.36 132.173 164.26 132.793 164.38C133.173 164.42 133.293 165.06 132.613 165.14C132.053 165.2 130.733 165.28 130.013 165.48C129.333 165.62 128.993 165.82 128.233 166.18C127.973 166.3 127.653 166.46 127.433 166.66C127.113 166.94 126.993 167.14 126.593 167.1C126.473 167.1 126.353 167.04 126.273 166.98ZM128.273 162.16C128.273 160.98 128.613 159.92 128.973 158.88C129.073 158.6 129.293 158.5 129.613 158.5C129.713 158.5 130.053 158.58 130.053 158.82C130.053 159.14 130.033 159.34 129.913 159.68C129.833 159.96 129.753 160.28 129.613 160.58C129.313 161.26 129.273 162.02 129.233 162.76C129.193 163.4 129.213 163.96 128.813 163.96C128.673 163.96 128.493 163.72 128.433 163.54C128.313 163.1 128.273 162.6 128.273 162.16ZM129.433 170.2C129.433 170.26 129.413 170.48 129.453 170.58C129.553 170.58 129.713 170.52 129.793 170.42C130.153 170.02 130.213 169.8 130.293 169.24C130.333 168.94 130.273 168.74 130.173 168.56C129.853 168.88 129.493 169.64 129.433 170.2ZM147.483 169.4C147.483 168.72 147.543 168.08 147.683 167.32C147.003 167.76 146.023 168.2 145.203 168.6C144.643 168.84 144.163 169.1 143.763 169.36C143.263 169.68 143.003 170.24 142.883 171.1C142.823 171.54 141.743 171.7 141.863 170.82C141.943 170.24 142.083 169.7 142.303 169.04C142.683 167.96 142.963 166.94 143.243 165.86C143.283 165.66 143.343 165.44 143.343 165.4C143.403 165.12 143.243 164.98 143.003 164.98C142.343 164.98 141.702 165.28 141.203 165.58C140.943 165.72 140.743 165.88 140.463 165.94C140.123 166.02 139.943 165.62 139.943 165.32C139.943 164.6 142.283 164 142.943 163.96C143.943 163.9 144.563 164.14 144.523 164.96C144.463 166.1 144.003 167.08 143.723 168.16C144.183 167.98 144.603 167.76 145.023 167.56C146.243 167 147.103 166.58 147.843 166.12C148.003 165.7 148.123 165.38 148.263 164.9C148.283 164.82 148.403 164.6 148.403 164.6C148.503 164.38 149.023 164.44 149.203 164.6C149.363 164.72 149.363 165.06 149.363 165.18C149.363 165.62 149.103 165.84 149.023 166.18C148.603 167.86 148.483 169.36 148.483 171.1C148.483 171.32 148.243 171.44 148.063 171.44C147.783 171.44 147.663 171.24 147.603 171.02C147.463 170.52 147.483 169.94 147.483 169.4ZM150.763 169.1C150.763 168.82 150.763 167.92 151.103 166.42C151.243 165.88 151.343 165.5 151.463 165.06C151.623 164.34 151.783 163.64 152.043 162.98C152.103 162.82 152.203 162.64 152.343 162.56C152.683 162.38 153.323 162.56 153.323 163.14C153.323 163.42 153.243 163.5 153.083 163.72C153.083 163.72 152.983 164.02 152.963 164.06C152.383 165.76 151.943 167.38 151.683 169.1C151.623 169.5 151.562 169.7 151.143 169.7C150.883 169.7 150.763 169.48 150.763 169.1ZM167.914 168.08C167.914 167.72 167.934 166.72 167.934 166.66C167.934 166.14 168.074 164.08 168.154 163.56C168.294 162.66 168.454 161.7 168.754 160.84C168.794 160.72 169.014 160.68 169.274 160.68C169.594 160.68 169.814 160.88 169.814 161.2C169.814 161.4 169.754 161.66 169.714 161.88C169.454 162.94 169.274 163.98 169.194 165.06C169.114 165.9 169.094 166.1 169.034 166.94V167.62C169.634 167.36 170.034 167.22 170.394 167.12C170.814 167 171.594 166.74 172.334 166.68C172.794 166.64 172.814 166.94 172.694 167.14C172.654 167.22 172.534 167.28 172.474 167.32C172.134 167.48 171.874 167.6 171.494 167.76C170.694 168.1 169.714 168.48 169.034 168.96C169.034 169.08 168.994 169.66 168.994 169.78V170.3C168.994 170.46 169.014 171.14 169.034 171.22C169.074 171.54 169.274 172.06 168.854 172.12C168.634 172.16 168.314 172.12 168.174 171.76C168.114 171.6 168.054 171.36 168.014 171.08C167.974 170.72 167.934 170.34 167.934 169.92C167.934 169.82 167.914 168.54 167.914 168.08ZM161.594 170.24C161.614 169.78 161.734 169.4 161.894 168.94C162.034 168.56 162.394 167.82 162.534 167.6C162.694 167.34 162.994 166.74 163.334 166.62C163.454 166.58 163.614 166.6 163.674 166.62C163.954 166.68 164.194 166.82 164.054 167.18C163.974 167.4 163.894 167.6 163.794 167.9C163.894 167.96 163.974 168.06 164.054 168.14C164.374 168.5 164.474 168.84 164.434 169.32C164.354 170.28 164.054 170.96 163.254 171.46C163.054 171.58 162.594 171.66 162.354 171.56C161.774 171.34 161.574 170.72 161.594 170.24ZM159.574 166.98C159.394 166.8 159.394 166.46 159.534 166.26C159.634 166.1 160.174 165.68 160.294 165.58C160.834 165.24 161.334 165.06 161.854 164.88C162.594 164.62 163.254 164.48 163.974 164.38C164.494 164.36 165.474 164.26 166.094 164.38C166.474 164.42 166.594 165.06 165.914 165.14C165.354 165.2 164.034 165.28 163.314 165.48C162.634 165.62 162.294 165.82 161.534 166.18C161.274 166.3 160.954 166.46 160.734 166.66C160.414 166.94 160.294 167.14 159.894 167.1C159.774 167.1 159.654 167.04 159.574 166.98ZM161.574 162.16C161.574 160.98 161.914 159.92 162.274 158.88C162.374 158.6 162.594 158.5 162.914 158.5C163.014 158.5 163.354 158.58 163.354 158.82C163.354 159.14 163.334 159.34 163.214 159.68C163.134 159.96 163.054 160.28 162.914 160.58C162.614 161.26 162.574 162.02 162.534 162.76C162.494 163.4 162.514 163.96 162.114 163.96C161.974 163.96 161.794 163.72 161.734 163.54C161.614 163.1 161.574 162.6 161.574 162.16ZM162.734 170.2C162.734 170.26 162.714 170.48 162.754 170.58C162.854 170.58 163.014 170.52 163.094 170.42C163.454 170.02 163.514 169.8 163.594 169.24C163.634 168.94 163.574 168.74 163.474 168.56C163.154 168.88 162.794 169.64 162.734 170.2ZM176.803 171.64C176.803 170.42 177.403 169.54 177.963 168.5C178.003 168.42 178.163 168.28 178.303 168.26C178.523 168.2 179.023 168.2 179.103 168.44C179.203 168.7 178.903 169.06 178.783 169.26C178.703 169.38 178.583 169.5 178.483 169.74C178.383 169.98 178.203 170.28 178.063 170.64C177.983 170.86 177.903 171.06 177.903 171.3C177.903 171.62 178.143 171.66 178.483 171.6C179.803 171.34 180.863 170.78 182.163 170.62C182.603 170.56 182.623 171.36 182.123 171.46C181.623 171.56 178.923 172.6 178.423 172.7C178.323 172.72 178.023 172.78 177.863 172.78H177.763C177.123 172.78 176.803 172.22 176.803 171.64ZM174.403 163.9C174.403 163.38 174.583 162.72 174.703 162.3C174.803 161.96 175.363 160.64 175.543 160.34C175.663 160.12 175.963 160.12 176.143 160.12C176.483 160.12 176.623 160.32 176.623 160.52C176.623 160.62 176.543 160.84 176.543 160.84C176.063 161.78 175.563 162.9 175.483 163.68C175.823 163.64 176.243 163.54 176.603 163.46C177.303 163.3 177.823 163.14 178.383 163.02C178.783 162.94 179.003 163.16 179.043 163.36C179.103 163.64 178.943 163.74 178.803 163.82C178.603 163.92 177.923 164.18 177.603 164.28C176.803 164.52 175.863 164.84 175.243 164.84C174.503 164.84 174.403 164.44 174.403 163.9ZM173.103 167.54C173.103 167.32 173.323 167.16 173.423 167.12C175.263 166.34 177.423 166.16 179.503 166.16H180.563C181.443 166.16 182.123 166.26 182.623 166.38C183.083 166.48 183.583 166.7 183.403 167.14C183.363 167.24 183.203 167.24 183.083 167.24C182.763 167.24 182.043 167.16 181.503 167.1C181.123 167.06 180.743 167.04 180.363 167.04C178.823 167.04 176.603 167.18 175.163 167.62C174.743 167.74 174.043 168.14 173.683 168.18C173.263 168.22 173.103 167.86 173.103 167.54ZM192.192 168.28C192.092 168.5 191.952 168.76 191.632 169.42C191.532 169.62 191.232 169.7 190.972 169.58C190.912 169.58 190.712 169.46 190.712 169.2C190.712 169 190.792 168.78 190.872 168.6C190.912 168.46 191.372 167.54 191.452 167.36C191.692 166.78 192.112 166.12 192.452 165.44C192.812 164.78 193.132 163.82 193.252 163.18C192.872 163.1 192.312 163.32 191.972 163.56C191.772 163.72 191.312 164.04 190.892 164.48C190.752 164.64 190.612 164.84 190.412 164.84C190.132 164.84 189.952 164.48 189.952 164.26C189.952 163.98 190.192 163.78 190.352 163.58C190.572 163.34 190.832 163.08 191.072 162.92C191.772 162.46 192.392 162.18 193.112 162.18C193.292 162.18 193.552 162.18 193.692 162.2C194.192 162.24 194.472 162.74 194.392 163.28C194.292 163.98 194.092 164.48 193.912 164.86C193.732 165.24 193.632 165.46 193.372 165.98C193.232 166.26 193.092 166.56 193.032 166.84C193.092 167.16 193.652 168.18 194.172 168.68C194.232 168.74 194.772 169.22 194.832 169.26C195.152 169.58 195.192 169.76 195.032 170.06C194.952 170.22 194.772 170.3 194.552 170.22C194.392 170.18 194.092 169.96 193.992 169.9C193.552 169.52 193.052 168.96 192.712 168.48C192.532 168.22 192.372 167.94 192.352 167.9C192.332 167.92 192.292 168.08 192.192 168.28ZM197.272 169.66C197.212 169.44 197.212 168.66 197.192 168.5C197.172 168.34 197.092 168.22 197.112 168.04C197.352 165.94 197.672 163.92 198.132 161.8C198.192 161.56 198.252 161.26 198.592 161.26C198.972 161.26 199.212 161.5 199.212 161.88C199.212 162.34 198.992 162.74 198.912 163.12C198.632 164.36 198.412 165.7 198.332 167.02C198.972 166.72 200.472 166.28 201.372 166.24C201.372 166.24 201.712 166.22 201.852 166.26C201.992 166.3 202.052 166.38 202.012 166.58C201.972 166.76 201.712 166.92 201.312 167.04C200.632 167.24 199.372 167.68 198.912 167.94C198.492 168.18 198.272 168.52 198.272 169.04C198.272 169.6 198.452 170.14 198.452 170.68C198.452 170.9 198.192 171 198.052 171C197.432 171 197.372 170.06 197.272 169.66ZM206.139 171.64C206.139 170.42 206.739 169.54 207.299 168.5C207.339 168.42 207.499 168.28 207.639 168.26C207.859 168.2 208.359 168.2 208.439 168.44C208.539 168.7 208.239 169.06 208.119 169.26C208.039 169.38 207.919 169.5 207.819 169.74C207.719 169.98 207.539 170.28 207.399 170.64C207.319 170.86 207.239 171.06 207.239 171.3C207.239 171.62 207.479 171.66 207.819 171.6C209.139 171.34 210.199 170.78 211.499 170.62C211.939 170.56 211.959 171.36 211.459 171.46C210.959 171.56 208.259 172.6 207.759 172.7C207.659 172.72 207.359 172.78 207.199 172.78H207.099C206.459 172.78 206.139 172.22 206.139 171.64ZM203.739 163.9C203.739 163.38 203.919 162.72 204.039 162.3C204.139 161.96 204.699 160.64 204.879 160.34C204.999 160.12 205.299 160.12 205.479 160.12C205.819 160.12 205.959 160.32 205.959 160.52C205.959 160.62 205.879 160.84 205.879 160.84C205.399 161.78 204.899 162.9 204.819 163.68C205.159 163.64 205.579 163.54 205.939 163.46C206.639 163.3 207.159 163.14 207.719 163.02C208.119 162.94 208.339 163.16 208.379 163.36C208.439 163.64 208.279 163.74 208.139 163.82C207.939 163.92 207.259 164.18 206.939 164.28C206.139 164.52 205.199 164.84 204.579 164.84C203.839 164.84 203.739 164.44 203.739 163.9ZM202.439 167.54C202.439 167.32 202.659 167.16 202.759 167.12C204.599 166.34 206.759 166.16 208.839 166.16H209.899C210.779 166.16 211.459 166.26 211.959 166.38C212.419 166.48 212.919 166.7 212.739 167.14C212.699 167.24 212.539 167.24 212.419 167.24C212.099 167.24 211.379 167.16 210.839 167.1C210.459 167.06 210.079 167.04 209.699 167.04C208.159 167.04 205.939 167.18 204.499 167.62C204.079 167.74 203.379 168.14 203.019 168.18C202.599 168.22 202.439 167.86 202.439 167.54ZM223.468 177.56C223.488 176.96 223.668 176.12 223.768 175.68C223.988 174.68 224.368 173.72 224.428 172.66C224.448 172.34 224.468 172.06 224.148 171.96C224.088 171.94 223.968 171.94 223.928 171.94C223.348 171.94 222.388 172.26 221.988 172.6C221.868 172.7 221.688 172.86 221.528 172.86C221.208 172.86 221.048 172.36 221.128 172.12C221.168 171.98 221.208 171.9 221.488 171.66C221.988 171.24 223.208 170.86 223.888 170.86C224.108 170.86 224.468 170.88 224.628 170.92C225.368 171.08 225.528 171.44 225.528 172.18C225.528 173.18 225.288 174.14 225.008 175.16C224.848 175.76 224.648 176.66 224.528 177.26C224.508 177.38 224.448 177.64 224.428 177.82C224.408 178.14 223.968 178.2 223.728 178.16C223.528 178.12 223.448 177.98 223.468 177.56ZM219.668 169.36C219.628 169.1 219.908 168.92 220.108 168.76C220.608 168.38 221.028 167.58 221.248 167.04C221.488 166.44 221.628 165.94 221.948 165.32C222.028 165.16 222.288 165.1 222.508 165.12C222.848 165.14 222.908 165.42 222.908 165.64C222.908 165.98 222.648 166.52 222.508 166.82C222.308 167.24 222.168 167.52 222.008 167.88C221.908 168.08 221.728 168.42 221.548 168.66C222.528 168.46 223.728 168.24 224.748 168.18C225.508 168.14 226.108 168.14 226.728 168.3C226.948 168.4 226.888 168.92 226.668 168.96C226.428 168.98 225.368 169.06 225.168 169.08C224.868 169.12 224.128 169.2 223.788 169.26C222.608 169.44 221.428 169.76 220.248 169.98C219.948 170.04 219.708 169.78 219.668 169.36ZM218.968 161.06C218.928 160.56 218.948 160.08 218.948 159.6C218.948 159.16 218.928 158.9 218.968 158.52C218.988 158.3 219.128 158.14 219.468 158.14C219.848 158.14 220.028 158.3 220.008 158.6C219.988 158.88 219.948 159.14 219.948 159.6C219.948 159.98 219.948 160.2 219.988 160.66C219.988 160.74 220.088 160.8 220.168 160.8C220.528 160.78 221.048 160.6 221.408 160.44C221.548 160.38 221.568 160.18 221.568 160.18C221.588 160.1 221.648 159.76 221.668 159.68C221.708 159.42 221.868 158.78 221.928 158.54C221.968 158.38 222.088 158.22 222.448 158.22C222.788 158.22 222.988 158.34 222.908 158.68C222.808 159.16 222.728 159.44 222.628 159.98C222.608 160.06 222.488 160.58 222.468 160.76C222.428 161.2 222.128 163.54 222.008 164C221.868 164.54 221.408 164.86 220.868 164.86C220.008 164.86 219.408 163.7 219.268 162.92C219.208 162.54 219.028 161.76 218.968 161.06ZM220.168 162.18C220.168 162.42 220.508 163.86 220.868 163.86C221.108 163.86 221.228 163.6 221.248 163.38C221.268 163.16 221.268 162.92 221.288 162.7C221.288 162.62 221.328 162.1 221.328 162.02V161.78C221.328 161.64 221.328 161.56 221.168 161.56C220.788 161.56 220.168 161.86 220.168 162.18ZM235.168 170.02C235.108 169.44 235.128 168.86 235.168 168.28C235.248 167.14 235.428 166.06 235.668 164.94C235.788 164.38 235.928 163.06 236.488 163.06C236.788 163.06 237.168 163.28 237.148 163.56C237.108 164 236.928 164.42 236.848 164.8C236.268 167.62 236.248 167.84 236.208 168.14C236.088 169 236.068 169.8 235.988 170.68C235.968 170.88 235.708 170.88 235.628 170.88C235.308 170.88 235.208 170.44 235.168 170.02ZM228.168 169.1C228.128 168.24 228.708 167.3 229.168 166.5C229.448 166.04 229.748 165.52 229.988 165.18C230.208 164.88 230.708 164.74 231.008 165.04C231.228 165.26 231.068 165.6 230.948 165.88C231.208 166.02 231.928 166.56 231.828 167.54C231.748 168.3 231.408 168.86 230.848 169.3C230.428 169.64 229.768 169.94 229.148 169.98C228.808 170 228.208 169.8 228.168 169.1ZM230.528 166.54C230.268 166.7 229.348 168.32 229.308 168.9C229.648 168.96 230.688 168.6 230.868 167.5C230.948 167.02 230.728 166.66 230.528 166.54ZM251.158 166.18C251.178 165.62 251.218 165.04 251.298 164.46C251.418 163.42 251.538 162.52 251.878 161.44C252.038 161 252.138 160.6 252.298 160.34C252.418 160.14 252.918 160.12 253.118 160.26C253.218 160.34 253.338 160.48 253.338 160.58C253.358 160.96 253.138 161.22 253.038 161.54C252.698 162.76 252.498 164 252.258 165.38C252.198 165.8 252.098 166.26 252.058 166.62C252.038 166.88 251.858 167.26 251.638 167.22C251.158 167.12 251.138 166.48 251.158 166.18ZM251.638 171.44C251.438 171.6 251.178 171.86 250.998 172.04C250.678 172.38 250.578 172.7 250.078 172.74C249.758 172.76 249.498 172.42 249.678 172.02C249.738 171.92 249.878 171.74 249.938 171.66C251.018 170.54 252.038 169.5 253.178 168.52C253.478 168.26 254.198 168.56 254.058 169.04C253.918 169.54 252.798 170.22 252.618 170.64C252.658 171.78 253.458 172.72 253.818 173.36C253.978 173.66 254.098 174 253.878 174.04C253.638 174.1 253.378 174.06 253.178 173.88C252.938 173.66 252.638 173.28 252.458 173C252.178 172.6 251.718 171.64 251.638 171.44ZM246.018 171.64C245.778 171.82 245.458 172.08 245.198 172.36C244.878 172.68 244.858 173.14 244.438 173.2C244.018 173.28 243.838 173.04 243.838 172.72C243.838 172.46 243.898 172.26 244.118 172.04C244.958 171 246.678 169.24 247.718 168.46C247.818 168.4 248.018 168.32 248.158 168.32C248.398 168.32 248.758 168.52 248.758 168.84C248.758 169.34 246.978 170.62 247.018 171C247.078 171.4 247.838 172.36 248.338 172.78C248.578 173.02 248.338 173.44 248.098 173.4C247.098 173.22 246.438 172.2 246.018 171.64ZM243.798 166.14C243.758 165.28 244.418 164.06 244.878 163.26C245.158 162.8 245.418 162.34 245.658 162C245.878 161.68 246.378 161.68 246.618 161.96C246.698 162.04 246.778 162.34 246.598 162.68C246.538 162.78 246.498 162.86 246.418 163.04C246.678 163.14 247.218 163.58 247.158 164.46C247.138 164.86 246.998 165.46 246.418 166.16C245.918 166.76 245.398 166.98 244.778 167.02C244.438 167.04 243.838 166.84 243.798 166.14ZM245.998 163.7C245.738 163.86 244.978 165.36 244.938 165.94C245.518 165.94 246.198 165.22 246.278 164.32C246.298 164.12 246.218 163.76 245.998 163.7ZM255.91 168.62C255.79 167.86 255.97 165.24 256.31 163.76C256.37 163.5 256.41 163.02 256.97 163.02C257.21 163.02 257.51 163.28 257.45 163.6C257.35 164.12 257.25 165.18 257.13 165.68C257.03 166.14 256.95 167.12 256.93 167.76C256.91 168.14 257.13 168.26 257.35 168.18C258.49 167.82 260.25 166.92 260.99 166.74C261.17 166.7 261.27 166.8 261.33 166.92C261.39 167.08 261.35 167.34 261.13 167.52C260.91 167.72 260.65 167.88 260.39 168.04C259.95 168.32 258.01 169.28 257.11 169.46C256.61 169.56 256.01 169.24 255.91 168.62ZM262.83 171.26C262.77 171.04 262.77 169.06 262.75 168.9C262.73 168.74 262.65 168.62 262.67 168.44C262.91 166.34 263.23 163.52 263.69 161.4C263.75 161.16 263.81 160.86 264.15 160.86C264.53 160.86 264.77 161.1 264.77 161.48C264.77 161.94 264.55 162.34 264.47 162.72C264.19 163.96 263.97 166.1 263.89 167.42C264.53 167.12 266.11 166.82 266.89 166.8C266.89 166.8 267.29 166.78 267.37 166.82C267.49 166.88 267.57 166.92 267.51 167.18C267.41 167.6 265.31 167.86 264.47 168.34C264.05 168.58 263.83 168.92 263.83 169.44C263.83 170 264.01 171.74 264.01 172.28C264.01 172.5 263.75 172.6 263.61 172.6C262.99 172.6 262.93 171.66 262.83 171.26ZM268.488 168.62C268.368 167.86 268.548 165.24 268.888 163.76C268.948 163.5 268.988 163.02 269.548 163.02C269.788 163.02 270.088 163.28 270.028 163.6C269.928 164.12 269.828 165.18 269.708 165.68C269.608 166.14 269.528 167.12 269.508 167.76C269.488 168.14 269.708 168.26 269.928 168.18C271.068 167.82 272.828 166.92 273.568 166.74C273.748 166.7 273.848 166.8 273.908 166.92C273.968 167.08 273.928 167.34 273.708 167.52C273.488 167.72 273.228 167.88 272.968 168.04C272.528 168.32 270.588 169.28 269.688 169.46C269.188 169.56 268.588 169.24 268.488 168.62ZM275.688 170.68C275.628 170.1 275.728 167.94 275.768 167.36C275.848 166.22 276.048 164.34 276.288 163.22C276.408 162.66 276.548 161.34 277.108 161.34C277.408 161.34 277.788 161.56 277.768 161.84C277.728 162.28 277.548 162.7 277.468 163.08C276.928 165.86 276.848 166.92 276.808 167.22C276.688 168.08 276.588 170.46 276.508 171.34C276.488 171.54 276.228 171.54 276.148 171.54C275.828 171.54 275.728 171.1 275.688 170.68ZM53.0135 202C52.9935 201.84 53.0335 201.56 53.2135 201.52C53.2535 201.52 53.6335 201.48 53.6735 201.48C54.4535 201.4 55.1935 201.24 55.9535 201.14C56.5335 201.06 57.0935 200.96 57.6735 200.9C58.3935 200.82 60.0135 200.78 60.7535 200.78C61.0935 200.78 62.2935 200.76 62.6335 200.8C62.6735 200.8 63.0535 200.84 63.1535 200.86C63.3535 200.88 63.5335 201.04 63.4735 201.46C63.4535 201.62 63.2335 201.68 63.0735 201.68C62.9735 201.68 61.3935 201.74 61.1935 201.76C60.8735 201.78 60.5935 201.78 60.2735 201.82C59.2735 201.94 57.3135 202.04 56.3135 202.16C55.3935 202.26 54.4935 202.58 53.5735 202.58C53.1535 202.58 53.0535 202.32 53.0135 202ZM56.3935 199.94C56.5135 199.32 57.0335 198.4 57.2935 197.9C57.6335 197.22 57.8935 196.7 57.8935 196.18C57.8935 195.9 57.4535 195.78 57.1935 195.8C56.8735 195.82 56.4335 195.88 56.1335 196.02C55.8735 196.14 55.1335 196.36 54.7535 196.48C54.3535 196.6 54.0335 196.16 54.2735 195.78C54.5135 195.4 55.6735 195.04 55.9935 194.96C56.3935 194.86 56.9135 194.8 57.3335 194.8C58.1735 194.8 58.9335 195.16 58.9335 196.12C58.9335 196.94 58.6735 197.56 58.3335 198.22C58.1335 198.6 57.4935 199.82 57.1335 200.24C56.8935 200.52 56.2935 200.42 56.3935 199.94ZM64.6188 198.04C64.6188 197.88 64.6988 197.68 64.8388 197.6C65.1988 197.42 67.1988 196.88 67.5788 196.78C68.8588 196.46 70.7188 196.18 72.0388 196.18C72.3788 196.18 72.8388 196.22 73.0188 196.32C73.1588 196.38 73.1988 196.48 73.1988 196.52C73.2388 196.72 73.1388 196.9 73.0188 196.94C72.5188 197.08 72.1388 197.1 71.5188 197.14C70.7788 197.18 69.3788 197.36 68.5988 197.58C68.0988 197.74 66.0388 198.3 65.4988 198.54C65.3388 198.62 65.2388 198.66 65.0988 198.66C64.7788 198.66 64.6188 198.28 64.6188 198.04ZM66.0388 194.76C66.0188 194.68 65.9988 194.4 65.9988 194.32C65.9988 193.7 66.1788 193.34 66.4388 192.94C66.4988 192.84 66.6988 192.64 66.9388 192.64C67.3188 192.64 67.6388 192.78 67.5188 193.2C67.4388 193.54 67.1388 193.92 67.1388 194.32C68.2788 194.22 69.6388 193.68 70.6788 193.56C70.9388 193.54 71.1188 193.62 71.1188 193.9V193.98C71.1188 194.08 70.9988 194.26 70.5588 194.4C69.8788 194.68 67.8188 195.38 67.0788 195.38C66.5188 195.38 66.1988 195.24 66.0388 194.76ZM65.3788 191.74C65.3788 191.52 65.5388 191.3 65.8188 191.1C66.6188 190.52 68.3188 190.1 68.9588 190.1C69.1388 190.1 69.4188 190.12 69.5388 190.14C69.8788 190.18 69.9788 190.34 69.9788 190.56C69.9788 190.74 69.9188 190.88 69.7388 190.92C69.6188 190.94 69.2188 191 68.9588 191.06C68.3988 191.18 67.9188 191.34 67.3188 191.5C67.0388 191.58 66.8388 191.7 66.6988 191.84C66.4188 192.12 66.2388 192.28 65.9788 192.28C65.6188 192.28 65.3788 192.12 65.3788 191.74ZM67.5588 208.02C67.5988 207.16 68.9588 206.04 69.2788 205.68C69.5188 205.44 70.4788 204.4 70.8188 204.06C70.4788 204.04 70.1788 204.06 69.2388 204.06C68.5788 204.06 68.1388 203.64 68.1988 203.1C68.2788 202.38 69.8788 201.08 70.3788 200.58C70.5988 200.36 70.9988 199.96 71.0188 199.92C71.0788 199.84 71.0388 199.72 70.8988 199.74C69.9988 199.84 68.8988 200.08 68.1988 200.42C67.8788 200.58 67.5188 200.72 67.1988 200.92C66.8788 201.12 66.6588 201.3 66.3988 201.3C66.0388 201.3 65.8388 201.02 65.8388 200.76C65.8388 200.62 65.9388 200.42 66.0588 200.32C67.0188 199.5 70.2988 198.66 71.6388 198.68C72.1588 198.68 72.5788 199.02 72.5788 199.48C72.5788 200.16 71.0988 201.22 70.5588 201.78C70.2588 202.04 69.8188 202.48 69.5388 202.86C69.4788 202.94 69.4988 203.04 69.6588 203.04C70.1988 203.04 70.7388 203.04 71.3388 203.06C71.7788 203.08 72.1788 203.32 72.1988 203.68C72.2188 203.98 72.0588 204.14 71.9788 204.26C71.9588 204.28 71.5588 204.72 71.3188 204.98C70.5188 205.84 69.6588 206.72 68.9788 207.6C68.7788 207.86 68.8388 208.28 69.4588 208.22C70.4188 208.16 72.1188 207.72 73.1788 207.48C73.3988 207.44 73.5188 207.54 73.5588 207.6C73.6588 207.74 73.6788 208.08 73.3588 208.24C72.2788 208.78 69.4788 209.28 68.8388 209.28C68.0388 209.28 67.5388 208.78 67.5588 208.02ZM81.6035 202.02C81.5435 201.44 81.5635 200.86 81.6035 200.28C81.6835 199.14 81.8635 198.06 82.1035 196.94C82.2235 196.38 82.3635 195.06 82.9235 195.06C83.2235 195.06 83.6035 195.28 83.5835 195.56C83.5435 196 83.3635 196.42 83.2835 196.8C82.7035 199.62 82.6835 199.84 82.6435 200.14C82.5235 201 82.5035 201.8 82.4235 202.68C82.4035 202.88 82.1435 202.88 82.0635 202.88C81.7435 202.88 81.6435 202.44 81.6035 202.02ZM74.6035 201.1C74.5635 200.24 75.1435 199.3 75.6035 198.5C75.8835 198.04 76.1835 197.52 76.4235 197.18C76.6435 196.88 77.1435 196.74 77.4435 197.04C77.6635 197.26 77.5035 197.6 77.3835 197.88C77.6435 198.02 78.3635 198.56 78.2635 199.54C78.1835 200.3 77.8435 200.86 77.2835 201.3C76.8635 201.64 76.2035 201.94 75.5835 201.98C75.2435 202 74.6435 201.8 74.6035 201.1ZM76.9635 198.54C76.7035 198.7 75.7835 200.32 75.7435 200.9C76.0835 200.96 77.1235 200.6 77.3035 199.5C77.3835 199.02 77.1635 198.66 76.9635 198.54ZM98.3537 200.08C98.3537 199.72 98.3737 198.72 98.3737 198.66C98.3737 198.14 98.5137 196.08 98.5937 195.56C98.7337 194.66 98.8937 193.7 99.1937 192.84C99.2337 192.72 99.4537 192.68 99.7137 192.68C100.034 192.68 100.254 192.88 100.254 193.2C100.254 193.4 100.194 193.66 100.154 193.88C99.8937 194.94 99.7137 195.98 99.6337 197.06C99.5537 197.9 99.5337 198.1 99.4737 198.94V199.62C100.074 199.36 100.474 199.22 100.834 199.12C101.254 199 102.034 198.74 102.774 198.68C103.234 198.64 103.254 198.94 103.134 199.14C103.094 199.22 102.974 199.28 102.914 199.32C102.574 199.48 102.314 199.6 101.934 199.76C101.134 200.1 100.154 200.48 99.4737 200.96C99.4737 201.08 99.4337 201.66 99.4337 201.78V202.3C99.4337 202.46 99.4537 203.14 99.4737 203.22C99.5137 203.54 99.7137 204.06 99.2937 204.12C99.0737 204.16 98.7537 204.12 98.6137 203.76C98.5537 203.6 98.4937 203.36 98.4537 203.08C98.4137 202.72 98.3737 202.34 98.3737 201.92C98.3737 201.82 98.3537 200.54 98.3537 200.08ZM92.0337 202.24C92.0537 201.78 92.1737 201.4 92.3337 200.94C92.4737 200.56 92.8337 199.82 92.9737 199.6C93.1337 199.34 93.4337 198.74 93.7737 198.62C93.8937 198.58 94.0537 198.6 94.1137 198.62C94.3937 198.68 94.6337 198.82 94.4937 199.18C94.4137 199.4 94.3337 199.6 94.2337 199.9C94.3337 199.96 94.4137 200.06 94.4937 200.14C94.8137 200.5 94.9137 200.84 94.8737 201.32C94.7937 202.28 94.4937 202.96 93.6937 203.46C93.4937 203.58 93.0337 203.66 92.7937 203.56C92.2137 203.34 92.0137 202.72 92.0337 202.24ZM90.0137 198.98C89.8337 198.8 89.8337 198.46 89.9737 198.26C90.0737 198.1 90.6137 197.68 90.7337 197.58C91.2737 197.24 91.7737 197.06 92.2937 196.88C93.0337 196.62 93.6937 196.48 94.4137 196.38C94.9337 196.36 95.9137 196.26 96.5337 196.38C96.9137 196.42 97.0337 197.06 96.3537 197.14C95.7937 197.2 94.4737 197.28 93.7537 197.48C93.0737 197.62 92.7337 197.82 91.9737 198.18C91.7137 198.3 91.3937 198.46 91.1737 198.66C90.8537 198.94 90.7337 199.14 90.3337 199.1C90.2137 199.1 90.0937 199.04 90.0137 198.98ZM92.0137 194.16C92.0137 192.98 92.3537 191.92 92.7137 190.88C92.8137 190.6 93.0337 190.5 93.3537 190.5C93.4537 190.5 93.7937 190.58 93.7937 190.82C93.7937 191.14 93.7737 191.34 93.6537 191.68C93.5737 191.96 93.4937 192.28 93.3537 192.58C93.0537 193.26 93.0137 194.02 92.9737 194.76C92.9337 195.4 92.9537 195.96 92.5537 195.96C92.4137 195.96 92.2337 195.72 92.1737 195.54C92.0537 195.1 92.0137 194.6 92.0137 194.16ZM93.1737 202.2C93.1737 202.26 93.1537 202.48 93.1937 202.58C93.2937 202.58 93.4537 202.52 93.5337 202.42C93.8937 202.02 93.9537 201.8 94.0337 201.24C94.0737 200.94 94.0137 200.74 93.9137 200.56C93.5937 200.88 93.2337 201.64 93.1737 202.2ZM104.123 200.62C104.003 199.86 104.183 197.24 104.523 195.76C104.583 195.5 104.623 195.02 105.183 195.02C105.423 195.02 105.723 195.28 105.663 195.6C105.563 196.12 105.463 197.18 105.343 197.68C105.243 198.14 105.163 199.12 105.143 199.76C105.123 200.14 105.343 200.26 105.563 200.18C106.703 199.82 108.463 198.92 109.203 198.74C109.383 198.7 109.483 198.8 109.543 198.92C109.603 199.08 109.563 199.34 109.343 199.52C109.123 199.72 108.863 199.88 108.603 200.04C108.163 200.32 106.223 201.28 105.323 201.46C104.823 201.56 104.223 201.24 104.123 200.62ZM111.043 203.26C110.983 203.04 110.983 201.06 110.963 200.9C110.943 200.74 110.863 200.62 110.883 200.44C111.123 198.34 111.443 195.52 111.903 193.4C111.963 193.16 112.023 192.86 112.363 192.86C112.743 192.86 112.983 193.1 112.983 193.48C112.983 193.94 112.763 194.34 112.683 194.72C112.403 195.96 112.183 198.1 112.103 199.42C112.743 199.12 114.323 198.82 115.103 198.8C115.103 198.8 115.503 198.78 115.583 198.82C115.703 198.88 115.783 198.92 115.723 199.18C115.623 199.6 113.523 199.86 112.683 200.34C112.263 200.58 112.043 200.92 112.043 201.44C112.043 202 112.223 203.74 112.223 204.28C112.223 204.5 111.963 204.6 111.823 204.6C111.203 204.6 111.143 203.66 111.043 203.26ZM124.461 198.24C124.481 197.68 124.541 197.5 124.621 196.92C124.761 195.88 124.981 194.38 125.341 193.32C125.501 192.88 125.621 192.48 125.781 192.22C125.901 192.02 126.401 192.02 126.601 192.16C126.701 192.24 126.821 192.38 126.821 192.48C126.821 192.86 126.601 193.12 126.501 193.44C126.141 194.64 125.841 196.2 125.581 197.58C125.501 198 125.381 198.34 125.361 198.7C125.341 198.96 125.141 199.34 124.921 199.28C124.441 199.18 124.441 198.54 124.461 198.24ZM116.901 198.82C116.781 198.06 116.881 195.94 117.221 194.46C117.281 194.2 117.321 193.72 117.881 193.72C118.121 193.72 118.421 193.98 118.361 194.3C118.261 194.82 118.141 195.68 118.081 196.18C118.021 196.64 117.941 197.32 117.921 197.96C117.901 198.34 118.121 198.46 118.341 198.38C119.481 198.02 120.681 197.38 121.421 197.2C121.601 197.16 121.701 197.26 121.761 197.38C121.821 197.54 121.781 197.8 121.561 197.98C121.341 198.18 121.081 198.34 120.821 198.5C120.381 198.78 119.001 199.48 118.101 199.66C117.601 199.76 117.001 199.44 116.901 198.82ZM122.781 205.18C122.861 204.78 123.561 204.6 123.881 204.36C123.961 204.3 124.061 204.18 124.101 204.12C124.461 203.48 124.721 202.96 124.721 202.2C124.721 201.92 124.601 201.8 124.281 201.8C124.041 201.8 123.761 201.82 123.581 201.88C122.781 202.12 122.501 202.4 122.121 203C121.921 203.32 121.861 203.8 121.861 204.58C121.861 204.78 121.621 204.92 121.281 204.92C120.661 204.92 120.781 204.12 120.781 203.72C120.781 203.3 120.901 202.36 121.021 201.82C121.141 201.36 121.161 201.2 121.281 200.72C121.421 200.2 121.781 199.86 122.261 199.86C122.441 199.86 122.741 200.02 122.681 200.26C122.561 200.74 122.401 201.06 122.361 201.48C122.561 201.34 122.781 201.18 122.961 201.08C123.421 200.86 123.721 200.74 124.161 200.72C124.801 200.7 125.401 200.74 125.681 201.26C125.881 201.64 125.881 202.4 125.701 203.02C125.661 203.16 125.381 203.84 125.301 203.96C125.781 203.82 126.181 203.72 126.521 203.68C127.061 203.62 127.521 203.58 127.981 203.62C128.301 203.64 128.281 204.4 127.921 204.38C127.121 204.48 126.261 204.72 125.441 204.96C125.161 205.04 124.661 205.2 124.421 205.32C124.041 205.52 123.621 205.84 123.181 205.8C122.881 205.78 122.721 205.42 122.781 205.18ZM130.283 197.5C130.283 196.3 131.043 195.1 131.603 194.6C131.763 194.46 131.903 194.52 132.103 194.44C132.203 194.4 132.263 194.3 132.503 194.3C133.063 194.3 133.463 194.98 133.463 195.58C133.463 196.82 132.743 198.26 131.243 198.32C130.723 198.34 130.283 198.04 130.283 197.5ZM132.483 195.2C132.023 195.48 131.463 196.6 131.463 197.36C132.063 197.36 132.623 196.34 132.623 195.58C132.623 195.42 132.563 195.3 132.483 195.2ZM138.223 201.56C138.223 200.48 138.403 199.56 138.543 198.44C137.223 199.5 135.623 200.22 133.943 200.96C132.603 201.56 130.823 202.1 129.163 202.16C128.823 202.18 128.683 201.94 128.683 201.56C128.683 201.1 129.643 201.04 130.203 200.92C132.023 200.5 133.823 199.98 135.463 199.1C136.623 198.48 138.223 197.54 138.803 196.4C138.883 196.22 139.383 193.96 139.423 193.78C139.523 193.36 140.003 193.32 140.423 193.58C140.523 193.64 140.643 193.92 140.623 194.18C140.603 194.56 140.183 195.78 140.083 196.14C139.643 197.74 139.603 198.6 139.443 200.22C139.323 201.5 139.263 202.2 139.023 202.98C138.943 203.26 138.623 203.3 138.423 203.06C138.283 202.92 138.223 202.34 138.223 201.56ZM153.627 201C153.527 200.84 153.467 200.62 153.487 200.4C153.527 199.94 153.827 199.88 153.867 199.66C153.947 199.02 154.487 196.08 154.607 195.46C154.787 194.56 154.967 193.74 155.127 192.82C155.167 192.6 155.527 192.52 155.727 192.52C156.127 192.52 156.367 192.84 156.367 193.12C156.367 193.36 156.247 193.56 156.207 193.74C155.787 195.3 155.467 196.82 155.207 198.44C155.147 198.78 155.067 199.12 155.067 199.52C155.687 199.36 156.067 199.28 156.647 199.16C157.167 199.06 158.167 199 158.427 199.02C158.607 199.04 158.707 199.54 158.387 199.7C158.227 199.78 157.787 199.86 157.427 199.98C157.227 200.06 156.587 200.22 156.387 200.28C155.767 200.48 154.767 200.56 154.767 201.38V203.66C154.767 203.82 154.527 203.88 154.387 203.88C153.627 203.88 153.627 203.34 153.627 202.8V201ZM146.947 200.38C146.907 199.52 147.487 198.58 147.947 197.78C148.227 197.32 148.527 196.8 148.767 196.46C148.987 196.16 149.487 196.02 149.787 196.32C150.007 196.54 149.847 196.88 149.727 197.16C149.987 197.3 150.707 197.84 150.607 198.82C150.527 199.58 150.187 200.14 149.627 200.58C149.207 200.92 148.547 201.22 147.927 201.26C147.587 201.28 146.987 201.08 146.947 200.38ZM149.307 197.82C149.047 197.98 148.127 199.6 148.087 200.18C148.427 200.24 149.467 199.88 149.647 198.78C149.727 198.3 149.507 197.94 149.307 197.82ZM158.955 198.04C158.955 197.88 159.035 197.68 159.175 197.6C159.535 197.42 161.535 196.88 161.915 196.78C163.195 196.46 165.055 196.18 166.375 196.18C166.715 196.18 167.175 196.22 167.355 196.32C167.495 196.38 167.535 196.48 167.535 196.52C167.575 196.72 167.475 196.9 167.355 196.94C166.855 197.08 166.475 197.1 165.855 197.14C165.115 197.18 163.715 197.36 162.935 197.58C162.435 197.74 160.375 198.3 159.835 198.54C159.675 198.62 159.575 198.66 159.435 198.66C159.115 198.66 158.955 198.28 158.955 198.04ZM160.375 194.76C160.355 194.68 160.335 194.4 160.335 194.32C160.335 193.7 160.515 193.34 160.775 192.94C160.835 192.84 161.035 192.64 161.275 192.64C161.655 192.64 161.975 192.78 161.855 193.2C161.775 193.54 161.475 193.92 161.475 194.32C162.615 194.22 163.975 193.68 165.015 193.56C165.275 193.54 165.455 193.62 165.455 193.9V193.98C165.455 194.08 165.335 194.26 164.895 194.4C164.215 194.68 162.155 195.38 161.415 195.38C160.855 195.38 160.535 195.24 160.375 194.76ZM159.715 191.74C159.715 191.52 159.875 191.3 160.155 191.1C160.955 190.52 162.655 190.1 163.295 190.1C163.475 190.1 163.755 190.12 163.875 190.14C164.215 190.18 164.315 190.34 164.315 190.56C164.315 190.74 164.255 190.88 164.075 190.92C163.955 190.94 163.555 191 163.295 191.06C162.735 191.18 162.255 191.34 161.655 191.5C161.375 191.58 161.175 191.7 161.035 191.84C160.755 192.12 160.575 192.28 160.315 192.28C159.955 192.28 159.715 192.12 159.715 191.74ZM161.895 208.02C161.935 207.16 163.295 206.04 163.615 205.68C163.855 205.44 164.815 204.4 165.155 204.06C164.815 204.04 164.515 204.06 163.575 204.06C162.915 204.06 162.475 203.64 162.535 203.1C162.615 202.38 164.215 201.08 164.715 200.58C164.935 200.36 165.335 199.96 165.355 199.92C165.415 199.84 165.375 199.72 165.235 199.74C164.335 199.84 163.235 200.08 162.535 200.42C162.215 200.58 161.855 200.72 161.535 200.92C161.215 201.12 160.995 201.3 160.735 201.3C160.375 201.3 160.175 201.02 160.175 200.76C160.175 200.62 160.275 200.42 160.395 200.32C161.355 199.5 164.635 198.66 165.975 198.68C166.495 198.68 166.915 199.02 166.915 199.48C166.915 200.16 165.435 201.22 164.895 201.78C164.595 202.04 164.155 202.48 163.875 202.86C163.815 202.94 163.835 203.04 163.995 203.04C164.535 203.04 165.075 203.04 165.675 203.06C166.115 203.08 166.515 203.32 166.535 203.68C166.555 203.98 166.395 204.14 166.315 204.26C166.295 204.28 165.895 204.72 165.655 204.98C164.855 205.84 163.995 206.72 163.315 207.6C163.115 207.86 163.175 208.28 163.795 208.22C164.755 208.16 166.455 207.72 167.515 207.48C167.735 207.44 167.855 207.54 167.895 207.6C167.995 207.74 168.015 208.08 167.695 208.24C166.615 208.78 163.815 209.28 163.175 209.28C162.375 209.28 161.875 208.78 161.895 208.02ZM175.939 202.02C175.879 201.44 175.899 200.86 175.939 200.28C176.019 199.14 176.199 198.06 176.439 196.94C176.559 196.38 176.699 195.06 177.259 195.06C177.559 195.06 177.939 195.28 177.919 195.56C177.879 196 177.699 196.42 177.619 196.8C177.039 199.62 177.019 199.84 176.979 200.14C176.859 201 176.839 201.8 176.759 202.68C176.739 202.88 176.479 202.88 176.399 202.88C176.079 202.88 175.979 202.44 175.939 202.02ZM168.939 201.1C168.899 200.24 169.479 199.3 169.939 198.5C170.219 198.04 170.519 197.52 170.759 197.18C170.979 196.88 171.479 196.74 171.779 197.04C171.999 197.26 171.839 197.6 171.719 197.88C171.979 198.02 172.699 198.56 172.599 199.54C172.519 200.3 172.179 200.86 171.619 201.3C171.199 201.64 170.539 201.94 169.919 201.98C169.579 202 168.979 201.8 168.939 201.1ZM171.299 198.54C171.039 198.7 170.119 200.32 170.079 200.9C170.419 200.96 171.459 200.6 171.639 199.5C171.719 199.02 171.499 198.66 171.299 198.54ZM187.36 199.28C187.36 198.92 187.38 197.92 187.38 197.86C187.4 196.3 187.56 194.68 188.06 193.12C188.1 193 188.32 192.96 188.58 192.96C188.9 192.96 189.12 193.16 189.12 193.48C189.12 193.68 189.06 193.94 189.02 194.16C188.66 195.6 188.6 196.6 188.48 198.14V198.82C189.2 198.52 190.12 198.3 190.48 198.2C190.9 198.08 191.3 197.96 192.04 197.9C192.5 197.86 192.52 198.16 192.4 198.36C192.36 198.44 192.24 198.5 192.18 198.54C191.84 198.7 191.58 198.82 191.2 198.98C190.78 199.16 190.36 199.3 189.96 199.52C189.58 199.7 188.8 199.94 188.48 200.16C188.48 200.28 188.44 200.86 188.44 200.98V201.5C188.44 201.66 188.46 202.34 188.48 202.42C188.52 202.74 188.72 203.26 188.3 203.32C188.08 203.36 187.76 203.32 187.62 202.96C187.56 202.8 187.5 202.56 187.46 202.28C187.42 201.92 187.38 201.54 187.38 201.12C187.38 201.02 187.36 199.74 187.36 199.28ZM180.18 203.72C180.16 203.54 180.14 203.34 180.16 203.12C180.22 202.78 180.3 202.5 180.42 202.16C180.68 201.42 181.46 200.06 181.88 199.34C182.24 198.74 182.56 198.34 182.58 198.1C182.58 198.02 182.52 197.96 182.34 197.88C182.22 197.84 181.92 197.8 181.68 197.66C181.44 197.5 181.18 197.28 181.18 196.68C181.18 196.18 181.3 195.96 181.46 195.58C181.68 195.04 182.02 194.26 182.24 193.72C182.3 193.52 182.32 193.36 182.34 193.08C182.36 192.92 182.24 192.82 182.14 192.82C181.88 192.82 181.5 192.82 181.16 192.94C180.86 193.02 180.52 193.2 180.18 193.2C179.94 193.2 179.74 193.02 179.74 192.7C179.74 192.5 179.88 192.38 179.96 192.32C180.08 192.2 180.56 192 180.88 191.92C181.34 191.78 182.16 191.78 182.44 191.8C182.96 191.84 183.58 192.16 183.58 192.84C183.58 193.44 183.32 193.88 183.08 194.48C182.92 195 182.3 196.08 182.24 196.52C182.22 196.76 182.26 196.88 182.46 196.94C182.74 197.04 183.04 197.1 183.2 197.14C183.52 197.24 183.72 197.44 183.72 197.82C183.72 198.12 183.64 198.42 183.48 198.72C183.22 199.18 182.56 200.26 182.46 200.44C182.24 200.86 181.62 201.76 181.48 202.28C181.36 202.62 181.2 203.1 181.26 203.4C181.28 203.54 181.36 203.62 181.5 203.56C182.06 203.38 182.52 203.14 183.06 202.82C183.3 202.7 183.82 202.44 184.04 202.36C184.18 202.32 184.3 202.3 184.42 202.28C184.64 202.28 184.74 202.58 184.5 202.84C184.42 202.94 184.22 203.1 184.12 203.14C183.78 203.42 183.46 203.66 183.04 203.88C182.8 204.06 182.36 204.3 182.14 204.44C181.9 204.52 181.78 204.58 181.56 204.64C180.98 204.74 180.32 204.64 180.18 203.72ZM205.269 196.38C205.289 195.82 205.329 195.24 205.409 194.66C205.529 193.62 205.649 192.92 205.989 191.84C206.149 191.4 206.249 191 206.409 190.74C206.529 190.54 207.029 190.52 207.229 190.66C207.329 190.74 207.449 190.88 207.449 190.98C207.469 191.36 207.249 191.62 207.149 191.94C206.809 193.16 206.609 194.2 206.369 195.58C206.309 196 206.209 196.46 206.169 196.82C206.149 196.9 206.129 197 206.109 197.08C206.569 197.1 207.089 197.18 207.309 197.28C207.609 197.42 207.749 197.72 207.749 197.9C207.749 199.22 206.129 200.34 205.429 201.24C205.289 201.42 205.129 201.76 205.109 202C205.729 202 207.269 202.02 207.709 202.04C208.309 202.06 208.809 202.18 208.809 202.9C208.809 203.52 208.069 204.12 207.489 204.68C207.009 205.14 204.489 206.94 204.009 207.5C204.289 207.52 204.649 207.52 204.929 207.5C206.009 207.4 206.829 207.24 207.669 207.02C207.989 206.94 208.389 206.86 208.449 207.2C208.529 207.64 207.929 207.82 207.669 207.9C206.569 208.24 205.549 208.56 204.409 208.56C203.969 208.56 203.649 208.5 203.289 208.32C203.169 208.26 202.869 208 202.869 207.48C202.869 206.7 204.249 205.92 204.849 205.48C205.749 204.82 206.869 203.9 207.669 203.02H205.469C204.589 203.02 203.869 203.02 203.869 201.96C203.869 200.72 205.569 199.58 206.249 198.6C206.289 198.54 206.469 198.3 206.429 198.16C206.409 198.08 206.249 198.08 206.169 198.08C205.189 198.08 203.789 198.5 202.949 199.04C202.809 199.12 202.329 199.56 201.969 199.72C201.569 199.9 201.249 199.28 201.349 198.94C201.449 198.6 201.949 198.3 202.209 198.16C203.109 197.68 204.229 197.3 205.369 197.12C205.249 196.88 205.249 196.56 205.269 196.38ZM197.909 196.54C197.869 195.68 198.529 194.46 198.989 193.66C199.269 193.2 199.529 192.74 199.769 192.4C199.989 192.08 200.489 192.08 200.729 192.36C200.809 192.44 200.889 192.74 200.709 193.08C200.649 193.18 200.609 193.26 200.529 193.44C200.789 193.54 201.329 193.98 201.269 194.86C201.249 195.26 201.109 195.86 200.529 196.56C200.029 197.16 199.509 197.38 198.889 197.42C198.549 197.44 197.949 197.24 197.909 196.54ZM200.109 194.1C199.849 194.26 199.089 195.76 199.049 196.34C199.629 196.34 200.309 195.62 200.389 194.72C200.409 194.52 200.329 194.16 200.109 194.1ZM212.37 199.32C212.43 198.98 212.55 198.64 212.71 198.36C212.83 198.1 213.61 196.64 213.87 196.14C213.09 196.2 212.39 196.3 211.67 196.52C211.19 196.66 210.69 196.84 210.11 196.96C209.79 197.02 209.59 196.72 209.65 196.38C209.67 196.18 209.81 196.06 210.05 195.96C210.89 195.6 212.73 195.28 213.21 195.22C213.55 195.18 213.95 195.14 214.29 195.12C214.49 194.8 214.93 194 214.93 193.58C214.93 193.1 214.59 192.92 214.11 192.92C213.47 192.92 212.97 193.12 212.43 193.2C212.03 193.26 211.97 192.94 212.01 192.7C212.05 192.38 212.19 192.24 212.71 192.14C213.45 192 214.05 191.96 214.49 191.98C215.29 192.02 216.05 192.46 216.05 193.3C216.05 193.74 215.97 194.26 215.83 194.62C215.27 196.04 214.29 197.56 213.77 198.52C213.71 198.62 213.31 199.42 213.25 199.5C213.03 199.88 212.31 199.72 212.37 199.32ZM221.05 197.92C220.89 197.92 220.59 197.82 220.63 197.52C220.69 197 220.97 196.16 221.11 195.6C221.25 195.1 221.37 194.66 221.45 194.26C220.97 194.62 220.47 194.88 219.69 195.32C219.47 195.44 218.35 195.98 218.13 196.1C217.73 196.28 217.39 196.46 216.93 196.5C216.59 196.54 216.39 196.32 216.39 195.96C216.39 195.84 216.43 195.62 216.63 195.5C216.91 195.34 217.51 195.16 217.87 195.02C219.31 194.4 220.67 193.76 221.87 192.62C222.13 192.32 222.25 191.64 222.51 191.2C222.63 190.98 222.85 190.74 223.25 190.82C223.57 190.88 223.83 191.28 223.61 191.72C223.47 192.04 223.03 192.94 222.93 193.18C222.53 194.68 222.05 196.08 221.65 197.6C221.59 197.82 221.39 197.92 221.05 197.92ZM217.35 207.92C217.35 206.8 219.13 204.5 219.85 203.68C218.99 203.76 217.95 203.76 217.95 202.82C217.95 202.14 218.27 201.7 218.53 201.38C218.75 201.1 219.57 200.08 219.67 199.92C219.77 199.76 219.85 199.68 219.85 199.52C219.69 199.42 218.03 199.92 217.45 200.26C217.25 200.36 216.95 200.68 216.63 200.68C216.35 200.68 216.13 200.24 216.39 199.86C216.95 199.06 219.15 198.5 220.03 198.5C220.71 198.5 221.11 198.72 221.11 199.32C221.11 200.2 219.99 201.14 219.47 201.82C219.29 202.06 219.09 202.36 219.11 202.6C219.11 202.68 219.17 202.74 219.35 202.74C219.77 202.76 220.25 202.74 220.65 202.76C221.01 202.78 221.31 202.86 221.31 203.28C221.31 203.66 221.19 203.8 220.99 204.08C220.79 204.32 219.93 205.3 219.65 205.68C219.21 206.26 218.81 206.92 218.59 207.58C218.59 207.58 218.41 208.2 218.75 208.2C219.33 208.18 220.05 207.9 220.63 207.5C220.97 207.28 221.17 207.18 221.29 207.22C221.59 207.32 221.67 207.64 221.15 208.22C221.01 208.38 220.77 208.54 220.53 208.68C219.95 209.02 219.21 209.3 218.39 209.22C217.87 209.16 217.35 208.84 217.35 207.92ZM224.989 199.72C224.989 199.5 225.209 199.34 225.309 199.3C227.149 198.52 229.129 198.34 231.409 198.34C232.289 198.34 232.969 198.44 233.469 198.56C233.929 198.66 234.429 198.88 234.249 199.32C234.209 199.42 234.049 199.42 233.929 199.42C233.609 199.42 232.889 199.34 232.349 199.28C231.969 199.24 231.589 199.22 231.209 199.22C229.869 199.24 228.489 199.36 227.049 199.8C226.629 199.92 225.929 200.32 225.569 200.36C225.149 200.4 224.989 200.04 224.989 199.72ZM227.589 195.9C227.589 194.7 228.529 193.54 229.089 193.04C229.249 192.9 229.389 192.96 229.589 192.88C229.689 192.84 229.749 192.74 229.989 192.74C230.549 192.74 230.949 193.42 230.949 194.02C230.949 195.26 230.049 196.66 228.549 196.72C228.029 196.74 227.589 196.44 227.589 195.9ZM229.969 193.64C229.509 193.92 228.769 195 228.769 195.76C229.369 195.76 230.109 194.78 230.109 194.02C230.109 193.86 230.049 193.74 229.969 193.64ZM231.149 202.84C231.229 202.52 231.129 202.26 230.809 202.26C230.349 202.26 230.009 202.4 229.389 202.52C229.049 202.58 228.889 202.4 228.889 201.96C228.889 201.48 229.489 201.44 229.789 201.38C230.109 201.32 230.729 201.28 231.009 201.28C231.869 201.26 232.229 201.58 232.249 202.26C232.269 202.72 231.949 203.58 231.629 204.26C232.449 204.14 233.089 204.1 233.949 204.08C234.209 204.08 234.469 204.08 234.689 204.1C235.269 204.14 235.189 204.72 234.849 204.8C234.629 204.84 234.169 204.88 233.969 204.9C232.909 205 232.089 205.12 231.029 205.44C230.469 205.6 230.009 205.88 229.549 205.94C229.389 205.96 229.129 205.9 229.029 205.8C228.909 205.66 228.869 205.36 229.029 205.18C229.069 205.06 229.429 204.96 229.649 204.86C229.889 204.74 230.289 204.54 230.509 204.26C230.749 203.96 230.969 203.36 231.149 202.84ZM226.869 205.4C226.709 204.46 227.109 202.76 227.269 201.7C227.329 201.22 227.209 200.78 227.829 200.68C228.289 200.6 228.409 200.88 228.469 201.26C228.569 201.8 228.209 202.4 228.129 202.9C228.029 203.7 227.889 205.04 227.749 205.84C227.709 206.02 227.549 206.12 227.409 206.14C226.989 206.2 226.909 205.72 226.869 205.4ZM237.854 207.56C237.934 207 238.914 206.12 239.654 205.48C240.494 204.72 241.814 203.78 242.174 203.34C241.154 203.38 240.334 203.36 239.354 203.36C238.154 203.36 238.234 202.3 238.894 201.74C239.154 201.52 240.334 200.38 240.654 200.08C240.854 199.88 241.194 199.68 241.214 199.52C240.194 199.58 239.434 199.7 238.874 199.8C238.434 199.88 237.754 200.06 237.154 200.1C236.794 200.14 236.634 199.82 236.634 199.54C236.634 199.34 236.874 199.1 237.274 199C238.454 198.6 240.634 198.48 241.194 198.48C241.854 198.48 242.394 198.8 242.394 199.38C242.394 200.18 240.994 201.1 240.194 201.88C240.114 201.98 239.934 202.14 239.714 202.34C240.134 202.36 240.514 202.36 240.934 202.36C241.094 202.36 242.334 202.38 242.394 202.38C243.914 202.38 243.574 203.34 242.914 203.9C242.834 204 241.374 205.28 241.114 205.48C240.754 205.76 239.654 206.82 239.114 207.32C239.554 207.32 240.334 207.22 240.954 207.14C241.714 207.04 243.054 206.74 243.294 206.72C243.434 206.68 243.754 206.62 243.994 206.62C244.254 206.62 244.374 207.26 243.474 207.54C242.394 207.88 239.914 208.34 238.894 208.38C238.214 208.4 237.774 208.1 237.854 207.56ZM235.494 197.24C235.514 197.02 235.754 196.88 235.854 196.84C237.734 196.16 238.994 196.1 240.114 196.08C240.994 196.06 241.674 196.12 242.174 196.22C242.634 196.32 243.134 196.54 242.954 196.98C242.914 197.08 242.754 197.08 242.634 197.08C242.314 197.08 241.594 197 241.054 197C239.874 196.98 238.794 197.06 237.554 197.4C237.134 197.52 236.414 197.86 236.054 197.88C235.634 197.9 235.494 197.56 235.494 197.24ZM237.694 194.1C237.694 192.9 238.634 191.74 239.194 191.24C239.354 191.1 239.494 191.16 239.694 191.08C239.794 191.04 239.854 190.94 240.094 190.94C240.654 190.94 241.054 191.62 241.054 192.22C241.054 193.46 240.154 194.86 238.654 194.92C238.134 194.94 237.694 194.64 237.694 194.1ZM240.074 191.84C239.614 192.12 238.874 193.2 238.874 193.96C239.474 193.96 240.214 192.98 240.214 192.22C240.214 192.06 240.154 191.94 240.074 191.84ZM254.682 205.06C254.682 204.32 254.942 203.62 255.242 202.96C255.322 202.8 255.622 202.68 255.842 202.7C256.222 202.72 256.422 202.88 256.382 203.16C256.322 203.62 256.082 203.92 255.942 204.4C255.882 204.56 255.802 205.04 256.022 205.14C256.202 205.22 256.662 205.18 256.742 205.16C258.002 204.96 258.702 204.7 260.082 204.5C260.482 204.44 260.622 205.3 260.102 205.42C258.482 205.8 257.262 206.16 255.962 206.26C255.822 206.28 255.462 206.32 255.222 206.2C254.842 206.02 254.682 205.62 254.682 205.06ZM253.822 202C253.862 201.78 254.062 201.66 254.182 201.58C255.262 200.78 257.782 200.42 259.462 200.56C259.922 200.6 259.922 201.36 259.422 201.42C258.282 201.54 256.742 201.6 255.842 201.94C255.362 202.12 254.622 202.68 254.122 202.6C253.862 202.56 253.742 202.24 253.822 202ZM257.482 198.74C257.382 197.72 257.642 195.72 257.822 194.7C258.042 193.56 258.202 192.6 258.382 191.48C258.422 191.16 258.662 191.1 258.662 191.1C259.062 191.06 259.702 191.24 259.602 191.76C259.422 192.94 259.202 194.08 259.042 195.18C259.342 195.1 259.962 195.02 260.282 194.94C260.882 194.82 261.382 194.76 262.062 194.74C262.602 194.72 263.102 194.82 263.102 195.18C263.102 195.44 262.602 195.54 262.422 195.56C261.642 195.66 261.042 195.76 260.282 196C259.782 196.14 258.882 196.32 258.762 196.92C258.662 197.64 258.602 198.52 258.582 199.22C258.582 199.4 258.462 199.52 258.202 199.54C257.642 199.6 257.522 199.18 257.482 198.74ZM249.802 196.92C249.842 195.18 250.042 193.68 250.522 192.08C250.602 191.8 250.842 191.72 251.102 191.72C251.402 191.72 251.562 191.96 251.562 192.18C251.562 192.4 251.442 192.66 251.402 192.8C251.162 193.7 251.042 194.46 250.922 195.94C251.182 195.88 251.782 195.68 252.042 195.58C252.322 195.48 252.582 195.3 252.702 195.06C252.902 194.66 253.102 193.9 253.202 193.44C253.302 192.94 253.562 192.8 253.882 192.8C254.142 192.8 254.282 192.98 254.242 193.26C254.182 193.62 254.102 193.84 254.042 194.2C253.982 194.56 253.922 194.92 253.822 195.3C253.802 195.4 253.682 195.84 253.642 195.96C253.522 196.52 253.362 197.26 253.242 197.78C253.002 198.76 252.842 199.56 252.282 199.56C251.962 199.56 251.882 199.32 251.942 199.04C252.102 198.22 252.362 196.98 252.442 196.58C252.042 196.58 251.022 197.08 250.862 197.28C250.842 197.64 250.842 197.78 250.862 198.46C250.862 198.62 250.942 199.3 251.002 199.48C251.082 199.8 251.222 200.3 251.502 200.28C251.702 200.26 251.922 199.92 252.082 199.92C252.242 199.92 252.262 200.12 252.242 200.38C252.202 200.8 251.882 201.4 251.442 201.4C250.722 201.4 250.182 200.22 250.082 199.72C249.882 198.62 249.782 198.02 249.802 196.92ZM265.725 207.56C265.805 207 266.785 206.12 267.525 205.48C268.365 204.72 269.685 203.78 270.045 203.34C269.025 203.38 268.205 203.36 267.225 203.36C266.025 203.36 266.105 202.3 266.765 201.74C267.025 201.52 268.205 200.38 268.525 200.08C268.725 199.88 269.065 199.68 269.085 199.52C268.065 199.58 267.305 199.7 266.745 199.8C266.305 199.88 265.625 200.06 265.025 200.1C264.665 200.14 264.505 199.82 264.505 199.54C264.505 199.34 264.745 199.1 265.145 199C266.325 198.6 268.505 198.48 269.065 198.48C269.725 198.48 270.265 198.8 270.265 199.38C270.265 200.18 268.865 201.1 268.065 201.88C267.985 201.98 267.805 202.14 267.585 202.34C268.005 202.36 268.385 202.36 268.805 202.36C268.965 202.36 270.205 202.38 270.265 202.38C271.785 202.38 271.445 203.34 270.785 203.9C270.705 204 269.245 205.28 268.985 205.48C268.625 205.76 267.525 206.82 266.985 207.32C267.425 207.32 268.205 207.22 268.825 207.14C269.585 207.04 270.925 206.74 271.165 206.72C271.305 206.68 271.625 206.62 271.865 206.62C272.125 206.62 272.245 207.26 271.345 207.54C270.265 207.88 267.785 208.34 266.765 208.38C266.085 208.4 265.645 208.1 265.725 207.56ZM263.365 197.24C263.385 197.02 263.625 196.88 263.725 196.84C265.605 196.16 266.865 196.1 267.985 196.08C268.865 196.06 269.545 196.12 270.045 196.22C270.505 196.32 271.005 196.54 270.825 196.98C270.785 197.08 270.625 197.08 270.505 197.08C270.185 197.08 269.465 197 268.925 197C267.745 196.98 266.665 197.06 265.425 197.4C265.005 197.52 264.285 197.86 263.925 197.88C263.505 197.9 263.365 197.56 263.365 197.24ZM265.565 194.1C265.565 192.9 266.505 191.74 267.065 191.24C267.225 191.1 267.365 191.16 267.565 191.08C267.665 191.04 267.725 190.94 267.965 190.94C268.525 190.94 268.925 191.62 268.925 192.22C268.925 193.46 268.025 194.86 266.525 194.92C266.005 194.94 265.565 194.64 265.565 194.1ZM267.945 191.84C267.485 192.12 266.745 193.2 266.745 193.96C267.345 193.96 268.085 192.98 268.085 192.22C268.085 192.06 268.025 191.94 267.945 191.84ZM284.533 202.78C284.273 202.94 283.693 203.38 283.393 203.64C283.113 203.86 283.013 204.26 282.553 204.26C281.973 204.26 282.053 203.5 282.353 203.18C283.493 201.94 285.253 200.9 286.553 199.8C286.933 199.48 287.193 199.12 287.773 199.12C287.973 199.12 288.153 199.28 288.193 199.52C288.213 199.62 288.173 199.94 287.933 200.12C287.073 200.84 286.313 201.38 285.473 202.08C286.073 202.8 287.753 204.32 288.793 205.06C289.453 205.52 289.973 205.98 290.593 206.38C290.893 206.56 291.913 207.18 291.913 207.46C291.913 207.64 291.773 207.74 291.573 207.72C290.713 207.64 289.133 206.48 288.213 205.82C287.913 205.6 286.393 204.46 286.053 204.14C285.673 203.8 284.773 203.02 284.533 202.78ZM281.753 197.6C281.633 198.04 281.513 198.5 281.333 198.94C281.113 199.48 280.893 200.12 280.533 200.12C280.093 200.12 279.973 199.88 280.033 199.44C280.113 198.9 280.233 198.54 280.393 198.1C280.733 197.14 280.973 195.8 280.973 194.86C280.973 194.52 280.813 194.42 280.533 194.44C279.933 194.48 279.293 194.72 278.833 194.96C278.553 195.1 278.253 195.26 277.993 195.32C277.633 195.4 277.413 195.14 277.413 194.7C277.413 194.42 277.793 194.14 278.293 193.92C279.153 193.54 280.413 193.28 280.833 193.32C281.633 193.4 281.933 193.66 282.113 194.2C282.173 194.36 282.173 194.76 282.173 194.86C282.173 195.76 282.013 196.62 281.753 197.6ZM288.133 195.66C287.793 195.8 287.193 196.02 286.573 196.26C286.453 196.3 285.433 196.7 284.873 196.88C284.513 197 283.813 197.26 283.493 197.34C283.133 197.4 282.813 197.28 282.793 196.86C282.773 196.54 283.133 196.38 283.413 196.28C283.573 196.22 284.553 195.9 284.633 195.88C285.153 195.7 285.513 195.56 285.753 195.48C286.693 195.14 288.253 194.54 288.413 194.12C288.513 193.84 288.693 193 288.833 192.66C288.973 192.4 289.113 192.18 289.473 192.18C289.793 192.18 289.973 192.38 289.993 192.72C290.033 193.4 289.573 193.86 289.353 194.7C289.133 195.56 288.913 196.62 288.833 197.46C288.813 197.66 288.793 197.86 288.753 197.98C288.633 198.36 288.053 198.36 287.953 197.94C287.913 197.78 287.913 197.46 287.933 197.26C288.013 196.64 288.053 196.26 288.133 195.66ZM299.803 197.98C299.823 197.42 299.863 196.84 299.943 196.26C300.063 195.22 300.103 194.72 300.443 193.64C300.603 193.2 300.703 192.8 300.863 192.54C300.983 192.34 301.483 192.32 301.683 192.46C301.783 192.54 301.903 192.68 301.903 192.78C301.923 193.16 301.703 193.42 301.603 193.74C301.263 194.96 301.143 195.8 300.903 197.18C300.843 197.6 300.743 198.06 300.703 198.42C300.683 198.68 300.503 199.06 300.283 199.02C299.803 198.92 299.783 198.28 299.803 197.98ZM298.163 204.82C298.243 204.42 298.943 204.24 299.263 204C299.343 203.94 299.443 203.82 299.483 203.76C299.843 203.12 300.103 202.6 300.103 201.84C300.103 201.56 299.983 201.44 299.663 201.44C299.423 201.44 299.143 201.46 298.963 201.52C298.163 201.76 297.883 202.04 297.503 202.64C297.303 202.96 297.243 203.44 297.243 204.22C297.243 204.42 297.003 204.56 296.663 204.56C296.043 204.56 296.163 203.76 296.163 203.36C296.163 202.94 296.283 202 296.403 201.46C296.523 201 296.543 200.84 296.663 200.36C296.803 199.84 297.163 199.5 297.643 199.5C297.823 199.5 298.123 199.66 298.063 199.9C297.943 200.38 297.783 200.7 297.743 201.12C297.943 200.98 298.163 200.82 298.343 200.72C298.803 200.5 299.103 200.38 299.543 200.36C300.183 200.34 300.783 200.38 301.063 200.9C301.263 201.28 301.263 202.04 301.083 202.66C301.043 202.8 300.763 203.48 300.683 203.6C301.163 203.46 301.563 203.36 301.903 203.32C302.443 203.26 302.703 203.26 303.163 203.3C303.483 203.32 303.463 204.08 303.103 204.06C302.303 204.16 301.643 204.36 300.823 204.6C300.543 204.68 300.043 204.84 299.803 204.96C299.423 205.16 299.003 205.48 298.563 205.44C298.263 205.42 298.103 205.06 298.163 204.82ZM292.363 197.74C292.323 196.88 292.983 195.66 293.443 194.86C293.723 194.4 293.983 193.94 294.223 193.6C294.443 193.28 294.943 193.28 295.183 193.56C295.263 193.64 295.343 193.94 295.163 194.28C295.103 194.38 295.063 194.46 294.983 194.64C295.243 194.74 295.783 195.18 295.723 196.06C295.703 196.46 295.563 197.06 294.983 197.76C294.483 198.36 293.963 198.58 293.343 198.62C293.003 198.64 292.403 198.44 292.363 197.74ZM294.563 195.3C294.303 195.46 293.543 196.96 293.503 197.54C294.083 197.54 294.763 196.82 294.843 195.92C294.863 195.72 294.783 195.36 294.563 195.3ZM311.115 202.02C311.055 201.44 311.075 200.86 311.115 200.28C311.195 199.14 311.375 198.06 311.615 196.94C311.735 196.38 311.875 195.06 312.435 195.06C312.735 195.06 313.115 195.28 313.095 195.56C313.055 196 312.875 196.42 312.795 196.8C312.215 199.62 312.195 199.84 312.155 200.14C312.035 201 312.015 201.8 311.935 202.68C311.915 202.88 311.655 202.88 311.575 202.88C311.255 202.88 311.155 202.44 311.115 202.02ZM304.115 201.1C304.075 200.24 304.655 199.3 305.115 198.5C305.395 198.04 305.695 197.52 305.935 197.18C306.155 196.88 306.655 196.74 306.955 197.04C307.175 197.26 307.015 197.6 306.895 197.88C307.155 198.02 307.875 198.56 307.775 199.54C307.695 200.3 307.355 200.86 306.795 201.3C306.375 201.64 305.715 201.94 305.095 201.98C304.755 202 304.155 201.8 304.115 201.1ZM306.475 198.54C306.215 198.7 305.295 200.32 305.255 200.9C305.595 200.96 306.635 200.6 306.815 199.5C306.895 199.02 306.675 198.66 306.475 198.54ZM314.776 204.52C314.776 204.32 314.776 204.14 314.976 204.02C315.216 203.88 315.596 203.86 315.916 203.72C316.736 203.34 317.656 202.7 318.096 201.9C318.596 201.02 318.896 199.76 319.176 198.76C319.336 198.22 319.536 197.56 319.636 197.08C319.736 196.64 319.796 195.72 320.376 195.72C320.696 195.72 320.816 196.02 320.816 196.28C320.816 196.72 320.676 197.02 320.576 197.4C320.236 198.7 320.036 199.58 319.596 200.9C319.336 201.66 319.256 202.14 318.716 202.84C318.476 203.16 317.996 203.54 317.716 203.76C318.256 203.76 318.896 203.78 320.096 203.78C320.616 203.78 321.656 203.86 322.056 203.9C322.256 203.92 322.436 204.1 322.436 204.38C322.436 204.6 322.296 204.66 322.036 204.64C321.416 204.64 320.436 204.68 319.596 204.68C318.876 204.68 318.176 204.68 317.356 204.72C316.716 204.84 316.036 204.96 315.416 204.96C315.156 204.96 314.776 204.84 314.776 204.52ZM315.336 201.14C315.336 200.28 315.736 199.26 315.976 198.44C316.056 198.2 316.116 197.94 316.416 197.94C316.736 197.94 317.076 198.12 317.076 198.44C317.076 198.94 316.796 199.32 316.636 199.82C316.476 200.3 316.256 200.96 316.256 201.46C316.256 201.78 316.376 201.96 316.376 202.22C316.376 202.46 316.276 202.52 316.096 202.52C315.416 202.52 315.336 201.66 315.336 201.14ZM315.696 195.8C315.696 194.6 316.636 193.44 317.196 192.94C317.356 192.8 317.496 192.86 317.696 192.78C317.796 192.74 317.856 192.64 318.096 192.64C318.656 192.64 319.056 193.32 319.056 193.92C319.056 195.16 318.156 196.56 316.656 196.62C316.136 196.64 315.696 196.34 315.696 195.8ZM318.076 193.54C317.616 193.82 316.876 194.9 316.876 195.66C317.476 195.66 318.216 194.68 318.216 193.92C318.216 193.76 318.156 193.64 318.076 193.54Z" fill="white"/>
<path d="M161.502 229.896C161.934 229.56 162.078 229.48 162.542 229.224C162.574 229.016 162.638 228.712 162.702 228.44C162.83 227.672 162.99 227.224 163.07 226.408C163.102 226.056 162.91 225.928 162.622 225.944C162.142 225.976 161.438 226.184 161.102 226.792C161.07 226.856 161.006 227.272 161.022 227.528C161.054 227.992 161.07 228.296 161.086 228.712C161.102 229.112 160.798 229.128 160.686 229.128C160.35 229.128 160.206 228.648 160.174 228.424C160.158 228.328 160.126 228.072 160.126 228.024C160.078 227.528 160.046 227.048 160.11 226.536C160.19 225.832 160.286 225.128 160.558 224.472C160.638 224.248 160.99 224.216 161.214 224.312C161.39 224.36 161.438 224.536 161.406 224.664C161.374 224.824 161.342 224.92 161.278 225.064C161.214 225.256 161.182 225.304 161.15 225.512C161.742 225.208 162.19 225.032 162.814 224.984C163.438 224.936 163.998 225.304 163.95 225.944C163.854 227.08 163.742 227.608 163.582 228.376C163.534 228.568 163.502 228.712 163.502 228.84C163.758 228.744 163.966 228.68 164.046 228.648C164.494 228.472 165.15 228.2 165.358 228.152C165.646 228.088 165.71 228.424 165.598 228.552C165.406 228.744 163.934 229.464 163.742 229.56C163.342 229.752 163.15 229.88 162.718 230.104C162.558 230.2 162.094 230.504 161.902 230.584C161.598 230.664 161.214 230.136 161.502 229.896ZM167.262 230.008C167.214 229.832 167.214 229.208 167.198 229.08C167.182 228.952 167.118 228.856 167.134 228.712C167.326 227.032 167.582 225.416 167.95 223.72C167.998 223.528 168.046 223.288 168.318 223.288C168.622 223.288 168.814 223.48 168.814 223.784C168.814 224.152 168.638 224.472 168.574 224.776C168.35 225.768 168.174 226.84 168.11 227.896C168.622 227.656 169.566 227.416 170.19 227.4C170.19 227.4 170.51 227.384 170.574 227.416C170.67 227.464 170.734 227.496 170.686 227.704C170.606 228.04 169.246 228.248 168.574 228.632C168.238 228.824 168.062 229.096 168.062 229.512C168.062 229.96 168.206 230.392 168.206 230.824C168.206 231 167.998 231.08 167.886 231.08C167.39 231.08 167.342 230.328 167.262 230.008ZM171.645 230.072C171.629 229.368 171.661 228.6 171.821 227.736C171.901 227.272 171.917 226.696 172.029 226.296C172.045 226.232 172.125 225.992 172.269 225.912C172.557 225.736 172.941 225.896 172.893 226.296C172.845 226.744 172.717 227.528 172.653 228.008C172.829 227.944 173.341 227.704 173.405 227.672C173.789 227.48 174.333 227.208 174.733 227.032C174.957 226.936 175.261 226.792 175.549 226.792C175.741 226.792 175.805 226.984 175.789 227.144C175.773 227.256 175.677 227.352 175.549 227.432C175.213 227.624 174.925 227.768 174.541 227.96C174.157 228.152 173.261 228.568 172.829 228.808C172.637 228.92 172.557 229.032 172.525 229.32C172.493 229.576 172.493 229.928 172.509 230.184C172.541 230.632 172.813 230.728 173.069 230.6C173.485 230.392 174.157 229.992 174.541 229.704C174.605 229.656 174.749 229.576 174.909 229.608C175.053 229.64 175.133 229.752 175.117 229.88C175.101 230.088 174.861 230.248 174.621 230.44C174.365 230.632 173.741 230.984 173.453 231.144C173.181 231.304 172.909 231.432 172.621 231.432C171.885 231.432 171.661 230.792 171.645 230.072ZM171.325 224.44C171.421 224.328 171.645 224.12 171.693 224.088C172.077 223.8 172.413 223.56 172.829 223.432C173.405 223.256 173.805 223.272 174.157 223.32C174.845 223.416 175.069 223.576 175.069 223.864C175.069 224.072 174.941 224.152 174.749 224.152C174.445 224.152 174.173 224.104 173.885 224.104C173.725 224.104 173.405 224.136 173.165 224.216C172.877 224.312 172.461 224.52 172.269 224.696C172.061 224.888 171.885 225.096 171.629 225.128C171.165 225.128 171.133 224.664 171.325 224.44ZM177.053 230.168C176.877 229.56 176.781 229.032 176.717 228.36C176.701 228.2 176.685 227.784 176.685 227.704V227.192C176.685 226.088 176.877 224.968 177.277 223.864C177.309 223.752 177.341 223.624 177.485 223.56C177.709 223.448 178.125 223.576 178.237 223.816C178.237 223.928 178.237 224.024 178.173 224.136C177.853 225.112 177.597 226.12 177.597 227.224C177.597 227.352 177.613 227.816 177.661 228.056C177.869 227.976 178.093 227.864 178.253 227.784C178.461 227.672 178.957 227.464 179.181 227.352C179.517 227.176 179.901 227.048 180.317 227.096C180.621 227.128 180.589 227.464 180.493 227.608L180.461 227.64C180.205 227.8 179.853 227.928 179.549 228.088C179.117 228.328 177.821 228.888 177.773 229.272C177.853 229.768 177.949 229.944 177.981 230.12C178.013 230.392 177.709 230.488 177.469 230.472C177.261 230.472 177.149 230.36 177.053 230.168ZM181.005 229.224C180.925 228.92 180.861 228.648 180.845 228.28C180.829 228.184 180.861 227.704 180.877 227.576C180.973 226.776 181.197 226.056 181.309 225.272C181.341 225.192 181.421 225.112 181.501 225.08C181.789 224.936 182.141 225.08 182.221 225.432C182.237 225.528 182.205 225.736 182.109 226.056C182.093 226.152 181.965 226.648 181.901 227.096C181.709 228.184 181.677 228.36 181.661 228.504C181.661 228.84 181.741 229.368 181.341 229.48H181.309C181.181 229.496 181.053 229.368 181.005 229.224ZM187.204 236.648C187.22 236.168 187.364 235.496 187.444 235.144C187.62 234.344 187.924 233.576 187.972 232.728C187.988 232.472 188.004 232.248 187.748 232.168C187.7 232.152 187.604 232.152 187.572 232.152C187.108 232.152 186.34 232.408 186.02 232.68C185.924 232.76 185.78 232.888 185.652 232.888C185.396 232.888 185.268 232.488 185.332 232.296C185.364 232.184 185.396 232.12 185.62 231.928C186.02 231.592 186.996 231.288 187.54 231.288C187.716 231.288 188.004 231.304 188.132 231.336C188.724 231.464 188.852 231.752 188.852 232.344C188.852 233.144 188.66 233.912 188.436 234.728C188.308 235.208 188.148 235.928 188.052 236.408C188.036 236.504 187.988 236.712 187.972 236.856C187.956 237.112 187.604 237.16 187.412 237.128C187.252 237.096 187.188 236.984 187.204 236.648ZM184.164 230.088C184.132 229.88 184.356 229.736 184.516 229.608C184.916 229.304 185.252 228.664 185.428 228.232C185.62 227.752 185.732 227.352 185.988 226.856C186.052 226.728 186.26 226.68 186.436 226.696C186.708 226.712 186.756 226.936 186.756 227.112C186.756 227.384 186.548 227.816 186.436 228.056C186.276 228.392 186.164 228.616 186.036 228.904C185.956 229.064 185.812 229.336 185.668 229.528C186.452 229.368 187.412 229.192 188.228 229.144C188.836 229.112 189.316 229.112 189.812 229.24C189.988 229.32 189.94 229.736 189.764 229.768C189.572 229.784 188.724 229.848 188.564 229.864C188.324 229.896 187.732 229.96 187.46 230.008C186.516 230.152 185.572 230.408 184.628 230.584C184.388 230.632 184.196 230.424 184.164 230.088ZM183.604 223.448C183.572 223.048 183.588 222.664 183.588 222.28C183.588 221.928 183.572 221.72 183.604 221.416C183.62 221.24 183.732 221.112 184.004 221.112C184.308 221.112 184.452 221.24 184.436 221.48C184.42 221.704 184.388 221.912 184.388 222.28C184.388 222.584 184.388 222.76 184.42 223.128C184.42 223.192 184.5 223.24 184.564 223.24C184.852 223.224 185.268 223.08 185.556 222.952C185.668 222.904 185.684 222.744 185.684 222.744C185.7 222.68 185.748 222.408 185.764 222.344C185.796 222.136 185.924 221.624 185.972 221.432C186.004 221.304 186.1 221.176 186.388 221.176C186.66 221.176 186.82 221.272 186.756 221.544C186.676 221.928 186.612 222.152 186.532 222.584C186.516 222.648 186.42 223.064 186.404 223.208C186.372 223.56 186.132 225.432 186.036 225.8C185.924 226.232 185.556 226.488 185.124 226.488C184.436 226.488 183.956 225.56 183.844 224.936C183.796 224.632 183.652 224.008 183.604 223.448ZM184.564 224.344C184.564 224.536 184.836 225.688 185.124 225.688C185.316 225.688 185.412 225.48 185.428 225.304C185.444 225.128 185.444 224.936 185.46 224.76C185.46 224.696 185.492 224.28 185.492 224.216V224.024C185.492 223.912 185.492 223.848 185.364 223.848C185.06 223.848 184.564 224.088 184.564 224.344ZM190.788 228.776C190.788 228.6 190.964 228.472 191.044 228.44C192.516 227.816 194.1 227.672 195.924 227.672C196.628 227.672 197.172 227.752 197.572 227.848C197.94 227.928 198.34 228.104 198.196 228.456C198.164 228.536 198.036 228.536 197.94 228.536C197.684 228.536 197.108 228.472 196.676 228.424C196.372 228.392 196.068 228.376 195.764 228.376C194.692 228.392 193.588 228.488 192.436 228.84C192.1 228.936 191.54 229.256 191.252 229.288C190.916 229.32 190.788 229.032 190.788 228.776ZM192.868 225.72C192.868 224.76 193.62 223.832 194.068 223.432C194.196 223.32 194.308 223.368 194.468 223.304C194.548 223.272 194.596 223.192 194.788 223.192C195.236 223.192 195.556 223.736 195.556 224.216C195.556 225.208 194.836 226.328 193.636 226.376C193.22 226.392 192.868 226.152 192.868 225.72ZM194.772 223.912C194.404 224.136 193.812 225 193.812 225.608C194.292 225.608 194.884 224.824 194.884 224.216C194.884 224.088 194.836 223.992 194.772 223.912ZM195.716 231.272C195.78 231.016 195.7 230.808 195.444 230.808C195.076 230.808 194.804 230.92 194.308 231.016C194.036 231.064 193.908 230.92 193.908 230.568C193.908 230.184 194.388 230.152 194.628 230.104C194.884 230.056 195.38 230.024 195.604 230.024C196.292 230.008 196.58 230.264 196.596 230.808C196.612 231.176 196.356 231.864 196.1 232.408C196.756 232.312 197.268 232.28 197.956 232.264C198.164 232.264 198.372 232.264 198.548 232.28C199.012 232.312 198.948 232.776 198.676 232.84C198.5 232.872 198.132 232.904 197.972 232.92C197.124 233 196.468 233.096 195.62 233.352C195.172 233.48 194.804 233.704 194.436 233.752C194.308 233.768 194.1 233.72 194.02 233.64C193.924 233.528 193.892 233.288 194.02 233.144C194.052 233.048 194.34 232.968 194.516 232.888C194.708 232.792 195.028 232.632 195.204 232.408C195.396 232.168 195.572 231.688 195.716 231.272ZM192.292 233.32C192.164 232.568 192.484 231.208 192.612 230.36C192.66 229.976 192.564 229.624 193.06 229.544C193.428 229.48 193.524 229.704 193.572 230.008C193.652 230.44 193.364 230.92 193.3 231.32C193.22 231.96 193.108 233.032 192.996 233.672C192.964 233.816 192.836 233.896 192.724 233.912C192.388 233.96 192.324 233.576 192.292 233.32ZM203.328 234.424C203.328 234.248 203.488 234.088 203.6 233.992C204.288 233.304 205.728 232.008 206.176 230.952C206.224 230.84 206.272 230.616 206.272 230.536C206.224 229.88 204.784 229.704 204.144 229C203.728 228.536 203.504 227.672 203.408 227.096C203.392 226.984 203.344 226.312 203.296 226.2C203.216 226.024 203.152 225.784 203.152 225.608C203.152 225.464 203.248 225.4 203.264 225.24C203.296 224.968 203.28 224.68 203.28 224.408C203.28 224.104 203.312 223.544 203.36 223.208C203.408 222.824 203.52 222.456 203.824 222.376C204.048 222.312 204.288 222.392 204.416 222.6C204.48 222.696 204.432 222.936 204.384 223.064C204.208 223.576 204.224 224.232 204.224 224.776C204.224 224.824 204.224 225.08 204.24 225.256C204.416 225.288 205.056 225.288 205.28 225.288C205.568 225.288 206.88 225.368 207.28 225.416C207.456 225.432 207.552 225.576 207.552 225.736C207.552 225.928 207.44 226.056 207.2 226.056C206.384 226.056 205.072 226.12 204.256 226.136C204.32 227.016 204.432 227.992 204.848 228.424C205.152 228.744 205.504 229.016 206.016 229.24C206.624 229.512 207.28 229.96 207.232 230.712C207.184 231.448 206.56 232.216 205.952 232.936C205.696 233.24 204.88 233.976 204.592 234.232C204.368 234.424 204.032 234.648 203.744 234.68C203.504 234.712 203.328 234.68 203.328 234.424ZM209.097 225.048C209.017 224.776 209.177 224.376 209.497 224.312C210.025 224.2 210.425 224.536 210.521 225C210.617 225.4 210.473 225.688 210.121 225.752C209.545 225.88 209.241 225.528 209.097 225.048ZM209.097 230.168C209.017 229.896 209.177 229.496 209.497 229.432C210.025 229.32 210.425 229.656 210.521 230.12C210.617 230.52 210.473 230.808 210.121 230.872C209.545 231 209.241 230.648 209.097 230.168ZM214.502 233C214.63 232.472 214.662 232.04 214.758 231.416C214.854 230.808 214.854 230.2 214.918 229.528C214.998 228.776 215.03 228.04 215.03 227.176C214.774 227.432 214.47 227.72 214.166 227.928C213.798 228.184 213.366 228.376 212.774 228.248C212.454 228.184 212.214 227.896 212.134 227.416C212.022 226.792 212.182 226.072 212.23 225.832C212.358 225.128 213.334 223.048 214.47 223.048C215.766 223.048 215.942 224.408 215.926 225.88V227.064C215.926 227.816 215.926 228.616 215.846 229.368C215.798 229.88 215.67 230.952 215.59 231.416C215.526 231.832 215.446 232.488 215.27 232.856C215.174 233.08 214.998 233.432 214.662 233.384C214.502 233.368 214.454 233.224 214.502 233ZM213.078 227.352C213.366 227.544 214.55 226.776 214.95 226.312C214.966 225.976 214.966 225.544 214.934 225.048C214.902 224.584 214.79 223.896 214.47 223.912C213.91 223.944 213.462 225.032 213.238 225.672C212.998 226.344 212.854 227.192 213.078 227.352Z" fill="white"/>
<line x1="52" y1="303" x2="52" y2="318" stroke="white"/>
<line x1="59" y1="311" x2="44" y2="311" stroke="white"/>
<line x1="316.852" y1="104" x2="316.852" y2="129" stroke="white" stroke-width="0.704887"/>
<line x1="329" y1="116.852" x2="304" y2="116.852" stroke="white" stroke-width="0.704887"/>
<defs>
<radialGradient id="paint0_radial_441_751" cx="0" cy="0" r="1" gradientUnits="userSpaceOnUse" gradientTransform="translate(187.5 197) rotate(90) scale(85.4617 187.5)">
<stop stop-color="#D2D2D2" stop-opacity="0.4"/>
<stop offset="1" stop-color="#2C2C2C" stop-opacity="0.13"/>
</radialGradient>
</defs>
</svg>
